<svg width="24" height="24" viewBox="0 0 24 24" fill="none" xmlns="http://www.w3.org/2000/svg">
<mask id="mask0_3349_50478" style="mask-type:alpha" maskUnits="userSpaceOnUse" x="0" y="3" width="24" height="18">
<path d="M21.7143 3H2.28571C1.02335 3 0 4.02335 0 5.28571V17.8571C0 19.1195 1.02335 20.1429 2.28571 20.1429H21.7143C22.9767 20.1429 24 19.1195 24 17.8571V5.28571C24 4.02335 22.9767 3 21.7143 3Z" fill="white"/>
</mask>
<g mask="url(#mask0_3349_50478)">
<path d="M21.7143 3H2.28571C1.02335 3 0 4.02335 0 5.28571V17.8571C0 19.1195 1.02335 20.1429 2.28571 20.1429H21.7143C22.9767 20.1429 24 19.1195 24 17.8571V5.28571C24 4.02335 22.9767 3 21.7143 3Z" fill="#3D87E0"/>
<path fill-rule="evenodd" clip-rule="evenodd" d="M5.12571 8.12571C6.12 8.06285 6.85714 7.83999 6.85714 7.57142C6.85714 7.30399 6.12 7.07999 5.12571 7.01713C5.06286 6.02285 4.84 5.28571 4.57143 5.28571C4.304 5.28571 4.08 6.02285 4.01714 7.01713C3.02286 7.07999 2.28571 7.30285 2.28571 7.57142C2.28571 7.83885 3.02286 8.06285 4.01714 8.12571C4.08 9.11999 4.30286 9.85713 4.57143 9.85713C4.83886 9.85713 5.06286 9.11999 5.12571 8.12571Z" fill="#D4062F"/>
<path fill-rule="evenodd" clip-rule="evenodd" d="M5.12572 8.12572C6.12 8.06287 6.85714 7.84001 6.85714 7.57144C6.85714 7.30401 6.12 7.08001 5.12572 7.01715C5.06286 6.02287 4.84 5.28572 4.57143 5.28572C4.304 5.28572 4.08 6.02287 4.01714 7.01715C3.02286 7.08001 2.28572 7.30287 2.28572 7.57144C2.28572 7.83887 3.02286 8.06287 4.01714 8.12572C4.08 9.12001 4.30286 9.85715 4.57143 9.85715C4.83886 9.85715 5.06286 9.12001 5.12572 8.12572ZM5.16 8.69715L5.69714 8.16001C5.61143 9.52915 5.32572 10.4286 4.57143 10.4286C3.81714 10.4286 3.53143 9.52801 3.44686 8.16115L3.98172 8.69601C2.61486 8.61144 1.71429 8.32572 1.71429 7.57144C1.71429 6.81715 2.61486 6.53144 3.98172 6.44687L3.44686 6.98172C3.53143 5.61487 3.81714 4.71429 4.57143 4.71429C5.32572 4.71429 5.61143 5.61487 5.696 6.98172L5.16114 6.44687C6.528 6.53144 7.42857 6.81715 7.42857 7.57144C7.42857 8.32572 6.528 8.61144 5.16114 8.69601L5.16 8.69715Z" fill="white"/>
<path fill-rule="evenodd" clip-rule="evenodd" d="M0 13.2857H24V14.4286H0V13.2857ZM0 15.5714H24V16.7143H0V15.5714Z" fill="#FAD800"/>
<path d="M21.7143 3.57144H2.28571C1.33894 3.57144 0.571426 4.33895 0.571426 5.28573V17.8572C0.571426 18.8039 1.33894 19.5714 2.28571 19.5714H21.7143C22.6611 19.5714 23.4286 18.8039 23.4286 17.8572V5.28573C23.4286 4.33895 22.6611 3.57144 21.7143 3.57144Z" stroke="black" stroke-opacity="0.1"/>
</g>
</svg>
