<svg width="24" height="24" viewBox="0 0 24 24" fill="none" xmlns="http://www.w3.org/2000/svg">
<mask id="mask0_3349_50407" style="mask-type:alpha" maskUnits="userSpaceOnUse" x="0" y="3" width="24" height="18">
<path d="M21.7143 3H2.28571C1.02335 3 0 4.02335 0 5.28571V17.8571C0 19.1195 1.02335 20.1429 2.28571 20.1429H21.7143C22.9767 20.1429 24 19.1195 24 17.8571V5.28571C24 4.02335 22.9767 3 21.7143 3Z" fill="white"/>
</mask>
<g mask="url(#mask0_3349_50407)">
<path d="M21.7143 3H2.28571C1.02335 3 0 4.02335 0 5.28571V17.8571C0 19.1195 1.02335 20.1429 2.28571 20.1429H21.7143C22.9767 20.1429 24 19.1195 24 17.8571V5.28571C24 4.02335 22.9767 3 21.7143 3Z" fill="#C10000"/>
<path fill-rule="evenodd" clip-rule="evenodd" d="M0 3H8V20.1429H0V3Z" fill="black"/>
<path fill-rule="evenodd" clip-rule="evenodd" d="M16 3H24V20.1429H16V3Z" fill="#009B00"/>
<path fill-rule="evenodd" clip-rule="evenodd" d="M12 14.4286C13.5771 14.4286 14.8571 13.1486 14.8571 11.5714C14.8571 9.99429 13.5771 8.71429 12 8.71429C10.4229 8.71429 9.14286 9.99429 9.14286 11.5714C9.14286 13.1486 10.4229 14.4286 12 14.4286ZM12 13.2857C12.9463 13.2857 13.7143 12.2629 13.7143 11C13.7143 9.73715 12.9463 8.71429 12 8.71429C11.0537 8.71429 10.2857 9.73715 10.2857 11C10.2857 12.2629 11.0537 13.2857 12 13.2857ZM12 12.1429C12.3154 12.1429 12.5714 11.6309 12.5714 11C12.5714 10.3692 12.3154 9.85715 12 9.85715C11.6846 9.85715 11.4286 10.3692 11.4286 11C11.4286 11.6309 11.6846 12.1429 12 12.1429Z" fill="white"/>
<path d="M21.7143 3.57144H2.28572C1.33894 3.57144 0.57143 4.33895 0.57143 5.28573V17.8572C0.57143 18.8039 1.33894 19.5714 2.28572 19.5714H21.7143C22.6611 19.5714 23.4286 18.8039 23.4286 17.8572V5.28573C23.4286 4.33895 22.6611 3.57144 21.7143 3.57144Z" stroke="black" stroke-opacity="0.1"/>
</g>
</svg>
