<svg width="24" height="24" viewBox="0 0 24 24" fill="none" xmlns="http://www.w3.org/2000/svg">
<mask id="mask0_3349_50450" style="mask-type:alpha" maskUnits="userSpaceOnUse" x="0" y="3" width="24" height="18">
<path d="M21.7143 3H2.28571C1.02335 3 0 4.02335 0 5.28571V17.8571C0 19.1195 1.02335 20.1429 2.28571 20.1429H21.7143C22.9767 20.1429 24 19.1195 24 17.8571V5.28571C24 4.02335 22.9767 3 21.7143 3Z" fill="white"/>
</mask>
<g mask="url(#mask0_3349_50450)">
<path d="M21.7143 3H2.28571C1.02335 3 0 4.02335 0 5.28571V17.8571C0 19.1195 1.02335 20.1429 2.28571 20.1429H21.7143C22.9767 20.1429 24 19.1195 24 17.8571V5.28571C24 4.02335 22.9767 3 21.7143 3Z" fill="#D0091E"/>
<path fill-rule="evenodd" clip-rule="evenodd" d="M0 12.1429H24V20.1429H0V12.1429Z" fill="black"/>
<path fill-rule="evenodd" clip-rule="evenodd" d="M15.2114 13.9554C15.7074 13.2903 16 12.4652 16 11.5714C16 9.89487 14.968 8.45944 13.5051 7.86401L12.8137 8.83201C13.9954 9.18287 14.8571 10.2766 14.8571 11.5714C14.8571 12.2503 14.6206 12.8743 14.2251 13.3634L10.2857 11L13.3669 14.0812C12.9611 14.3029 12.4949 14.4286 12 14.4286C11.04 14.4286 10.1909 13.9554 9.67315 13.2286L8.98172 14.1966C9.71429 15.0389 10.7943 15.5714 12 15.5714C12.8114 15.5714 13.568 15.3292 14.1989 14.9132L14.8571 15.5714L16 14.4286L15.2114 13.9554ZM10.2857 8.7143H11.4286V9.85716H10.2857V8.7143Z" fill="#FAD800"/>
<path d="M21.7143 3.57144H2.28571C1.33894 3.57144 0.571426 4.33895 0.571426 5.28573V17.8572C0.571426 18.8039 1.33894 19.5714 2.28571 19.5714H21.7143C22.6611 19.5714 23.4286 18.8039 23.4286 17.8572V5.28573C23.4286 4.33895 22.6611 3.57144 21.7143 3.57144Z" stroke="black" stroke-opacity="0.1"/>
</g>
</svg>
