<svg width="24" height="24" viewBox="0 0 24 24" fill="none" xmlns="http://www.w3.org/2000/svg">
<mask id="mask0_3545_2850" style="mask-type:alpha" maskUnits="userSpaceOnUse" x="0" y="3" width="24" height="18">
<path d="M21.7143 3H2.28571C1.02335 3 0 4.02335 0 5.28571V17.8571C0 19.1195 1.02335 20.1429 2.28571 20.1429H21.7143C22.9767 20.1429 24 19.1195 24 17.8571V5.28571C24 4.02335 22.9767 3 21.7143 3Z" fill="white"/>
</mask>
<g mask="url(#mask0_3545_2850)">
<path d="M21.7143 3H2.28571C1.02335 3 0 4.02335 0 5.28571V17.8571C0 19.1195 1.02335 20.1429 2.28571 20.1429H21.7143C22.9767 20.1429 24 19.1195 24 17.8571V5.28571C24 4.02335 22.9767 3 21.7143 3Z" fill="#00008E"/>
<path d="M10.2857 4.14285H2.28568C1.6545 4.14285 1.14282 4.65453 1.14282 5.28571V11C1.14282 11.6312 1.6545 12.1429 2.28568 12.1429H10.2857C10.9169 12.1429 11.4285 11.6312 11.4285 11V5.28571C11.4285 4.65453 10.9169 4.14285 10.2857 4.14285Z" fill="white"/>
<path fill-rule="evenodd" clip-rule="evenodd" d="M5.71434 8.71428H2.28577V7.57142H5.71434V5.28571H6.8572V7.57142H10.2858V8.71428H6.8572V11H5.71434V8.71428ZM8.57148 9.85713V11H10.2858V9.85713H8.57148ZM8.57148 5.28571V6.42856H10.2858V5.28571H8.57148ZM2.28577 9.85713V11H4.00005V9.85713H2.28577ZM2.28577 5.28571V6.42856H4.00005V5.28571H2.28577Z" fill="#FF0000"/>
<path d="M21.7143 3.57144H2.2857C1.33892 3.57144 0.571411 4.33895 0.571411 5.28573V17.8572C0.571411 18.8039 1.33892 19.5714 2.2857 19.5714H21.7143C22.661 19.5714 23.4286 18.8039 23.4286 17.8572V5.28573C23.4286 4.33895 22.661 3.57144 21.7143 3.57144Z" stroke="black" stroke-opacity="0.1"/>
<path d="M18.7692 16.0385C18.7692 16.0385 22 11.7321 22 8L20.5 9.06633L18.7692 8.57418L17 9.06633L15 8C15 12.2653 18.7692 16.0385 18.7692 16.0385Z" fill="white"/>
<path d="M21 12.7985H16L18.8571 15.9974L21 12.7985Z" fill="#99CCFF"/>
<path d="M18.7692 16.0385C18.7692 16.0385 22 12.7985 22 8C22 8 21.2001 8.98713 20.5 9.06633C19.7707 9.14883 18.7692 8.28908 18.7692 8.28908C18.7692 8.28908 17.7473 9.06716 17 9.06633C16.1268 9.06535 15 8 15 8C15 13.3316 18.7692 16.0385 18.7692 16.0385Z" stroke="#FDC301" stroke-width="0.5"/>
<rect x="17" y="10" width="1" height="1" fill="#FF9900"/>
<rect x="18" y="11" width="1" height="1" fill="#FF9900"/>
<rect x="19" y="10" width="1" height="1" fill="#FF9900"/>
</g>
</svg>
