<svg width="24" height="24" viewBox="0 0 24 24" fill="none" xmlns="http://www.w3.org/2000/svg">
<mask id="mask0_3349_50425" style="mask-type:alpha" maskUnits="userSpaceOnUse" x="0" y="3" width="24" height="18">
<path d="M21.7143 3H2.28571C1.02335 3 0 4.02335 0 5.28571V17.8571C0 19.1195 1.02335 20.1429 2.28571 20.1429H21.7143C22.9767 20.1429 24 19.1195 24 17.8571V5.28571C24 4.02335 22.9767 3 21.7143 3Z" fill="white"/>
</mask>
<g mask="url(#mask0_3349_50425)">
<path d="M21.7143 3H2.28571C1.02335 3 0 4.02335 0 5.28571V17.8571C0 19.1195 1.02335 20.1429 2.28571 20.1429H21.7143C22.9767 20.1429 24 19.1195 24 17.8571V5.28571C24 4.02335 22.9767 3 21.7143 3Z" fill="#E71910"/>
<path fill-rule="evenodd" clip-rule="evenodd" d="M12 7.57142L10.2857 6.42856L9.14286 7.57142H10.2857L9.14286 8.71427L6.85714 7.57142V13.2857L10.2857 12.1428L9.14286 14.4286H8L9.14286 15.5714L10.2857 14.4286L12 16.7143V7.57142ZM13.7143 6.42856L14.8571 7.57142H13.7143L14.8571 8.71427L17.1429 7.57142V13.2857L13.7143 12.1428L14.8571 14.4286H16L14.8571 15.5714L13.7143 14.4286L12 16.7143V7.57142L13.7143 6.42856Z" fill="black"/>
<path d="M21.7143 3.57144H2.28571C1.33894 3.57144 0.571428 4.33895 0.571428 5.28573V17.8572C0.571428 18.8039 1.33894 19.5714 2.28571 19.5714H21.7143C22.6611 19.5714 23.4286 18.8039 23.4286 17.8572V5.28573C23.4286 4.33895 22.6611 3.57144 21.7143 3.57144Z" stroke="black" stroke-opacity="0.1"/>
</g>
</svg>
