<svg width="24" height="24" viewBox="0 0 24 24" fill="none" xmlns="http://www.w3.org/2000/svg">
<mask id="mask0_3349_50389" style="mask-type:alpha" maskUnits="userSpaceOnUse" x="0" y="3" width="24" height="18">
<path d="M21.7143 3H2.28571C1.02335 3 0 4.02335 0 5.28571V17.8571C0 19.1195 1.02335 20.1429 2.28571 20.1429H21.7143C22.9767 20.1429 24 19.1195 24 17.8571V5.28571C24 4.02335 22.9767 3 21.7143 3Z" fill="white"/>
</mask>
<g mask="url(#mask0_3349_50389)">
<path d="M21.7143 3H2.28571C1.02335 3 0 4.02335 0 5.28571V17.8571C0 19.1195 1.02335 20.1429 2.28571 20.1429H21.7143C22.9767 20.1429 24 19.1195 24 17.8571V5.28571C24 4.02335 22.9767 3 21.7143 3Z" fill="#FFE100"/>
<path fill-rule="evenodd" clip-rule="evenodd" d="M0 3H8V20.1429H0V3Z" fill="#0006AB"/>
<path fill-rule="evenodd" clip-rule="evenodd" d="M16 3H24V20.1429H16V3Z" fill="#D20636"/>
<path fill-rule="evenodd" clip-rule="evenodd" d="M13.6411 14.3543C14.3429 14.1406 14.8571 13.488 14.8571 12.7143V9.28573C14.8571 8.33144 14.0891 7.57144 13.1429 7.57144H10.8571C9.91314 7.57144 9.14285 8.33716 9.14285 9.28573V12.7143C9.14285 13.4937 9.65485 14.1429 10.3589 14.3554C10.5714 15.064 11.2251 15.5714 12 15.5714C12.7794 15.5714 13.4286 15.0572 13.6411 14.3543Z" fill="#C8B47C"/>
<path fill-rule="evenodd" clip-rule="evenodd" d="M10.2857 8.71429H11.4286V10.4286H10.2857V8.71429ZM12.5714 11H13.7143V12.7143H12.5714V11Z" fill="#D20636"/>
<path fill-rule="evenodd" clip-rule="evenodd" d="M12.5714 8.71429H13.7143V10.4286H12.5714V8.71429ZM10.2857 11H11.4286V12.7143H10.2857V11Z" fill="#FFE100"/>
<path d="M21.7143 3.57144H2.28571C1.33894 3.57144 0.571426 4.33895 0.571426 5.28573V17.8572C0.571426 18.8039 1.33894 19.5714 2.28571 19.5714H21.7143C22.6611 19.5714 23.4286 18.8039 23.4286 17.8572V5.28573C23.4286 4.33895 22.6611 3.57144 21.7143 3.57144Z" stroke="black" stroke-opacity="0.1"/>
</g>
</svg>
