<svg width="24" height="24" viewBox="0 0 24 24" fill="none" xmlns="http://www.w3.org/2000/svg">
<mask id="mask0_3565_3419" style="mask-type:alpha" maskUnits="userSpaceOnUse" x="0" y="3" width="24" height="18">
<path d="M21.7143 3H2.28571C1.02335 3 0 4.02335 0 5.28571V17.8571C0 19.1195 1.02335 20.1429 2.28571 20.1429H21.7143C22.9767 20.1429 24 19.1195 24 17.8571V5.28571C24 4.02335 22.9767 3 21.7143 3Z" fill="white"/>
</mask>
<g mask="url(#mask0_3565_3419)">
<path d="M21.7143 3H2.28571C1.02335 3 0 4.02335 0 5.28571V17.8571C0 19.1195 1.02335 20.1429 2.28571 20.1429H21.7143C22.9767 20.1429 24 19.1195 24 17.8571V5.28571C24 4.02335 22.9767 3 21.7143 3Z" fill="#000066"/>
<path d="M0 11.5L24 3V20L0 11.5Z" fill="#BD1021"/>
<path d="M3 11.5L24 4V19" fill="white"/>
<path d="M21.7143 3.57143H2.2857C1.33892 3.57143 0.571411 4.33894 0.571411 5.28571V17.8571C0.571411 18.8039 1.33892 19.5714 2.2857 19.5714H21.7143C22.661 19.5714 23.4286 18.8039 23.4286 17.8571V5.28571C23.4286 4.33894 22.661 3.57143 21.7143 3.57143Z" stroke="black" stroke-opacity="0.1"/>
<path d="M17.3244 13.4788C17.3244 13.346 17.9332 13.0914 18.2375 12.9808L18.4036 13.5618L17.4904 13.7279C17.4351 13.7002 17.3244 13.6117 17.3244 13.4788Z" fill="#FFC221" stroke="#FFC221" stroke-width="0.166025"/>
<path d="M15.5574 14.6047C15.2272 14.2579 15.9529 13.9739 16.357 13.8752L16.4141 14.2023C16.4427 14.3659 16.2506 14.2309 17.4915 14.0984C18.7038 13.8024 18.9323 15.1108 18.7259 14.8941C18.5195 14.6773 15.9702 15.0382 15.5574 14.6047Z" fill="#FFC221"/>
<path d="M19.0659 12.9808L16.357 13.8752M16.357 13.8752C15.9529 13.9739 15.2272 14.2579 15.5574 14.6047C15.9702 15.0382 18.5195 14.6773 18.7259 14.8941C18.9323 15.1108 18.7038 13.8024 17.4915 14.0984C16.2506 14.2309 16.4427 14.3659 16.4141 14.2023C16.3913 14.0715 16.3665 13.9297 16.357 13.8752Z" stroke="#FFC221" stroke-width="0.166025"/>
<path d="M15.696 10.8224C15.4968 11.2873 16.2771 11.0161 16.6922 10.8224V10.9055C16.6922 11.7356 17.9374 11.0715 17.8544 11.3205C17.788 11.5197 17.9927 11.7909 18.1034 11.9016L17.6053 12.8147L18.4355 12.8977L19.5146 11.3205L18.9335 10.9055C19.3209 10.8778 20.0957 10.7228 20.0957 10.3244C20.0957 9.82629 19.1826 9.99231 19.6806 9.66026C20.0791 9.39462 20.1234 8.44275 20.0957 8.00002C18.7122 8.74713 15.8953 10.3576 15.696 10.8224Z" fill="#7B3C20" stroke="#7B3C20" stroke-width="0.166025"/>
<path d="M15.8301 12.4827L16.7433 12.8978L15.8301 13.3128L15 12.8978L15.8301 12.4827Z" fill="#FFC221"/>
<path d="M20.0638 12.9808L16.7433 12.8978M16.7433 12.8978L15.8301 12.4827L15 12.8978L15.8301 13.3128L16.7433 12.8978Z" stroke="#FFC221" stroke-width="0.166025"/>
</g>
</svg>
