<svg width="24" height="24" viewBox="0 0 24 24" fill="none" xmlns="http://www.w3.org/2000/svg">
<mask id="mask0_3349_50415" style="mask-type:alpha" maskUnits="userSpaceOnUse" x="0" y="3" width="24" height="18">
<path d="M21.7143 3H2.28571C1.02335 3 0 4.02335 0 5.28571V17.8571C0 19.1195 1.02335 20.1429 2.28571 20.1429H21.7143C22.9767 20.1429 24 19.1195 24 17.8571V5.28571C24 4.02335 22.9767 3 21.7143 3Z" fill="white"/>
</mask>
<g mask="url(#mask0_3349_50415)">
<path d="M21.7143 3H2.28571C1.02335 3 0 4.02335 0 5.28571V17.8571C0 19.1195 1.02335 20.1429 2.28571 20.1429H21.7143C22.9767 20.1429 24 19.1195 24 17.8571V5.28571C24 4.02335 22.9767 3 21.7143 3Z" fill="black"/>
<path d="M12 13.2857C14.2091 13.2857 16 11.4948 16 9.28571C16 7.07657 14.2091 5.28571 12 5.28571C9.79086 5.28571 8 7.07657 8 9.28571C8 11.4948 9.79086 13.2857 12 13.2857Z" fill="#FDD200"/>
<path fill-rule="evenodd" clip-rule="evenodd" d="M0 13.2857H24V20.1428H0V13.2857Z" fill="white"/>
<path fill-rule="evenodd" clip-rule="evenodd" d="M0 9.85715H24V13.2857H0V9.85715Z" fill="#0070C9"/>
<path fill-rule="evenodd" clip-rule="evenodd" d="M12.5714 20.1429H0V3L12.5714 20.1429Z" fill="#D0091E"/>
<path fill-rule="evenodd" clip-rule="evenodd" d="M11.4286 20.1429H24V3L11.4286 20.1429Z" fill="#D0091E"/>
<path d="M21.7143 3.57144H2.28571C1.33894 3.57144 0.571428 4.33895 0.571428 5.28573V17.8572C0.571428 18.8039 1.33894 19.5714 2.28571 19.5714H21.7143C22.6611 19.5714 23.4286 18.8039 23.4286 17.8572V5.28573C23.4286 4.33895 22.6611 3.57144 21.7143 3.57144Z" stroke="black" stroke-opacity="0.1"/>
</g>
</svg>
