<svg width="24" height="24" viewBox="0 0 24 24" fill="none" xmlns="http://www.w3.org/2000/svg">
<mask id="mask0_3349_50470" style="mask-type:alpha" maskUnits="userSpaceOnUse" x="0" y="3" width="24" height="18">
<path d="M21.7143 3H2.28571C1.02335 3 0 4.02335 0 5.28571V17.8571C0 19.1195 1.02335 20.1429 2.28571 20.1429H21.7143C22.9767 20.1429 24 19.1195 24 17.8571V5.28571C24 4.02335 22.9767 3 21.7143 3Z" fill="white"/>
</mask>
<g mask="url(#mask0_3349_50470)">
<path d="M21.7143 3H2.28571C1.02335 3 0 4.02335 0 5.28571V17.8571C0 19.1195 1.02335 20.1429 2.28571 20.1429H21.7143C22.9767 20.1429 24 19.1195 24 17.8571V5.28571C24 4.02335 22.9767 3 21.7143 3Z" fill="#00008E"/>
<path fill-rule="evenodd" clip-rule="evenodd" d="M4.57143 16.1428L5.71428 15.5714L6.28571 14.4286L6.85714 15.5714L8 16.1428L6.85714 16.7143L6.28571 17.8571L5.71428 16.7143L4.57143 16.1428ZM16 6.42856V7.57142H17.1429V6.42856H16ZM19.4286 7.57142V8.71427H20.5714V7.57142H19.4286ZM14.8571 9.85713V11H16V9.85713H14.8571ZM18.2857 11V12.1428H19.4286V11H18.2857ZM17.1429 14.4286V15.5714H18.2857V14.4286H17.1429Z" fill="#BDC4E7"/>
<path d="M10.2857 4.14285H2.28571C1.65453 4.14285 1.14285 4.65453 1.14285 5.28571V11C1.14285 11.6312 1.65453 12.1429 2.28571 12.1429H10.2857C10.9169 12.1429 11.4286 11.6312 11.4286 11V5.28571C11.4286 4.65453 10.9169 4.14285 10.2857 4.14285Z" fill="white"/>
<path fill-rule="evenodd" clip-rule="evenodd" d="M5.71429 8.71428H2.28572V7.57142H5.71429V5.28571H6.85715V7.57142H10.2857V8.71428H6.85715V11H5.71429V8.71428ZM8.57144 9.85713V11H10.2857V9.85713H8.57144ZM8.57144 5.28571V6.42856H10.2857V5.28571H8.57144ZM2.28572 9.85713V11H4.00001V9.85713H2.28572ZM2.28572 5.28571V6.42856H4.00001V5.28571H2.28572Z" fill="#FF0000"/>
<path d="M21.7143 3.57144H2.28571C1.33894 3.57144 0.571426 4.33895 0.571426 5.28573V17.8572C0.571426 18.8039 1.33894 19.5714 2.28571 19.5714H21.7143C22.6611 19.5714 23.4286 18.8039 23.4286 17.8572V5.28573C23.4286 4.33895 22.6611 3.57144 21.7143 3.57144Z" stroke="black" stroke-opacity="0.1"/>
</g>
</svg>
