<svg width="24" height="24" viewBox="0 0 24 24" fill="none" xmlns="http://www.w3.org/2000/svg">
<mask id="mask0_3349_50544" style="mask-type:alpha" maskUnits="userSpaceOnUse" x="0" y="3" width="24" height="18">
<path d="M21.7143 3H2.28571C1.02335 3 0 4.02335 0 5.28571V17.8571C0 19.1195 1.02335 20.1429 2.28571 20.1429H21.7143C22.9767 20.1429 24 19.1195 24 17.8571V5.28571C24 4.02335 22.9767 3 21.7143 3Z" fill="white"/>
</mask>
<g mask="url(#mask0_3349_50544)">
<path d="M21.7143 3H2.28571C1.02335 3 0 4.02335 0 5.28571V17.8571C0 19.1195 1.02335 20.1429 2.28571 20.1429H21.7143C22.9767 20.1429 24 19.1195 24 17.8571V5.28571C24 4.02335 22.9767 3 21.7143 3Z" fill="#D0091E"/>
<path fill-rule="evenodd" clip-rule="evenodd" d="M0 3L11.4286 12.1429L0 20.1429V3ZM24 3L12.5714 12.1429L24 20.1429V3Z" fill="#08B731"/>
<path fill-rule="evenodd" clip-rule="evenodd" d="M8.18057 10.3783L0 4.71429V3H1.71429L9.53943 8.41714C10.2171 7.88686 11.0709 7.57143 12 7.57143C12.928 7.57143 13.7829 7.88686 14.4606 8.41714L22.2857 3H24V4.71429L15.8194 10.3783C15.9371 10.7554 16 11.1554 16 11.5714C16 11.9874 15.9371 12.3874 15.8194 12.7646L24 18.4286V20.1429H22.2857L14.4606 14.7257C13.7817 15.256 12.9291 15.5714 12 15.5714C11.072 15.5714 10.2171 15.256 9.53943 14.7257L1.71429 20.1429H0V18.4286L8.18057 12.7646C8.06286 12.3874 8 11.9874 8 11.5714C8 11.1554 8.06286 10.7554 8.18057 10.3783Z" fill="white"/>
<path fill-rule="evenodd" clip-rule="evenodd" d="M11.4286 9.85715H12.5714V11H11.4286V9.85715ZM12.5714 12.1429H13.7143V13.2857H12.5714V12.1429ZM10.2857 12.1429H11.4286V13.2857H10.2857V12.1429Z" fill="#D0091E"/>
<path d="M21.7143 3.57144H2.28571C1.33894 3.57144 0.571426 4.33895 0.571426 5.28573V17.8572C0.571426 18.8039 1.33894 19.5714 2.28571 19.5714H21.7143C22.6611 19.5714 23.4286 18.8039 23.4286 17.8572V5.28573C23.4286 4.33895 22.6611 3.57144 21.7143 3.57144Z" stroke="black" stroke-opacity="0.1"/>
</g>
</svg>
