<svg width="24" height="24" viewBox="0 0 24 24" fill="none" xmlns="http://www.w3.org/2000/svg">
<mask id="mask0_3549_2863" style="mask-type:alpha" maskUnits="userSpaceOnUse" x="0" y="3" width="24" height="18">
<path d="M21.7143 3H2.28571C1.02335 3 0 4.02335 0 5.28571V17.8571C0 19.1195 1.02335 20.1429 2.28571 20.1429H21.7143C22.9767 20.1429 24 19.1195 24 17.8571V5.28571C24 4.02335 22.9767 3 21.7143 3Z" fill="white"/>
</mask>
<g mask="url(#mask0_3549_2863)">
<path d="M21.7143 3H2.28571C1.02335 3 0 4.02335 0 5.28571V17.8571C0 19.1195 1.02335 20.1429 2.28571 20.1429H21.7143C22.9767 20.1429 24 19.1195 24 17.8571V5.28571C24 4.02335 22.9767 3 21.7143 3Z" fill="#F1B31C"/>
<path d="M21.7143 3L8.5 8.5C7.23763 8.5 2.28571 11.2376 2.28571 12.5L0 17.8571C0 19.1195 1.02335 20.1429 2.28571 20.1429H21.7143C22.9767 20.1429 24 19.1195 24 17.8571V5.28571C24 4.02335 22.9767 3 21.7143 3Z" fill="#1E50A0"/>
<path fill-rule="evenodd" clip-rule="evenodd" d="M0 20.1429L25 3.57143V-6L0 10.5714V20.1429Z" fill="white"/>
<path d="M21.7143 3.57143H2.2857C1.33892 3.57143 0.571411 4.33894 0.571411 5.28571V17.8571C0.571411 18.8039 1.33892 19.5714 2.2857 19.5714H21.7143C22.661 19.5714 23.4286 18.8039 23.4286 17.8571V5.28571C23.4286 4.33894 22.661 3.57143 21.7143 3.57143Z" stroke="black" stroke-opacity="0.1"/>
<path d="M5.91375 9.147C5.95239 9.08114 6.04761 9.08114 6.08625 9.147L6.55325 9.94295C6.57108 9.97333 6.60358 9.9921 6.6388 9.99234L7.56162 9.99881C7.63797 9.99934 7.68558 10.0818 7.64787 10.1482L7.19206 10.9506C7.17466 10.9812 7.17466 11.0188 7.19206 11.0494L7.64787 11.8518C7.68558 11.9182 7.63797 12.0007 7.56162 12.0012L6.6388 12.0077C6.60358 12.0079 6.57108 12.0267 6.55325 12.057L6.08625 12.853C6.04761 12.9189 5.95239 12.9189 5.91375 12.853L5.44675 12.057C5.42892 12.0267 5.39642 12.0079 5.3612 12.0077L4.43838 12.0012C4.36203 12.0007 4.31442 11.9182 4.35213 11.8518L4.80794 11.0494C4.82534 11.0188 4.82534 10.9812 4.80794 10.9506L4.35213 10.1482C4.31442 10.0818 4.36203 9.99934 4.43838 9.99881L5.3612 9.99234C5.39642 9.9921 5.42892 9.97334 5.44675 9.94295L5.91375 9.147Z" fill="#D22F27"/>
<circle cx="6" cy="11" r="2.75" stroke="black" stroke-width="0.5"/>
</g>
</svg>
