<svg width="24" height="24" viewBox="0 0 24 24" fill="none" xmlns="http://www.w3.org/2000/svg">
<mask id="mask0_3349_50495" style="mask-type:alpha" maskUnits="userSpaceOnUse" x="0" y="3" width="24" height="18">
<path d="M21.7143 3H2.28571C1.02335 3 0 4.02335 0 5.28571V17.8571C0 19.1195 1.02335 20.1429 2.28571 20.1429H21.7143C22.9767 20.1429 24 19.1195 24 17.8571V5.28571C24 4.02335 22.9767 3 21.7143 3Z" fill="white"/>
</mask>
<g mask="url(#mask0_3349_50495)">
<path d="M21.7143 3H2.28571C1.02335 3 0 4.02335 0 5.28571V17.8571C0 19.1195 1.02335 20.1429 2.28571 20.1429H21.7143C22.9767 20.1429 24 19.1195 24 17.8571V5.28571C24 4.02335 22.9767 3 21.7143 3Z" fill="#FFCC00"/>
<path fill-rule="evenodd" clip-rule="evenodd" d="M0 3L24 19L23.8594 20.2571L0 20.1429V3Z" fill="#001C98"/>
<path fill-rule="evenodd" clip-rule="evenodd" d="M1.14286 6.42856H2.28571V7.57142H1.14286V6.42856ZM4.57143 8.71427H5.71429V9.85713H4.57143V8.71427ZM8 11H9.14286V12.1428H8V11ZM11.4286 13.2857H12.5714V14.4286H11.4286V13.2857ZM14.8571 15.5714H16V16.7143H14.8571V15.5714ZM18.2857 17.8571H19.4286V19H18.2857V17.8571Z" fill="white"/>
<path d="M21.7143 3.57144H2.28571C1.33894 3.57144 0.571428 4.33895 0.571428 5.28573V17.8572C0.571428 18.8039 1.33894 19.5714 2.28571 19.5714H21.7143C22.6611 19.5714 23.4286 18.8039 23.4286 17.8572V5.28573C23.4286 4.33895 22.6611 3.57144 21.7143 3.57144Z" stroke="black" stroke-opacity="0.1"/>
</g>
</svg>
