<svg width="24" height="24" viewBox="0 0 24 24" fill="none" xmlns="http://www.w3.org/2000/svg">
<mask id="mask0_3349_50617" style="mask-type:alpha" maskUnits="userSpaceOnUse" x="0" y="3" width="24" height="18">
<path d="M21.7143 3H2.28571C1.02335 3 0 4.02335 0 5.28571V17.8571C0 19.1195 1.02335 20.1429 2.28571 20.1429H21.7143C22.9767 20.1429 24 19.1195 24 17.8571V5.28571C24 4.02335 22.9767 3 21.7143 3Z" fill="white"/>
</mask>
<g mask="url(#mask0_3349_50617)">
<path d="M21.7143 3H2.28571C1.02335 3 0 4.02335 0 5.28571V17.8571C0 19.1195 1.02335 20.1429 2.28571 20.1429H21.7143C22.9767 20.1429 24 19.1195 24 17.8571V5.28571C24 4.02335 22.9767 3 21.7143 3Z" fill="#D0091E"/>
<path fill-rule="evenodd" clip-rule="evenodd" d="M3.42857 3L5.71429 4.71429L3.42857 6.42857V3ZM3.42857 6.42857L5.71429 8.14286L3.42857 9.85714V6.42857ZM3.42857 9.85714L5.71429 11.5714L3.42857 13.2857V9.85714ZM3.42857 13.2857L5.71429 15L3.42857 16.7143V13.2857ZM3.42857 16.7143L5.71429 18.4286L3.42857 20.1429V16.7143ZM2.28571 3L0 4.71429L2.28571 6.42857V3ZM2.28571 6.42857L0 8.14286L2.28571 9.85714V6.42857ZM2.28571 9.85714L0 11.5714L2.28571 13.2857V9.85714ZM2.28571 13.2857L0 15L2.28571 16.7143V13.2857ZM2.28571 16.7143L0 18.4286L2.28571 20.1429V16.7143ZM2.28571 3H3.42857V5.28571H2.28571V3ZM2.28571 17.8571H3.42857V20.1429H2.28571V17.8571ZM2.28571 8.71429H3.42857V11H2.28571V8.71429ZM2.28571 6.42857H3.42857V7.57143H2.28571V6.42857ZM2.28571 15.5714H3.42857V16.7143H2.28571V15.5714ZM2.28571 12.1429H3.42857V14.4286H2.28571V12.1429Z" fill="white"/>
<path fill-rule="evenodd" clip-rule="evenodd" d="M5.71428 15.5714H24V20.1429H5.71428V15.5714Z" fill="#46A753"/>
<path d="M21.7143 3.57144H2.28571C1.33894 3.57144 0.571426 4.33895 0.571426 5.28573V17.8572C0.571426 18.8039 1.33894 19.5714 2.28571 19.5714H21.7143C22.6611 19.5714 23.4286 18.8039 23.4286 17.8572V5.28573C23.4286 4.33895 22.6611 3.57144 21.7143 3.57144Z" stroke="black" stroke-opacity="0.1"/>
</g>
</svg>
