<svg width="24" height="24" viewBox="0 0 24 24" fill="none" xmlns="http://www.w3.org/2000/svg">
<mask id="mask0_3349_50624" style="mask-type:alpha" maskUnits="userSpaceOnUse" x="0" y="3" width="24" height="18">
<path d="M21.7143 3H2.28571C1.02335 3 0 4.02335 0 5.28571V17.8571C0 19.1195 1.02335 20.1429 2.28571 20.1429H21.7143C22.9767 20.1429 24 19.1195 24 17.8571V5.28571C24 4.02335 22.9767 3 21.7143 3Z" fill="white"/>
</mask>
<g mask="url(#mask0_3349_50624)">
<path d="M21.7143 3H2.28571C1.02335 3 0 4.02335 0 5.28571V17.8571C0 19.1195 1.02335 20.1429 2.28571 20.1429H21.7143C22.9767 20.1429 24 19.1195 24 17.8571V5.28571C24 4.02335 22.9767 3 21.7143 3Z" fill="#003D89"/>
<path d="M12 16.7143C14.8403 16.7143 17.1429 14.4118 17.1429 11.5714C17.1429 8.73111 14.8403 6.42857 12 6.42857C9.15968 6.42857 6.85715 8.73111 6.85715 11.5714C6.85715 14.4118 9.15968 16.7143 12 16.7143Z" fill="white"/>
<path fill-rule="evenodd" clip-rule="evenodd" d="M9.71428 12.1429H14.2857V13.2857H9.71428V12.1429Z" fill="#CBCBCB"/>
<path fill-rule="evenodd" clip-rule="evenodd" d="M9.14285 8.71428H10.2857V9.85714H9.14285V8.71428ZM11.4286 7.57143H12.5714V8.71428H11.4286V7.57143ZM13.7143 8.71428H14.8571V9.85714H13.7143V8.71428ZM14.8571 11H16V12.1429H14.8571V11ZM13.7143 13.2857H14.8571V14.4286H13.7143V13.2857Z" fill="#5E9F47"/>
<path fill-rule="evenodd" clip-rule="evenodd" d="M12.5714 9.85715H13.7143V11H12.5714V9.85715Z" fill="#580A00"/>
<path fill-rule="evenodd" clip-rule="evenodd" d="M12.5714 11H13.7143V12.1429H12.5714V11Z" fill="#B54B00"/>
<path fill-rule="evenodd" clip-rule="evenodd" d="M10.2857 9.85715H11.4286V11H10.2857V9.85715Z" fill="#BD6100"/>
<path fill-rule="evenodd" clip-rule="evenodd" d="M10.2857 11H11.4286V12.1429H10.2857V11Z" fill="#F9B626"/>
<path fill-rule="evenodd" clip-rule="evenodd" d="M11.4286 14.4286H12.5714V15.5714H11.4286V14.4286ZM9.14286 13.2857H10.2857V14.4286H9.14286V13.2857ZM8 11H9.14286V12.1429H8V11Z" fill="#5E9F47"/>
<path fill-rule="evenodd" clip-rule="evenodd" d="M0 17.8571H24V20.1429H0V17.8571ZM0 3H24V5.28571H0V3Z" fill="#D0091E"/>
<path d="M21.7143 3.57143H2.28571C1.33894 3.57143 0.571426 4.33894 0.571426 5.28571V17.8571C0.571426 18.8039 1.33894 19.5714 2.28571 19.5714H21.7143C22.6611 19.5714 23.4286 18.8039 23.4286 17.8571V5.28571C23.4286 4.33894 22.6611 3.57143 21.7143 3.57143Z" stroke="black" stroke-opacity="0.1"/>
</g>
</svg>
