<svg width="24" height="24" viewBox="0 0 24 24" fill="none" xmlns="http://www.w3.org/2000/svg">
<mask id="mask0_3552_3037" style="mask-type:alpha" maskUnits="userSpaceOnUse" x="0" y="3" width="24" height="18">
<path d="M21.7143 3H2.28571C1.02335 3 0 4.02335 0 5.28571V17.8571C0 19.1195 1.02335 20.1429 2.28571 20.1429H21.7143C22.9767 20.1429 24 19.1195 24 17.8571V5.28571C24 4.02335 22.9767 3 21.7143 3Z" fill="white"/>
</mask>
<g mask="url(#mask0_3552_3037)">
<path d="M21.7143 3H2.28571C1.02335 3 0 4.02335 0 5.28571V17.8571C0 19.1195 1.02335 20.1429 2.28571 20.1429H21.7143C22.9767 20.1429 24 19.1195 24 17.8571V5.28571C24 4.02335 22.9767 3 21.7143 3Z" fill="#C8102E"/>
<path d="M10.2857 4.14286H2.28568C1.6545 4.14286 1.14282 4.65453 1.14282 5.28571V11C1.14282 11.6312 1.6545 12.1429 2.28568 12.1429H10.2857C10.9169 12.1429 11.4285 11.6312 11.4285 11V5.28571C11.4285 4.65453 10.9169 4.14286 10.2857 4.14286Z" fill="white"/>
<path fill-rule="evenodd" clip-rule="evenodd" d="M5.71434 8.71429H2.28577V7.57143H5.71434V5.28571H6.8572V7.57143H10.2858V8.71429H6.8572V11H5.71434V8.71429ZM8.57148 9.85714V11H10.2858V9.85714H8.57148ZM8.57148 5.28571V6.42857H10.2858V5.28571H8.57148ZM2.28577 9.85714V11H4.00005V9.85714H2.28577ZM2.28577 5.28571V6.42857H4.00005V5.28571H2.28577Z" fill="#FF0000"/>
<path d="M21.7143 3.57143H2.2857C1.33892 3.57143 0.571411 4.33894 0.571411 5.28571V17.8571C0.571411 18.8039 1.33892 19.5714 2.2857 19.5714H21.7143C22.661 19.5714 23.4286 18.8039 23.4286 17.8571V5.28571C23.4286 4.33894 22.661 3.57143 21.7143 3.57143Z" stroke="black" stroke-opacity="0.1"/>
<path d="M21 8V13.9089C21 15.4872 17.5 16 17.5 16C17.5 16 14 15.4872 14 13.9089V8H21Z" fill="white"/>
<mask id="mask1_3552_3037" style="mask-type:alpha" maskUnits="userSpaceOnUse" x="14" y="8" width="7" height="8">
<path d="M21 8V13.9089C21 15.4872 17.5 16 17.5 16C17.5 16 14 15.4872 14 13.9089V8H21Z" fill="white"/>
</mask>
<g mask="url(#mask1_3552_3037)">
<rect x="14" y="14" width="7" height="3" fill="#2F8F22"/>
</g>
<path d="M18.3333 9.96833C18.3333 9.96833 18.0997 9.03021 17.6042 9.00071C17.0843 8.96975 16.7708 9.96833 16.7708 9.96833V10.7424L15.625 10.8392L15.4167 11.6133L16.0417 12.0971L15 12.4842L15.625 13.0647L16.25 14.0324L15.2083 14.5162L16.25 15L16.7708 14.2259H18.0208L18.8542 14.9032L19.4792 14.4194L18.6458 14.0324L19.0625 13.5486L19.7917 13.4518L20 12.7745L19.4792 11.8068V10.8392L18.3333 10.7424V9.96833Z" fill="#C8102E"/>
<path d="M19.4678 10.8385L15.7384 10.7417C15.6376 10.9675 15.4965 11.4771 15.7384 11.7093C16.0408 11.9996 15.94 12.0964 15.6376 12.7737C15.3957 13.3156 16.8135 14.1607 17.5527 14.5154C18.3926 14.1929 19.9113 13.393 19.2662 12.7737C18.6211 12.1544 19.1318 11.8061 19.4678 11.7093V10.8385Z" fill="#E4CB5E"/>
<rect x="16.2095" y="10.9352" width="2.41907" height="0.774102" fill="#64B4D1"/>
<rect x="17.2175" y="11.9029" width="1.41112" height="0.774102" fill="#784421"/>
<rect x="16.4111" y="12.4835" width="2.01589" height="1.16115" fill="white"/>
</g>
</svg>
