<svg width="24" height="24" viewBox="0 0 24 24" fill="none" xmlns="http://www.w3.org/2000/svg">
<mask id="mask0_3349_50567" style="mask-type:alpha" maskUnits="userSpaceOnUse" x="0" y="3" width="24" height="18">
<path d="M21.7143 3H2.28571C1.02335 3 0 4.02335 0 5.28571V17.8571C0 19.1195 1.02335 20.1429 2.28571 20.1429H21.7143C22.9767 20.1429 24 19.1195 24 17.8571V5.28571C24 4.02335 22.9767 3 21.7143 3Z" fill="white"/>
</mask>
<g mask="url(#mask0_3349_50567)">
<path d="M21.7143 3H2.28571C1.02335 3 0 4.02335 0 5.28571V17.8571C0 19.1195 1.02335 20.1429 2.28571 20.1429H21.7143C22.9767 20.1429 24 19.1195 24 17.8571V5.28571C24 4.02335 22.9767 3 21.7143 3Z" fill="#FFE200"/>
<path fill-rule="evenodd" clip-rule="evenodd" d="M10.2857 11H11.4286V12.1429H10.2857V11ZM12.5714 11H13.7143V12.1429H12.5714V11Z" fill="#009BBE"/>
<path fill-rule="evenodd" clip-rule="evenodd" d="M13.7143 11H14.8571V13.2857H13.7143V11ZM12.5714 9.85715H13.7143V11H12.5714V9.85715ZM10.2857 9.85715H11.4286V11H10.2857V9.85715ZM9.14286 11H10.2857V13.2857H9.14286V11Z" fill="#D7280F"/>
<path fill-rule="evenodd" clip-rule="evenodd" d="M11.4286 12.1429H12.5714V13.2857H11.4286V12.1429Z" fill="#007B30"/>
<path fill-rule="evenodd" clip-rule="evenodd" d="M11.4286 9.85715H12.5714V11H11.4286V9.85715Z" fill="#3F291F"/>
<path fill-rule="evenodd" clip-rule="evenodd" d="M12.5714 12.1429H13.7143V13.2857H12.5714V12.1429ZM10.2857 12.1429H11.4286V13.2857H10.2857V12.1429Z" fill="#EAA400"/>
<path fill-rule="evenodd" clip-rule="evenodd" d="M11.4286 11H12.5714V12.1429H11.4286V11Z" fill="#3B5B27"/>
<path fill-rule="evenodd" clip-rule="evenodd" d="M0 14.4286H24V20.1428H0V14.4286Z" fill="#007A30"/>
<path fill-rule="evenodd" clip-rule="evenodd" d="M0 3H24V8.71429H0V3Z" fill="#D7280F"/>
<path d="M21.7143 3.57144H2.28571C1.33894 3.57144 0.571428 4.33895 0.571428 5.28573V17.8572C0.571428 18.8039 1.33894 19.5714 2.28571 19.5714H21.7143C22.6611 19.5714 23.4286 18.8039 23.4286 17.8572V5.28573C23.4286 4.33895 22.6611 3.57144 21.7143 3.57144Z" stroke="black" stroke-opacity="0.1"/>
</g>
</svg>
