<svg width="24" height="24" viewBox="0 0 24 24" fill="none" xmlns="http://www.w3.org/2000/svg">
<mask id="mask0_3349_50580" style="mask-type:alpha" maskUnits="userSpaceOnUse" x="0" y="3" width="24" height="18">
<path d="M21.7143 3H2.28571C1.02335 3 0 4.02335 0 5.28571V17.8571C0 19.1195 1.02335 20.1429 2.28571 20.1429H21.7143C22.9767 20.1429 24 19.1195 24 17.8571V5.28571C24 4.02335 22.9767 3 21.7143 3Z" fill="white"/>
</mask>
<g mask="url(#mask0_3349_50580)">
<path d="M21.7143 3H2.28571C1.02335 3 0 4.02335 0 5.28571V17.8571C0 19.1195 1.02335 20.1429 2.28571 20.1429H21.7143C22.9767 20.1429 24 19.1195 24 17.8571V5.28571C24 4.02335 22.9767 3 21.7143 3Z" fill="#009C34"/>
<path fill-rule="evenodd" clip-rule="evenodd" d="M12 5.28571L20.5714 11.5714L12 17.8571L3.42857 11.5714" fill="#F8E23D"/>
<path d="M12 15.5714C14.2091 15.5714 16 13.7806 16 11.5714C16 9.3623 14.2091 7.57144 12 7.57144C9.79086 7.57144 8 9.3623 8 11.5714C8 13.7806 9.79086 15.5714 12 15.5714Z" fill="#002478"/>
<path fill-rule="evenodd" clip-rule="evenodd" d="M10.2857 13.2857V14.4286H11.4286V13.2857H10.2857ZM12.5714 13.2857V14.4286H13.7143V13.2857H12.5714Z" fill="#91A1C3"/>
<path d="M9.14286 9.85715C9.14286 9.85715 11.7303 10.3143 13.5954 11.112L16 12.1429" stroke="#C9D0E0"/>
<path d="M21.7143 3.57144H2.28571C1.33894 3.57144 0.571428 4.33895 0.571428 5.28573V17.8572C0.571428 18.8039 1.33894 19.5714 2.28571 19.5714H21.7143C22.6611 19.5714 23.4286 18.8039 23.4286 17.8572V5.28573C23.4286 4.33895 22.6611 3.57144 21.7143 3.57144Z" stroke="black" stroke-opacity="0.1"/>
</g>
</svg>
