<svg width="24" height="24" viewBox="0 0 24 24" fill="none" xmlns="http://www.w3.org/2000/svg">
<mask id="mask0_3349_50559" style="mask-type:alpha" maskUnits="userSpaceOnUse" x="0" y="3" width="24" height="18">
<path d="M21.7143 3H2.28571C1.02335 3 0 4.02335 0 5.28571V17.8571C0 19.1195 1.02335 20.1429 2.28571 20.1429H21.7143C22.9767 20.1429 24 19.1195 24 17.8571V5.28571C24 4.02335 22.9767 3 21.7143 3Z" fill="white"/>
</mask>
<g mask="url(#mask0_3349_50559)">
<path d="M21.7143 3H2.28571C1.02335 3 0 4.02335 0 5.28571V17.8571C0 19.1195 1.02335 20.1429 2.28571 20.1429H21.7143C22.9767 20.1429 24 19.1195 24 17.8571V5.28571C24 4.02335 22.9767 3 21.7143 3Z" fill="#F8E200"/>
<path fill-rule="evenodd" clip-rule="evenodd" d="M0 3L24 14.4286V19L0 7.57143V3Z" fill="white"/>
<path fill-rule="evenodd" clip-rule="evenodd" d="M0 6.42856L24 17.8571V20.1428L0 8.71427V6.42856Z" fill="black"/>
<path fill-rule="evenodd" clip-rule="evenodd" d="M9.14286 11L10.2857 12.1428V16.7143L8 15.5714V13.2857L5.71429 11L8 8.71427L9.14286 9.85713V11ZM10.2857 13.2857H13.7143V14.4286H10.2857V13.2857ZM14.8571 11L13.7143 12.1428V16.7143L16 15.5714V13.2857L18.2857 11L16 8.71427L14.8571 9.85713V11ZM10.2857 9.85713H13.7143L12 6.42856L10.2857 9.85713Z" fill="#D1091E"/>
<path d="M21.7143 3.57144H2.28572C1.33894 3.57144 0.57143 4.33895 0.57143 5.28573V17.8572C0.57143 18.8039 1.33894 19.5714 2.28572 19.5714H21.7143C22.6611 19.5714 23.4286 18.8039 23.4286 17.8572V5.28573C23.4286 4.33895 22.6611 3.57144 21.7143 3.57144Z" stroke="black" stroke-opacity="0.1"/>
</g>
</svg>
