<svg width="24" height="24" viewBox="0 0 24 24" fill="none" xmlns="http://www.w3.org/2000/svg">
<mask id="mask0_3349_50595" style="mask-type:alpha" maskUnits="userSpaceOnUse" x="0" y="3" width="24" height="18">
<path d="M21.7143 3H2.28571C1.02335 3 0 4.02335 0 5.28571V17.8571C0 19.1195 1.02335 20.1429 2.28571 20.1429H21.7143C22.9767 20.1429 24 19.1195 24 17.8571V5.28571C24 4.02335 22.9767 3 21.7143 3Z" fill="white"/>
</mask>
<g mask="url(#mask0_3349_50595)">
<path d="M21.7143 3H2.28571C1.02335 3 0 4.02335 0 5.28571V17.8571C0 19.1195 1.02335 20.1429 2.28571 20.1429H21.7143C22.9767 20.1429 24 19.1195 24 17.8571V5.28571C24 4.02335 22.9767 3 21.7143 3Z" fill="#FF4D00"/>
<path fill-rule="evenodd" clip-rule="evenodd" d="M0 20.1429L24 3H0V20.1429Z" fill="#FFD700"/>
<path fill-rule="evenodd" clip-rule="evenodd" d="M3.42857 14.4286L4 16.1428L6.28572 16.7143L6.85715 15.5714L11.4286 16.1428L10.2857 13.2857H12.5714L16 14.4286L17.1429 13.2857L13.7143 12.1428L14.8571 11H18.2857L18.8571 9.85713H16V8.71427H18.2857L19.4286 7.57142L14.8571 6.42856L12.5714 8.71427L11.4286 9.85713L12.5714 11L9.14286 10.4286L6.85715 14.4286L5.71429 15.5714L3.42857 14.4286Z" fill="white"/>
<path d="M21.7143 3.57144H2.28571C1.33894 3.57144 0.571426 4.33895 0.571426 5.28573V17.8572C0.571426 18.8039 1.33894 19.5714 2.28571 19.5714H21.7143C22.6611 19.5714 23.4286 18.8039 23.4286 17.8572V5.28573C23.4286 4.33895 22.6611 3.57144 21.7143 3.57144Z" stroke="black" stroke-opacity="0.1"/>
</g>
</svg>
