<svg width="24" height="24" viewBox="0 0 24 24" fill="none" xmlns="http://www.w3.org/2000/svg">
<mask id="mask0_3349_50653" style="mask-type:alpha" maskUnits="userSpaceOnUse" x="0" y="3" width="24" height="18">
<path d="M21.7143 3H2.28571C1.02335 3 0 4.02335 0 5.28571V17.8571C0 19.1195 1.02335 20.1429 2.28571 20.1429H21.7143C22.9767 20.1429 24 19.1195 24 17.8571V5.28571C24 4.02335 22.9767 3 21.7143 3Z" fill="white"/>
</mask>
<g mask="url(#mask0_3349_50653)">
<path d="M21.7143 3H2.28571C1.02335 3 0 4.02335 0 5.28571V17.8571C0 19.1195 1.02335 20.1429 2.28571 20.1429H21.7143C22.9767 20.1429 24 19.1195 24 17.8571V5.28571C24 4.02335 22.9767 3 21.7143 3Z" fill="white"/>
<path fill-rule="evenodd" clip-rule="evenodd" d="M0 14.4286H24V20.1429H0V14.4286Z" fill="#FDD200"/>
<path fill-rule="evenodd" clip-rule="evenodd" d="M0 12.1429H24V15.5714H0V12.1429Z" fill="#20981D"/>
<path fill-rule="evenodd" clip-rule="evenodd" d="M0 3H24V8.71429H0V3Z" fill="#002D84"/>
<path fill-rule="evenodd" clip-rule="evenodd" d="M3.42857 5.28572H4.57143V6.42858H3.42857V5.28572Z" fill="#FFCF00"/>
<path fill-rule="evenodd" clip-rule="evenodd" d="M2.28571 5.28571H3.42857V6.42857H2.28571V5.28571ZM4.57143 5.28571H5.71429V6.42857H4.57143V5.28571ZM3.42857 6.42857H4.57143V7.57142H3.42857V6.42857ZM3.42857 4.14285H4.57143V5.28571H3.42857V4.14285Z" fill="#A7972D"/>
<path fill-rule="evenodd" clip-rule="evenodd" d="M10.2857 3H13.7143V20.1429H10.2857V3Z" fill="#D4062E"/>
<path d="M21.7143 3.57143H2.28571C1.33894 3.57143 0.571428 4.33894 0.571428 5.28571V17.8571C0.571428 18.8039 1.33894 19.5714 2.28571 19.5714H21.7143C22.6611 19.5714 23.4286 18.8039 23.4286 17.8571V5.28571C23.4286 4.33894 22.6611 3.57143 21.7143 3.57143Z" stroke="black" stroke-opacity="0.1"/>
</g>
</svg>
