<svg width="24" height="24" viewBox="0 0 24 24" fill="none" xmlns="http://www.w3.org/2000/svg">
<mask id="mask0_3349_50700" style="mask-type:alpha" maskUnits="userSpaceOnUse" x="0" y="3" width="24" height="18">
<path d="M21.7143 3H2.28571C1.02335 3 0 4.02335 0 5.28571V17.8571C0 19.1195 1.02335 20.1429 2.28571 20.1429H21.7143C22.9767 20.1429 24 19.1195 24 17.8571V5.28571C24 4.02335 22.9767 3 21.7143 3Z" fill="white"/>
</mask>
<g mask="url(#mask0_3349_50700)">
<path d="M21.7143 3H2.28571C1.02335 3 0 4.02335 0 5.28571V17.8571C0 19.1195 1.02335 20.1429 2.28571 20.1429H21.7143C22.9767 20.1429 24 19.1195 24 17.8571V5.28571C24 4.02335 22.9767 3 21.7143 3Z" fill="#E02600"/>
<path fill-rule="evenodd" clip-rule="evenodd" d="M6.28343 11.2629L4.60343 12.1463L4.92343 10.2754L3.56572 8.94972L5.44343 8.67886L6.28343 6.976L7.12229 8.67886L9.00001 8.94972L7.64001 10.2754L7.96229 12.1451L6.28343 11.2629ZM10.2857 6.42857H11.4286V7.57143H10.2857V6.42857ZM11.4286 8.71429H12.5714V9.85714H11.4286V8.71429ZM11.4286 11H12.5714V12.1429H11.4286V11ZM10.2857 13.2857H11.4286V14.4286H10.2857V13.2857Z" fill="#FFE000"/>
<path d="M21.7143 3.57143H2.28571C1.33894 3.57143 0.571426 4.33894 0.571426 5.28571V17.8571C0.571426 18.8039 1.33894 19.5714 2.28571 19.5714H21.7143C22.6611 19.5714 23.4286 18.8039 23.4286 17.8571V5.28571C23.4286 4.33894 22.6611 3.57143 21.7143 3.57143Z" stroke="black" stroke-opacity="0.1"/>
</g>
</svg>
