<svg width="24" height="24" viewBox="0 0 24 24" fill="none" xmlns="http://www.w3.org/2000/svg">
<mask id="mask0_3550_2893" style="mask-type:alpha" maskUnits="userSpaceOnUse" x="0" y="3" width="24" height="18">
<path d="M21.7143 3H2.28571C1.02335 3 0 4.02335 0 5.28571V17.8571C0 19.1195 1.02335 20.1429 2.28571 20.1429H21.7143C22.9767 20.1429 24 19.1195 24 17.8571V5.28571C24 4.02335 22.9767 3 21.7143 3Z" fill="white"/>
</mask>
<g mask="url(#mask0_3550_2893)">
<path d="M21.7143 3H2.28571C1.02335 3 0 4.02335 0 5.28571V17.8571C0 19.1195 1.02335 20.1429 2.28571 20.1429H21.7143C22.9767 20.1429 24 19.1195 24 17.8571V5.28571C24 4.02335 22.9767 3 21.7143 3Z" fill="#00008E"/>
<path d="M10.2857 4.14286H2.28568C1.6545 4.14286 1.14282 4.65453 1.14282 5.28572V11C1.14282 11.6312 1.6545 12.1429 2.28568 12.1429H10.2857C10.9169 12.1429 11.4285 11.6312 11.4285 11V5.28572C11.4285 4.65453 10.9169 4.14286 10.2857 4.14286Z" fill="white"/>
<path fill-rule="evenodd" clip-rule="evenodd" d="M5.71434 8.71428H2.28577V7.57143H5.71434V5.28571H6.8572V7.57143H10.2858V8.71428H6.8572V11H5.71434V8.71428ZM8.57148 9.85714V11H10.2858V9.85714H8.57148ZM8.57148 5.28571V6.42857H10.2858V5.28571H8.57148ZM2.28577 9.85714V11H4.00005V9.85714H2.28577ZM2.28577 5.28571V6.42857H4.00005V5.28571H2.28577Z" fill="#FF0000"/>
<path d="M21.7143 3.57143H2.2857C1.33892 3.57143 0.571411 4.33894 0.571411 5.28571V17.8571C0.571411 18.8039 1.33892 19.5714 2.2857 19.5714H21.7143C22.661 19.5714 23.4286 18.8039 23.4286 17.8571V5.28571C23.4286 4.33894 22.661 3.57143 21.7143 3.57143Z" stroke="black" stroke-opacity="0.1"/>
<path fill-rule="evenodd" clip-rule="evenodd" d="M15.1429 9.14286H16.2857V10.2857H15.1429V9.14286ZM17.4286 8H18.5714V9.14286H17.4286V8ZM19.7143 9.14286H20.8571V10.2857H19.7143V9.14286ZM20.8571 11.4286H22V12.5714H20.8571V11.4286ZM14 11.4286H15.1429V12.5714H14V11.4286ZM19.7143 13.7143H20.8571V14.8571H19.7143V13.7143ZM17.4286 14.8571H18.5714V16H17.4286V14.8571ZM15.1429 13.7143H16.2857V14.8571H15.1429V13.7143Z" fill="white"/>
</g>
</svg>
