<svg width="24" height="24" viewBox="0 0 24 24" fill="none" xmlns="http://www.w3.org/2000/svg">
<mask id="mask0_3349_51160" style="mask-type:alpha" maskUnits="userSpaceOnUse" x="0" y="3" width="24" height="18">
<path d="M21.7143 3H2.28571C1.02335 3 0 4.02335 0 5.28571V17.8571C0 19.1195 1.02335 20.1429 2.28571 20.1429H21.7143C22.9767 20.1429 24 19.1195 24 17.8571V5.28571C24 4.02335 22.9767 3 21.7143 3Z" fill="white"/>
</mask>
<g mask="url(#mask0_3349_51160)">
<path d="M21.7143 3H2.28571C1.02335 3 0 4.02335 0 5.28571V17.8571C0 19.1195 1.02335 20.1429 2.28571 20.1429H21.7143C22.9767 20.1429 24 19.1195 24 17.8571V5.28571C24 4.02335 22.9767 3 21.7143 3Z" fill="#E3001A"/>
<path fill-rule="evenodd" clip-rule="evenodd" d="M0 3H24V7.57143H0V3Z" fill="#FFC700"/>
<path fill-rule="evenodd" clip-rule="evenodd" d="M0 7.57143H24V12.1429H0V7.57143Z" fill="white"/>
<path fill-rule="evenodd" clip-rule="evenodd" d="M0 15.5714H24V20.1429H0V15.5714Z" fill="#3673C7"/>
<path fill-rule="evenodd" clip-rule="evenodd" d="M0 3L13.7143 11.5714L0 20.1429V3Z" fill="#398F2D"/>
<path fill-rule="evenodd" clip-rule="evenodd" d="M6.85714 15.3886C6.52571 15.5074 6.17143 15.5714 5.80228 15.5714C3.85943 15.5714 2.28571 13.7806 2.28571 11.5714C2.28571 9.36229 3.86057 7.57143 5.80228 7.57143C6.17028 7.57143 6.52457 7.63543 6.85714 7.75429C5.43086 8.264 4.39543 9.78057 4.39543 11.5714C4.39543 13.3623 5.43086 14.8789 6.85714 15.3886ZM6.85714 8.71429H8V9.85714H6.85714V8.71429ZM6.85714 11H8V12.1429H6.85714V11ZM6.85714 13.2857H8V14.4286H6.85714V13.2857Z" fill="white"/>
<path d="M21.7143 3.57143H2.28571C1.33894 3.57143 0.571426 4.33894 0.571426 5.28571V17.8571C0.571426 18.8039 1.33894 19.5714 2.28571 19.5714H21.7143C22.6611 19.5714 23.4286 18.8039 23.4286 17.8571V5.28571C23.4286 4.33894 22.6611 3.57143 21.7143 3.57143Z" stroke="black" stroke-opacity="0.1"/>
</g>
</svg>
