<svg width="24" height="24" viewBox="0 0 24 24" fill="none" xmlns="http://www.w3.org/2000/svg">
<mask id="mask0_3349_50729" style="mask-type:alpha" maskUnits="userSpaceOnUse" x="0" y="3" width="24" height="18">
<path d="M21.7143 3H2.28571C1.02335 3 0 4.02335 0 5.28571V17.8571C0 19.1195 1.02335 20.1429 2.28571 20.1429H21.7143C22.9767 20.1429 24 19.1195 24 17.8571V5.28571C24 4.02335 22.9767 3 21.7143 3Z" fill="white"/>
</mask>
<g mask="url(#mask0_3349_50729)">
<path d="M21.7143 3H2.28571C1.02335 3 0 4.02335 0 5.28571V17.8571C0 19.1195 1.02335 20.1429 2.28571 20.1429H21.7143C22.9767 20.1429 24 19.1195 24 17.8571V5.28571C24 4.02335 22.9767 3 21.7143 3Z" fill="#003495"/>
<path fill-rule="evenodd" clip-rule="evenodd" d="M0 12.1429H24V13.2857H0V12.1429Z" fill="white"/>
<path fill-rule="evenodd" clip-rule="evenodd" d="M0 13.2857H24V14.4286H0V13.2857Z" fill="#D11C1F"/>
<path fill-rule="evenodd" clip-rule="evenodd" d="M0 14.4286H24V15.5714H0V14.4286Z" fill="white"/>
<path fill-rule="evenodd" clip-rule="evenodd" d="M5.71429 11H6.85714V12.1429H5.71429V11ZM8 9.85715H9.14286V11H8V9.85715ZM10.2857 11H11.4286V12.1429H10.2857V11ZM11.4286 13.2857H12.5714V14.4286H11.4286V13.2857ZM4.57143 13.2857H5.71429V14.4286H4.57143V13.2857ZM10.2857 15.5714H11.4286V16.7143H10.2857V15.5714ZM8 16.7143H9.14286V17.8571H8V16.7143ZM5.71429 15.5714H6.85714V16.7143H5.71429V15.5714Z" fill="#F8D300"/>
<path d="M21.7143 3.57143H2.28571C1.33894 3.57143 0.571428 4.33894 0.571428 5.28571V17.8571C0.571428 18.8039 1.33894 19.5714 2.28571 19.5714H21.7143C22.6611 19.5714 23.4286 18.8039 23.4286 17.8571V5.28571C23.4286 4.33894 22.6611 3.57143 21.7143 3.57143Z" stroke="black" stroke-opacity="0.1"/>
</g>
</svg>
