<svg width="24" height="24" viewBox="0 0 24 24" fill="none" xmlns="http://www.w3.org/2000/svg">
<mask id="mask0_3349_50721" style="mask-type:alpha" maskUnits="userSpaceOnUse" x="0" y="3" width="24" height="18">
<path d="M21.7143 3H2.28571C1.02335 3 0 4.02335 0 5.28571V17.8571C0 19.1195 1.02335 20.1429 2.28571 20.1429H21.7143C22.9767 20.1429 24 19.1195 24 17.8571V5.28571C24 4.02335 22.9767 3 21.7143 3Z" fill="white"/>
</mask>
<g mask="url(#mask0_3349_50721)">
<path d="M21.7143 3H2.28571C1.02335 3 0 4.02335 0 5.28571V17.8571C0 19.1195 1.02335 20.1429 2.28571 20.1429H21.7143C22.9767 20.1429 24 19.1195 24 17.8571V5.28571C24 4.02335 22.9767 3 21.7143 3Z" fill="#003495"/>
<path fill-rule="evenodd" clip-rule="evenodd" d="M0 6.42857H24V9.85714H0V6.42857ZM0 13.2857H24V16.7143H0V13.2857Z" fill="white"/>
<path fill-rule="evenodd" clip-rule="evenodd" d="M0 3L13.7143 11.5714L0 20.1429V3Z" fill="#D10D24"/>
<path fill-rule="evenodd" clip-rule="evenodd" d="M5.14286 13L3.46286 13.8834L3.78286 12.0126L2.42514 10.6869L4.30286 10.416L5.14286 8.71428L5.98286 10.4171L7.86057 10.688L6.50057 12.0137L6.82057 13.8834" fill="white"/>
<path d="M21.7143 3.57143H2.28572C1.33894 3.57143 0.57143 4.33894 0.57143 5.28571V17.8571C0.57143 18.8039 1.33894 19.5714 2.28572 19.5714H21.7143C22.6611 19.5714 23.4286 18.8039 23.4286 17.8571V5.28571C23.4286 4.33894 22.6611 3.57143 21.7143 3.57143Z" stroke="black" stroke-opacity="0.1"/>
</g>
</svg>
