<svg width="24" height="24" viewBox="0 0 24 24" fill="none" xmlns="http://www.w3.org/2000/svg">
<mask id="mask0_3349_50738" style="mask-type:alpha" maskUnits="userSpaceOnUse" x="0" y="3" width="24" height="18">
<path d="M21.7143 3H2.28571C1.02335 3 0 4.02335 0 5.28571V17.8571C0 19.1195 1.02335 20.1429 2.28571 20.1429H21.7143C22.9767 20.1429 24 19.1195 24 17.8571V5.28571C24 4.02335 22.9767 3 21.7143 3Z" fill="white"/>
</mask>
<g mask="url(#mask0_3349_50738)">
<path d="M21.7143 3H2.28571C1.02335 3 0 4.02335 0 5.28571V17.8571C0 19.1195 1.02335 20.1429 2.28571 20.1429H21.7143C22.9767 20.1429 24 19.1195 24 17.8571V5.28571C24 4.02335 22.9767 3 21.7143 3Z" fill="#002B7F"/>
<path fill-rule="evenodd" clip-rule="evenodd" d="M5.71429 8.71429H5.13759C4.818 8.71429 4.57143 8.97012 4.57143 9.28572C4.57143 9.59208 4.82491 9.85714 5.13759 9.85714H5.71429V10.4338C5.71429 10.7534 5.97012 11 6.28571 11C6.59208 11 6.85714 10.7465 6.85714 10.4338V9.85714H7.43384C7.75343 9.85714 8 9.60131 8 9.28572C8 8.97935 7.74652 8.71429 7.43384 8.71429H6.85714V8.13759C6.85714 7.81801 6.60131 7.57143 6.28571 7.57143C5.97935 7.57143 5.71429 7.82491 5.71429 8.13759V8.71429ZM3.42857 6.42857H4.57143V7.57143H3.42857V6.42857Z" fill="white"/>
<path d="M24 13.2857H0V15.5714H24V13.2857Z" fill="#F9E814"/>
<path d="M21.7143 3.57143H2.28571C1.33894 3.57143 0.571428 4.33894 0.571428 5.28571V17.8571C0.571428 18.8039 1.33894 19.5714 2.28571 19.5714H21.7143C22.6611 19.5714 23.4286 18.8039 23.4286 17.8571V5.28571C23.4286 4.33894 22.6611 3.57143 21.7143 3.57143Z" stroke="black" stroke-opacity="0.1"/>
</g>
</svg>
