<svg width="24" height="24" viewBox="0 0 24 24" fill="none" xmlns="http://www.w3.org/2000/svg">
<mask id="mask0_3565_3815" style="mask-type:alpha" maskUnits="userSpaceOnUse" x="0" y="3" width="24" height="18">
<path d="M21.7143 3H2.28571C1.02335 3 0 4.02335 0 5.28571V17.8571C0 19.1195 1.02335 20.1429 2.28571 20.1429H21.7143C22.9767 20.1429 24 19.1195 24 17.8571V5.28571C24 4.02335 22.9767 3 21.7143 3Z" fill="white"/>
</mask>
<g mask="url(#mask0_3565_3815)">
<path d="M21.7143 3H2.28571C1.02335 3 0 4.02335 0 5.28571V17.8571C0 19.1195 1.02335 20.1429 2.28571 20.1429H21.7143C22.9767 20.1429 24 19.1195 24 17.8571V5.28571C24 4.02335 22.9767 3 21.7143 3Z" fill="#002868"/>
<path d="M10.2857 4.14285H2.28568C1.6545 4.14285 1.14282 4.65453 1.14282 5.28571V11C1.14282 11.6312 1.6545 12.1429 2.28568 12.1429H10.2857C10.9169 12.1429 11.4285 11.6312 11.4285 11V5.28571C11.4285 4.65453 10.9169 4.14285 10.2857 4.14285Z" fill="white"/>
<path fill-rule="evenodd" clip-rule="evenodd" d="M5.71434 8.71429H2.28577V7.57143H5.71434V5.28572H6.8572V7.57143H10.2858V8.71429H6.8572V11H5.71434V8.71429ZM8.57148 9.85715V11H10.2858V9.85715H8.57148ZM8.57148 5.28572V6.42858H10.2858V5.28572H8.57148ZM2.28577 9.85715V11H4.00005V9.85715H2.28577ZM2.28577 5.28572V6.42858H4.00005V5.28572H2.28577Z" fill="#FF0000"/>
<path d="M21.7143 3.57143H2.2857C1.33892 3.57143 0.571411 4.33894 0.571411 5.28571V17.8571C0.571411 18.8039 1.33892 19.5714 2.2857 19.5714H21.7143C22.661 19.5714 23.4286 18.8039 23.4286 17.8571V5.28571C23.4286 4.33894 22.661 3.57143 21.7143 3.57143Z" stroke="black" stroke-opacity="0.1"/>
<path d="M17.5189 15.937L17.5 15.9454L17.4811 15.937C17.4557 15.9256 17.4183 15.9087 17.3707 15.8866C17.2754 15.8423 17.1392 15.7773 16.9757 15.6944C16.6487 15.5284 16.2129 15.2909 15.7775 15.0045C15.3417 14.7179 14.9081 14.3835 14.584 14.0242C14.2591 13.664 14.05 13.2852 14.05 12.9089V8.05H20.95V12.9089C20.95 13.2852 20.7409 13.664 20.416 14.0242C20.0919 14.3835 19.6583 14.7179 19.2225 15.0045C18.7871 15.2909 18.3513 15.5284 18.0243 15.6944C17.8608 15.7773 17.7246 15.8423 17.6293 15.8866C17.5817 15.9087 17.5443 15.9256 17.5189 15.937Z" fill="#006129" stroke="white" stroke-width="0.1"/>
<path d="M20.5 13.5L21 13.9089C21 15.4872 19.3236 17 17.5 17C15.6764 17 14 15.4872 14 13.9089L14.5 13.5C14.5 13.5 15.6998 16 17.5 16C19.3002 16 20.5 13.5 20.5 13.5Z" fill="#FCD116"/>
<path d="M13.3377 15.912C13.4298 16.1576 14.0897 16.4799 14.8571 16.0655C15.3789 15.7739 15.7166 15.3595 16.0389 14.6228C16.1309 14.4387 16.177 14.2084 15.9621 14.0703C15.7933 13.9475 15.517 13.8094 15.3943 13.6866C15.3329 13.6252 15.2715 13.5792 15.2254 13.5332C15.2561 13.5639 15.2868 13.5945 15.3175 13.6406C15.6245 14.0089 15.3022 14.5461 14.9645 14.8684C14.719 15.0986 14.2739 15.6665 13.6293 15.1293C13.4912 15.0065 13.1689 15.513 13.3377 15.912L13.3377 15.912Z" fill="#FCEA83" stroke="black" stroke-width="0.0460425"/>
<path d="M22.669 15.912C22.5616 16.1576 21.9016 16.4799 21.1496 16.0655C20.6278 15.7739 20.2901 15.3595 19.9525 14.6228C19.8758 14.4387 19.8297 14.2084 20.0446 14.0703C20.2134 13.9475 20.4897 13.8094 20.6124 13.6866C20.6738 13.6252 20.7199 13.5792 20.7813 13.5332C20.7506 13.5639 20.7199 13.5945 20.6892 13.6406C20.3822 14.0089 20.7045 14.5461 21.0268 14.8684C21.2724 15.0986 21.7328 15.6665 22.3774 15.1293C22.5155 15.0065 22.8225 15.513 22.669 15.912V15.912Z" fill="#FCEA83" stroke="black" stroke-width="0.0460425"/>
<path d="M18.0033 17.2318C19.2311 17.2318 21.1188 16.6793 22.1318 14.7455C22.3006 14.4232 22.1318 14.2544 21.9323 14.147C21.7174 14.0549 21.4565 13.84 21.3184 13.7019C21.5639 13.9475 21.5179 14.1163 21.3491 14.3925C20.5663 15.6971 19.492 16.357 18.0033 16.357C16.5146 16.357 15.4403 15.6971 14.6575 14.3925C14.4887 14.1163 14.4427 13.9475 14.6729 13.7019C14.5501 13.84 14.2738 14.0549 14.059 14.147C13.8595 14.2544 13.6906 14.4232 13.8595 14.7455C14.8724 16.6793 16.7755 17.2318 18.0033 17.2318H18.0033Z" fill="#FCEA83" stroke="black" stroke-width="0.0460425"/>
<path d="M15.1641 14.6383C15.1334 14.4848 14.9339 14.5462 14.8725 14.7304C14.7957 14.6229 14.719 14.5155 14.6576 14.3927C14.4734 14.1165 14.4427 13.9323 14.7036 13.6714C14.8264 13.5486 15.072 13.4105 15.2408 13.5639C15.5938 13.8556 15.4096 14.3313 15.1641 14.6383V14.6383Z" fill="#C8102E" stroke="black" stroke-width="0.0460425"/>
<path d="M20.8273 14.6383C20.858 14.4848 21.0728 14.5462 21.1342 14.7304C21.211 14.6229 21.2877 14.5155 21.3491 14.3927C21.5333 14.1165 21.564 13.9323 21.2877 13.6714C21.1803 13.5486 20.9347 13.4105 20.7506 13.5639C20.4129 13.8556 20.5817 14.3313 20.8273 14.6383L20.8273 14.6383Z" fill="#C8102E" stroke="black" stroke-width="0.0460425"/>
<path d="M13.3377 15.9119C13.1842 15.6817 13.0615 15.0831 13.0308 14.9297C12.9847 14.7915 12.9694 14.6688 13.1382 14.6074C13.307 14.546 13.4605 14.7608 13.5372 14.945C13.614 15.1292 13.7368 15.4054 13.8749 15.7431C13.5372 15.5436 13.261 15.6817 13.3377 15.9119H13.3377Z" fill="#C8102E" stroke="black" stroke-width="0.0460425"/>
<path d="M22.669 15.9119C22.8071 15.6817 22.9299 15.0831 22.976 14.9297C23.0067 14.7915 23.0373 14.6688 22.8685 14.6074C22.6997 14.546 22.5462 14.7608 22.4695 14.945C22.3927 15.1292 22.27 15.4054 22.1318 15.7431C22.4695 15.5436 22.7304 15.6817 22.669 15.9119Z" fill="#C8102E" stroke="black" stroke-width="0.0460425"/>
<path d="M14.2279 14.5306L14.1051 14.592C14.0744 14.6073 14.0744 14.638 14.0744 14.6534H14.0591L13.9977 14.5153H14.013C14.013 14.5306 14.0284 14.546 14.0591 14.5306L14.32 14.3925C14.3507 14.3771 14.3507 14.3618 14.3353 14.3464L14.3507 14.3311L14.4274 14.4846H14.4121C14.3967 14.4692 14.3814 14.4539 14.3507 14.4692L14.2432 14.5306L14.2893 14.6227L14.4121 14.5766C14.4428 14.5613 14.4274 14.5306 14.4274 14.5153H14.4428L14.5041 14.6534C14.4888 14.638 14.4735 14.6227 14.4428 14.638L14.1819 14.7762C14.1512 14.7915 14.1512 14.8069 14.1665 14.8222L14.1512 14.8376L14.0744 14.6994L14.0898 14.6841C14.1051 14.6994 14.1205 14.7148 14.1512 14.6994L14.2739 14.638L14.2279 14.5306Z" fill="#00493D"/>
<path d="M14.4887 14.7302C14.5194 14.7149 14.5194 14.6995 14.5041 14.6688H14.5194L14.6729 14.899L14.5655 14.9758V14.9604C14.6268 14.9144 14.6268 14.853 14.6115 14.8376C14.5961 14.8223 14.5808 14.8069 14.5808 14.7916C14.5655 14.7916 14.5655 14.7762 14.5348 14.8069C14.5194 14.8223 14.4273 14.8837 14.4273 14.8837C14.4427 14.899 14.458 14.9451 14.5348 14.899H14.5501L14.3813 15.0218V15.0065C14.458 14.9451 14.4273 14.899 14.412 14.8837L14.3045 14.9604C14.2738 14.9758 14.2738 14.9911 14.2738 15.0065C14.2892 15.0065 14.2892 15.0218 14.3045 15.0371C14.3199 15.0678 14.3659 15.0985 14.4427 15.0678L14.458 15.0832L14.3352 15.1292L14.1818 14.8837H14.1971C14.2125 14.899 14.2278 14.9144 14.2585 14.899L14.4887 14.7302Z" fill="#00493D"/>
<path d="M14.7343 15.3135L14.6269 15.4056C14.6115 15.421 14.6115 15.4517 14.6269 15.467H14.6115L14.5041 15.3596L14.5194 15.3442C14.5348 15.3596 14.5501 15.3749 14.5808 15.3442L14.7803 15.1447C14.811 15.1294 14.811 15.114 14.7957 15.0833L14.9031 15.2061C14.8878 15.1907 14.8571 15.1907 14.8417 15.2061L14.7497 15.2982L14.8264 15.3749L14.9185 15.2982C14.9492 15.2675 14.9338 15.2521 14.9185 15.2368L14.9338 15.2214L15.0413 15.3442H15.0259C15.0106 15.3442 14.9952 15.3289 14.9645 15.3596L14.765 15.5437C14.7343 15.5744 14.7343 15.5898 14.7497 15.6051V15.6205L14.6422 15.4977C14.6576 15.4977 14.6883 15.513 14.7036 15.4977L14.811 15.3903L14.7343 15.3135Z" fill="#00493D"/>
<path d="M14.9645 15.6358L15.0105 15.6819C15.0719 15.5438 15.0719 15.5438 15.0719 15.5438C15.0719 15.5438 15.0259 15.5591 14.9492 15.6052L14.9645 15.6358L14.9492 15.6512L14.9185 15.6205C14.9031 15.6358 14.8878 15.6358 14.8724 15.6512C14.8264 15.6819 14.8417 15.6972 14.8571 15.7126V15.7279L14.7803 15.6512H14.7957L14.8571 15.6358C15.164 15.467 15.164 15.467 15.164 15.467L15.1794 15.4824C15.1794 15.4824 15.164 15.4977 15.0259 15.8047C15.0259 15.8354 15.0105 15.8507 15.0259 15.8814L14.9031 15.774L14.9185 15.7586C14.9338 15.7893 14.9645 15.7893 14.9799 15.7586C14.9799 15.7433 14.9952 15.7126 14.9952 15.6972L14.9492 15.6512L14.9645 15.6359V15.6358Z" fill="#00493D"/>
<path d="M15.0873 15.9428L15.1027 15.9274C15.118 15.9428 15.1334 15.9428 15.1641 15.9274L15.3636 15.6665L15.3483 15.6512C15.3176 15.6358 15.2715 15.6358 15.2255 15.6819V15.6665L15.2869 15.5898L15.5171 15.7586L15.4403 15.8507H15.425C15.471 15.8046 15.4557 15.7432 15.425 15.7279V15.7125L15.2255 15.9735C15.1948 15.9888 15.2101 16.0195 15.2255 16.0348H15.2101L15.0873 15.9428Z" fill="#00493D"/>
<path d="M15.4864 16.0041L15.4096 16.1115C15.3943 16.1422 15.4096 16.1575 15.425 16.1729L15.4096 16.1882L15.2869 16.0961V16.0808C15.3176 16.0961 15.3329 16.0961 15.3483 16.0654L15.5171 15.8352C15.5324 15.8045 15.5171 15.7892 15.5017 15.7738L15.5171 15.7585L15.6399 15.8506V15.8659C15.6092 15.8506 15.5938 15.8506 15.5785 15.8813L15.5017 15.9887L15.5938 16.0501L15.6706 15.9427C15.6859 15.912 15.6706 15.8966 15.6552 15.8813L15.6706 15.8659L15.7933 15.958V15.9734C15.778 15.958 15.7473 15.958 15.7319 15.9887L15.5785 16.2343C15.5478 16.2496 15.5631 16.265 15.5785 16.2803V16.2957L15.4403 16.2036H15.4557C15.471 16.2036 15.4864 16.2036 15.5017 16.1882L15.5785 16.0654L15.4864 16.0041Z" fill="#00493D"/>
<path d="M15.7933 16.4338L15.8087 16.4184C15.824 16.4338 15.8547 16.4338 15.8701 16.4031L15.9929 16.1422C16.0082 16.1115 15.9929 16.0961 15.9775 16.0808L16.2384 16.2035L16.177 16.3263L16.1617 16.311C16.2077 16.2496 16.1617 16.1882 16.1463 16.1728C16.131 16.1728 16.1156 16.1575 16.1003 16.1575C16.0849 16.1575 16.0849 16.1575 16.0696 16.1882C16.0542 16.2035 16.0082 16.2956 16.0082 16.2956C16.0235 16.311 16.0542 16.3417 16.1156 16.2649H16.131L16.0389 16.4491L16.0235 16.4338C16.0696 16.3417 16.0082 16.3263 15.9929 16.3263L15.9315 16.4491C15.9161 16.4798 15.9315 16.4951 15.9468 16.4951V16.5105L15.7933 16.4338Z" fill="#00493D"/>
<path d="M16.2384 16.6488C16.1923 16.6181 16.1923 16.526 16.2384 16.4339C16.269 16.3418 16.3304 16.2651 16.3918 16.2958C16.4379 16.3111 16.4225 16.4032 16.3918 16.4953C16.3458 16.6027 16.2844 16.6641 16.2384 16.6488H16.223C16.3304 16.6948 16.4072 16.6334 16.4532 16.526C16.4993 16.4339 16.4839 16.3265 16.3918 16.2804C16.2997 16.2344 16.2077 16.2958 16.1616 16.4032C16.1156 16.5106 16.1309 16.6181 16.223 16.6488H16.2384Z" fill="#00493D"/>
<path d="M16.7142 16.6794L16.7756 16.4952C16.7909 16.4645 16.7756 16.4492 16.7602 16.4338L16.8369 16.4492V16.4645C16.8216 16.4645 16.8063 16.4645 16.7909 16.4952L16.7295 16.6794C16.6988 16.7561 16.6528 16.8175 16.5607 16.7868C16.4993 16.7715 16.4533 16.6947 16.484 16.618L16.5607 16.4185C16.576 16.3878 16.5607 16.3724 16.5453 16.3571V16.3417L16.6835 16.4031V16.4185C16.6681 16.4031 16.6374 16.4031 16.6374 16.4338L16.5607 16.6333C16.5453 16.6947 16.5453 16.7561 16.5914 16.7715C16.6374 16.7868 16.6835 16.7561 16.7142 16.6794Z" fill="#00493D"/>
<path d="M16.8523 16.4798C16.8523 16.4645 16.8523 16.4645 16.837 16.4645L16.9444 16.4798L17.0365 16.7714L17.0825 16.5872C17.0979 16.5565 17.0825 16.5412 17.0672 16.5259L17.1593 16.5412L17.1439 16.5565C17.1286 16.5565 17.1132 16.5565 17.0979 16.5872L17.0211 16.9249H17.0058L16.883 16.5566L16.8063 16.8021C16.8063 16.8482 16.8216 16.8482 16.837 16.8635V16.8788L16.7449 16.8482V16.8328C16.7602 16.8482 16.7909 16.8328 16.7909 16.8021L16.8677 16.5259L16.8523 16.4798V16.4798Z" fill="#00493D"/>
<path d="M17.3741 16.7868C17.3434 16.9249 17.282 16.9556 17.2513 16.9556H17.2206C17.2206 16.9556 17.2053 16.9403 17.2206 16.9249L17.2667 16.618C17.282 16.6026 17.282 16.5873 17.2974 16.6026H17.3281C17.3588 16.6026 17.3895 16.664 17.3741 16.7868L17.4202 16.8022C17.4509 16.6487 17.3895 16.5873 17.3127 16.5719C17.2513 16.5566 17.1593 16.5412 17.1593 16.5412V16.5566C17.1746 16.5719 17.2053 16.5719 17.19 16.618L17.1439 16.8942C17.1286 16.9249 17.1132 16.9403 17.0979 16.9403H17.0825L17.236 16.971C17.3127 16.9863 17.3895 16.971 17.4202 16.8022L17.3741 16.7868Z" fill="#00493D"/>
<path d="M17.5122 16.6641C17.5122 16.6334 17.4815 16.618 17.4661 16.618V16.6027L17.7424 16.6334L17.7271 16.7562C17.7271 16.6794 17.681 16.6487 17.6503 16.6487C17.635 16.6334 17.6196 16.6334 17.6043 16.6334C17.5889 16.6334 17.5889 16.6334 17.5889 16.6794C17.5889 16.6948 17.5736 16.8022 17.5736 16.8022C17.5889 16.8022 17.635 16.8175 17.6657 16.7255L17.6503 16.925H17.635C17.635 16.8329 17.5889 16.8329 17.5736 16.8329L17.5582 16.971C17.5582 17.0017 17.5582 17.0017 17.5736 17.0017L17.6043 17.0171C17.6503 17.0171 17.6964 17.0017 17.7271 16.9096H17.7424L17.7117 17.0324L17.4201 17.0017C17.4508 17.0017 17.4661 16.9864 17.4815 16.9557L17.5122 16.6641Z" fill="#00493D"/>
<path d="M18.0186 16.8481C18.0186 16.9862 17.9726 17.0322 17.9265 17.0322C17.9112 17.0169 17.9112 17.0169 17.8959 17.0169L17.8805 17.0015L17.8959 16.6792C17.8959 16.6639 17.8959 16.6639 17.9112 16.6639H17.9419C17.9726 16.6639 18.0186 16.7099 18.0186 16.8481H18.08C18.08 16.6946 18.0033 16.6485 17.9265 16.6485C17.8652 16.6332 17.7731 16.6332 17.7731 16.6332V16.6485C17.7884 16.6485 17.8191 16.6639 17.8191 16.6946L17.8038 16.9862C17.8038 17.0169 17.7884 17.0322 17.7731 17.0322V17.0476H17.9112C17.9879 17.0476 18.0647 17.0169 18.08 16.8481H18.0186V16.8481Z" fill="#00493D"/>
<path d="M18.4637 16.971C18.4637 17.0017 18.4791 17.0017 18.5098 17.0017V17.017L18.341 17.0324C18.3563 17.017 18.387 17.0017 18.387 16.971L18.3563 16.6794C18.341 16.6487 18.3256 16.6487 18.2949 16.6487V16.6334L18.4637 16.618C18.4484 16.6334 18.4177 16.6487 18.433 16.6794L18.4637 16.971Z" fill="#00493D"/>
<path d="M18.6172 17.0016V16.9863C18.6325 16.9863 18.6479 16.9709 18.6479 16.9402L18.5865 16.6179H18.5711C18.5404 16.6333 18.5097 16.664 18.5251 16.7254H18.5097L18.4944 16.6179L18.7706 16.5719L18.786 16.6793H18.7706C18.7706 16.6179 18.7246 16.6026 18.6786 16.6026H18.6632L18.7246 16.9249C18.7246 16.9556 18.7399 16.9709 18.7706 16.9709V16.9863L18.6172 17.0016Z" fill="#00493D"/>
<path d="M19.2771 16.6949L19.2157 16.5107C19.2157 16.48 19.185 16.48 19.1697 16.48V16.4646L19.2464 16.4339V16.4493C19.2311 16.4646 19.2311 16.4646 19.2311 16.4953L19.2924 16.6949C19.3078 16.7562 19.3078 16.8483 19.2157 16.879C19.1543 16.8944 19.0776 16.8637 19.0622 16.7716L19.0008 16.5721C18.9855 16.5414 18.9701 16.5414 18.9548 16.5414L18.9395 16.526L19.0929 16.48V16.4953C19.0776 16.5107 19.0622 16.526 19.0776 16.5567L19.1236 16.7562C19.139 16.8176 19.185 16.8483 19.2311 16.8483C19.2771 16.833 19.2924 16.7716 19.2771 16.6949Z" fill="#00493D"/>
<path d="M19.4461 16.5873C19.5228 16.5566 19.5075 16.5106 19.4921 16.4646C19.4768 16.4185 19.4461 16.3878 19.4154 16.4032C19.4 16.4032 19.3847 16.4185 19.4 16.4339L19.4461 16.5873L19.4614 16.6027L19.4921 16.7255C19.5075 16.7562 19.5382 16.7562 19.5535 16.7408V16.7562L19.4154 16.8176L19.4 16.8022C19.4307 16.7869 19.4307 16.7715 19.4307 16.7408L19.3233 16.4799C19.3079 16.4339 19.2926 16.4492 19.2619 16.4492V16.4339L19.4154 16.3725C19.4768 16.3571 19.5382 16.3725 19.5689 16.4339C19.5842 16.5106 19.5535 16.5566 19.4921 16.5873C19.4768 16.5873 19.4614 16.6027 19.4614 16.6027L19.4461 16.5873Z" fill="#00493D"/>
<path d="M19.8297 16.6333C19.7836 16.6486 19.7222 16.5872 19.6762 16.4798C19.6302 16.3877 19.6302 16.2956 19.6762 16.2803C19.7222 16.2649 19.7836 16.3263 19.8297 16.4184C19.8757 16.5105 19.8757 16.6026 19.8297 16.6333C19.9218 16.6026 19.9525 16.4951 19.9064 16.3877C19.8604 16.2956 19.7683 16.2342 19.6762 16.2649C19.5841 16.311 19.5534 16.4184 19.5995 16.5105C19.6455 16.6179 19.7376 16.6793 19.8297 16.6333Z" fill="#00493D"/>
<path d="M19.845 16.2037H19.8297H19.8143L19.9064 16.1423L20.1827 16.2958L20.0906 16.127C20.0752 16.0963 20.0445 16.0963 20.0292 16.0963V16.0809L20.1059 16.0502C20.0906 16.0656 20.0752 16.0809 20.1059 16.1116L20.2594 16.4186L20.2441 16.4339L19.9064 16.2498L20.0292 16.48C20.0445 16.5107 20.0752 16.5107 20.0906 16.4953V16.5107L20.0138 16.5567V16.5414C20.0292 16.526 20.0292 16.5107 20.0138 16.48L19.8911 16.2344L19.845 16.2037Z" fill="#00493D"/>
<path d="M20.5357 16.2497V16.2344C20.5357 16.219 20.551 16.2037 20.5357 16.173L20.3515 15.9121H20.3361C20.3054 15.9274 20.2901 15.9888 20.3361 16.0349L20.3208 16.0502L20.2594 15.9428L20.4896 15.7893L20.551 15.8814C20.505 15.8353 20.4589 15.8353 20.4282 15.8507L20.4129 15.866L20.597 16.1269C20.6124 16.1576 20.6431 16.1576 20.6584 16.1423V16.1576L20.5357 16.2497Z" fill="#00493D"/>
<path d="M20.7045 15.8813L20.7966 15.9887C20.8119 16.0041 20.8426 16.0041 20.858 15.9887V16.0041L20.7352 16.1115V16.0961C20.7505 16.0808 20.7505 16.0654 20.7352 16.0348L20.551 15.8045C20.5357 15.7738 20.5203 15.7892 20.4896 15.7892L20.6124 15.6818V15.6971C20.6124 15.7125 20.5971 15.7278 20.6124 15.7585L20.6891 15.8506L20.7812 15.7892L20.7045 15.6818C20.6891 15.6511 20.6584 15.6664 20.6431 15.6664L20.7659 15.559V15.5743C20.7505 15.5897 20.7505 15.605 20.7659 15.6357L20.95 15.8659C20.9654 15.8813 20.9807 15.8813 20.9961 15.8659L21.0114 15.8813L20.8887 15.9887L20.8733 15.9734C20.8887 15.958 20.904 15.9427 20.8887 15.912L20.7966 15.8045L20.7045 15.8813Z" fill="#00493D"/>
<path d="M20.8426 15.559C20.8273 15.5436 20.7966 15.5436 20.7812 15.559V15.5436L20.9808 15.3595L21.0729 15.4516H21.0575C21.0115 15.3902 20.9501 15.4209 20.9194 15.4362C20.9194 15.4516 20.904 15.4516 20.8887 15.4669C20.8887 15.4669 20.8887 15.4822 20.904 15.5129C20.9194 15.5283 20.9961 15.605 20.9961 15.605C21.0115 15.5897 21.0575 15.559 20.9961 15.4822H21.0115L21.1342 15.6204V15.6357C21.0575 15.559 21.0268 15.605 21.0115 15.6204L21.1035 15.7125C21.1189 15.7432 21.1342 15.7432 21.1342 15.7432C21.1496 15.7278 21.1649 15.7125 21.1803 15.6971C21.1956 15.6818 21.211 15.6357 21.1803 15.5436H21.1956L21.257 15.6511L21.0575 15.8506L21.0422 15.8352C21.0575 15.8199 21.0729 15.8045 21.0422 15.7739L20.8426 15.559Z" fill="#00493D"/>
<path d="M21.2109 15.1293C21.1955 15.1446 21.1955 15.1753 21.2262 15.1907C21.2569 15.2214 21.2876 15.2214 21.349 15.1907C21.3797 15.1753 21.4411 15.16 21.4871 15.206C21.5639 15.2828 21.5332 15.3442 21.5178 15.3748C21.5025 15.3902 21.4718 15.4055 21.4564 15.4209C21.4411 15.4209 21.4411 15.4209 21.4411 15.4362V15.4516L21.3336 15.3595H21.349C21.4104 15.3902 21.4718 15.4055 21.5025 15.3595C21.5332 15.3288 21.5025 15.2981 21.4871 15.2828C21.4564 15.2521 21.4257 15.2521 21.3797 15.2828C21.3336 15.2981 21.2723 15.2981 21.2262 15.2674C21.1648 15.206 21.1648 15.16 21.1955 15.1139C21.2109 15.0986 21.2416 15.0832 21.2569 15.0679C21.2723 15.0679 21.2723 15.0679 21.2569 15.0372L21.3643 15.1139H21.349C21.2723 15.0832 21.2262 15.0986 21.2109 15.1293Z" fill="#00493D"/>
<path d="M21.3491 15.0064C21.3184 14.9911 21.3031 15.0064 21.2877 15.0218H21.2724L21.4412 14.7762L21.5487 14.853L21.5333 14.8683C21.4719 14.8223 21.4105 14.853 21.3952 14.8683C21.3952 14.8837 21.3798 14.899 21.3798 14.9144C21.3645 14.9144 21.3645 14.9297 21.3952 14.9451C21.4105 14.9604 21.5026 15.0218 21.5026 15.0218C21.518 15.0064 21.5487 14.9757 21.4873 14.9144V14.899L21.6407 15.0218C21.5487 14.9757 21.5333 15.0218 21.518 15.0371L21.6254 15.1139C21.6561 15.1292 21.6714 15.1292 21.6714 15.1292C21.6714 15.1139 21.6868 15.0985 21.7021 15.0832C21.7175 15.0525 21.7328 15.0064 21.6714 14.9451L21.6868 14.9297L21.7635 15.0218L21.61 15.252H21.5947C21.61 15.2213 21.61 15.206 21.5794 15.1753L21.3491 15.0064Z" fill="#00493D"/>
<path d="M21.7636 14.7303L21.7176 14.807C21.6562 14.7456 21.6255 14.6996 21.6255 14.6996L21.7636 14.7303H21.7943C21.8096 14.7303 21.8403 14.7456 21.8557 14.7456C21.9017 14.761 21.8864 14.7763 21.871 14.807H21.8864L21.9631 14.6689C21.9324 14.6996 21.9171 14.6843 21.8864 14.6843C21.5641 14.6229 21.5334 14.6075 21.5334 14.6075V14.6229L21.7789 14.8991C21.7943 14.9145 21.7943 14.9452 21.7943 14.9605H21.8096L21.8557 14.8838L21.8403 14.8684C21.825 14.8991 21.8096 14.9145 21.7789 14.8684C21.7636 14.8531 21.7483 14.8377 21.7483 14.8377L21.7943 14.7303H21.7636Z" fill="#00493D"/>
<path d="M21.6713 14.3925C21.656 14.4079 21.656 14.4386 21.702 14.4539C21.7481 14.4693 21.7634 14.4539 21.8094 14.4232C21.8555 14.3925 21.9015 14.3618 21.9629 14.3925C22.055 14.4386 22.0396 14.5153 22.0243 14.546C22.009 14.5614 21.9936 14.5921 21.9783 14.6074V14.6228V14.6381L21.8555 14.5767C21.9322 14.5921 21.9936 14.5767 22.009 14.5307C22.0243 14.5 21.9936 14.4693 21.9783 14.4539C21.9476 14.4386 21.9169 14.4539 21.8708 14.4846C21.8248 14.5307 21.7787 14.546 21.7174 14.5153C21.656 14.4846 21.6253 14.4386 21.656 14.3925C21.656 14.3618 21.6867 14.3465 21.702 14.3312C21.702 14.3158 21.702 14.3158 21.6867 14.3005V14.2851L21.8094 14.3465H21.7941C21.7174 14.3312 21.6713 14.3618 21.6713 14.3925Z" fill="#00493D"/>
<path d="M16.8216 8.95965C16.6221 9.00569 16.484 9.02104 16.2998 8.85222C16.177 8.72944 16.2077 8.51457 16.3305 8.43783C16.4686 8.34575 16.5914 8.28436 16.7602 8.3304C16.929 8.37644 17.3741 8.79083 17.2667 8.80617C17.1592 8.80617 16.9904 8.91361 16.8216 8.95965L16.8216 8.95965Z" fill="white" stroke="black" stroke-width="0.0460425"/>
<path d="M17.2974 8.22284C17.3588 8.1768 17.4356 8.1461 17.6351 8.13075C17.8192 8.11541 17.9574 8.11541 18.0034 8.25353C18.0648 8.42236 18.1108 8.62187 18.2336 8.71396C18.1569 8.76 17.7732 8.80605 17.6351 8.72931C17.4509 8.63722 17.4049 8.28423 17.2974 8.22284H17.2974Z" fill="white" stroke="black" stroke-width="0.0460425"/>
<path d="M18.6173 8.2381C18.6787 8.19206 18.7554 8.19206 18.955 8.20741C19.1545 8.22275 19.2312 8.2381 19.2773 8.37623C19.3233 8.5297 19.2773 8.72922 19.3693 8.86735C19.2773 8.89804 18.9703 8.89804 18.8629 8.79061C18.694 8.66783 18.7094 8.31484 18.6173 8.2381L18.6173 8.2381Z" fill="white" stroke="black" stroke-width="0.0460425"/>
<path d="M19.5381 8.33024C19.4 8.29954 19.3079 8.28419 19.2465 8.33024C19.3233 8.42232 19.2619 8.79066 19.4153 8.91344C19.5228 8.99018 19.799 9.00553 19.8604 8.8367C19.9372 8.68323 19.9372 8.45302 19.5381 8.33023V8.33024Z" fill="#073163" stroke="black" stroke-width="0.0460425"/>
<path d="M17.9573 8.17675C18.0034 8.1307 18.0955 8.11536 18.2796 8.11536C18.4792 8.11536 18.6019 8.14605 18.6633 8.26883C18.7247 8.42231 18.7094 8.62183 18.8168 8.74461C18.7708 8.806 18.3564 8.806 18.2336 8.71391C18.0648 8.60648 18.0494 8.25348 17.9573 8.17675L17.9573 8.17675Z" fill="#073163" stroke="black" stroke-width="0.0460425"/>
<path d="M16.6528 8.31492C16.6528 8.23819 16.7603 8.22284 17.0365 8.20749C17.3128 8.1768 17.3281 8.19214 17.4202 8.39166C17.4663 8.49909 17.5276 8.68326 17.6504 8.74465C17.3128 8.82139 17.2053 8.86743 17.0212 8.76C16.883 8.68326 16.7296 8.49909 16.6989 8.42235C16.6835 8.37631 16.6835 8.33027 16.6528 8.31492L16.6528 8.31492Z" fill="#073163" stroke="black" stroke-width="0.0460425"/>
<path d="M17.3895 6.74951C17.0672 6.50395 16.6835 6.27373 16.3305 6.22769C16.5607 6.36582 17.2053 6.87229 17.3741 7.04111" fill="#F9D050"/>
<path d="M17.3895 6.74951C17.0672 6.50395 16.6835 6.27373 16.3305 6.22769C16.5607 6.36582 17.2053 6.87229 17.3741 7.04111" stroke="black" stroke-width="0.020717"/>
<path d="M17.5736 6.51915C17.1899 6.25824 16.7448 5.96664 16.3151 5.93594C16.6374 6.10477 17.1131 6.5038 17.374 6.8261" fill="#F9D050"/>
<path d="M17.5736 6.51915C17.1899 6.25824 16.7448 5.96664 16.3151 5.93594C16.6374 6.10477 17.1131 6.5038 17.374 6.8261" stroke="black" stroke-width="0.020717"/>
<path d="M18.0648 6.08954C18.2796 5.61376 18.5098 5.35285 18.8168 5.06125C18.6633 5.38355 18.4945 6.04349 18.4178 6.3044" fill="#F9D050"/>
<path d="M18.0648 6.08954C18.2796 5.61376 18.5098 5.35285 18.8168 5.06125C18.6633 5.38355 18.4945 6.04349 18.4178 6.3044" stroke="black" stroke-width="0.020717"/>
<path d="M18.4024 6.01275C18.5559 5.6751 18.7861 5.3835 19.1851 5.19933C18.9856 5.39884 18.6787 5.9974 18.6019 6.3197" fill="#F9D050"/>
<path d="M18.4024 6.01275C18.5559 5.6751 18.7861 5.3835 19.1851 5.19933C18.9856 5.39884 18.6787 5.9974 18.6019 6.3197" stroke="black" stroke-width="0.020717"/>
<path d="M18.5406 6.31968C18.7248 6.05878 19.0931 5.56766 19.753 5.30675C19.3694 5.69044 18.8015 6.39642 18.6634 6.67268" fill="#F9D050"/>
<path d="M18.5406 6.31968C18.7248 6.05878 19.0931 5.56766 19.753 5.30675C19.3694 5.69044 18.8015 6.39642 18.6634 6.67268" stroke="black" stroke-width="0.020717"/>
<path d="M18.7554 6.6574C19.0317 6.50392 19.5842 6.25836 19.9833 6.3351C19.7377 6.42719 19.001 6.76483 18.6787 7.07178" fill="#F9D050"/>
<path d="M18.7554 6.6574C19.0317 6.50392 19.5842 6.25836 19.9833 6.3351C19.7377 6.42719 19.001 6.76483 18.6787 7.07178" stroke="black" stroke-width="0.020717"/>
<path d="M18.6941 6.54991C18.955 6.27365 19.4307 5.85927 19.9372 5.69044C19.5689 6.04344 18.7861 6.84151 18.6787 6.96429" fill="#F9D050"/>
<path d="M18.6941 6.54991C18.955 6.27365 19.4307 5.85927 19.9372 5.69044C19.5689 6.04344 18.7861 6.84151 18.6787 6.96429" stroke="black" stroke-width="0.020717"/>
<path d="M17.9574 6.38107C17.7732 5.81321 17.497 5.27605 17.0826 5.10722C17.3128 5.44487 17.6044 5.93599 17.7579 6.67267" fill="#F9D050"/>
<path d="M17.9574 6.38107C17.7732 5.81321 17.497 5.27605 17.0826 5.10722C17.3128 5.44487 17.6044 5.93599 17.7579 6.67267" stroke="black" stroke-width="0.020717"/>
<path d="M17.6043 6.36567C17.2973 5.99733 16.8829 5.62898 16.4072 5.55225C16.7295 5.73642 17.2666 6.27358 17.4661 6.7954" fill="#F9D050"/>
<path d="M17.6043 6.36567C17.2973 5.99733 16.8829 5.62898 16.4072 5.55225C16.7295 5.73642 17.2666 6.27358 17.4661 6.7954" stroke="black" stroke-width="0.020717"/>
<path d="M17.7731 6.35038C17.3894 5.65974 17.0978 5.53696 16.929 5.39883C17.0671 5.65974 17.4048 6.35038 17.6043 6.64199" fill="#F9D050"/>
<path d="M17.7731 6.35038C17.3894 5.65974 17.0978 5.53696 16.929 5.39883C17.0671 5.65974 17.4048 6.35038 17.6043 6.64199" stroke="black" stroke-width="0.020717"/>
<path d="M17.0058 6.30446C17.19 6.41189 17.4662 6.6728 17.5583 6.84162" stroke="black" stroke-width="0.020717"/>
<path d="M17.0058 6.62672C17.0979 6.70346 17.2667 6.79555 17.4202 6.93367L17.0058 6.62672Z" fill="#F9D050"/>
<path d="M17.0058 6.62672C17.0979 6.70346 17.2667 6.79555 17.4202 6.93367" stroke="black" stroke-width="0.020717"/>
<path d="M18.8322 6.85688C18.9856 6.7341 19.3233 6.53458 19.4921 6.47319L18.8322 6.85688Z" fill="#F9D050"/>
<path d="M18.8322 6.85688C18.9856 6.7341 19.3233 6.53458 19.4921 6.47319" stroke="black" stroke-width="0.020717"/>
<path d="M18.7247 6.74958C18.8781 6.55006 19.1851 6.2738 19.2925 6.18172L18.7247 6.74958Z" fill="#F9D050"/>
<path d="M18.7247 6.74958C18.8781 6.55006 19.1851 6.2738 19.2925 6.18172" stroke="black" stroke-width="0.020717"/>
<path d="M19.1544 5.798C19.0163 5.95148 18.694 6.33517 18.5712 6.51934L19.1544 5.798Z" fill="#F9D050"/>
<path d="M19.1544 5.798C19.0163 5.95148 18.694 6.33517 18.5712 6.51934" stroke="black" stroke-width="0.020717"/>
<path d="M18.7554 5.65981C18.648 5.79793 18.4331 6.19697 18.3717 6.3351L18.7554 5.65981Z" fill="#F9D050"/>
<path d="M18.7554 5.65981C18.648 5.79793 18.4331 6.19697 18.3717 6.3351" stroke="black" stroke-width="0.020717"/>
<path d="M17.543 5.69044C17.6351 5.93601 17.8039 6.35039 17.8653 6.51921L17.543 5.69044Z" fill="#F9D050"/>
<path d="M17.543 5.69044C17.6351 5.93601 17.8039 6.35039 17.8653 6.51921" stroke="black" stroke-width="0.020717"/>
<path d="M17.4048 5.95128C17.4662 6.04336 17.589 6.25823 17.635 6.41171L17.4048 5.95128Z" fill="#F9D050"/>
<path d="M17.4048 5.95128C17.4662 6.04336 17.589 6.25823 17.635 6.41171" stroke="black" stroke-width="0.020717"/>
<path d="M17.9266 5.87458C17.9266 5.73645 18.0187 5.58298 18.1108 5.58298C18.2182 5.58298 18.295 5.76715 18.295 5.87458C18.295 5.99736 18.2029 6.10479 18.1108 6.10479C18.0187 6.10479 17.9266 6.01271 17.9266 5.87458Z" fill="#F9D050" stroke="black" stroke-width="0.020717"/>
<path d="M17.7271 5.99724C17.7425 5.84376 17.8499 5.72098 17.942 5.73633C18.0341 5.75168 18.0801 5.93585 18.0648 6.04328C18.0494 6.16606 17.942 6.25815 17.8653 6.2428C17.7885 6.2428 17.7118 6.13537 17.7271 5.99724Z" fill="#F9D050" stroke="black" stroke-width="0.020717"/>
<path d="M18.1415 6.04346C18.1108 5.90533 18.1722 5.75186 18.2643 5.73651C18.3564 5.72116 18.4485 5.87464 18.4638 5.99742C18.4945 6.1202 18.4178 6.24298 18.341 6.24298C18.2643 6.25833 18.1569 6.18159 18.1415 6.04346Z" fill="#F9D050" stroke="black" stroke-width="0.020717"/>
<path d="M17.9114 6.16607C17.9114 6.01259 18.0035 5.87447 18.0955 5.87447C18.203 5.87447 18.2797 6.04329 18.2797 6.16607C18.2797 6.28885 18.1876 6.39628 18.0955 6.39628C18.0035 6.39628 17.9114 6.3042 17.9114 6.16607Z" fill="#F9D050" stroke="black" stroke-width="0.020717"/>
<path d="M17.635 6.24284C17.635 6.10471 17.7424 5.95123 17.8345 5.95123C17.9266 5.95123 18.0187 6.1354 18.0187 6.24284C18.0187 6.36562 17.9113 6.47305 17.8345 6.47305C17.7424 6.47305 17.635 6.38096 17.635 6.24284Z" fill="#F9D050" stroke="black" stroke-width="0.020717"/>
<path d="M18.203 6.18153C18.203 6.0434 18.2951 5.88992 18.3872 5.88992C18.4946 5.88992 18.5713 6.07409 18.5713 6.18153C18.5713 6.30431 18.4793 6.41174 18.3872 6.41174C18.2951 6.41174 18.203 6.31965 18.203 6.18153Z" fill="#F9D050" stroke="black" stroke-width="0.020717"/>
<path d="M18.1416 6.30427C18.1416 6.15079 18.249 6.01266 18.3411 6.01266C18.4332 6.01266 18.5253 6.18149 18.5253 6.30427C18.5253 6.42705 18.4332 6.53448 18.3411 6.53448C18.249 6.53448 18.1416 6.4424 18.1416 6.30427Z" fill="#F9D050" stroke="black" stroke-width="0.020717"/>
<path d="M17.896 6.44248C17.896 6.28901 17.9881 6.15088 18.0802 6.15088C18.1876 6.15088 18.2643 6.33505 18.2643 6.44248C18.2643 6.56526 18.1723 6.6727 18.0802 6.6727C17.9881 6.6727 17.896 6.58061 17.896 6.44248Z" fill="#F9D050" stroke="black" stroke-width="0.020717"/>
<path d="M17.5123 6.44248C17.5123 6.28901 17.589 6.15088 17.6657 6.15088C17.7425 6.15088 17.8039 6.33505 17.8039 6.44248C17.8039 6.56526 17.7271 6.6727 17.6657 6.6727C17.589 6.6727 17.5123 6.58061 17.5123 6.44248Z" fill="#F9D050" stroke="black" stroke-width="0.020717"/>
<path d="M18.3717 6.41168C18.3717 6.27355 18.4484 6.13542 18.5252 6.13542C18.6019 6.13542 18.6787 6.30425 18.6787 6.41168C18.6787 6.54981 18.5866 6.64189 18.5252 6.64189C18.4484 6.64189 18.3717 6.54981 18.3717 6.41168Z" fill="#F9D050" stroke="black" stroke-width="0.020717"/>
<path d="M18.4638 6.6727C18.4945 6.51922 18.5866 6.39644 18.648 6.41179C18.7094 6.42714 18.7247 6.61131 18.694 6.71874C18.6787 6.85687 18.5866 6.93361 18.5252 6.91826C18.4638 6.90291 18.4331 6.79548 18.4638 6.6727Z" fill="#F9D050" stroke="black" stroke-width="0.020717"/>
<path d="M18.1722 6.62658C18.1876 6.48845 18.2796 6.35033 18.3564 6.36567C18.4485 6.36567 18.4945 6.54984 18.4792 6.65728C18.4638 6.7954 18.3871 6.88749 18.3103 6.87214C18.2336 6.87214 18.1569 6.76471 18.1722 6.62658Z" fill="#F9D050" stroke="black" stroke-width="0.020717"/>
<path d="M17.7425 6.67269C17.6964 6.51922 17.6043 6.41178 17.543 6.42713C17.4816 6.44248 17.4662 6.62665 17.4969 6.73408C17.5276 6.85686 17.6197 6.9336 17.6811 6.91825C17.7271 6.90291 17.7732 6.79547 17.7425 6.67269Z" fill="#F9D050" stroke="black" stroke-width="0.020717"/>
<path d="M17.635 6.64198C17.635 6.50385 17.7117 6.36572 17.7885 6.36572C17.8806 6.36572 17.942 6.53455 17.942 6.64198C17.942 6.78011 17.8652 6.87219 17.7885 6.87219C17.7271 6.87219 17.635 6.78011 17.635 6.64198Z" fill="#F9D050" stroke="black" stroke-width="0.020717"/>
<path d="M17.8652 6.70332C17.8652 6.54984 17.9573 6.41171 18.0494 6.41171C18.1568 6.41171 18.2336 6.58054 18.2336 6.70332C18.2336 6.8261 18.1415 6.93353 18.0494 6.93353C17.9573 6.93353 17.8652 6.84144 17.8652 6.70332Z" fill="#F9D050" stroke="black" stroke-width="0.020717"/>
<path d="M17.942 5.0151C17.9113 5.13788 17.8039 5.24532 17.8806 5.41414C17.7425 5.3681 17.6197 5.35275 17.5123 5.47553C17.6504 5.46018 17.7732 5.50622 17.8346 5.59831C17.7118 5.58296 17.6504 5.64435 17.6197 5.72109C17.7271 5.6904 17.8346 5.6597 17.8806 5.67505C17.8346 5.72109 17.7578 5.79783 17.7425 5.85922C17.8346 5.78248 17.942 5.79783 18.0034 5.75179C17.9573 5.85922 18.0494 5.96665 18.1262 6.07409C18.1108 5.92061 18.2029 5.81318 18.1569 5.73644C18.295 5.76713 18.3103 5.88991 18.5099 5.88991C18.4331 5.84387 18.3871 5.6904 18.295 5.6904C18.341 5.67505 18.5252 5.6597 18.5559 5.6904C18.5252 5.62901 18.4178 5.56762 18.3564 5.56762C18.4178 5.50623 18.5252 5.38344 18.6019 5.35275C18.4945 5.3681 18.3257 5.38344 18.2643 5.47553C18.4178 5.35275 18.3871 5.12254 18.5559 5.09184C18.4638 5.07649 18.3257 5.13788 18.2183 5.24532C18.2643 5.15323 18.2643 5.03045 18.3257 4.99976C18.2029 5.03045 18.0648 5.18393 18.0187 5.26066C18.0187 5.18393 17.9727 5.06115 17.942 5.0151Z" fill="#F9D050" stroke="black" stroke-width="0.020717"/>
<path d="M18.0188 5.26071C18.0188 5.30675 18.0188 5.39884 18.0034 5.42953L18.0188 5.26071Z" fill="#F9D050"/>
<path d="M18.0188 5.26071C18.0188 5.30675 18.0188 5.39884 18.0034 5.42953" stroke="black" stroke-width="0.020717"/>
<path d="M18.2183 5.24525C18.1876 5.27595 18.1262 5.38338 18.1262 5.47547L18.2183 5.24525Z" fill="#F9D050"/>
<path d="M18.2183 5.24525C18.1876 5.27595 18.1262 5.38338 18.1262 5.47547" stroke="black" stroke-width="0.020717"/>
<path d="M18.3103 5.42944C18.2642 5.46014 18.2182 5.50618 18.2028 5.56757" stroke="black" stroke-width="0.020717"/>
<path d="M16.6835 6.94898C16.576 6.94898 16.484 6.90294 16.4226 6.8262C16.3151 6.68807 16.0235 6.62668 15.9008 6.74946C15.8547 6.78016 15.7933 6.78016 15.7473 6.7955C15.6705 6.7955 15.5785 6.87224 15.6091 7.02572C15.6705 6.97967 15.6859 7.02572 15.7319 7.02572C15.7626 7.01037 15.7473 7.04106 15.7473 7.07176C15.7473 7.1485 15.9161 7.30197 16.0696 7.28663C16.2384 7.28663 16.3151 7.34802 16.3458 7.37871C16.3919 7.42475 16.3612 7.40941 16.3919 7.48614C16.4379 7.53219 16.4533 7.54753 16.3765 7.60892C16.2691 7.70101 16.1924 7.91588 16.3765 8.0847C16.576 8.23817 17.0825 8.46839 17.6504 8.02331C18.2029 7.59358 19.0623 7.83914 19.1237 7.99261C19.2005 8.14609 19.2312 8.23817 19.2465 8.31491C19.2619 8.3763 19.3386 8.43769 19.446 8.42235C19.5535 8.42235 19.6762 8.46839 19.7376 8.51443C19.8144 8.56047 19.9218 8.54513 19.8911 8.407C19.8297 7.97727 19.5688 7.91588 19.5381 7.71636C19.6916 7.73171 19.799 7.73171 19.8604 7.67032C19.9065 7.60893 19.9678 7.50149 20.0292 7.4708C20.0753 7.4401 20.0753 7.40941 20.0139 7.42476C19.9372 7.4401 19.8911 7.4708 19.753 7.45545C19.047 7.37871 17.0672 6.84155 16.6835 6.94898H16.6835Z" fill="#059334" stroke="black" stroke-width="0.0460425"/>
<path d="M19.8144 7.4708C19.7377 7.51685 19.6609 7.59359 19.5228 7.77776C19.3693 7.97727 18.9089 8.17679 18.341 8.17679C17.7885 8.17679 17.4509 8.08471 17.2053 7.88519C17.0672 7.77776 16.9598 7.71636 16.8677 7.67032C16.6988 7.59358 16.6682 7.42476 16.7142 7.28663C16.6682 7.36337 16.6375 7.44011 16.5454 7.42476C16.484 7.42476 16.3612 7.42476 16.3919 7.48615C16.3765 7.45546 16.3765 7.40941 16.3612 7.39407C16.3459 7.37872 16.3305 7.36337 16.3305 7.36337C16.3765 7.39407 16.484 7.30198 16.5607 7.30198C16.6221 7.31733 16.6988 7.24059 16.6835 7.1485C16.6682 7.07177 16.6528 7.01038 16.6375 6.94899C16.7602 6.8876 18.3717 7.1792 18.694 7.2099C19.0163 7.22524 19.9372 7.36337 19.8144 7.4708V7.4708Z" fill="black" stroke="black" stroke-width="0.0460425"/>
<path d="M16.8984 6.88769C17.0519 6.73422 17.2361 6.65748 17.4202 6.70352H17.4663C17.5584 6.62679 17.7732 6.61144 17.896 6.67283H17.9574C18.1416 6.61144 18.4946 6.67283 18.6173 6.79561L18.6634 6.8263C19.0778 6.79561 19.3233 6.97978 19.6149 7.27138C19.6456 7.30208 19.6917 7.36347 19.7684 7.37882C19.8605 7.39416 19.8758 7.44021 19.7991 7.48625C19.707 7.53229 19.6303 7.60903 19.4768 7.77785C19.3387 7.96202 18.8936 8.14619 18.3411 8.14619C17.8039 8.14619 17.4816 8.05411 17.2361 7.86994C17.0979 7.7625 16.9905 7.70111 16.9138 7.65507C16.8217 7.62438 16.6989 7.50159 16.7449 7.37881C16.7756 7.25603 16.6989 7.10256 16.6375 6.94908C16.6836 6.91839 16.8063 6.87234 16.8677 6.90304L16.8984 6.88769L16.8984 6.88769Z" fill="#059334" stroke="black" stroke-width="0.0460425"/>
<path d="M19.6149 7.27134C19.3233 6.97974 19.0777 6.79557 18.6634 6.82627C18.6634 6.84161 18.6634 6.88766 18.648 6.91835C18.8936 7.01044 19.2466 7.28669 19.4 7.48621C19.4614 7.42482 19.5689 7.34808 19.6149 7.27134L19.6149 7.27134Z" fill="#00493D" stroke="black" stroke-width="0.0460425"/>
<path d="M18.6173 6.79552C18.4945 6.67273 18.1415 6.61134 17.9573 6.67273C17.9573 6.73413 17.9573 6.82621 17.9266 6.8876C18.0341 6.93364 18.1262 7.04108 18.2182 7.14851C18.2796 7.13316 18.4331 7.08712 18.5098 7.07177C18.5405 7.01038 18.6019 6.87225 18.6173 6.79552H18.6173Z" fill="#00493D" stroke="black" stroke-width="0.0460425"/>
<path d="M17.8959 6.67283C17.7732 6.61144 17.5583 6.62679 17.4662 6.70352C17.4355 6.76491 17.4202 6.8877 17.4202 6.94909C17.4816 6.94909 17.5736 6.99513 17.6043 7.02582C17.6964 6.99513 17.8192 6.93374 17.8652 6.8877C17.8806 6.8263 17.9113 6.73422 17.8959 6.67283Z" fill="#00493D" stroke="black" stroke-width="0.0460425"/>
<path d="M16.8983 6.88772C17.0518 6.73424 17.236 6.6575 17.4201 6.70355C17.3894 6.74959 17.3741 6.84168 17.3741 6.93376C17.2053 6.91841 16.9904 6.96446 16.8983 7.02585V6.88772Z" fill="#00493D" stroke="black" stroke-width="0.0460425"/>
<path d="M19.3386 7.51688C19.2004 7.31737 18.8628 7.08715 18.6326 6.97972C18.6326 6.99507 18.6019 7.05646 18.5865 7.1025C18.6786 7.24063 18.8628 7.54758 18.9395 7.7164C19.0163 7.68571 19.2311 7.59362 19.3386 7.51688V7.51688Z" fill="#00493D" stroke="black" stroke-width="0.0460425"/>
<path d="M18.1722 7.85444C18.2029 7.63957 18.2182 7.33262 18.2182 7.22519C18.295 7.20984 18.4484 7.1638 18.5098 7.14845C18.5866 7.27123 18.7707 7.59353 18.8475 7.74701C18.6633 7.79305 18.3564 7.86979 18.1722 7.85444V7.85444Z" fill="#00493D" stroke="black" stroke-width="0.0460425"/>
<path d="M17.635 7.11774C17.7117 7.08704 17.8192 7.02565 17.8959 6.96426C17.9573 7.01031 18.0801 7.11774 18.1261 7.17913C18.1261 7.31726 18.0801 7.71629 18.0647 7.85442C17.942 7.85442 17.7424 7.82373 17.635 7.76234C17.6504 7.53212 17.6657 7.27122 17.635 7.11774L17.635 7.11774Z" fill="#00493D" stroke="black" stroke-width="0.0460425"/>
<path d="M16.8677 7.30207C16.883 7.27138 16.8984 7.16394 16.8984 7.1179C17.0212 7.04116 17.3281 6.96443 17.5583 7.08721C17.5737 7.24068 17.5583 7.62437 17.543 7.71645C17.3435 7.56298 17.0212 7.34812 16.8677 7.30207L16.8677 7.30207Z" fill="#00493D" stroke="black" stroke-width="0.0460425"/>
<path d="M16.1003 7.02582C16.0696 7.02582 16.0543 6.93373 15.9929 6.93373C15.9775 6.93373 15.9315 6.94908 15.9161 6.93373C15.9161 6.96443 15.9315 6.99512 15.9468 7.01047C15.9622 7.05651 16.0389 7.02582 16.1003 7.02582Z" fill="black"/>
<path d="M16.1002 7.28658C16.2844 7.28658 16.3151 7.05636 16.4072 7.04102" stroke="black" stroke-width="0.0460425"/>
<path d="M16.2078 7.30203C16.3459 7.36342 16.4533 7.04112 16.5608 7.05647" stroke="black" stroke-width="0.0460425"/>
<path d="M15.9315 6.90299C15.9775 6.90299 16.0082 6.8416 16.0849 6.91834C16.1156 6.94904 16.1617 6.96438 16.1924 6.96438" stroke="black" stroke-width="0.0460425"/>
<path d="M16.1617 7.13326C16.1003 7.22534 15.9928 7.28673 15.9315 7.25604" stroke="black" stroke-width="0.0460425"/>
<path d="M15.9008 6.74954C15.8548 6.78024 15.8241 6.84163 15.7934 6.88767" stroke="black" stroke-width="0.0460425"/>
<path d="M15.7473 6.97971V7.05644" stroke="black" stroke-width="0.0460425"/>
<path d="M20.8734 8.97496V11.9677C20.8734 14.5615 19.6456 15.4516 18.0034 16.1576C16.3612 15.4516 15.118 14.5615 15.118 11.9677V8.97496H20.8734H20.8734Z" fill="white"/>
<path d="M18.0034 11.5074C18.1416 11.5074 18.3564 11.3846 18.5406 11.2004C18.7401 10.9855 19.0778 10.9088 19.4308 11.2004C19.7838 11.492 19.9986 11.3692 20.1828 11.2004C20.367 11.0316 20.5204 10.9702 20.8734 10.9702V8.97501H15.1181V10.9702C15.4711 10.9702 15.6246 11.0316 15.8087 11.2004C15.9929 11.3692 16.2078 11.492 16.5608 11.2004C16.9291 10.9088 17.2514 10.9855 17.4663 11.2004C17.6351 11.3846 17.85 11.5074 18.0034 11.5074H18.0034Z" fill="#C8102E"/>
<path d="M18.0034 13.042C18.1875 13.042 18.5559 12.8425 18.648 12.7964C18.9856 12.5969 19.2312 12.7811 19.4307 12.8732C19.6456 12.9653 20.0446 13.0727 20.2902 12.8732C20.5357 12.6737 20.6739 12.689 20.8427 12.689C20.8734 12.4588 20.8734 12.2286 20.8734 11.9677V11.7835C20.6585 11.7375 20.5511 11.7989 20.3209 11.9984C20.0906 12.1979 19.8297 12.1518 19.4921 12.0291C19.1698 11.8909 18.8475 11.6454 18.5252 12.0291C18.4331 12.1365 18.2182 12.29 18.0034 12.29C17.7732 12.29 17.5737 12.1365 17.4816 12.0291C17.1439 11.6454 16.837 11.8909 16.5147 12.0291C16.177 12.1518 15.9008 12.1979 15.6706 11.9984C15.4557 11.7989 15.3483 11.7375 15.118 11.7835V11.9677C15.118 12.2286 15.1334 12.4588 15.1641 12.689C15.3329 12.689 15.4557 12.6737 15.7012 12.8732C15.9468 13.0727 16.3612 12.9653 16.5607 12.8732C16.7756 12.7811 17.0211 12.5969 17.3588 12.7964C17.4509 12.8425 17.8039 13.042 18.0034 13.042H18.0034Z" fill="#0B50A0"/>
<path d="M18.0034 13.702C18.2337 13.702 18.5099 13.6099 18.7555 13.4717C19.0624 13.3029 19.2773 13.3797 19.5842 13.5331C19.9065 13.6866 20.1674 13.6406 20.3516 13.5331C20.4437 13.4717 20.5204 13.349 20.72 13.395C20.6279 13.7787 20.4897 14.1163 20.3209 14.3926C20.014 14.4693 19.8452 14.4693 19.5229 14.3312C19.2006 14.1777 18.8015 14.0856 18.5867 14.2238C18.3871 14.3466 18.1723 14.4079 18.0034 14.4079C17.8346 14.4079 17.6198 14.3466 17.4202 14.2238C17.2054 14.0856 16.8063 14.1777 16.484 14.3312C16.1617 14.4693 15.9929 14.4693 15.686 14.3926C15.5171 14.1163 15.379 13.7787 15.2869 13.395C15.4864 13.349 15.5632 13.4717 15.6553 13.5331C15.8241 13.6406 16.1003 13.6866 16.4073 13.5331C16.7296 13.3797 16.9445 13.3029 17.2514 13.4717C17.497 13.6099 17.7732 13.702 18.0034 13.702H18.0034Z" fill="#0B50A0"/>
<path d="M18.0034 16.1575C18.6173 15.8966 19.1851 15.605 19.6456 15.206C19.5228 15.1599 19.4461 15.1906 19.3386 15.1139C19.2312 15.0372 18.9089 15.0065 18.6326 15.1599C18.341 15.2981 18.2183 15.3288 18.0034 15.3288C17.7885 15.3288 17.6657 15.2981 17.3741 15.1599C17.0979 15.0065 16.7756 15.0372 16.6682 15.1139C16.5607 15.1906 16.484 15.1599 16.3612 15.206C16.8216 15.605 17.3741 15.8966 18.0034 16.1575H18.0034Z" fill="#0B50A0"/>
<path d="M17.6044 9.72695C17.6197 9.75764 17.589 9.83438 17.6044 9.86508C17.6351 9.92647 17.6351 9.95716 17.6811 9.98786H17.7885C18.1262 9.98786 18.5252 9.84973 18.8629 9.84973C19.1852 9.84973 19.3847 9.95716 19.5688 9.95716C19.6763 9.95716 19.7684 9.88042 19.7684 9.80369C19.7684 9.72695 19.6456 9.68091 19.3847 9.68091C19.0163 9.68091 18.8168 9.77299 18.5099 9.77299C18.0494 9.77299 17.9727 9.60417 17.9727 9.52743C17.9727 9.45069 18.0494 9.34326 18.295 9.34326C18.3717 9.34326 18.4331 9.32791 18.4638 9.29722C18.4792 9.26652 18.5252 9.20513 18.6173 9.15909C18.7247 9.0977 18.9396 9.15909 19.047 9.08235C19.047 9.14374 18.9549 9.23583 18.8782 9.26652C19.0317 9.22048 19.2005 9.22048 19.2312 9.34326C19.1545 9.29722 19.0317 9.32791 18.9856 9.34326C18.9242 9.35861 18.8936 9.37396 18.8322 9.3893C18.8936 9.37396 18.9242 9.49674 19.0163 9.49674C18.9242 9.57347 18.7708 9.57347 18.6173 9.51208C18.5713 9.49674 18.4485 9.45069 18.3717 9.45069C18.2183 9.45069 18.1262 9.48139 18.1262 9.54278C18.1262 9.61952 18.2183 9.66556 18.4945 9.66556C18.7708 9.66556 18.9242 9.58882 19.3386 9.58882C19.3079 9.54278 19.354 9.49674 19.2926 9.45069C19.4461 9.45069 19.6149 9.49674 19.6763 9.60417C19.6609 9.49674 19.753 9.40465 19.7223 9.31257C19.8144 9.32791 19.8911 9.42 19.9065 9.49674C19.9065 9.45069 19.9679 9.45069 19.9679 9.40465C20.06 9.45069 20.106 9.55813 20.0907 9.65021C20.1367 9.57347 20.1827 9.60417 20.2134 9.51208C20.2441 9.57347 20.2288 9.75764 20.1214 9.81903C20.2134 9.75764 20.3516 9.75764 20.4437 9.86508C20.3516 9.84973 20.3055 9.89577 20.2595 9.91112C20.0753 10.0186 19.7684 10.0799 19.5381 10.0646C19.2926 10.0492 19.2619 10.0032 19.1084 10.0032C19.2005 10.0186 19.3847 10.2027 19.5535 10.2027C19.6609 10.2027 19.7377 10.2027 19.7837 10.1874C19.8298 10.172 19.9065 10.1874 19.9679 10.2181C20.0139 10.2641 20.106 10.3102 20.1674 10.2948C20.1521 10.3562 20.1214 10.3869 20.0753 10.4022C20.1521 10.4483 20.106 10.479 20.1827 10.5404C20.1521 10.5404 20.1214 10.5711 20.0753 10.5557C20.1214 10.6018 20.1214 10.6632 20.1674 10.6938C20.1521 10.6938 20.106 10.7092 20.0753 10.6938C20.1214 10.7552 20.0753 10.832 20.1214 10.8627C20.1674 10.9241 20.0753 11.0008 19.9986 10.9394C20.0139 10.9854 19.9679 11.0315 19.9218 11.0161C19.8758 11.0008 19.8451 10.9548 19.8604 10.9394C19.8604 10.9241 19.8604 10.9241 19.8758 10.9087C19.8451 10.9548 19.7837 10.9548 19.753 10.9394C19.7377 10.9241 19.7223 10.9087 19.7223 10.8934C19.6149 10.9241 19.5688 10.832 19.5842 10.7859C19.5995 10.7399 19.6916 10.7245 19.7223 10.7399C19.753 10.7552 19.7837 10.7706 19.8144 10.7399C19.8451 10.7245 19.8604 10.6938 19.8604 10.6631C19.8604 10.6171 19.8144 10.479 19.6149 10.4943C19.3847 10.5097 19.0163 10.4483 18.8322 10.3869C18.8168 10.3715 18.8015 10.3715 18.7861 10.3562C18.7861 10.4176 18.7247 10.4483 18.7247 10.5097C18.7247 10.5864 18.7554 10.6478 18.8475 10.6785C18.8015 10.7552 18.7247 10.7399 18.694 10.6938C18.694 10.7399 18.6326 10.7706 18.6326 10.832C18.6173 10.8013 18.6019 10.7859 18.5866 10.7552C18.5406 10.8627 18.4178 10.9241 18.3564 10.8934C18.2797 10.9548 18.1876 10.9394 18.1569 10.878C18.1108 10.9087 18.0494 10.9087 18.0187 10.878C18.0187 10.9241 17.988 10.9087 17.9727 10.9701C17.9727 11.0008 17.9113 11.0161 17.8806 11.0008C17.8499 10.9854 17.8346 10.9241 17.8653 10.8934C17.8192 10.9241 17.7732 10.9241 17.7425 10.8934C17.7425 10.8627 17.7425 10.8166 17.7732 10.8013H17.8039C17.7732 10.7859 17.7271 10.8013 17.6964 10.7859C17.6657 10.7552 17.6657 10.7245 17.6811 10.6938C17.6964 10.6785 17.7425 10.6478 17.7732 10.6785L17.7885 10.6938C17.7885 10.6632 17.8039 10.6325 17.8192 10.6325C17.8499 10.6171 17.896 10.6171 17.942 10.6631C17.9727 10.7092 18.0034 10.7092 18.0955 10.6938C18.1722 10.6938 18.295 10.6171 18.3871 10.5404C18.1262 10.4943 18.2797 10.3255 18.3564 10.2641C18.295 10.2488 18.2029 10.2488 18.1415 10.2795C17.8192 10.4483 17.4816 10.6478 17.2667 10.5864C17.2667 10.6171 17.2821 10.6478 17.2974 10.6785C17.2514 10.6785 17.1593 10.6785 17.1286 10.6325C17.1132 10.6631 17.0825 10.7399 17.1132 10.8013C17.0825 10.7706 16.9905 10.7399 16.9444 10.7245C16.9751 10.7552 16.9444 10.8166 16.9598 10.8627C16.9137 10.8166 16.837 10.7859 16.8063 10.8166C16.7756 10.8473 16.7142 10.8627 16.6682 10.8473C16.6375 10.8934 16.5914 10.9241 16.5454 10.9394C16.5454 10.9087 16.5454 10.8627 16.53 10.8473C16.5147 10.8934 16.4686 10.9548 16.4072 10.9854C16.4072 10.9548 16.4072 10.9087 16.3919 10.878C16.3919 10.9394 16.2691 10.9701 16.2538 11.0161C16.2691 10.9701 16.2691 10.9241 16.2691 10.8934C16.2384 10.9394 16.1924 10.9854 16.1156 11.0008C16.131 10.9701 16.1463 10.9394 16.131 10.9087C16.1156 10.9701 16.0236 11.0008 15.9468 10.9854C15.9468 11.0161 15.8854 11.0622 15.8087 11.0161C15.7627 11.0008 15.732 10.9548 15.7627 10.9241C15.7013 10.9241 15.6399 10.8627 15.6706 10.8166C15.6706 10.8013 15.6859 10.7859 15.6859 10.7706C15.6399 10.7399 15.6245 10.6785 15.6706 10.6325C15.6859 10.6171 15.732 10.6171 15.7627 10.6171C15.7627 10.4943 15.8701 10.4943 15.9161 10.5864C15.9468 10.6325 16.0389 10.7092 16.1156 10.6938C16.1463 10.6938 16.1617 10.6785 16.1924 10.6785C16.2845 10.6478 16.4686 10.5711 16.5761 10.479C16.5914 10.4329 16.5914 10.4022 16.5914 10.3715C16.53 10.4022 16.4686 10.4329 16.4379 10.479V10.4329C16.3919 10.4329 16.3152 10.4176 16.2845 10.4176C16.2998 10.4022 16.3152 10.3255 16.3459 10.3102C16.2691 10.3255 16.1924 10.3102 16.131 10.2948C16.1617 10.2641 16.1617 10.2181 16.177 10.172C16.1463 10.1874 16.0696 10.1567 16.0082 10.172C16.0236 10.126 16.0389 10.0646 16.085 10.0492C16.0236 10.0646 15.9468 10.0492 15.8701 10.0186C15.9315 10.0186 15.9622 9.94182 16.0082 9.94182C15.8854 9.94182 15.8547 9.88042 15.7933 9.84973C15.8394 9.86508 15.8701 9.81903 15.9161 9.81903C15.8701 9.80369 15.7933 9.72695 15.824 9.68091C15.8087 9.69625 15.7933 9.72695 15.7627 9.7423C15.732 9.75764 15.6706 9.7423 15.6245 9.69625C15.5938 9.63486 15.6092 9.55813 15.6706 9.54278C15.5938 9.52743 15.5938 9.45069 15.6245 9.42C15.6399 9.3893 15.7013 9.34326 15.732 9.3893C15.7473 9.40465 15.7627 9.43535 15.778 9.45069C15.7627 9.42 15.7627 9.35861 15.7627 9.31257C15.778 9.26652 15.8087 9.26652 15.8547 9.25117C15.9008 9.25117 15.9315 9.29722 15.9315 9.34326C15.9315 9.3893 15.9468 9.42 15.9622 9.48139C15.9622 9.46604 15.9775 9.43535 15.9775 9.42C15.9775 9.35861 16.0543 9.37396 16.1003 9.3893C16.1463 9.40465 16.1617 9.49674 16.1003 9.54278C16.0696 9.57347 16.0849 9.61952 16.1156 9.65021C16.2231 9.81903 16.4072 9.95716 16.5607 9.97251C16.5607 9.91112 16.5914 9.84973 16.6375 9.80369C16.6375 9.77299 16.6528 9.72695 16.6682 9.69625C16.6835 9.60417 16.7295 9.55812 16.7909 9.58882C16.7756 9.57347 16.7602 9.55813 16.7602 9.54278C16.7142 9.49673 16.6682 9.42 16.6989 9.35861C16.7295 9.29722 16.8216 9.31256 16.8523 9.34326C16.837 9.25117 16.9444 9.17444 16.9444 9.12839C16.9598 9.17444 16.9905 9.23583 16.9751 9.28187C16.9905 9.22048 17.0979 9.14374 17.1746 9.11305C17.1439 9.15909 17.236 9.23583 17.2207 9.28187C17.2514 9.20513 17.3741 9.15909 17.4662 9.15909C17.4355 9.18978 17.4355 9.25117 17.4355 9.28187C17.4816 9.28187 17.5583 9.26652 17.589 9.22048C17.589 9.28187 17.5583 9.34326 17.5276 9.37395C17.543 9.35861 17.6044 9.35861 17.6504 9.35861C17.6044 9.40465 17.6197 9.45069 17.5737 9.48139C17.6351 9.45069 17.7118 9.45069 17.7271 9.51208C17.7578 9.55812 17.7118 9.63486 17.6811 9.68091C17.6504 9.69625 17.6197 9.72695 17.6044 9.72695L17.6044 9.72695Z" fill="#F9D050" stroke="black" stroke-width="0.0460425"/>
<path d="M16.6528 9.91107C16.5454 9.95711 16.5147 10.0645 16.4993 10.1259" stroke="black" stroke-width="0.0460425"/>
<path d="M16.6374 10.0186C16.4839 10.1107 16.4225 10.1875 16.4532 10.3563" stroke="black" stroke-width="0.0460425"/>
<path d="M16.7142 10.4791C16.8063 10.4484 16.8676 10.4177 16.9444 10.2796" stroke="black" stroke-width="0.0460425"/>
<path d="M16.8984 10.3409C16.8677 10.4023 16.8984 10.5097 16.8524 10.5558C16.9291 10.5097 16.9905 10.4483 17.0058 10.3409" stroke="black" stroke-width="0.0460425"/>
<path d="M16.929 10.5097C16.9904 10.479 17.0825 10.3869 17.1285 10.2794C17.1132 10.3255 17.1285 10.4022 17.0978 10.4483C17.1746 10.3715 17.2053 10.3255 17.2206 10.2488C17.2206 10.2641 17.236 10.2948 17.236 10.3101C17.2667 10.2794 17.2974 10.2488 17.2974 10.1874" stroke="black" stroke-width="0.0460425"/>
<path d="M17.2974 10.2335V10.3102C17.3588 10.2642 17.3742 10.2028 17.3742 10.1261" stroke="black" stroke-width="0.0460425"/>
<path d="M17.3588 10.218C17.4508 10.1566 17.4662 10.0645 17.4662 9.92639" stroke="black" stroke-width="0.0460425"/>
<path d="M17.4661 10.08C17.5275 10.0339 17.5429 10.0032 17.5429 9.8651" stroke="black" stroke-width="0.0460425"/>
<path d="M17.3434 9.45063C17.3127 9.45063 17.282 9.46598 17.282 9.51202C17.282 9.54272 17.236 9.58876 17.236 9.6348C17.2206 9.69619 17.1899 9.71154 17.1439 9.69619C17.0979 9.6655 17.0979 9.6655 17.0979 9.61945C17.0979 9.55806 17.1746 9.54272 17.1746 9.48133C17.1899 9.45063 17.2053 9.40459 17.2206 9.40459C17.1439 9.45063 17.0365 9.41994 17.0211 9.32785" stroke="black" stroke-width="0.0460425"/>
<path d="M17.4816 9.4968C17.4509 9.51214 17.4202 9.4661 17.3742 9.48145C17.3588 9.48145 17.3128 9.4968 17.2974 9.48145" stroke="black" stroke-width="0.0460425"/>
<path d="M17.2667 9.57347C17.2821 9.58882 17.3588 9.61951 17.4355 9.58882C17.3742 9.60416 17.3281 9.52743 17.3895 9.48138" stroke="black" stroke-width="0.0460425"/>
<path d="M17.1286 9.41994C17.0672 9.41994 17.0212 9.46598 17.0365 9.51202C17.0519 9.55807 17.1133 9.55807 17.1593 9.52737" stroke="black" stroke-width="0.0460425"/>
<path d="M17.0211 10.1874C17.0365 10.172 17.0518 10.1413 17.0518 10.126C17.0825 10.126 17.1132 10.1106 17.1286 10.0953C17.1899 10.0953 17.236 10.0492 17.2513 10.0032C17.282 10.0032 17.2974 9.92646 17.3127 9.89576C17.3281 9.91111 17.3588 9.89576 17.3741 9.83437C17.4048 9.84972 17.4508 9.83437 17.4662 9.78833" stroke="black" stroke-width="0.0460425"/>
<path d="M16.837 9.68091C16.837 9.69626 16.8064 9.72695 16.7757 9.7423C16.791 9.77299 16.7757 9.84973 16.745 9.86508C16.7603 9.89577 16.745 9.94182 16.7296 9.97251C16.7296 9.98786 16.745 10.0339 16.745 10.0492" stroke="black" stroke-width="0.0460425"/>
<path d="M16.8984 9.37396C16.8677 9.4507 16.8831 9.54279 16.9444 9.55813" stroke="black" stroke-width="0.0460425"/>
<path d="M16.929 9.6196C16.9136 9.69634 16.9136 9.80377 16.8983 9.84981C16.8829 9.88051 16.8522 9.98794 16.975 10.0186C17.1132 10.0493 17.1899 10.034 17.2666 9.80377" stroke="black" stroke-width="0.0460425"/>
<path d="M17.4961 10.4023C17.4961 10.4174 17.481 10.4475 17.4509 10.4475" stroke="black" stroke-width="0.0460425"/>
<path d="M17.6043 10.3716C17.6043 10.4022 17.5736 10.4483 17.5582 10.4636" stroke="black" stroke-width="0.0460425"/>
<path d="M17.7118 10.3409C17.7118 10.3716 17.7118 10.4176 17.6812 10.433" stroke="black" stroke-width="0.0460425"/>
<path d="M16.7755 9.38916C16.7909 9.38916 16.8062 9.41986 16.8216 9.45055C16.7755 9.41986 16.7295 9.49659 16.7602 9.54264" stroke="black" stroke-width="0.0460425"/>
<path d="M16.7295 9.65039C16.7142 9.66574 16.6835 9.68109 16.6682 9.69643" stroke="black" stroke-width="0.0460425"/>
<path d="M16.6827 9.78833C16.6676 9.78833 16.6525 9.8034 16.6375 9.8034" stroke="black" stroke-width="0.0460425"/>
<path d="M15.9468 9.51152C15.9468 9.49645 15.9468 9.49645 15.9619 9.48138" stroke="black" stroke-width="0.0460425"/>
<path d="M15.8081 9.46566C15.793 9.46566 15.793 9.46566 15.778 9.45059" stroke="black" stroke-width="0.0460425"/>
<path d="M15.824 9.68091H15.8542" stroke="black" stroke-width="0.0460425"/>
<path d="M15.7627 9.58887C15.732 9.55818 15.686 9.54283 15.6707 9.54283" stroke="black" stroke-width="0.0460425"/>
<path d="M16.6068 10.1568C16.4994 10.2489 16.4533 10.3257 16.438 10.4331" stroke="black" stroke-width="0.0460425"/>
<path d="M16.7142 10.2333C16.6835 10.2947 16.6375 10.3408 16.5914 10.3715" stroke="black" stroke-width="0.0460425"/>
<path d="M16.1156 10.6938C15.9928 10.7245 15.9008 10.7091 15.8087 10.6477C15.7933 10.6324 15.778 10.6324 15.7626 10.6171" stroke="black" stroke-width="0.0460425"/>
<path d="M16.576 10.479C16.5607 10.5404 16.5453 10.6172 16.5146 10.6325C16.6374 10.5711 16.7449 10.479 16.7602 10.3409" stroke="black" stroke-width="0.0460425"/>
<path d="M15.6859 10.7706C15.732 10.7552 15.778 10.7859 15.8087 10.7552" stroke="black" stroke-width="0.0460425"/>
<path d="M18.3564 10.2642C18.3871 10.2795 18.4331 10.2949 18.4485 10.3102C18.4638 10.2795 18.5252 10.2335 18.5712 10.2181" stroke="black" stroke-width="0.0460425"/>
<path d="M17.2666 10.5863C17.2513 10.525 17.282 10.4482 17.3741 10.4175" stroke="black" stroke-width="0.0460425"/>
<path d="M16.6682 10.8475C16.6835 10.8168 16.6835 10.7708 16.6988 10.7401" stroke="black" stroke-width="0.0460425"/>
<path d="M15.9929 10.8933C15.9775 10.924 15.9468 10.9547 15.9468 10.9854" stroke="black" stroke-width="0.0460425"/>
<path d="M15.7626 10.9241C15.7626 10.9241 15.7626 10.9088 15.778 10.9088C15.8087 10.8934 15.8547 10.8627 15.8701 10.832" stroke="black" stroke-width="0.0460425"/>
<path d="M17.8498 10.7092C17.8191 10.7245 17.8038 10.7092 17.7885 10.6938" stroke="black" stroke-width="0.0460425"/>
<path d="M17.834 10.786C17.834 10.786 17.819 10.8011 17.8039 10.8011" stroke="black" stroke-width="0.0460425"/>
<path d="M17.9104 10.8628C17.8954 10.8779 17.8803 10.8929 17.8652 10.8929" stroke="black" stroke-width="0.0460425"/>
<path d="M18.3564 10.8935C18.3871 10.8781 18.4024 10.8474 18.4178 10.786" stroke="black" stroke-width="0.0460425"/>
<path d="M18.1569 10.8781C18.2029 10.8628 18.2336 10.8321 18.2796 10.786" stroke="black" stroke-width="0.0460425"/>
<path d="M18.5865 10.7554C18.5865 10.7247 18.5865 10.694 18.6019 10.6633" stroke="black" stroke-width="0.0460425"/>
<path d="M19.7223 10.8933C19.6916 10.8626 19.6916 10.8165 19.7377 10.7858C19.7684 10.7705 19.7837 10.7551 19.8144 10.7398" stroke="black" stroke-width="0.0460425"/>
<path d="M18.7861 10.3562C18.5406 10.2488 18.5559 10.1107 18.3564 10.126" stroke="black" stroke-width="0.0460425"/>
<path d="M19.8757 10.832C19.8911 10.8474 19.8757 10.8934 19.8757 10.9088" stroke="black" stroke-width="0.0460425"/>
<path d="M20.0138 10.832C19.9985 10.8781 19.9985 10.8934 19.9985 10.9395" stroke="black" stroke-width="0.0460425"/>
<path d="M18.8322 9.38916H18.7094" stroke="black" stroke-width="0.0460425"/>
<path d="M17.543 9.91107C17.543 9.94177 17.589 10.0032 17.7118 10.0032C17.6964 10.0032 17.6811 9.98781 17.6811 9.98781" stroke="black" stroke-width="0.0460425"/>
<path d="M17.6043 9.72705C17.5889 9.7424 17.5736 9.72705 17.5736 9.72705C17.5429 9.69636 17.5889 9.63497 17.635 9.60427C17.5889 9.61962 17.5582 9.61962 17.5275 9.61962C17.4969 9.71171 17.4048 9.75775 17.3434 9.69636C17.328 9.75775 17.2513 9.83449 17.1899 9.81914C17.1285 9.78844 17.1132 9.7424 17.1285 9.69636C17.0518 9.78844 16.9597 9.72705 16.929 9.69636C16.9136 9.66566 16.929 9.58893 16.9597 9.49684" stroke="black" stroke-width="0.0460425"/>
<path d="M18.5866 10.3101C18.5406 10.3408 18.4945 10.3101 18.4485 10.3561C18.4178 10.3868 18.4638 10.4022 18.4945 10.4022C18.4792 10.4482 18.4792 10.4636 18.5559 10.4636C18.5252 10.5096 18.6173 10.525 18.602 10.5864C18.648 10.5403 18.648 10.4789 18.6326 10.4329C18.6173 10.3868 18.5406 10.3561 18.5866 10.3101Z" fill="black"/>
<path d="M17.19 9.81918C17.1286 9.78848 17.1133 9.74244 17.1286 9.6964C17.1133 9.72709 17.0826 9.74244 17.0519 9.74244C16.9905 9.88057 16.9138 10.0033 16.8217 10.0033C16.7142 10.0187 16.7296 10.1261 16.8063 10.1261C16.9751 10.1568 17.0519 10.0954 17.19 9.81918Z" fill="#073163"/>
<path d="M15.6706 9.4507C15.7166 9.40466 15.6859 9.35862 15.6552 9.34327C15.6092 9.32792 15.5171 9.34327 15.4711 9.42001C15.5171 9.40466 15.5632 9.40466 15.5785 9.43536C15.5939 9.46605 15.6245 9.49674 15.6706 9.4507Z" fill="#073163"/>
<path d="M15.7473 9.17447C15.8547 9.17447 15.8854 9.18982 15.9007 9.23586C15.9161 9.26655 15.8854 9.3126 15.8547 9.3126C15.8086 9.3126 15.7626 9.2819 15.7779 9.26655C15.7933 9.23586 15.7933 9.18982 15.7473 9.17447Z" fill="#073163"/>
<path d="M16.0542 9.4201C16.131 9.43545 16.1616 9.38941 16.1156 9.32802C16.1003 9.28197 16.0542 9.25128 15.9775 9.26663C16.0542 9.31267 15.9775 9.38941 16.0542 9.4201Z" fill="#073163"/>
<path d="M15.4864 9.68091C15.5324 9.75765 15.6092 9.75765 15.6399 9.7423C15.6859 9.72696 15.7013 9.68091 15.6859 9.65022C15.6552 9.60417 15.6092 9.58883 15.5938 9.65022C15.5631 9.71161 15.5171 9.69626 15.4864 9.68091Z" fill="#073163"/>
<path d="M15.7165 10.6171C15.6859 10.5557 15.5938 10.5557 15.517 10.6171C15.5477 10.6018 15.6091 10.6171 15.6245 10.6478C15.6398 10.6785 15.6705 10.6785 15.6859 10.6785C15.7012 10.6632 15.7319 10.6478 15.7165 10.6171Z" fill="#073163"/>
<path d="M15.8393 10.5251C15.8393 10.4484 15.7319 10.433 15.6705 10.4637C15.7012 10.4637 15.7472 10.4944 15.7472 10.5251C15.7626 10.5558 15.7933 10.5711 15.8086 10.5711C15.8393 10.5558 15.8546 10.5404 15.8393 10.5251Z" fill="#073163"/>
<path d="M15.6859 10.8013C15.5938 10.7859 15.5477 10.8933 15.5477 10.9701C15.5631 10.924 15.6091 10.8933 15.6552 10.9087C15.7012 10.9087 15.7166 10.8933 15.7166 10.8626C15.7319 10.8319 15.7166 10.8166 15.6859 10.8013Z" fill="#073163"/>
<path d="M15.7012 11.0622C15.7319 11.0776 15.7626 11.0469 15.778 11.0008C15.778 10.9702 15.8394 10.9702 15.8547 10.9855C15.8854 11.0008 15.8854 11.0622 15.8394 11.0929C15.8087 11.1083 15.7319 11.1236 15.7012 11.0622Z" fill="#073163"/>
<path d="M17.8345 10.6016C17.8038 10.5863 17.7271 10.5556 17.6657 10.6016C17.7118 10.5863 17.7424 10.617 17.7578 10.6477C17.7578 10.6784 17.8038 10.6937 17.8192 10.663C17.8345 10.6477 17.8499 10.617 17.8345 10.6016Z" fill="#073163"/>
<path d="M17.6964 10.7092C17.6351 10.6785 17.5583 10.7553 17.543 10.8167C17.5583 10.8013 17.6197 10.7706 17.6504 10.7706C17.6811 10.786 17.7118 10.7706 17.7118 10.7399C17.7271 10.7246 17.7271 10.7092 17.6964 10.7092Z" fill="#073163"/>
<path d="M17.7731 10.8321C17.7271 10.8321 17.6657 10.8935 17.6657 10.9548C17.6811 10.9241 17.7118 10.9088 17.7424 10.9241C17.7731 10.9241 17.8192 10.9088 17.8192 10.8781C17.8192 10.8474 17.8038 10.8321 17.7731 10.8321Z" fill="#073163"/>
<path d="M17.9113 10.9547C17.8806 10.9394 17.8346 10.9547 17.8346 11.0008C17.8346 11.0468 17.8346 11.0929 17.8192 11.1082C17.8499 11.0775 17.8806 11.0622 17.9113 11.0468C17.9266 11.0315 17.942 10.9854 17.9113 10.9547Z" fill="#073163"/>
<path d="M19.6456 10.8166C19.6149 10.7859 19.5688 10.8013 19.5535 10.832C19.5381 10.8627 19.5228 10.9394 19.5535 11.0008C19.5535 10.9701 19.5842 10.9241 19.6149 10.9241C19.6609 10.9087 19.6763 10.8473 19.6456 10.8166Z" fill="#073163"/>
<path d="M19.7376 10.8781C19.6762 10.9088 19.6762 11.0162 19.7223 11.0776C19.7223 11.0469 19.7376 11.0009 19.7683 10.9855C19.8144 10.9855 19.8297 10.9241 19.8144 10.8934C19.7837 10.8627 19.753 10.8781 19.7376 10.8781Z" fill="#073163"/>
<path d="M19.9219 10.9394C19.8912 10.924 19.8605 10.9547 19.8605 10.9854C19.8452 11.0314 19.8758 11.0928 19.9219 11.1235C19.9219 11.0928 19.9372 11.0621 19.9526 11.0468C19.9986 11.0161 19.9833 10.9547 19.9219 10.9394Z" fill="#073163"/>
<path d="M20.06 10.9241C20.0293 10.9241 19.9986 10.9702 20.0293 11.0162C20.0446 11.0469 20.0753 11.0623 20.1367 11.0469C20.1213 11.0469 20.0906 11.0009 20.106 10.9855C20.1213 10.9548 20.106 10.9241 20.06 10.9241Z" fill="#073163"/>
<path d="M15.7933 13.7941L16.5607 11.4306L17.3281 13.7941L15.3176 12.3361H17.8039L15.7933 13.7941Z" fill="#F9D050"/>
<path d="M15.9468 13.5791L17.543 12.4127H15.5785L17.1593 13.5791L16.5607 11.7067L15.9468 13.5791Z" fill="#024919"/>
<path d="M20.8734 8.97496V11.9677C20.8734 14.5615 19.6456 15.4516 18.0034 16.1576C16.3612 15.4516 15.118 14.5615 15.118 11.9677V8.97496H20.8734H20.8734Z" stroke="black" stroke-width="0.0460425"/>
</g>
</svg>
