<svg width="24" height="24" viewBox="0 0 24 24" fill="none" xmlns="http://www.w3.org/2000/svg">
<mask id="mask0_3349_50745" style="mask-type:alpha" maskUnits="userSpaceOnUse" x="0" y="3" width="24" height="18">
<path d="M21.7143 3H2.28571C1.02335 3 0 4.02335 0 5.28571V17.8571C0 19.1195 1.02335 20.1429 2.28571 20.1429H21.7143C22.9767 20.1429 24 19.1195 24 17.8571V5.28571C24 4.02335 22.9767 3 21.7143 3Z" fill="white"/>
</mask>
<g mask="url(#mask0_3349_50745)">
<path d="M21.7143 3H2.28571C1.02335 3 0 4.02335 0 5.28571V17.8571C0 19.1195 1.02335 20.1429 2.28571 20.1429H21.7143C22.9767 20.1429 24 19.1195 24 17.8571V5.28571C24 4.02335 22.9767 3 21.7143 3Z" fill="white"/>
<path fill-rule="evenodd" clip-rule="evenodd" d="M5.71429 9.85714C5.71429 9.85714 6.85714 13.2857 10.2857 13.2857C13.7143 13.2857 17.1429 9.85714 17.1429 9.85714H14.8571L18.2857 6.42857L11.4286 8.71429L9.14286 6.42857L8 8.71429L5.71429 9.85714Z" fill="#DA7500"/>
<path fill-rule="evenodd" clip-rule="evenodd" d="M5.71428 13.2857L11.4286 15.5714V16.7143L4.57143 14.4286L5.71428 13.2857ZM18.2857 13.2857L12.5714 15.5714V16.7143L19.4286 14.4286L18.2857 13.2857ZM11.4286 15.5714H12.5714V17.8571H11.4286V15.5714Z" fill="#435121"/>
<path d="M21.7143 3.57143H2.28571C1.33894 3.57143 0.571426 4.33894 0.571426 5.28571V17.8571C0.571426 18.8039 1.33894 19.5714 2.28571 19.5714H21.7143C22.6611 19.5714 23.4286 18.8039 23.4286 17.8571V5.28571C23.4286 4.33894 22.6611 3.57143 21.7143 3.57143Z" stroke="black" stroke-opacity="0.1"/>
</g>
</svg>
