<svg width="24" height="24" viewBox="0 0 24 24" fill="none" xmlns="http://www.w3.org/2000/svg">
<mask id="mask0_3349_50780" style="mask-type:alpha" maskUnits="userSpaceOnUse" x="0" y="3" width="24" height="18">
<path d="M21.7143 3H2.28571C1.02335 3 0 4.02335 0 5.28571V17.8571C0 19.1195 1.02335 20.1429 2.28571 20.1429H21.7143C22.9767 20.1429 24 19.1195 24 17.8571V5.28571C24 4.02335 22.9767 3 21.7143 3Z" fill="white"/>
</mask>
<g mask="url(#mask0_3349_50780)">
<path d="M21.7143 3H2.28571C1.02335 3 0 4.02335 0 5.28571V17.8571C0 19.1195 1.02335 20.1429 2.28571 20.1429H21.7143C22.9767 20.1429 24 19.1195 24 17.8571V5.28571C24 4.02335 22.9767 3 21.7143 3Z" fill="#006C3D"/>
<path fill-rule="evenodd" clip-rule="evenodd" d="M11.4286 11H0V12.1429H11.4286V20.1429H12.5714V12.1429H24V11H12.5714V3H11.4286V11Z" fill="black"/>
<path fill-rule="evenodd" clip-rule="evenodd" d="M10.2857 9.85714V11H11.4286V3H10.2857V9.85714H0V11H11.4286V9.85714H10.2857ZM11.4286 11H24V9.85714H10.2857V11H11.4286V9.85714H10.2857V20.1429H11.4286V11Z" fill="#FDD200"/>
<path fill-rule="evenodd" clip-rule="evenodd" d="M13.7143 13.2857V12.1429H12.5714V20.1429H13.7143V13.2857H24V12.1429H12.5714V13.2857H13.7143ZM0 12.1429H14.8571V13.2857H0V12.1429ZM12.5714 3H13.7143V13.2857H12.5714V3Z" fill="white"/>
<path d="M12 15.5714C14.2091 15.5714 16 13.7806 16 11.5714C16 9.36229 14.2091 7.57143 12 7.57143C9.79086 7.57143 8 9.36229 8 11.5714C8 13.7806 9.79086 15.5714 12 15.5714Z" fill="#D6172A"/>
<path fill-rule="evenodd" clip-rule="evenodd" d="M10.2857 9.85715H11.4286V11H10.2857V9.85715ZM12.5714 9.85715H13.7143V11H12.5714V9.85715ZM12.5714 12.1429H13.7143V13.2857H12.5714V12.1429ZM10.2857 12.1429H11.4286V13.2857H10.2857V12.1429Z" fill="#006C3D"/>
<path fill-rule="evenodd" clip-rule="evenodd" d="M11.4286 9.85715H12.5714V12.1429H11.4286V9.85715Z" fill="#955DCC"/>
<path d="M21.7143 3.57143H2.28571C1.33894 3.57143 0.571426 4.33894 0.571426 5.28571V17.8571C0.571426 18.8039 1.33894 19.5714 2.28571 19.5714H21.7143C22.6611 19.5714 23.4286 18.8039 23.4286 17.8571V5.28571C23.4286 4.33894 22.6611 3.57143 21.7143 3.57143Z" stroke="black" stroke-opacity="0.1"/>
</g>
</svg>
