<svg width="24" height="24" viewBox="0 0 24 24" fill="none" xmlns="http://www.w3.org/2000/svg">
<mask id="mask0_3349_50791" style="mask-type:alpha" maskUnits="userSpaceOnUse" x="0" y="3" width="24" height="18">
<path d="M21.7143 3H2.28571C1.02335 3 0 4.02335 0 5.28571V17.8571C0 19.1195 1.02335 20.1429 2.28571 20.1429H21.7143C22.9767 20.1429 24 19.1195 24 17.8571V5.28571C24 4.02335 22.9767 3 21.7143 3Z" fill="white"/>
</mask>
<g mask="url(#mask0_3349_50791)">
<path d="M21.7143 3H2.28571C1.02335 3 0 4.02335 0 5.28571V17.8571C0 19.1195 1.02335 20.1429 2.28571 20.1429H21.7143C22.9767 20.1429 24 19.1195 24 17.8571V5.28571C24 4.02335 22.9767 3 21.7143 3Z" fill="#002B64"/>
<path fill-rule="evenodd" clip-rule="evenodd" d="M0 13.2857H10.2857V20.1429H0V13.2857ZM13.7143 3H24V9.85714H13.7143V3Z" fill="#D0091E"/>
<path fill-rule="evenodd" clip-rule="evenodd" d="M10.2857 13.2857H0V9.85714H10.2857V3H13.7143V9.85714H24V13.2857H13.7143V20.1429H10.2857V13.2857Z" fill="white"/>
<path d="M12 13.2857C12.9468 13.2857 13.7143 12.5182 13.7143 11.5714C13.7143 10.6247 12.9468 9.85715 12 9.85715C11.0532 9.85715 10.2857 10.6247 10.2857 11.5714C10.2857 12.5182 11.0532 13.2857 12 13.2857Z" fill="#007A1B"/>
<path d="M12 12.1429C12.3156 12.1429 12.5714 11.887 12.5714 11.5714C12.5714 11.2558 12.3156 11 12 11C11.6844 11 11.4286 11.2558 11.4286 11.5714C11.4286 11.887 11.6844 12.1429 12 12.1429Z" fill="#002B64"/>
<path fill-rule="evenodd" clip-rule="evenodd" d="M10.8571 11C11.1726 11 11.4286 10.744 11.4286 10.4286C11.4286 10.1131 11.1726 9.85715 10.8571 9.85715C10.5417 9.85715 10.2857 10.1131 10.2857 10.4286C10.2857 10.744 10.5417 11 10.8571 11ZM13.1429 11C13.4583 11 13.7143 10.744 13.7143 10.4286C13.7143 10.1131 13.4583 9.85715 13.1429 9.85715C12.8274 9.85715 12.5714 10.1131 12.5714 10.4286C12.5714 10.744 12.8274 11 13.1429 11Z" fill="#FDD200"/>
<path d="M21.7143 3.57143H2.28571C1.33894 3.57143 0.571426 4.33894 0.571426 5.28571V17.8571C0.571426 18.8039 1.33894 19.5714 2.28571 19.5714H21.7143C22.6611 19.5714 23.4286 18.8039 23.4286 17.8571V5.28571C23.4286 4.33894 22.6611 3.57143 21.7143 3.57143Z" stroke="black" stroke-opacity="0.1"/>
</g>
</svg>
