<svg width="24" height="24" viewBox="0 0 24 24" fill="none" xmlns="http://www.w3.org/2000/svg">
<mask id="mask0_3349_50801" style="mask-type:alpha" maskUnits="userSpaceOnUse" x="0" y="3" width="24" height="18">
<path d="M21.7143 3H2.28571C1.02335 3 0 4.02335 0 5.28571V17.8571C0 19.1195 1.02335 20.1429 2.28571 20.1429H21.7143C22.9767 20.1429 24 19.1195 24 17.8571V5.28571C24 4.02335 22.9767 3 21.7143 3Z" fill="white"/>
</mask>
<g mask="url(#mask0_3349_50801)">
<path d="M21.7143 3H2.28571C1.02335 3 0 4.02335 0 5.28571V17.8571C0 19.1195 1.02335 20.1429 2.28571 20.1429H21.7143C22.9767 20.1429 24 19.1195 24 17.8571V5.28571C24 4.02335 22.9767 3 21.7143 3Z" fill="white"/>
<path fill-rule="evenodd" clip-rule="evenodd" d="M0 3H11.4286V20.1429H0V3Z" fill="#357C58"/>
<path fill-rule="evenodd" clip-rule="evenodd" d="M14.9166 14.7291C13.9771 15.9371 12.5074 16.7143 10.8571 16.7143C8.01714 16.7143 5.71429 14.4114 5.71429 11.5714C5.71429 8.73143 8.01714 6.42857 10.8571 6.42857C12.5074 6.42857 13.9771 7.20572 14.9166 8.41372C14.1909 7.88572 13.2777 7.57143 12.2857 7.57143C9.92 7.57143 8 9.36229 8 11.5714C8 13.7806 9.92 15.5714 12.2857 15.5714C13.2777 15.5714 14.1909 15.2571 14.9166 14.7291Z" fill="#E82E2E"/>
<path fill-rule="evenodd" clip-rule="evenodd" d="M14.8571 11.5714L16 11L16.5714 9.85715L17.1429 11L18.2857 11.5714L17.1429 12.1429L16.5714 13.2857L16 12.1429L14.8571 11.5714Z" fill="#E82E2E"/>
<path d="M21.7143 3.57143H2.28572C1.33894 3.57143 0.57143 4.33894 0.57143 5.28571V17.8571C0.57143 18.8039 1.33894 19.5714 2.28572 19.5714H21.7143C22.6611 19.5714 23.4286 18.8039 23.4286 17.8571V5.28571C23.4286 4.33894 22.6611 3.57143 21.7143 3.57143Z" stroke="black" stroke-opacity="0.1"/>
</g>
</svg>
