<svg width="24" height="24" viewBox="0 0 24 24" fill="none" xmlns="http://www.w3.org/2000/svg">
<mask id="mask0_3349_50809" style="mask-type:alpha" maskUnits="userSpaceOnUse" x="0" y="3" width="24" height="18">
<path d="M21.7143 3H2.28571C1.02335 3 0 4.02335 0 5.28571V17.8571C0 19.1195 1.02335 20.1429 2.28571 20.1429H21.7143C22.9767 20.1429 24 19.1195 24 17.8571V5.28571C24 4.02335 22.9767 3 21.7143 3Z" fill="white"/>
</mask>
<g mask="url(#mask0_3349_50809)">
<path d="M21.7143 3H2.28571C1.02335 3 0 4.02335 0 5.28571V17.8571C0 19.1195 1.02335 20.1429 2.28571 20.1429H21.7143C22.9767 20.1429 24 19.1195 24 17.8571V5.28571C24 4.02335 22.9767 3 21.7143 3Z" fill="#004BA5"/>
<path fill-rule="evenodd" clip-rule="evenodd" d="M0 15.5714H24V20.1429H0V15.5714Z" fill="#F01616"/>
<path fill-rule="evenodd" clip-rule="evenodd" d="M0 3H24V12.1429H0V3Z" fill="#FFDF00"/>
<path fill-rule="evenodd" clip-rule="evenodd" d="M6.85714 7.57143H10.2857L12 8.71428L13.7143 7.57143H17.1429L13.7143 8.71428L12.5714 9.85714H11.4286L10.2857 8.71428L6.85714 7.57143Z" fill="#3D2620"/>
<path d="M12 14.4286C12.9468 14.4286 13.7143 13.4052 13.7143 12.1429C13.7143 10.8805 12.9468 9.85715 12 9.85715C11.0532 9.85715 10.2857 10.8805 10.2857 12.1429C10.2857 13.4052 11.0532 14.4286 12 14.4286Z" fill="#07A7D3"/>
<path fill-rule="evenodd" clip-rule="evenodd" d="M9.14286 11V13.2857L11.4286 14.4286H12.5714L14.8571 13.2857V11L16 13.2857L14.8571 14.4286L12.5714 15.5714H11.4286L9.14286 14.4286L8 13.2857L9.14286 11Z" fill="#FFDF00"/>
<path d="M21.7143 3.57143H2.28571C1.33894 3.57143 0.571428 4.33894 0.571428 5.28571V17.8571C0.571428 18.8039 1.33894 19.5714 2.28571 19.5714H21.7143C22.6611 19.5714 23.4286 18.8039 23.4286 17.8571V5.28571C23.4286 4.33894 22.6611 3.57143 21.7143 3.57143Z" stroke="black" stroke-opacity="0.1"/>
</g>
</svg>
