<svg width="24" height="24" viewBox="0 0 24 24" fill="none" xmlns="http://www.w3.org/2000/svg">
<mask id="mask0_3349_50834" style="mask-type:alpha" maskUnits="userSpaceOnUse" x="0" y="3" width="24" height="18">
<path d="M21.7143 3H2.28571C1.02335 3 0 4.02335 0 5.28571V17.8571C0 19.1195 1.02335 20.1429 2.28571 20.1429H21.7143C22.9767 20.1429 24 19.1195 24 17.8571V5.28571C24 4.02335 22.9767 3 21.7143 3Z" fill="white"/>
</mask>
<g mask="url(#mask0_3349_50834)">
<path d="M21.7143 3H2.28571C1.02335 3 0 4.02335 0 5.28571V17.8571C0 19.1195 1.02335 20.1429 2.28571 20.1429H21.7143C22.9767 20.1429 24 19.1195 24 17.8571V5.28571C24 4.02335 22.9767 3 21.7143 3Z" fill="#3C87E0"/>
<path fill-rule="evenodd" clip-rule="evenodd" d="M0 3H24V12.1429H0V3Z" fill="#00AF1E"/>
<path fill-rule="evenodd" clip-rule="evenodd" d="M0 3L24 11.5714L0 20.1429V3Z" fill="#ED0030"/>
<path fill-rule="evenodd" clip-rule="evenodd" d="M10.2857 11.5714C10.2857 9.99429 9.00572 8.71429 7.42857 8.14286C5.85143 8.71429 4.57143 9.99429 4.57143 11.5714C4.57143 12.9543 5.55429 14.1063 6.85715 14.3714V10.4263C6.85715 10.112 7.12229 9.85714 7.42857 9.85714C7.744 9.85714 8 10.1029 8 10.4263V14.3714C9.30286 14.1063 10.2857 12.9543 10.2857 11.5714ZM11.4286 11.5714C11.4286 9.36229 9.63772 7.57143 7.42857 8.14286C5.21943 7.57143 3.42857 9.36229 3.42857 11.5714C3.42857 13.7806 5.21943 15.5714 7.42857 15.5714C9.63772 15.5714 11.4286 13.7806 11.4286 11.5714Z" fill="#FFC800"/>
<path d="M21.7143 3.57143H2.28571C1.33894 3.57143 0.571426 4.33894 0.571426 5.28571V17.8571C0.571426 18.8039 1.33894 19.5714 2.28571 19.5714H21.7143C22.6611 19.5714 23.4286 18.8039 23.4286 17.8571V5.28571C23.4286 4.33894 22.6611 3.57143 21.7143 3.57143Z" stroke="black" stroke-opacity="0.1"/>
</g>
</svg>
