<svg width="24" height="24" viewBox="0 0 24 24" fill="none" xmlns="http://www.w3.org/2000/svg">
<mask id="mask0_3543_2771" style="mask-type:alpha" maskUnits="userSpaceOnUse" x="0" y="3" width="24" height="18">
<path d="M21.7143 3H2.28571C1.02335 3 0 4.02335 0 5.28571V17.8571C0 19.1195 1.02335 20.1429 2.28571 20.1429H21.7143C22.9767 20.1429 24 19.1195 24 17.8571V5.28571C24 4.02335 22.9767 3 21.7143 3Z" fill="white"/>
</mask>
<g mask="url(#mask0_3543_2771)">
<path d="M21.7143 3H2.28571C1.02335 3 0 4.02335 0 5.28571V17.8571C0 19.1195 1.02335 20.1429 2.28571 20.1429H21.7143C22.9767 20.1429 24 19.1195 24 17.8571V5.28571C24 4.02335 22.9767 3 21.7143 3Z" fill="white"/>
<path fill-rule="evenodd" clip-rule="evenodd" d="M0 14.4286H24V20.1428H0V14.4286Z" fill="#007A3D"/>
<path fill-rule="evenodd" clip-rule="evenodd" d="M0 3H24V8.71429H0V3Z" fill="black"/>
<path fill-rule="evenodd" clip-rule="evenodd" d="M0 3L8 11.5L0 20V3Z" fill="#C4111B"/>
<path d="M12.6349 14C13.9865 14 15.0822 12.9042 15.0822 11.5526C15.0822 10.2009 13.9865 9.10522 12.6349 9.10522C11.2832 9.10522 10.1875 10.2009 10.1875 11.5526C10.1875 12.9042 11.2832 14 12.6349 14Z" fill="#C4111B"/>
<path d="M13.5526 14C14.9042 14 16 12.9042 16 11.5526C16 10.2009 14.9042 9.10522 13.5526 9.10522C12.2009 9.10522 11.1052 10.2009 11.1052 11.5526C11.1052 12.9042 12.2009 14 13.5526 14Z" fill="white"/>
<path d="M11.9779 13.0345L13.0215 12.2885L14.0569 13.0458L13.6699 11.8228L14.7101 11.0721L13.4273 11.0622L13.0348 9.84094L12.629 11.0579L11.3462 11.0538L12.3782 11.8158L11.9779 13.0346V13.0345Z" fill="#C4111B"/>
<path d="M21.7143 3.57141H2.2857C1.33892 3.57141 0.571411 4.33892 0.571411 5.2857V17.8571C0.571411 18.8039 1.33892 19.5714 2.2857 19.5714H21.7143C22.661 19.5714 23.4286 18.8039 23.4286 17.8571V5.2857C23.4286 4.33892 22.661 3.57141 21.7143 3.57141Z" stroke="black" stroke-opacity="0.1"/>
</g>
</svg>
