<svg width="24" height="24" viewBox="0 0 24 24" fill="none" xmlns="http://www.w3.org/2000/svg">
<mask id="mask0_3349_50842" style="mask-type:alpha" maskUnits="userSpaceOnUse" x="0" y="3" width="24" height="18">
<path d="M21.7143 3H2.28571C1.02335 3 0 4.02335 0 5.28571V17.8571C0 19.1195 1.02335 20.1429 2.28571 20.1429H21.7143C22.9767 20.1429 24 19.1195 24 17.8571V5.28571C24 4.02335 22.9767 3 21.7143 3Z" fill="white"/>
</mask>
<g mask="url(#mask0_3349_50842)">
<path d="M21.7143 3H2.28571C1.02335 3 0 4.02335 0 5.28571V17.8571C0 19.1195 1.02335 20.1429 2.28571 20.1429H21.7143C22.9767 20.1429 24 19.1195 24 17.8571V5.28571C24 4.02335 22.9767 3 21.7143 3Z" fill="#CD0B20"/>
<path fill-rule="evenodd" clip-rule="evenodd" d="M0 7.57143H24V15.5714H0V7.57143Z" fill="#FFCB00"/>
<path fill-rule="evenodd" clip-rule="evenodd" d="M10.2857 10.1108V12.9908C10.2857 13.7908 9.51771 14.4308 8.57143 14.4308H6.28571C5.34171 14.4286 4.57143 13.7851 4.57143 12.9886V10.1086C4.57143 9.45485 5.08343 8.90856 5.78743 8.73142C6 8.13714 6.65371 8.66971 7.42857 8.66971C8.208 8.66971 8.85714 8.14056 9.06971 8.73256C9.77143 8.91428 10.2857 9.46171 10.2857 10.1108Z" fill="#C8B47C"/>
<path fill-rule="evenodd" clip-rule="evenodd" d="M10.2857 11H11.4286V14.4286H10.2857V11ZM3.42857 11H4.57143V14.4286H3.42857V11Z" fill="#B5B5B5"/>
<path fill-rule="evenodd" clip-rule="evenodd" d="M10.2857 13.2857H11.4286V14.4286H10.2857V13.2857ZM3.42857 13.2857H4.57143V14.4286H3.42857V13.2857Z" fill="#165C96"/>
<path fill-rule="evenodd" clip-rule="evenodd" d="M10.2857 9.85715H11.4286V11H10.2857V9.85715ZM3.42857 9.85715H4.57143V11H3.42857V9.85715Z" fill="#A0790A"/>
<path fill-rule="evenodd" clip-rule="evenodd" d="M5.71428 9.85715H6.85714V11.5714H5.71428V9.85715ZM7.99999 12.1429H9.14285V13.8571H7.99999V12.1429Z" fill="#D20636"/>
<path fill-rule="evenodd" clip-rule="evenodd" d="M8 9.85715H9.14286V11.5714H8V9.85715Z" fill="#A18793"/>
<path fill-rule="evenodd" clip-rule="evenodd" d="M5.71428 12.1429H6.85714V13.8571H5.71428V12.1429Z" fill="#FFE100"/>
<path fill-rule="evenodd" clip-rule="evenodd" d="M6.85714 9.85714L5.71428 8.71428H9.14285L7.99999 9.85714H6.85714Z" fill="#B6161A"/>
<path fill-rule="evenodd" clip-rule="evenodd" d="M6.85715 7.57143H8V8.71428H6.85715V7.57143Z" fill="#AC9300"/>
<path d="M21.7143 3.57143H2.28571C1.33894 3.57143 0.571426 4.33894 0.571426 5.28571V17.8571C0.571426 18.8039 1.33894 19.5714 2.28571 19.5714H21.7143C22.6611 19.5714 23.4286 18.8039 23.4286 17.8571V5.28571C23.4286 4.33894 22.6611 3.57143 21.7143 3.57143Z" stroke="black" stroke-opacity="0.1"/>
</g>
</svg>
