<svg width="24" height="24" viewBox="0 0 24 24" fill="none" xmlns="http://www.w3.org/2000/svg">
<mask id="mask0_3349_50872" style="mask-type:alpha" maskUnits="userSpaceOnUse" x="0" y="3" width="24" height="18">
<path d="M21.7143 3H2.28571C1.02335 3 0 4.02335 0 5.28571V17.8571C0 19.1195 1.02335 20.1429 2.28571 20.1429H21.7143C22.9767 20.1429 24 19.1195 24 17.8571V5.28571C24 4.02335 22.9767 3 21.7143 3Z" fill="white"/>
</mask>
<g mask="url(#mask0_3349_50872)">
<path d="M21.7143 3H2.28571C1.02335 3 0 4.02335 0 5.28571V17.8571C0 19.1195 1.02335 20.1429 2.28571 20.1429H21.7143C22.9767 20.1429 24 19.1195 24 17.8571V5.28571C24 4.02335 22.9767 3 21.7143 3Z" fill="#64BEE7"/>
<path fill-rule="evenodd" clip-rule="evenodd" d="M20.5714 14.4286V10.4286C20.5714 9.47429 19.8034 8.71429 18.8571 8.71429H16.5714C15.6274 8.71429 14.8571 9.48 14.8571 10.4286V14.4286C14.8571 14.6366 16 16.7143 17.7143 16.7143C19.4286 16.7143 20.5714 14.6309 20.5714 14.4286Z" fill="white"/>
<path fill-rule="evenodd" clip-rule="evenodd" d="M18.2857 12.1429V13.4206H20.5714V14.52H18.2857V16.7143H17.1429V14.52H14.8571V13.4206H17.1429V12.1429H14.8571V8.71429H20.5714V12.1429H18.2857Z" fill="#FF0000"/>
<path fill-rule="evenodd" clip-rule="evenodd" d="M16 9.85714H19.4286V11H16V9.85714Z" fill="#FFD200"/>
<path d="M10.2857 4.14286H2.28571C1.65453 4.14286 1.14285 4.65453 1.14285 5.28572V11C1.14285 11.6312 1.65453 12.1429 2.28571 12.1429H10.2857C10.9169 12.1429 11.4286 11.6312 11.4286 11V5.28572C11.4286 4.65453 10.9169 4.14286 10.2857 4.14286Z" fill="white"/>
<path fill-rule="evenodd" clip-rule="evenodd" d="M5.71429 8.71428H2.28572V7.57143H5.71429V5.28571H6.85715V7.57143H10.2857V8.71428H6.85715V11H5.71429V8.71428ZM8.57144 9.85714V11H10.2857V9.85714H8.57144ZM8.57144 5.28571V6.42857H10.2857V5.28571H8.57144ZM2.28572 9.85714V11H4.00001V9.85714H2.28572ZM2.28572 5.28571V6.42857H4.00001V5.28571H2.28572Z" fill="#FF0000"/>
<path d="M21.7143 3.57143H2.28571C1.33894 3.57143 0.571426 4.33894 0.571426 5.28571V17.8571C0.571426 18.8039 1.33894 19.5714 2.28571 19.5714H21.7143C22.6611 19.5714 23.4286 18.8039 23.4286 17.8571V5.28571C23.4286 4.33894 22.6611 3.57143 21.7143 3.57143Z" stroke="black" stroke-opacity="0.1"/>
</g>
</svg>
