<svg width="24" height="24" viewBox="0 0 24 24" fill="none" xmlns="http://www.w3.org/2000/svg">
<mask id="mask0_3349_50882" style="mask-type:alpha" maskUnits="userSpaceOnUse" x="0" y="3" width="24" height="18">
<path d="M21.7143 3H2.28571C1.02335 3 0 4.02335 0 5.28571V17.8571C0 19.1195 1.02335 20.1429 2.28571 20.1429H21.7143C22.9767 20.1429 24 19.1195 24 17.8571V5.28571C24 4.02335 22.9767 3 21.7143 3Z" fill="white"/>
</mask>
<g mask="url(#mask0_3349_50882)">
<path d="M21.7143 3H2.28571C1.02335 3 0 4.02335 0 5.28571V17.8571C0 19.1195 1.02335 20.1429 2.28571 20.1429H21.7143C22.9767 20.1429 24 19.1195 24 17.8571V5.28571C24 4.02335 22.9767 3 21.7143 3Z" fill="#72B1DF"/>
<path fill-rule="evenodd" clip-rule="evenodd" d="M11.4286 7.57143H10.8514C10.5314 7.57143 10.2857 7.82743 10.2857 8.14286C10.2857 8.44914 10.5394 8.71429 10.8514 8.71429H11.4286V9.29143C11.4286 9.61143 11.6846 9.85714 12 9.85714C12.3063 9.85714 12.5714 9.60343 12.5714 9.29143V8.71429H13.1486C13.4686 8.71429 13.7143 8.45829 13.7143 8.14286C13.7143 7.83657 13.4606 7.57143 13.1486 7.57143H12.5714V6.99429C12.5714 6.67429 12.3154 6.42857 12 6.42857C11.6937 6.42857 11.4286 6.68229 11.4286 6.99429V7.57143ZM16 11H15.4229C15.1029 11 14.8571 11.256 14.8571 11.5714C14.8571 11.8777 15.1109 12.1429 15.4229 12.1429H16V12.72C16 13.04 16.256 13.2857 16.5714 13.2857C16.8777 13.2857 17.1429 13.032 17.1429 12.72V12.1429H17.72C18.04 12.1429 18.2857 11.8869 18.2857 11.5714C18.2857 11.2651 18.032 11 17.72 11H17.1429V10.4229C17.1429 10.1029 16.8869 9.85714 16.5714 9.85714C16.2651 9.85714 16 10.1109 16 10.4229V11ZM11.4286 14.4286H10.8514C10.5314 14.4286 10.2857 14.6846 10.2857 15C10.2857 15.3063 10.5394 15.5714 10.8514 15.5714H11.4286V16.1486C11.4286 16.4686 11.6846 16.7143 12 16.7143C12.3063 16.7143 12.5714 16.4606 12.5714 16.1486V15.5714H13.1486C13.4686 15.5714 13.7143 15.3154 13.7143 15C13.7143 14.6937 13.4606 14.4286 13.1486 14.4286H12.5714V13.8514C12.5714 13.5314 12.3154 13.2857 12 13.2857C11.6937 13.2857 11.4286 13.5394 11.4286 13.8514V14.4286ZM6.85714 11H6.28C5.96 11 5.71429 11.256 5.71429 11.5714C5.71429 11.8777 5.968 12.1429 6.28 12.1429H6.85714V12.72C6.85714 13.04 7.11314 13.2857 7.42857 13.2857C7.73486 13.2857 8 13.032 8 12.72V12.1429H8.57714C8.89714 12.1429 9.14286 11.8869 9.14286 11.5714C9.14286 11.2651 8.88914 11 8.57714 11H8V10.4229C8 10.1029 7.744 9.85714 7.42857 9.85714C7.12229 9.85714 6.85714 10.1109 6.85714 10.4229V11Z" fill="white"/>
<path d="M21.7143 3.57143H2.28571C1.33894 3.57143 0.571426 4.33894 0.571426 5.28571V17.8571C0.571426 18.8039 1.33894 19.5714 2.28571 19.5714H21.7143C22.6611 19.5714 23.4286 18.8039 23.4286 17.8571V5.28571C23.4286 4.33894 22.6611 3.57143 21.7143 3.57143Z" stroke="black" stroke-opacity="0.1"/>
</g>
</svg>
