<svg width="24" height="24" viewBox="0 0 24 24" fill="none" xmlns="http://www.w3.org/2000/svg">
<mask id="mask0_3349_50902" style="mask-type:alpha" maskUnits="userSpaceOnUse" x="0" y="3" width="24" height="18">
<path d="M21.7143 3H2.28571C1.02335 3 0 4.02335 0 5.28571V17.8571C0 19.1195 1.02335 20.1429 2.28571 20.1429H21.7143C22.9767 20.1429 24 19.1195 24 17.8571V5.28571C24 4.02335 22.9767 3 21.7143 3Z" fill="white"/>
</mask>
<g mask="url(#mask0_3349_50902)">
<path d="M21.7143 3H2.28571C1.02335 3 0 4.02335 0 5.28571V17.8571C0 19.1195 1.02335 20.1429 2.28571 20.1429H21.7143C22.9767 20.1429 24 19.1195 24 17.8571V5.28571C24 4.02335 22.9767 3 21.7143 3Z" fill="#22438B"/>
<path fill-rule="evenodd" clip-rule="evenodd" d="M3.42857 4.14286L1.11314 4.17257L1.14286 6.42857L20.5509 19.032L22.8789 18.9897L22.8354 16.7474L3.42857 4.14286Z" fill="white"/>
<path fill-rule="evenodd" clip-rule="evenodd" d="M2.28571 4.14286L1.14286 5.28572L21.7143 19L22.8571 17.8571L2.28571 4.14286Z" fill="#C7152A"/>
<path fill-rule="evenodd" clip-rule="evenodd" d="M20.5714 4.14286H22.8571V6.42857C22.8571 6.42857 9.42857 14.8811 3.44914 19.032C3.37714 19.0823 1.16571 19.0354 1.16571 19.0354L0.988571 16.8629L20.5714 4.14286Z" fill="white"/>
<path fill-rule="evenodd" clip-rule="evenodd" d="M21.7634 4.11086L22.8571 5.28571L2.28571 19L1.14286 17.8571L21.7634 4.11086Z" fill="#C7152A"/>
<path fill-rule="evenodd" clip-rule="evenodd" d="M9.14286 4.14286H14.8571V8.71429H22.8571V14.4286H14.8571V19H9.14286V14.4286H1.14286V8.71429H9.14286V4.14286Z" fill="white"/>
<path fill-rule="evenodd" clip-rule="evenodd" d="M10.2857 4.14286H13.7143V9.85715H22.8571V13.2857H13.7143V19H10.2857V13.2857H1.14286V9.85715H10.2857V4.14286Z" fill="#C7152A"/>
<path d="M21.7143 3.57143H2.28571C1.33894 3.57143 0.571428 4.33894 0.571428 5.28571V17.8571C0.571428 18.8039 1.33894 19.5714 2.28571 19.5714H21.7143C22.6611 19.5714 23.4286 18.8039 23.4286 17.8571V5.28571C23.4286 4.33894 22.6611 3.57143 21.7143 3.57143Z" stroke="black" stroke-opacity="0.1"/>
</g>
</svg>
