<svg width="24" height="24" viewBox="0 0 24 24" fill="none" xmlns="http://www.w3.org/2000/svg">
<mask id="mask0_3349_50925" style="mask-type:alpha" maskUnits="userSpaceOnUse" x="0" y="3" width="24" height="18">
<path d="M21.7143 3H2.28571C1.02335 3 0 4.02335 0 5.28571V17.8571C0 19.1195 1.02335 20.1429 2.28571 20.1429H21.7143C22.9767 20.1429 24 19.1195 24 17.8571V5.28571C24 4.02335 22.9767 3 21.7143 3Z" fill="white"/>
</mask>
<g mask="url(#mask0_3349_50925)">
<path d="M21.7143 3H2.28571C1.02335 3 0 4.02335 0 5.28571V17.8571C0 19.1195 1.02335 20.1429 2.28571 20.1429H21.7143C22.9767 20.1429 24 19.1195 24 17.8571V5.28571C24 4.02335 22.9767 3 21.7143 3Z" fill="white"/>
<path fill-rule="evenodd" clip-rule="evenodd" d="M10.2857 13.2857H0V9.85714H10.2857V3H13.7143V9.85714H24V13.2857H13.7143V20.1429H10.2857V13.2857Z" fill="#FF0000"/>
<path fill-rule="evenodd" clip-rule="evenodd" d="M17.1429 15.5714H16V16.7143H17.1429V17.8571H18.2857V16.7143H19.4286V15.5714H18.2857V14.4286H17.1429V15.5714ZM17.1429 6.42857H16V7.57143H17.1429V8.71428H18.2857V7.57143H19.4286V6.42857H18.2857V5.28571H17.1429V6.42857ZM5.71428 6.42857H4.57143V7.57143H5.71428V8.71428H6.85714V7.57143H8V6.42857H6.85714V5.28571H5.71428V6.42857ZM5.71428 15.5714H4.57143V16.7143H5.71428V17.8571H6.85714V16.7143H8V15.5714H6.85714V14.4286H5.71428V15.5714Z" fill="#FF0000"/>
<path d="M21.7143 3.57143H2.28571C1.33894 3.57143 0.571426 4.33894 0.571426 5.28571V17.8571C0.571426 18.8039 1.33894 19.5714 2.28571 19.5714H21.7143C22.6611 19.5714 23.4286 18.8039 23.4286 17.8571V5.28571C23.4286 4.33894 22.6611 3.57143 21.7143 3.57143Z" stroke="black" stroke-opacity="0.1"/>
</g>
</svg>
