<svg width="24" height="24" viewBox="0 0 24 24" fill="none" xmlns="http://www.w3.org/2000/svg">
<mask id="mask0_3349_50955" style="mask-type:alpha" maskUnits="userSpaceOnUse" x="0" y="3" width="24" height="18">
<path d="M21.7143 3H2.28571C1.02335 3 0 4.02335 0 5.28571V17.8571C0 19.1195 1.02335 20.1429 2.28571 20.1429H21.7143C22.9767 20.1429 24 19.1195 24 17.8571V5.28571C24 4.02335 22.9767 3 21.7143 3Z" fill="white"/>
</mask>
<g mask="url(#mask0_3349_50955)">
<path d="M21.7143 3H2.28571C1.02335 3 0 4.02335 0 5.28571V17.8571C0 19.1195 1.02335 20.1429 2.28571 20.1429H21.7143C22.9767 20.1429 24 19.1195 24 17.8571V5.28571C24 4.02335 22.9767 3 21.7143 3Z" fill="white"/>
<path fill-rule="evenodd" clip-rule="evenodd" d="M0 14.4286H24V20.1429H0V14.4286Z" fill="#E61D00"/>
<path fill-rule="evenodd" clip-rule="evenodd" d="M0 3H24V8.71429H0V3Z" fill="#3A9B00"/>
<path fill-rule="evenodd" clip-rule="evenodd" d="M12 11C12.3154 11 12.5714 10.744 12.5714 10.4286C12.5714 10.1131 12.3154 9.85714 12 9.85714C11.6846 9.85714 11.4286 10.1131 11.4286 10.4286C11.4286 10.744 11.6846 11 12 11ZM14.2857 11C14.6011 11 14.8571 10.744 14.8571 10.4286C14.8571 10.1131 14.6011 9.85714 14.2857 9.85714C13.9703 9.85714 13.7143 10.1131 13.7143 10.4286C13.7143 10.744 13.9703 11 14.2857 11ZM16.5714 11C16.8869 11 17.1429 10.744 17.1429 10.4286C17.1429 10.1131 16.8869 9.85714 16.5714 9.85714C16.256 9.85714 16 10.1131 16 10.4286C16 10.744 16.256 11 16.5714 11Z" fill="#FFD900"/>
<path fill-rule="evenodd" clip-rule="evenodd" d="M13.1429 12.1429C13.4583 12.1429 13.7143 11.8869 13.7143 11.5714C13.7143 11.256 13.4583 11 13.1429 11C12.8274 11 12.5714 11.256 12.5714 11.5714C12.5714 11.8869 12.8274 12.1429 13.1429 12.1429ZM15.4286 12.1429C15.744 12.1429 16 11.8869 16 11.5714C16 11.256 15.744 11 15.4286 11C15.1131 11 14.8571 11.256 14.8571 11.5714C14.8571 11.8869 15.1131 12.1429 15.4286 12.1429Z" fill="#009432"/>
<path fill-rule="evenodd" clip-rule="evenodd" d="M13.7143 11H14.8571V13.2857H13.7143V11Z" fill="#A46620"/>
<path fill-rule="evenodd" clip-rule="evenodd" d="M0 3V20.1806L8 11.5714L0 3Z" fill="#0071D1"/>
<path d="M21.7143 3.57143H2.28571C1.33894 3.57143 0.571426 4.33894 0.571426 5.28571V17.8571C0.571426 18.8039 1.33894 19.5714 2.28571 19.5714H21.7143C22.6611 19.5714 23.4286 18.8039 23.4286 17.8571V5.28571C23.4286 4.33894 22.6611 3.57143 21.7143 3.57143Z" stroke="black" stroke-opacity="0.1"/>
</g>
</svg>
