<svg width="24" height="24" viewBox="0 0 24 24" fill="none" xmlns="http://www.w3.org/2000/svg">
<mask id="mask0_3349_50966" style="mask-type:alpha" maskUnits="userSpaceOnUse" x="0" y="3" width="24" height="18">
<path d="M21.7143 3H2.28571C1.02335 3 0 4.02335 0 5.28571V17.8571C0 19.1195 1.02335 20.1429 2.28571 20.1429H21.7143C22.9767 20.1429 24 19.1195 24 17.8571V5.28571C24 4.02335 22.9767 3 21.7143 3Z" fill="white"/>
</mask>
<g mask="url(#mask0_3349_50966)">
<path d="M21.7143 3H2.28571C1.02335 3 0 4.02335 0 5.28571V17.8571C0 19.1195 1.02335 20.1429 2.28571 20.1429H21.7143C22.9767 20.1429 24 19.1195 24 17.8571V5.28571C24 4.02335 22.9767 3 21.7143 3Z" fill="white"/>
<path fill-rule="evenodd" clip-rule="evenodd" d="M0 3H4.57143V7.57143H0V3ZM6.85714 3H11.4286V7.57143H6.85714V3ZM0 9.85714H4.57143V14.4286H0V9.85714ZM6.85714 9.85714H11.4286V14.4286H6.85714V9.85714ZM11.4286 3H24V5.28571H11.4286V3ZM11.4286 7.57143H24V9.85714H11.4286V7.57143Z" fill="#005CB2"/>
<path fill-rule="evenodd" clip-rule="evenodd" d="M0 12.1429H24V14.4286H0V12.1429ZM4.57143 12.1429H6.85714V14.4286H4.57143V12.1429ZM0 16.7143H24V19H0V16.7143Z" fill="#005CB2"/>
<path d="M21.7143 3.57143H2.28571C1.33894 3.57143 0.571426 4.33894 0.571426 5.28571V17.8571C0.571426 18.8039 1.33894 19.5714 2.28571 19.5714H21.7143C22.6611 19.5714 23.4286 18.8039 23.4286 17.8571V5.28571C23.4286 4.33894 22.6611 3.57143 21.7143 3.57143Z" stroke="black" stroke-opacity="0.1"/>
</g>
</svg>
