<svg width="24" height="24" viewBox="0 0 24 24" fill="none" xmlns="http://www.w3.org/2000/svg">
<mask id="mask0_3349_50913" style="mask-type:alpha" maskUnits="userSpaceOnUse" x="0" y="3" width="24" height="18">
<path d="M21.7143 3H2.28571C1.02335 3 0 4.02335 0 5.28571V17.8571C0 19.1195 1.02335 20.1429 2.28571 20.1429H21.7143C22.9767 20.1429 24 19.1195 24 17.8571V5.28571C24 4.02335 22.9767 3 21.7143 3Z" fill="white"/>
</mask>
<g mask="url(#mask0_3349_50913)">
<path d="M21.7143 3H2.28571C1.02335 3 0 4.02335 0 5.28571V17.8571C0 19.1195 1.02335 20.1429 2.28571 20.1429H21.7143C22.9767 20.1429 24 19.1195 24 17.8571V5.28571C24 4.02335 22.9767 3 21.7143 3Z" fill="#D0091E"/>
<path fill-rule="evenodd" clip-rule="evenodd" d="M3.42857 6.42857H20.5714V16.7143H3.42857V6.42857Z" fill="#FDD200"/>
<path fill-rule="evenodd" clip-rule="evenodd" d="M3.42857 6.42857L12 11.5714L3.42857 16.7143V6.42857Z" fill="#007B5D"/>
<path fill-rule="evenodd" clip-rule="evenodd" d="M4.57143 11H5.71428V12.1429H4.57143V11Z" fill="#F7BA03"/>
<path fill-rule="evenodd" clip-rule="evenodd" d="M20.5714 6.42857L12 11.5714L20.5714 16.7143V6.42857Z" fill="#007B5D"/>
<path fill-rule="evenodd" clip-rule="evenodd" d="M8 4.14286H9.14286V5.28572H8V4.14286ZM11.4286 4.14286H12.5714V5.28572H11.4286V4.14286ZM14.8571 4.14286H16V5.28572H14.8571V4.14286ZM8 17.8571H9.14286V19H8V17.8571ZM11.4286 17.8571H12.5714V19H11.4286V17.8571ZM14.8571 17.8571H16V19H14.8571V17.8571Z" fill="#F3A906"/>
<path d="M12 14.4286C13.578 14.4286 14.8571 13.1494 14.8571 11.5714C14.8571 9.99347 13.578 8.71429 12 8.71429C10.422 8.71429 9.14286 9.99347 9.14286 11.5714C9.14286 13.1494 10.422 14.4286 12 14.4286Z" fill="#D0091E"/>
<path fill-rule="evenodd" clip-rule="evenodd" d="M12 13L10.32 13.8834L10.64 12.0126L9.28229 10.6869L11.16 10.416L12 8.71429L12.84 10.4171L14.7177 10.688L13.3577 12.0137L13.6777 13.8834" fill="#FDD200"/>
<path d="M21.7143 3.57143H2.28571C1.33894 3.57143 0.571426 4.33894 0.571426 5.28571V17.8571C0.571426 18.8039 1.33894 19.5714 2.28571 19.5714H21.7143C22.6611 19.5714 23.4286 18.8039 23.4286 17.8571V5.28571C23.4286 4.33894 22.6611 3.57143 21.7143 3.57143Z" stroke="black" stroke-opacity="0.1"/>
</g>
</svg>
