<svg width="24" height="24" viewBox="0 0 24 24" fill="none" xmlns="http://www.w3.org/2000/svg">
<mask id="mask0_3562_3176" style="mask-type:alpha" maskUnits="userSpaceOnUse" x="0" y="3" width="24" height="18">
<path d="M21.7143 3H2.28571C1.02335 3 0 4.02335 0 5.28571V17.8571C0 19.1195 1.02335 20.1429 2.28571 20.1429H21.7143C22.9767 20.1429 24 19.1195 24 17.8571V5.28571C24 4.02335 22.9767 3 21.7143 3Z" fill="white"/>
</mask>
<g mask="url(#mask0_3562_3176)">
<path d="M2.28571 3.5H21.7143C22.7005 3.5 23.5 4.29949 23.5 5.28571V17.8571C23.5 18.8434 22.7005 19.6429 21.7143 19.6429H2.28571C1.29949 19.6429 0.5 18.8434 0.5 17.8571V5.28571C0.5 4.29949 1.29949 3.5 2.28571 3.5Z" fill="#00297B" stroke="#C62139"/>
<path d="M21.7143 3.57141H2.2857C1.33892 3.57141 0.571411 4.33892 0.571411 5.2857V17.8571C0.571411 18.8039 1.33892 19.5714 2.2857 19.5714H21.7143C22.661 19.5714 23.4286 18.8039 23.4286 17.8571V5.2857C23.4286 4.33892 22.661 3.57141 21.7143 3.57141Z" stroke="black" stroke-opacity="0.1"/>
<path fill-rule="evenodd" clip-rule="evenodd" d="M12.3684 6C12.3684 6 9 8.68021 9 11.4643C9 14.2488 12.3684 17 12.3684 17C12.3684 17 15.7152 14.4492 15.7152 11.4643C15.7152 8.47984 12.3684 6 12.3684 6H12.3684Z" fill="#92DBFC"/>
<path fill-rule="evenodd" clip-rule="evenodd" d="M9.37268 13.1637C10.2493 15.2692 12.3684 17 12.3684 17C12.3684 17 14.5252 15.3562 15.376 13.1636" fill="#008CE7"/>
<path fill-rule="evenodd" clip-rule="evenodd" d="M15.3877 12.5561C14.8684 12.9276 11.9463 12.7492 11.9463 12.7492L11.783 13.1652L15.2622 13.176C15.2767 13.1189 15.3115 13.0511 15.3235 12.9934L15.3877 12.5561Z" fill="#9C8431"/>
<path fill-rule="evenodd" clip-rule="evenodd" d="M10.1593 14.2778C10.3073 14.2826 10.4546 14.3139 10.587 14.3849C10.8236 14.509 10.9608 14.5081 11.2158 14.512C11.4827 14.5161 11.6921 14.7125 11.9806 14.7207C12.512 14.7356 12.7354 14.9995 12.3222 14.9993C12.1271 14.9991 11.7087 14.8681 11.5065 14.8956C11.199 14.9268 11.0214 14.9503 10.7939 15.1311C10.5771 14.8709 10.3604 14.5847 10.1593 14.2778ZM11.2106 15.6027C11.3423 15.5125 11.4331 15.4421 11.5609 15.4382C11.8094 15.4305 11.8942 15.2768 12.1814 15.277C12.5077 15.3369 12.9501 15.2378 13.209 15.1804C13.6687 15.0744 13.4506 14.7529 13.1724 14.6361C12.9475 14.5399 12.526 14.6313 12.2644 14.5358C12.0665 14.4585 12.2297 14.3352 12.3362 14.309C12.4436 14.2893 12.5588 14.3248 12.6925 14.3466C12.9311 14.3676 13.2309 14.3453 13.4406 14.3127C13.8739 14.2464 13.856 14.1192 14.0651 14.1163C14.2177 14.1092 14.3339 14.0639 14.438 13.9895C14.5603 13.9079 14.6876 13.7405 14.8355 13.7471L14.9225 13.7509C14.0088 15.5185 12.3678 16.6788 12.3678 16.6788C12.3678 16.6788 11.8375 16.2729 11.2106 15.6027Z" fill="#FFDE52"/>
<path fill-rule="evenodd" clip-rule="evenodd" d="M13.3109 14.3079C13.3676 14.5272 13.4277 14.6018 13.6581 14.6581C13.8856 14.7144 14.2332 14.4932 14.0178 14.2785C13.8128 14.0789 13.5968 14.0278 13.4132 13.8481C13.1282 13.5655 12.7374 12.9816 12.5517 12.4293C12.3485 11.8256 12.3838 10.1261 12.3929 9.26514C12.3931 9.2551 12.4177 9.24915 12.4205 9.24506C12.4337 9.2261 12.4463 9.2512 12.4257 9.12499C12.4203 9.09265 12.3946 9.0592 12.3948 9.02648C12.395 8.96812 12.1933 9.09024 12.1402 9.19432C12.1281 9.21811 12.1788 9.28595 12.1788 9.29934C12.1857 10.1253 12.0969 11.7561 12.3162 12.4944C12.4519 12.9514 12.6994 13.3044 12.9236 13.631C13.058 13.8403 13.2524 14.0661 13.3109 14.3079Z" fill="#8C4200"/>
<path d="M10.7977 11.8896C10.7951 11.8892 10.7849 11.8879 10.775 11.8866C10.705 11.8781 10.6301 11.8485 10.5752 11.8076C10.4972 11.7495 10.4455 11.6563 10.4282 11.542C10.4234 11.5101 10.4236 11.4277 10.4284 11.3963C10.4422 11.308 10.4745 11.2301 10.521 11.1733C10.5347 11.1565 10.5611 11.1309 10.5773 11.1188C10.6154 11.0898 10.6646 11.0671 10.7165 11.0545C10.7537 11.0452 10.7765 11.0424 10.8211 11.0411C10.8832 11.0396 10.9269 11.0452 10.976 11.0616C11.0388 11.0822 11.0875 11.1157 11.1219 11.1614C11.1451 11.1922 11.1752 11.2608 11.1795 11.2924C11.1817 11.3097 11.1748 11.3225 11.1596 11.329C11.1548 11.3311 11.1306 11.3383 11.1057 11.345C11.0557 11.3584 11.0486 11.3588 11.0375 11.3495C11.0301 11.3432 11.0275 11.3383 11.0209 11.3181C11.018 11.3095 11.0107 11.292 11.0046 11.2796C10.9951 11.2604 10.9912 11.2547 10.9784 11.2419C10.9656 11.2288 10.96 11.2249 10.9408 11.2157C10.8985 11.195 10.8509 11.188 10.796 11.1946C10.7559 11.1995 10.7124 11.2158 10.6851 11.2365C10.6243 11.2822 10.5905 11.3725 10.594 11.4792C10.5987 11.6247 10.6604 11.7049 10.7873 11.7303C10.8117 11.7352 10.8648 11.7352 10.8908 11.7303C10.9288 11.7233 10.9843 11.7015 11.0157 11.6814L11.0271 11.6744V11.6281L11.0273 11.5816L10.9271 11.5809L10.8269 11.5801L10.8206 11.5757C10.8171 11.5731 10.8122 11.5682 10.8098 11.5647C10.8053 11.5586 10.8053 11.5576 10.8053 11.5032C10.8055 11.4487 10.8055 11.4478 10.81 11.4417C10.8124 11.4381 10.8174 11.4333 10.821 11.4309L10.8273 11.4262L10.9988 11.4266L11.1706 11.427L11.1767 11.4315C11.1802 11.4339 11.1851 11.4393 11.1877 11.4434L11.1921 11.4506L11.1925 11.5928C11.1929 11.7443 11.1925 11.7504 11.1834 11.7614C11.1808 11.7646 11.1689 11.7742 11.1572 11.7828C11.0762 11.8424 10.9899 11.8779 10.9013 11.8882C10.8784 11.8908 10.8118 11.8917 10.7977 11.8896L10.7977 11.8896ZM11.6953 11.8972C11.6055 11.8904 11.5377 11.8636 11.4882 11.8158C11.4395 11.7688 11.4154 11.7099 11.4046 11.6117C11.4014 11.5844 11.4012 11.5556 11.4014 11.3337C11.4018 11.0947 11.402 11.0857 11.4057 11.0785C11.4077 11.0744 11.4126 11.0686 11.4163 11.0657L11.4233 11.0605L11.4823 11.0599C11.5391 11.0595 11.5416 11.0595 11.5499 11.0636C11.5551 11.0662 11.5603 11.0709 11.5631 11.0751L11.5676 11.0824L11.5683 11.3389C11.5689 11.5649 11.5693 11.5978 11.572 11.6156C11.5795 11.6621 11.5869 11.6794 11.6087 11.7011C11.636 11.7283 11.6644 11.7383 11.7183 11.7402C11.7679 11.7417 11.802 11.7361 11.8311 11.7218C11.8648 11.7054 11.88 11.6796 11.8915 11.6205C11.8958 11.5982 11.8958 11.5946 11.8975 11.3415C11.8992 11.0547 11.8979 11.0785 11.9133 11.0668L11.9205 11.0614H11.9819C12.0503 11.0616 12.0482 11.0612 12.0592 11.0757L12.0648 11.0829L12.065 11.3131C12.0651 11.5439 12.064 11.5922 12.0579 11.6357C12.0447 11.7283 12.014 11.7868 11.9549 11.8326C11.935 11.848 11.9269 11.8532 11.9073 11.8628C11.8774 11.8779 11.8429 11.8881 11.8036 11.8937C11.7832 11.8967 11.7161 11.8987 11.6953 11.8972L11.6953 11.8972ZM12.4986 11.8848C12.496 11.8842 12.4902 11.8799 12.4856 11.8755C12.4761 11.866 12.4735 11.8573 12.4763 11.8454C12.4798 11.8307 12.7705 11.0805 12.7752 11.0746C12.7843 11.0623 12.7869 11.0619 12.8549 11.0621C12.9229 11.0621 12.9255 11.0627 12.9348 11.0748C12.9372 11.0783 13.0094 11.2528 13.095 11.463C13.2311 11.797 13.2506 11.8463 13.2506 11.8552C13.2506 11.8666 13.2461 11.8744 13.2356 11.882C13.2292 11.8864 13.229 11.8864 13.161 11.8863H13.0928L13.0854 11.8805C13.0759 11.8733 13.0761 11.874 13.032 11.7588C13.012 11.7062 12.9947 11.6615 12.9936 11.6597C12.9919 11.6563 12.9833 11.6562 12.8569 11.656C12.7304 11.6558 12.722 11.656 12.7207 11.6591C12.72 11.661 12.7029 11.7078 12.6826 11.7632C12.6625 11.8184 12.6443 11.8666 12.6421 11.8701C12.6398 11.8736 12.6352 11.8785 12.6319 11.8809C12.6257 11.8853 12.6246 11.8853 12.5644 11.8855C12.5307 11.8857 12.5012 11.8853 12.4986 11.8848V11.8848ZM12.9341 11.5008C12.9311 11.4924 12.859 11.2995 12.8571 11.2948C12.8564 11.2928 12.8555 11.2937 12.854 11.2978C12.8506 11.3078 12.7768 11.5047 12.7759 11.5064C12.7753 11.5071 12.8114 11.5078 12.8558 11.508H12.9369L12.9341 11.5008ZM13.55 11.884C13.5415 11.8814 13.5322 11.8716 13.5298 11.8625C13.5285 11.8573 13.5281 11.7299 13.529 11.4682L13.5303 11.0818L13.5355 11.0748C13.546 11.0612 13.545 11.0614 13.6381 11.0616C13.7156 11.0618 13.7222 11.062 13.7287 11.0653C13.7324 11.0673 13.7374 11.0718 13.7396 11.0751C13.7419 11.0783 13.7852 11.2056 13.8357 11.3577C13.8865 11.5097 13.9283 11.6342 13.9288 11.6342C13.9294 11.6342 13.9725 11.5106 14.0247 11.3597C14.084 11.188 14.1216 11.0822 14.1247 11.0774C14.1352 11.0623 14.1342 11.0625 14.2195 11.0627C14.2922 11.0627 14.2956 11.0629 14.3024 11.0668C14.3063 11.069 14.3117 11.0742 14.3145 11.0781L14.3193 11.0856L14.3188 11.4742C14.318 11.8405 14.3179 11.8632 14.3145 11.8692C14.3127 11.8725 14.3078 11.8779 14.3037 11.8809L14.2965 11.8865L14.2372 11.8863C14.1785 11.8863 14.1779 11.8863 14.1716 11.8816C14.1681 11.8792 14.1632 11.8744 14.1608 11.8708L14.1562 11.8645L14.1556 11.6415L14.155 11.4186L14.1446 11.4482C14.1389 11.4645 14.1036 11.5656 14.0662 11.6729C14.0006 11.8608 13.9978 11.8684 13.9902 11.8762C13.9855 11.8811 13.9798 11.8848 13.9759 11.8855C13.9722 11.8863 13.9474 11.8868 13.9207 11.8868C13.874 11.8866 13.8716 11.8864 13.8632 11.8822C13.8584 11.8797 13.8526 11.8749 13.8504 11.8716C13.8482 11.8682 13.8119 11.7636 13.7699 11.639C13.7279 11.5147 13.6928 11.4128 13.6921 11.4128C13.6911 11.4128 13.6904 11.5136 13.69 11.637C13.6896 11.8881 13.6908 11.8697 13.6751 11.8801L13.6671 11.8853L13.6118 11.8855C13.5813 11.8857 13.5536 11.885 13.5502 11.8838L13.55 11.884Z" fill="white"/>
<path d="M10.7925 11.8552C10.6918 11.8437 10.6011 11.7991 10.5464 11.734C10.5003 11.6794 10.4706 11.6072 10.4608 11.5262C10.4576 11.4994 10.4578 11.4362 10.4611 11.4106C10.4727 11.3223 10.5076 11.24 10.5576 11.1833C10.6429 11.0864 10.82 11.0474 10.9639 11.0939C11.0546 11.1231 11.1085 11.1784 11.1392 11.2734C11.1434 11.2866 11.1466 11.2978 11.1462 11.2983C11.1451 11.2991 11.0678 11.3201 11.062 11.3212C11.0587 11.3217 11.057 11.3186 11.052 11.3037C11.0377 11.2617 11.0159 11.2268 10.9918 11.2074C10.939 11.1654 10.8646 11.15 10.7775 11.1632C10.7217 11.1718 10.6663 11.2004 10.6345 11.2372C10.5868 11.2924 10.5632 11.36 10.5602 11.4494C10.5574 11.5379 10.5734 11.6054 10.6104 11.6611C10.6704 11.7518 10.8102 11.7924 10.9345 11.7552C10.9743 11.7433 11.0176 11.7227 11.0481 11.7009L11.0622 11.6909L11.0624 11.6193V11.5476L10.9501 11.5474L10.8377 11.5472L10.8379 11.5033V11.4595L10.9985 11.4598L11.1591 11.46L11.1587 11.5998L11.1585 11.7396L11.1408 11.7526C11.0685 11.8058 10.9961 11.8379 10.9185 11.8517C10.8899 11.8567 10.8215 11.8585 10.7925 11.8552V11.8552ZM11.6823 11.8621C11.6094 11.8541 11.5527 11.8307 11.5126 11.7916C11.476 11.7561 11.455 11.7121 11.444 11.6479C11.4362 11.6019 11.4356 11.5781 11.436 11.3327L11.4364 11.0924L11.4856 11.0926H11.5347L11.5351 11.3489C11.5354 11.6216 11.5353 11.6171 11.5457 11.6582C11.5589 11.7106 11.5979 11.7494 11.6537 11.7656C11.6983 11.7786 11.7585 11.7788 11.8092 11.7662C11.8694 11.7511 11.9018 11.7188 11.9181 11.6574C11.9308 11.6104 11.9306 11.6149 11.9319 11.3433L11.9332 11.0933L11.9825 11.0935H12.0315L12.031 11.3253C12.0308 11.4588 12.0297 11.5701 12.0284 11.5879C12.02 11.7054 11.9895 11.769 11.9183 11.8171C11.8903 11.8363 11.8522 11.8507 11.8102 11.8586C11.7919 11.8619 11.7031 11.8643 11.6823 11.8621L11.6823 11.8621ZM12.5138 11.8409C12.5163 11.8347 12.5819 11.6647 12.6597 11.4628L12.8016 11.0959L12.8547 11.0955L12.9081 11.095L13.0608 11.4704C13.1449 11.6769 13.2142 11.8475 13.2149 11.8496C13.2162 11.8531 13.2129 11.8533 13.1607 11.8533L13.1049 11.8531L13.0952 11.828C13.0898 11.8143 13.0703 11.7628 13.0516 11.7139L13.0175 11.6251L12.8573 11.6243L12.6971 11.6234L12.6555 11.7379L12.6138 11.8524L12.5616 11.8522H12.5096L12.5138 11.8409ZM12.9848 11.5388C12.9843 11.5368 12.9623 11.4783 12.9363 11.4087C12.9103 11.3392 12.8809 11.2586 12.8713 11.2292C12.8616 11.2 12.8532 11.1757 12.8529 11.1751C12.8523 11.1745 12.8486 11.1874 12.8447 11.2035C12.8319 11.2573 12.8196 11.2941 12.7739 11.4149C12.7491 11.4809 12.7281 11.5364 12.7274 11.5385C12.7259 11.542 12.733 11.5422 12.8558 11.5424C12.9785 11.5426 12.9858 11.5424 12.9848 11.5388V11.5388ZM13.5632 11.473L13.564 11.0941L13.6383 11.0948L13.7125 11.0955L13.8129 11.3976C13.8681 11.5636 13.9164 11.7098 13.9201 11.7227C13.924 11.7353 13.9275 11.7453 13.9281 11.745C13.9285 11.7444 13.9409 11.7085 13.9556 11.665C13.9705 11.6217 14.0207 11.476 14.0673 11.3413L14.1523 11.0963L14.2188 11.0959L14.2853 11.0955L14.2846 11.4743L14.2839 11.8533L14.2368 11.8531H14.1898L14.1904 11.5347C14.1908 11.3596 14.1902 11.2174 14.1891 11.2185C14.1881 11.2197 14.1415 11.352 14.0855 11.5126C14.0296 11.6732 13.98 11.8154 13.9753 11.8286L13.9668 11.8525H13.8779L13.7697 11.5317C13.7103 11.3553 13.6608 11.2096 13.6599 11.2078C13.659 11.2061 13.6579 11.3503 13.6575 11.5284L13.6567 11.852H13.6097L13.5627 11.8518L13.5632 11.473Z" fill="#BD0728"/>
<path fill-rule="evenodd" clip-rule="evenodd" d="M10.2749 9.02115C10.2892 9.04085 10.2872 9.12579 10.2872 9.12579C10.2989 9.13286 10.4888 8.96409 10.4888 8.97171C10.489 9.00721 10.4933 9.08044 10.4933 9.08044C10.4933 9.08044 10.69 8.89346 10.6981 8.91316C10.7072 8.93528 10.6974 9.04364 10.6974 9.04364C10.6974 9.04364 10.8282 8.89941 10.8522 8.87339C10.8695 8.8548 10.8667 8.89681 10.8684 8.96465C10.8688 8.97673 11.0829 8.80666 11.0959 8.80369C11.1236 8.79774 11.1321 8.89197 11.1306 8.91558C11.1295 8.93305 11.3282 8.8022 11.3195 8.81949L11.3342 8.92004C11.3896 8.91242 11.5215 8.86316 11.6009 8.87599C11.6263 8.88008 11.625 8.8929 11.6024 8.9022C11.2199 9.05702 10.9256 9.29047 10.7543 9.61574C10.6959 9.72652 10.6781 9.82317 10.6935 9.84752C10.6935 9.84752 10.7623 9.69957 10.8398 9.67633C10.8502 9.67336 10.857 9.77112 10.8676 9.76555C10.8676 9.76555 10.9264 9.61723 10.9688 9.56258C10.9801 9.5479 10.999 9.64046 11.0111 9.62671C11.0111 9.62671 11.0416 9.52745 11.1013 9.45831C11.1098 9.44846 11.1253 9.55217 11.1347 9.54344C11.1966 9.48638 11.2548 9.34326 11.278 9.33266C11.2942 9.32003 11.297 9.45162 11.3124 9.44028C11.3124 9.44028 11.4007 9.26296 11.4535 9.23081C11.4873 9.20999 11.486 9.32765 11.486 9.32765C11.5533 9.26129 11.6275 9.15126 11.6626 9.10349C11.6788 9.08156 11.6698 9.24847 11.6871 9.25497C11.7092 9.26352 11.8542 9.1271 11.8706 9.12431C11.8814 9.12245 11.894 9.16315 11.8657 9.19587C11.8635 9.19847 11.6866 9.40255 11.6866 9.40255C11.721 9.40906 11.7343 9.39939 11.7591 9.4059C11.8325 9.42523 11.6215 9.54623 11.625 9.5689C11.625 9.5689 11.7267 9.56704 11.6927 9.58675C11.6682 9.60106 11.5338 9.7741 11.5338 9.76797C11.5338 9.76481 11.6013 9.76945 11.6009 9.78878C11.6003 9.82465 11.4892 10.0096 11.4881 10.0085C11.4819 10.0023 11.5477 10.0005 11.5566 10.0187C11.573 10.0523 11.4425 10.202 11.468 10.2274C11.4715 10.231 11.5425 10.2285 11.5741 10.2356C11.5894 10.239 11.6321 10.5073 11.6213 10.4966C11.6189 10.494 11.6671 10.2449 11.6962 10.1691C11.7141 10.1232 11.7711 10.2384 11.7758 10.2282C11.7734 10.2282 11.7643 10.0644 11.7723 9.98989C11.7745 9.96907 11.8156 10.0116 11.815 9.99175C11.8135 9.94658 11.8098 9.89826 11.8191 9.85421C11.8262 9.82094 11.8611 9.91424 11.8747 9.88915C11.8747 9.88915 11.8323 9.72708 11.8499 9.68135C11.8617 9.65124 11.8899 9.75421 11.9085 9.7583C11.9085 9.7583 11.8981 9.63228 11.9176 9.59976L11.9765 9.66295C11.9893 9.64269 11.9869 9.44642 11.9988 9.42801C12.0087 9.41259 12.0698 9.50162 12.0789 9.48768C12.0871 9.47504 12.0531 9.32932 12.0607 9.3178C12.0715 9.30125 12.1386 9.35831 12.1399 9.3572C12.1672 9.32969 12.1663 9.26111 12.1778 9.23564C12.2087 9.16669 12.3856 9.15776 12.4064 9.20683C12.4167 9.23062 12.4096 9.26129 12.4055 9.29828C12.4072 9.29977 12.4942 9.30609 12.4949 9.29939C12.4949 9.29939 12.4845 9.38062 12.4906 9.47002C12.4916 9.48192 12.5789 9.46705 12.58 9.47894C12.588 9.56314 12.5687 9.57095 12.5687 9.57095C12.5694 9.57708 12.6276 9.56203 12.6285 9.56853C12.6349 9.60961 12.6217 9.65961 12.5956 9.70775C12.5917 9.71462 12.6789 9.70105 12.6802 9.70905C12.6908 9.77224 12.6929 9.82242 12.6819 9.91164C12.681 9.91889 12.7672 9.84863 12.7685 9.85588C12.7815 9.93097 12.7665 10.012 12.7743 10.0897C12.7761 10.1077 12.8313 10.036 12.8363 10.0568C12.8414 10.0772 12.8241 10.2259 12.8324 10.2343C12.8324 10.2343 12.9248 10.2297 12.933 10.2375C13.0062 10.3062 12.9923 10.4263 12.9923 10.4263C13.0124 10.4114 13.0047 10.2668 12.9845 10.1345C12.9822 10.1206 13.0555 10.1259 13.0533 10.1129C13.0533 10.1129 12.973 10.0646 12.9466 9.93004C12.941 9.90123 13.0241 9.90718 13.0241 9.90718C13.001 9.85421 12.9605 9.84417 12.9261 9.79324C12.915 9.77652 13.0124 9.7689 13.0124 9.76406C13.0125 9.71332 12.9302 9.68916 12.8876 9.63637C12.8694 9.61388 12.9765 9.61277 12.9765 9.61277C12.9451 9.56909 12.8415 9.54994 12.7888 9.49214C12.76 9.46073 12.8938 9.42987 12.8921 9.42448C12.8774 9.3782 12.7516 9.3637 12.6906 9.31148C12.678 9.3007 12.7702 9.26427 12.7702 9.26427C12.7609 9.24456 12.56 9.11241 12.6622 9.12449C12.7053 9.1297 12.7929 9.19103 12.7997 9.18174C12.7997 9.18174 12.796 9.10461 12.8049 9.09531C12.8386 9.06037 12.9546 9.24363 12.994 9.2362C12.994 9.2362 13.0085 9.10498 13.0263 9.10145C13.0687 9.09345 13.1203 9.29252 13.1622 9.29252C13.1677 9.29252 13.1709 9.17747 13.1925 9.17115C13.2168 9.16408 13.2441 9.30014 13.275 9.33025C13.3036 9.35794 13.304 9.22393 13.3207 9.2494C13.3492 9.29047 13.356 9.37616 13.3949 9.41389C13.4202 9.43842 13.4248 9.29568 13.4529 9.31482C13.4854 9.33694 13.4778 9.41092 13.5144 9.44735C13.5319 9.46463 13.5436 9.35311 13.5635 9.36947C13.5811 9.38378 13.593 9.52021 13.612 9.54177C13.6361 9.56927 13.664 9.46984 13.6891 9.48563C13.7071 9.49716 13.7029 9.61518 13.7196 9.64046C13.7538 9.69288 13.7716 9.57708 13.7943 9.59492C13.8101 9.60701 13.8443 9.74269 13.8586 9.75347C13.8904 9.77763 13.9079 9.69176 13.932 9.70384C13.9495 9.71239 13.9848 9.88711 13.9993 9.88265C14.0088 9.87967 14.0322 9.48452 13.8802 9.3178C13.6324 9.04606 13.1887 8.88919 12.8267 8.88528C12.8267 8.88528 13.0086 8.84904 13.0135 8.81893C13.0231 8.75889 13.1135 8.76596 13.1765 8.77971C13.1876 8.78213 13.1817 8.67358 13.1832 8.67302C13.2395 8.67172 13.2899 8.70499 13.3438 8.7377C13.3605 8.74793 13.3097 8.62897 13.3276 8.63919C13.3967 8.67916 13.4737 8.69087 13.5203 8.73938C13.5326 8.7522 13.5062 8.64774 13.5062 8.64774C13.5408 8.63938 13.609 8.68919 13.6358 8.73585C13.6488 8.75889 13.635 8.6141 13.6452 8.63975C13.6452 8.63975 13.7657 8.68064 13.7787 8.73138C13.7787 8.73138 13.7885 8.63957 13.8047 8.6444C13.853 8.65704 13.8954 8.73863 13.9331 8.75034C13.9331 8.75034 13.9175 8.66856 13.9298 8.67172C14.0205 8.69458 14.119 8.75071 14.1188 8.75034C14.0677 8.62247 13.8739 8.48846 13.5328 8.45258C13.4702 8.44608 13.2161 8.43567 13.0007 8.48567C12.8241 8.52656 12.6847 8.54979 12.7133 8.52191C12.83 8.4076 13.0187 8.39366 13.0705 8.36709C13.1077 8.34813 12.9454 8.28549 12.9776 8.27657C13.0096 8.26895 13.1545 8.25687 13.1545 8.25687C13.186 8.23233 13.0492 8.18438 13.0696 8.14869C13.1105 8.07713 13.3523 8.14219 13.3729 8.11505C13.3796 8.10594 13.269 8.04052 13.2737 8.03085C13.2913 7.99461 13.5066 8.05762 13.5116 8.02602C13.5116 8.02602 13.4464 7.97732 13.3999 7.93736C13.3943 7.93253 13.5921 7.87937 13.5921 7.87937C13.5884 7.87565 13.5583 7.85446 13.5129 7.83681C13.4715 7.82064 13.6865 7.76469 13.6865 7.76469C13.414 7.64016 12.7068 7.99442 12.5665 8.36207C12.53 8.4498 12.5289 8.35445 12.5365 8.2801C12.5438 8.20018 12.5538 8.1301 12.5453 8.05669C12.5427 8.03494 12.4875 8.11449 12.4838 8.0933C12.4696 8.01524 12.5115 7.92955 12.4923 7.84294C12.486 7.81376 12.4128 7.929 12.4031 7.89981C12.3763 7.81971 12.4232 7.70707 12.4042 7.59667C12.3968 7.55354 12.3274 7.68904 12.3042 7.65038C12.2771 7.60559 12.289 7.43961 12.2761 7.41452C12.2657 7.39444 12.204 7.49407 12.1988 7.47529C12.1152 7.17103 12.2263 7.13311 12.0657 7.30467C12.0602 7.31062 12.0245 7.12475 12.0183 7.13107C11.9525 7.27196 11.8447 7.0307 11.8079 7.05319C11.7804 7.07029 11.883 7.16359 11.8841 7.2056C11.8847 7.22586 11.7897 7.22716 11.7897 7.22716C11.7918 7.26192 11.9704 7.35931 11.9762 7.39742C11.9808 7.42883 11.8498 7.42102 11.8498 7.42102C11.8539 7.46358 12.0027 7.5041 12.0109 7.54927C12.0156 7.57418 11.9412 7.57975 11.9436 7.60503C11.9475 7.64388 12.0875 7.72064 12.0921 7.76023C12.0953 7.78774 12.0027 7.79908 12.0005 7.82472C11.9977 7.85576 12.1864 7.95985 12.1866 7.98903C12.1867 8.03029 12.1115 8.0091 12.0773 8.02992C12.0291 8.0591 12.2317 8.17731 12.2403 8.21096C12.247 8.24051 12.1592 8.21449 12.1563 8.24144C12.1525 8.27675 12.2555 8.3301 12.2791 8.39069C12.3027 8.45054 12.2786 8.46578 12.2447 8.44199C12.1769 8.39422 11.9033 8.10353 11.8306 8.02602C11.725 7.91338 11.5089 7.78718 11.2933 7.77974C11.2708 7.78662 11.4093 7.88457 11.4102 7.92007C11.4104 7.92918 11.3479 7.94275 11.3507 7.94554C11.389 7.98383 11.5081 8.02936 11.5081 8.02936L11.4739 8.09089C11.4819 8.10892 11.5384 8.11375 11.629 8.14349C11.629 8.14349 11.5611 8.18549 11.5661 8.1894C11.6141 8.22768 11.707 8.25594 11.707 8.25594L11.6156 8.2866C11.6102 8.30426 11.8213 8.38883 11.8213 8.38883C11.8213 8.38883 11.7553 8.44571 11.7583 8.44868C11.7745 8.46485 11.9297 8.50072 11.9297 8.50072C11.9323 8.50333 11.82 8.53827 11.8208 8.53901C11.8615 8.57972 11.9737 8.59291 11.9999 8.6602C11.9999 8.6602 12.0154 8.69849 11.9709 8.69124C11.7962 8.62786 11.5256 8.49663 11.0009 8.54812C10.4645 8.61801 10.0558 9.08435 10.0628 9.13081C10.0628 9.13081 10.2546 8.99327 10.2749 9.02115L10.2749 9.02115Z" fill="#109421"/>
</g>
</svg>
