<svg width="24" height="24" viewBox="0 0 24 24" fill="none" xmlns="http://www.w3.org/2000/svg">
<mask id="mask0_3349_50989" style="mask-type:alpha" maskUnits="userSpaceOnUse" x="0" y="3" width="24" height="18">
<path d="M21.7143 3H2.28571C1.02335 3 0 4.02335 0 5.28571V17.8571C0 19.1195 1.02335 20.1429 2.28571 20.1429H21.7143C22.9767 20.1429 24 19.1195 24 17.8571V5.28571C24 4.02335 22.9767 3 21.7143 3Z" fill="white"/>
</mask>
<g mask="url(#mask0_3349_50989)">
<path d="M21.7143 3H2.28571C1.02335 3 0 4.02335 0 5.28571V17.8571C0 19.1195 1.02335 20.1429 2.28571 20.1429H21.7143C22.9767 20.1429 24 19.1195 24 17.8571V5.28571C24 4.02335 22.9767 3 21.7143 3Z" fill="#009F45"/>
<path fill-rule="evenodd" clip-rule="evenodd" d="M0 20.1429V3H3.42857L24 9.85714V13.2857L3.42857 20.1429H0Z" fill="white"/>
<path fill-rule="evenodd" clip-rule="evenodd" d="M0 3L24 11.5714L0 20.1429V3Z" fill="#FDD200"/>
<path fill-rule="evenodd" clip-rule="evenodd" d="M0 20.1429V3H1.14286L12.5714 11.5714L1.14286 20.1429H0Z" fill="black"/>
<path fill-rule="evenodd" clip-rule="evenodd" d="M0 3L11.4286 11.5714L0 20.1429V3Z" fill="#D0091E"/>
<path d="M21.7143 3.57143H2.28571C1.33894 3.57143 0.571428 4.33894 0.571428 5.28571V17.8571C0.571428 18.8039 1.33894 19.5714 2.28571 19.5714H21.7143C22.6611 19.5714 23.4286 18.8039 23.4286 17.8571V5.28571C23.4286 4.33894 22.6611 3.57143 21.7143 3.57143Z" stroke="black" stroke-opacity="0.1"/>
</g>
</svg>
