<svg width="24" height="24" viewBox="0 0 24 24" fill="none" xmlns="http://www.w3.org/2000/svg">
<mask id="mask0_3349_50998" style="mask-type:alpha" maskUnits="userSpaceOnUse" x="0" y="3" width="24" height="18">
<path d="M21.7143 3H2.28571C1.02335 3 0 4.02335 0 5.28571V17.8571C0 19.1195 1.02335 20.1429 2.28571 20.1429H21.7143C22.9767 20.1429 24 19.1195 24 17.8571V5.28571C24 4.02335 22.9767 3 21.7143 3Z" fill="white"/>
</mask>
<g mask="url(#mask0_3349_50998)">
<path d="M21.7143 3H2.28571C1.02335 3 0 4.02335 0 5.28571V17.8571C0 19.1195 1.02335 20.1429 2.28571 20.1429H21.7143C22.9767 20.1429 24 19.1195 24 17.8571V5.28571C24 4.02335 22.9767 3 21.7143 3Z" fill="#DE2910"/>
<path fill-rule="evenodd" clip-rule="evenodd" d="M11.6057 11.5874C8.50629 10.2754 9.88 6.23428 12.8457 6.43543C12.2446 6.744 12.1577 7.32 12.5006 7.85257C12.8846 8.45142 12.4663 9.41257 11.9474 9.64685C11.0949 10.0297 10.9246 11.0526 11.6046 11.5874H11.6057ZM11.8651 11.448C12.1543 8.096 16.4251 8.15314 17.1451 11.0343C16.6674 10.56 16.0937 10.6549 15.6914 11.1463C15.2423 11.6949 14.1989 11.592 13.8171 11.1726C13.1886 10.4823 12.16 10.6354 11.8651 11.4491V11.448ZM11.9703 11.7829C15.2617 11.08 16.4549 15.1794 13.9097 16.7131C14.2251 16.1154 13.9669 15.5931 13.3794 15.3531C12.7234 15.0834 12.5154 14.056 12.8057 13.568C13.2834 12.7646 12.8354 11.8274 11.9714 11.7817L11.9703 11.7829ZM7.71429 15.5486C8.37714 15.6629 8.79429 15.2549 8.84114 14.6229C8.89486 13.9143 9.80686 13.4 10.3611 13.5257C11.2731 13.7314 12.0263 13.016 11.8011 12.1794C13.488 15.0937 9.95771 17.4937 7.71314 15.5474L7.71429 15.5486ZM7.032 9.28571C7.16343 9.94628 7.69257 10.1886 8.30057 10.0057C8.98057 9.80228 9.78857 10.4697 9.86971 11.0343C10.0046 11.9577 10.9417 12.4034 11.6411 11.896C9.52686 14.5131 6.01829 12.0789 7.032 9.28457V9.28571Z" fill="white"/>
<path d="M21.7143 3.57143H2.28571C1.33894 3.57143 0.571426 4.33894 0.571426 5.28571V17.8571C0.571426 18.8039 1.33894 19.5714 2.28571 19.5714H21.7143C22.6611 19.5714 23.4286 18.8039 23.4286 17.8571V5.28571C23.4286 4.33894 22.6611 3.57143 21.7143 3.57143Z" stroke="black" stroke-opacity="0.1"/>
</g>
</svg>
