<svg width="24" height="24" viewBox="0 0 24 24" fill="none" xmlns="http://www.w3.org/2000/svg">
<mask id="mask0_3349_51010" style="mask-type:alpha" maskUnits="userSpaceOnUse" x="0" y="3" width="24" height="18">
<path d="M21.7143 3H2.28571C1.02335 3 0 4.02335 0 5.28571V17.8571C0 19.1195 1.02335 20.1429 2.28571 20.1429H21.7143C22.9767 20.1429 24 19.1195 24 17.8571V5.28571C24 4.02335 22.9767 3 21.7143 3Z" fill="white"/>
</mask>
<g mask="url(#mask0_3349_51010)">
<path d="M21.7143 3H2.28571C1.02335 3 0 4.02335 0 5.28571V17.8571C0 19.1195 1.02335 20.1429 2.28571 20.1429H21.7143C22.9767 20.1429 24 19.1195 24 17.8571V5.28571C24 4.02335 22.9767 3 21.7143 3Z" fill="white"/>
<path fill-rule="evenodd" clip-rule="evenodd" d="M0 14.4286H24V20.1429H0V14.4286Z" fill="#150A99"/>
<path fill-rule="evenodd" clip-rule="evenodd" d="M0 3H24V8.71429H0V3Z" fill="#FF0000"/>
<path fill-rule="evenodd" clip-rule="evenodd" d="M9.14285 7.57143H10.2857V8.71429H9.14285V7.57143ZM11.4286 6.42857H12.5714V8.71429H11.4286V6.42857ZM13.7143 7.57143H14.8571V8.71429H13.7143V7.57143Z" fill="#0091E0"/>
<path fill-rule="evenodd" clip-rule="evenodd" d="M12.5714 6.42857H13.7143V8.71429H12.5714V6.42857ZM10.2857 6.42857H11.4286V8.71429H10.2857V6.42857Z" fill="#150A99"/>
</g>
<mask id="mask1_3349_51010" style="mask-type:alpha" maskUnits="userSpaceOnUse" x="9" y="8" width="6" height="8">
<path d="M14.8571 12.7143C14.8571 14.2914 13.5771 15.5714 12 15.5714C10.4229 15.5714 9.14285 14.2914 9.14285 12.7143V8.71429H14.8571V12.7143Z" fill="white"/>
</mask>
<g mask="url(#mask1_3349_51010)">
<path d="M14.8571 12.7143C14.8571 14.2914 13.5771 15.5714 12 15.5714C10.4229 15.5714 9.14285 14.2914 9.14285 12.7143V8.71429H14.8571V12.7143Z" fill="#FF0000"/>
<path fill-rule="evenodd" clip-rule="evenodd" d="M10.2857 14.4286H11.4286V15.5714H10.2857V14.4286ZM12.5714 14.4286H13.7143V15.5714H12.5714V14.4286ZM11.4286 13.2857H12.5714V14.4286H11.4286V13.2857ZM10.2857 12.1429H11.4286V13.2857H10.2857V12.1429ZM12.5714 12.1429H13.7143V13.2857H12.5714V12.1429ZM11.4286 11H12.5714V12.1429H11.4286V11ZM10.2857 9.85714H11.4286V11H10.2857V9.85714ZM12.5714 9.85714H13.7143V11H12.5714V9.85714ZM11.4286 8.71429H12.5714V9.85714H11.4286V8.71429ZM13.7143 8.71429H14.8571V9.85714H13.7143V8.71429ZM13.7143 11H14.8571V12.1429H13.7143V11ZM13.7143 13.2857H14.8571V14.4286H13.7143V13.2857ZM9.14285 13.2857H10.2857V14.4286H9.14285V13.2857ZM9.14285 11H10.2857V12.1429H9.14285V11ZM9.14285 8.71429H10.2857V9.85714H9.14285V8.71429Z" fill="white"/>
<path d="M21.7143 3.57143H2.28571C1.33894 3.57143 0.571426 4.33894 0.571426 5.28571V17.8571C0.571426 18.8039 1.33894 19.5714 2.28571 19.5714H21.7143C22.6611 19.5714 23.4286 18.8039 23.4286 17.8571V5.28571C23.4286 4.33894 22.6611 3.57143 21.7143 3.57143Z" stroke="black" stroke-opacity="0.1"/>
</g>
</svg>
