<svg width="24" height="24" viewBox="0 0 24 24" fill="none" xmlns="http://www.w3.org/2000/svg">
<mask id="mask0_3562_3313" style="mask-type:alpha" maskUnits="userSpaceOnUse" x="0" y="3" width="24" height="18">
<path d="M21.7143 3H2.28571C1.02335 3 0 4.02335 0 5.28571V17.8571C0 19.1195 1.02335 20.1429 2.28571 20.1429H21.7143C22.9767 20.1429 24 19.1195 24 17.8571V5.28571C24 4.02335 22.9767 3 21.7143 3Z" fill="white"/>
</mask>
<g mask="url(#mask0_3562_3313)">
<path d="M21.7143 3H2.28571C1.02335 3 0 4.02335 0 5.28571V17.8571C0 19.1195 1.02335 20.1429 2.28571 20.1429H21.7143C22.9767 20.1429 24 19.1195 24 17.8571V5.28571C24 4.02335 22.9767 3 21.7143 3Z" fill="#CF142B"/>
<path d="M21.7143 3.57141H2.2857C1.33892 3.57141 0.571411 4.33892 0.571411 5.2857V17.8571C0.571411 18.8039 1.33892 19.5714 2.2857 19.5714H21.7143C22.661 19.5714 23.4286 18.8039 23.4286 17.8571V5.2857C23.4286 4.33892 22.661 3.57141 21.7143 3.57141Z" stroke="black" stroke-opacity="0.1"/>
<path d="M8.17838 9.77284C8.18983 9.78459 8.32758 9.86781 8.32997 9.8632C8.33236 9.85859 8.69046 9.776 8.68806 9.78061C8.68567 9.78521 8.48743 10.0209 8.49665 10.0256C8.50582 10.0304 8.70381 10.2675 8.70842 10.2698C8.71299 10.2722 8.3335 10.2386 8.3335 10.2386L8.08247 10.441L8.02625 10.1783C8.02625 10.1783 7.71047 10.0669 7.70587 10.0645C7.7013 10.0622 7.97611 9.97134 7.97611 9.97134L8.05815 9.75708C8.05815 9.75708 8.16443 9.77726 8.17838 9.77284Z" fill="#F9DD16" stroke="black" stroke-width="0.0522197"/>
<path d="M12.7996 10.2876C12.8004 10.0661 12.3644 9.06435 12.2926 8.91033C12.159 8.74318 12.0177 8.4785 11.957 8.2499C11.9177 8.01913 11.7942 7.83815 11.6203 7.77678C11.4195 7.67018 11.2234 7.71198 11.0346 7.72838C10.9421 7.74804 10.8629 7.79804 10.8182 7.87168C10.7163 8.01747 10.6609 8.00634 10.5904 8.06918C10.01 8.15962 9.46123 8.45909 9.04369 8.6632C8.82261 8.81669 8.63493 8.90582 8.54799 8.92459C8.31226 8.92544 8.14082 8.81374 8.05893 8.75435C7.79197 8.51161 7.52504 8.26882 7.25808 8.02608C7.02668 7.85339 6.96945 8.10269 7.01389 8.14077C7.09115 8.30679 6.92388 8.40786 7.55893 9.00608C7.63912 9.1708 7.7193 9.33555 7.79949 9.50027C7.79949 9.50027 7.78614 9.63541 7.79732 9.64122C7.91327 9.91743 8.09746 9.84859 8.18438 9.77112C8.24727 9.71381 8.31019 9.65653 8.37307 9.59923C8.37307 9.59923 8.74699 9.48088 8.7528 9.4697C9.15377 9.52939 10.187 9.33254 10.3574 9.25169C10.5109 9.1657 10.5207 9.23854 10.6537 9.13019C10.7649 9.05659 10.7038 9.11517 10.9092 8.92744C10.9724 8.87305 11.0225 8.96112 11.0343 9.02272C11.0457 9.60596 11.1172 9.97864 11.1703 10.5602L12.0441 11.0079L12.7996 10.2876Z" fill="white" stroke="black" stroke-width="0.0678856"/>
<path d="M7.75377 8.51609C7.76175 8.52316 7.60941 9.01902 7.60941 9.01902C7.60941 9.01902 7.46903 8.879 7.47022 8.8767L7.56853 8.35571L7.75377 8.51609Z" fill="#F9DD16"/>
<path d="M7.75818 8.49763C7.75123 8.53114 7.72172 8.68062 7.70799 8.72148C7.69649 8.76672 7.68622 8.81236 7.67858 8.85764C7.66448 8.90714 7.65836 8.93953 7.64268 8.99042C7.63768 9.03404 7.62851 9.07498 7.61739 9.11864M7.52074 8.27026C7.52384 8.27667 7.53509 8.32168 7.53676 8.35069C7.53144 8.38107 7.52299 8.48998 7.51135 8.5268C7.50208 8.56774 7.49405 8.60907 7.48857 8.65019C7.47695 8.69493 7.47239 8.72431 7.45928 8.77025C7.45629 8.80998 7.44912 8.84706 7.44019 8.88653" stroke="black" stroke-width="0.0590082"/>
<path d="M10.0717 8.22119C10.2585 8.4291 10.3164 8.76706 10.2826 8.95629" stroke="black" stroke-width="0.0522197"/>
<path d="M9.34889 9.4529C9.35003 9.45071 9.35115 9.44856 9.35227 9.44641C9.3417 9.46676 9.34989 9.45514 9.32989 9.41C9.30866 9.3866 9.29376 9.2729 9.32638 9.21006C9.33888 9.17804 9.35983 9.12975 9.37559 9.09938C9.38009 9.09073 9.39278 9.08217 9.39729 9.07349" stroke="black" stroke-width="0.0522197"/>
<path d="M8.01267 8.75098C8.01155 8.75313 8.01044 8.75528 8.0093 8.75747C8.01381 8.74879 8.0003 8.77481 7.99581 8.78346C7.9783 8.81718 7.95472 8.84791 7.93866 8.87764C7.92178 8.91016 7.89568 8.93789 7.8788 8.97041C7.85711 9.00082 7.83809 9.04115 7.81563 9.07259C7.79458 9.10999 7.7712 9.13664 7.75063 9.17626C7.73284 9.20759 7.71857 9.22204 7.7002 9.25743L7.75063 9.17626C7.73284 9.20759 7.71857 9.22204 7.7002 9.25743" stroke="black" stroke-width="0.0522197"/>
<path d="M7.33411 8.11804C7.33737 8.12414 7.34997 8.16655 7.35262 8.19368C7.34844 8.22186 7.34389 8.32326 7.33372 8.35725C7.32604 8.39512 7.31958 8.43343 7.31561 8.47165C7.30573 8.51303 7.30227 8.54029 7.29098 8.58271C7.28941 8.61973 7.28365 8.65409 7.27625 8.69062" stroke="black" stroke-width="0.0522197"/>
<path d="M8.14826 9.3137C8.10441 9.26758 8.07863 9.28445 8.05047 9.28234C8.01925 9.2879 7.96249 9.31401 7.90491 9.3719C7.88389 9.39484 7.86622 9.4117 7.83838 9.43642C7.82588 9.45588 7.81557 9.46327 7.80176 9.47519" stroke="black" stroke-width="0.0522197"/>
<path d="M11.4425 7.75788C11.4413 7.76003 11.4402 7.76222 11.4391 7.76437C11.4497 7.74398 11.442 7.75553 11.4516 7.80391C11.4642 7.83727 11.4658 7.86046 11.4797 7.89278" stroke="black" stroke-width="0.0522197"/>
<path d="M10.7606 7.93835C10.7583 7.9427 10.7527 8.41448 10.7722 8.47531C10.778 8.51424 10.7885 8.54689 10.794 8.5934C10.794 8.62144 10.8006 8.64493 10.8026 8.67219C10.8186 8.7023 10.8219 8.73254 10.8383 8.75675C10.8463 8.79005 10.873 8.79139 10.8873 8.82246C10.9072 8.844 10.9401 8.88194 10.9597 8.89897" stroke="black" stroke-width="0.0522197"/>
<path d="M10.4328 9.23002C10.4183 9.22508 10.381 9.19557 10.3492 9.17976C10.3133 9.15949 10.2248 9.05384 10.2206 8.97949" stroke="black" stroke-width="0.0522197"/>
<path d="M10.7858 8.5603C10.7846 8.56249 10.7366 8.6098 10.6579 8.68974C10.5573 8.78288 10.2835 8.94312 10.2506 8.95604C10.2191 8.97031 10.1797 9.00467 10.1486 9.00951C10.1128 9.02377 10.0771 9.02934 10.0433 9.03741C10.002 9.04612 9.96695 9.05364 9.93487 9.0554C9.83867 9.09727 9.33155 9.08096 9.30538 9.07529C9.27827 9.07509 9.24137 9.07308 9.21697 9.07067C9.19286 9.07647 9.16429 9.07406 9.13168 9.07592C9.09229 9.07273 9.06966 9.08031 9.0365 9.08433C9.01036 9.09809 8.9669 9.11235 8.93748 9.13198C8.89719 9.14827 8.87272 9.17047 8.84493 9.18299C8.81598 9.2069 8.42141 9.43713 8.40232 9.4474C8.36091 9.46565 8.21221 9.50981 8.175 9.40528C8.16542 9.36416 8.14648 9.32177 8.14532 9.29029C8.13337 9.25263 8.14017 9.21238 8.14212 9.17724C8.17665 8.99916 8.23383 8.92901 8.2496 8.89865C8.25523 8.88781 8.26085 8.87697 8.26648 8.86613" stroke="black" stroke-width="0.0522197"/>
<path d="M11.9336 8.21095C11.9325 8.2131 11.9313 8.21529 11.9302 8.21744C11.9393 8.19988 11.9351 8.20909 11.9102 8.24009C11.8848 8.26061 11.8535 8.29308 11.8304 8.31423C11.8072 8.33731 11.7848 8.36991 11.7639 8.37875C11.7429 8.40622 11.7165 8.41491 11.6878 8.43003C11.649 8.44451 11.6223 8.45707 11.5887 8.47768C11.5459 8.50042 11.5192 8.52215 11.4795 8.54484C11.4551 8.57607 11.4302 8.59546 11.4094 8.63224C11.3888 8.66634 11.3683 8.69557 11.3489 8.73292C11.3331 8.76329 11.3174 8.79361 11.3016 8.82398L11.3489 8.73292C11.3331 8.76329 11.3174 8.79361 11.3016 8.82398" stroke="black" stroke-width="0.0522197"/>
<path d="M11.604 10.7063C11.6062 10.702 11.6085 10.6976 11.6107 10.6933C11.5983 10.7173 11.6026 10.711 11.6144 10.6704C11.6145 10.6217 11.626 10.5628 11.6265 10.5198C11.6338 10.4743 11.6413 10.4252 11.6417 10.3791C11.639 10.3253 11.6391 10.277 11.631 10.225C11.6304 10.1771 11.6248 10.1275 11.6234 10.0807C11.6225 10.0342 11.619 9.99446 11.609 9.94939C11.608 9.91563 11.6059 9.86933 11.5977 9.82796C11.6021 9.79538 11.5929 9.7654 11.5859 9.73931C11.5733 9.68908 11.5684 9.65979 11.5552 9.60774C11.5472 9.57987 11.5393 9.54423 11.5273 9.50246C11.523 9.4629 11.5018 9.41153 11.4932 9.37743C11.4814 9.35233 11.4696 9.31837 11.465 9.28853C11.4527 9.26099 11.4351 9.22738 11.4304 9.19623C11.4174 9.17246 11.4036 9.13552 11.3892 9.10055C11.3769 9.07183 11.3678 9.03642 11.3546 9.0083C11.3413 8.97273 11.3251 8.94235 11.3168 8.90612C11.3041 8.89382 11.3013 8.88034 11.2944 8.86975" stroke="black" stroke-width="0.0522197"/>
<path d="M11.5163 7.9655C11.4721 8.06639 11.3585 8.21374 11.3568 8.21699C11.3568 8.21703 11.2486 8.43327 11.2486 8.43327C11.201 8.55166 11.2314 8.59904 11.2522 8.63323C11.2952 8.70924 11.3028 8.75034 11.3347 8.80817C11.3467 8.88043 11.2185 8.90475 11.2168 8.90799C10.95 9.00056 10.8146 8.74454 10.8132 8.73142C10.777 8.59707 10.7817 8.57474 10.8635 8.54705C10.9572 8.52553 10.9949 8.52446 11.0413 8.49078C11.1291 8.42495 11.1912 8.22598 11.1929 8.2227C11.1946 8.21945 11.206 8.10986 11.206 8.10986C11.2129 8.05698 11.1885 8.00852 11.2154 7.92487C11.2505 7.84401 11.2716 7.82193 11.3547 7.81555C11.463 7.80574 11.5471 7.88237 11.5163 7.9655V7.9655Z" fill="#F9DD16" stroke="black" stroke-width="0.0522197"/>
<path d="M12.2854 12.0194C12.1928 11.9723 12.1221 11.9629 12.0883 11.9857C12.0347 11.6857 11.9874 11.3852 11.9185 11.0861C11.3495 10.8492 11.2293 10.7951 11.0426 10.7139C11.1297 10.6573 11.1732 10.6008 11.1703 10.5601C11.457 10.6637 11.7408 10.773 12.0343 10.8629C12.524 10.4886 12.631 10.4115 12.7946 10.2904C12.8001 10.3942 12.8273 10.4601 12.8639 10.4779C12.6309 10.6744 12.3943 10.8655 12.1697 11.0748C12.249 11.686 12.2623 11.8172 12.2854 12.0194L12.2854 12.0194Z" fill="#F9DD16" stroke="black" stroke-width="0.0678856"/>
<path d="M12.856 14.9686C12.8607 14.9529 12.8669 14.7921 12.8617 14.7922C12.8565 14.7924 12.6109 14.519 12.6161 14.5189C12.6213 14.5187 12.9234 14.5781 12.9231 14.5678C12.9229 14.5574 13.0345 14.2694 13.0343 14.2642C13.0342 14.2591 13.1885 14.6074 13.1885 14.6074L13.4871 14.7291L13.2844 14.9055C13.2844 14.9055 13.3398 15.2357 13.3399 15.2409C13.3401 15.246 13.1276 15.0495 13.1276 15.0495L12.9004 15.0815C12.9004 15.0815 12.8666 14.9787 12.856 14.9686Z" fill="#F9DD16" stroke="black" stroke-width="0.0522197"/>
<path d="M11.0696 10.6757C10.8755 10.7822 10.2099 11.6486 10.1099 11.786C10.0283 11.9837 9.86507 12.2355 9.69443 12.3993C9.51153 12.5454 9.41291 12.741 9.44342 12.923C9.44733 13.1503 9.57882 13.3016 9.68453 13.4589C9.74653 13.5303 9.8286 13.5754 9.91468 13.5789C10.0916 13.5975 10.1087 13.6514 10.1978 13.6827C10.5578 14.1467 11.0855 14.482 11.4662 14.7486C11.7075 14.8677 11.8764 14.9888 11.9349 15.0558C12.0497 15.2617 12.0349 15.4657 12.0226 15.5662C11.9394 15.9173 11.8562 16.2683 11.773 16.6194C11.7339 16.9055 11.9797 16.8349 11.9915 16.7776C12.0994 16.6296 12.2688 16.7271 12.4849 15.8818C12.5902 15.7319 12.6956 15.582 12.8009 15.4321C12.8009 15.4321 12.9256 15.3784 12.9253 15.3658C13.1109 15.1307 12.9615 15.0028 12.8516 14.9642C12.771 14.9369 12.6905 14.9096 12.6099 14.8823C12.6099 14.8823 12.3253 14.6124 12.3127 14.6127C12.1709 14.233 11.4985 13.4241 11.3453 13.3142C11.1957 13.2214 11.2547 13.1776 11.0955 13.1137C10.9773 13.052 11.0582 13.0771 10.7945 12.9882C10.7163 12.9592 10.7691 12.8728 10.8173 12.8327C11.3221 12.5404 11.6137 12.2975 12.0968 11.9694L12.0657 10.9881L11.0696 10.6757Z" fill="white" stroke="black" stroke-width="0.0678856"/>
<path d="M11.962 15.9484C11.9643 15.938 12.4719 15.8313 12.4719 15.8313C12.4719 15.8313 12.4173 16.0219 12.4147 16.022L11.9113 16.1881L11.962 15.9484Z" fill="#F9DD16"/>
<path d="M11.9436 15.9536C11.9763 15.9435 12.1214 15.8969 12.1638 15.8892C12.2089 15.8773 12.2538 15.8642 12.2972 15.849C12.3473 15.8374 12.3786 15.8271 12.4307 15.8162C12.4713 15.7994 12.5116 15.7876 12.5552 15.7762M11.8596 16.2714C11.8637 16.2656 11.8976 16.234 11.9222 16.2185C11.9513 16.2084 12.0507 16.1631 12.0886 16.1555C12.1289 16.1438 12.169 16.1308 12.2076 16.1157C12.2524 16.1042 12.2803 16.094 12.3268 16.0832C12.363 16.0666 12.399 16.0549 12.4378 16.0436" stroke="black" stroke-width="0.0590082"/>
<path d="M10.5819 14.0629C10.6734 13.7987 10.9411 13.5844 11.1231 13.5225" stroke="black" stroke-width="0.0522197"/>
<path d="M12.0097 14.0992C12.0072 14.0993 12.0048 14.0994 12.0023 14.0994C12.0253 14.0988 12.0111 14.0973 11.9813 14.1366C11.9711 14.1665 11.8788 14.2346 11.8081 14.2365C11.774 14.241 11.7216 14.2461 11.6874 14.247C11.6777 14.2472 11.664 14.2403 11.6542 14.2405" stroke="black" stroke-width="0.0522197"/>
<path d="M12.0421 15.6083C12.0445 15.6082 12.047 15.6082 12.0494 15.6081C12.0396 15.6083 12.069 15.6076 12.0787 15.6073C12.1167 15.6063 12.155 15.6121 12.1888 15.6117C12.2254 15.6108 12.2623 15.6202 12.2989 15.6192C12.336 15.6235 12.3805 15.6206 12.4189 15.625C12.4618 15.6253 12.4965 15.6329 12.5411 15.6317C12.5771 15.6321 12.5967 15.6376 12.6365 15.6366L12.5411 15.6317C12.5771 15.6321 12.5967 15.6376 12.6365 15.6366" stroke="black" stroke-width="0.0522197"/>
<path d="M11.8166 16.5084C11.8204 16.5026 11.8514 16.4711 11.8738 16.4556C11.9005 16.4457 11.9914 16.4006 12.0261 16.393C12.063 16.3814 12.0996 16.3685 12.135 16.3535C12.176 16.3421 12.2015 16.3319 12.2441 16.3213C12.2772 16.3047 12.3101 16.2931 12.3456 16.2819" stroke="black" stroke-width="0.0522197"/>
<path d="M12.4689 15.2172C12.4498 15.2779 12.477 15.2923 12.4888 15.318C12.5088 15.3426 12.5591 15.3796 12.6376 15.402C12.6679 15.4093 12.6912 15.4166 12.7263 15.429C12.7494 15.4305 12.7608 15.4359 12.778 15.4423" stroke="black" stroke-width="0.0522197"/>
<path d="M9.51293 13.0878C9.51536 13.0878 9.51783 13.0877 9.52025 13.0876C9.49728 13.0882 9.5111 13.0894 9.54879 13.0575C9.57187 13.0303 9.59142 13.0178 9.61295 12.9899" stroke="black" stroke-width="0.0522197"/>
<path d="M10.001 13.597C10.0059 13.5969 10.4215 13.3735 10.4652 13.327C10.4965 13.303 10.52 13.278 10.558 13.2508C10.5825 13.2371 10.5999 13.22 10.6228 13.2051C10.6414 13.1765 10.6662 13.1589 10.6795 13.1329C10.7048 13.1098 10.693 13.0858 10.7133 13.0582C10.7225 13.0303 10.7398 12.9833 10.7452 12.9578" stroke="black" stroke-width="0.0522197"/>
<path d="M11.2898 13.2587C11.2925 13.2738 11.2848 13.3207 11.2863 13.3562C11.286 13.3974 11.2364 13.526 11.1733 13.5657" stroke="black" stroke-width="0.0522197"/>
<path d="M10.5331 13.2739C10.5355 13.2738 10.6002 13.293 10.7082 13.3231C10.8384 13.3661 11.1112 13.5281 11.1384 13.5506C11.1661 13.5713 11.2153 13.5891 11.2346 13.614C11.2644 13.6385 11.2865 13.6669 11.31 13.6927C11.3376 13.7246 11.3611 13.7516 11.3782 13.7788C11.4614 13.8427 11.6926 14.2944 11.7003 14.32C11.7132 14.3439 11.7293 14.3771 11.739 14.3996C11.7558 14.4179 11.7675 14.4441 11.7849 14.4717C11.8012 14.5077 11.8187 14.5239 11.8383 14.551C11.863 14.5672 11.8965 14.5983 11.9279 14.6145C11.9617 14.6419 11.993 14.6526 12.0174 14.6708C12.0523 14.6846 12.4448 14.9184 12.463 14.9302C12.499 14.9576 12.6096 15.0663 12.5362 15.1495C12.5048 15.1777 12.4769 15.2148 12.4499 15.2311C12.4227 15.2598 12.3842 15.2733 12.3525 15.2886C12.18 15.3446 12.0909 15.3285 12.0567 15.3294C12.0445 15.3297 12.0323 15.3301 12.0201 15.3304" stroke="black" stroke-width="0.0522197"/>
<path d="M9.67174 12.4387C9.67417 12.4386 9.67664 12.4385 9.67906 12.4385C9.65928 12.439 9.66939 12.4383 9.70856 12.445C9.73882 12.4573 9.78237 12.469 9.81205 12.4789C9.8435 12.4881 9.88285 12.4919 9.90071 12.5059C9.9349 12.511 9.95532 12.53 9.98244 12.5478C10.0139 12.5747 10.0378 12.592 10.0721 12.6113C10.1127 12.6378 10.1446 12.6506 10.1837 12.6744C10.2228 12.6807 10.2519 12.6931 10.2941 12.6934C10.3339 12.6949 10.3694 12.6988 10.4115 12.6977C10.4457 12.6968 10.4799 12.6959 10.5141 12.6949L10.4115 12.6977C10.4457 12.6968 10.4799 12.6959 10.5141 12.6949" stroke="black" stroke-width="0.0522197"/>
<path d="M12.0149 11.5193C12.01 11.5194 12.0051 11.5195 12.0002 11.5197C12.0273 11.5189 12.0197 11.5182 11.9784 11.5276C11.9358 11.551 11.8786 11.5694 11.8408 11.5898C11.7974 11.6054 11.7509 11.6227 11.7103 11.6446C11.6645 11.6731 11.6222 11.6964 11.5806 11.7286C11.539 11.7523 11.4983 11.7812 11.458 11.8051C11.4178 11.8284 11.3847 11.8507 11.3501 11.8813C11.321 11.8984 11.2815 11.9227 11.2493 11.9499C11.2187 11.9618 11.1969 11.9844 11.1774 12.0031C11.1396 12.0385 11.1163 12.0569 11.0772 12.0937C11.0567 12.1142 11.0293 12.1383 10.9986 12.169C10.966 12.192 10.9313 12.2354 10.9057 12.2594C10.8894 12.2819 10.8654 12.3087 10.8415 12.3271C10.8234 12.3512 10.8025 12.3828 10.7775 12.4021C10.763 12.425 10.7374 12.4549 10.7137 12.4844C10.6946 12.5091 10.668 12.5342 10.6497 12.5594C10.625 12.5882 10.6063 12.6171 10.5786 12.6419C10.574 12.6589 10.5636 12.668 10.5576 12.6791" stroke="black" stroke-width="0.0522197"/>
<path d="M9.65889 12.9227C9.76854 12.9124 9.9525 12.9406 9.95616 12.9405C9.9562 12.9405 10.1978 12.9305 10.1978 12.9305C10.3244 12.9149 10.3512 12.8653 10.371 12.8306C10.4167 12.7561 10.449 12.7296 10.4842 12.6737C10.5416 12.6282 10.6249 12.7286 10.6286 12.7285C10.8387 12.9172 10.6802 13.1596 10.6694 13.1672C10.5694 13.2639 10.5476 13.2706 10.4837 13.2124C10.4195 13.1408 10.4004 13.1083 10.3484 13.084C10.2483 13.039 10.0442 13.0811 10.0405 13.0812C10.0368 13.0813 9.93538 13.1243 9.93538 13.1243C9.88579 13.1439 9.85522 13.1887 9.76895 13.2056C9.68122 13.214 9.65169 13.2062 9.60588 13.1366C9.54489 13.0466 9.57126 12.936 9.6589 12.9227L9.65889 12.9227Z" fill="#F9DD16" stroke="black" stroke-width="0.0522197"/>
<path d="M12.8341 10.2874C12.8376 10.3913 12.8636 10.4577 12.8999 10.4762C12.6633 10.6684 12.4233 10.8551 12.1949 11.0602C12.263 11.6727 12.2739 11.8042 12.2932 12.0068C12.2015 11.958 12.131 11.9472 12.0968 11.9695C12.0487 11.6685 12.007 11.3672 11.9435 11.0669C11.379 10.8196 11.2598 10.7633 11.0746 10.6787C11.1628 10.6237 11.2073 10.568 11.2051 10.5273C11.4899 10.6361 11.7716 10.7506 12.0634 10.8458C12.5599 10.4806 12.6682 10.4055 12.8341 10.2874L12.8341 10.2874Z" fill="#F9DD16" stroke="black" stroke-width="0.0678856"/>
<path d="M14.9247 8.08645C14.909 8.09114 14.7713 8.17454 14.7743 8.17879C14.7773 8.18305 14.6842 8.53858 14.6813 8.53432C14.6783 8.53007 14.5616 8.24511 14.5531 8.25105C14.5446 8.25697 14.2427 8.32233 14.2385 8.3253C14.2342 8.32825 14.4401 8.00768 14.4401 8.00768L14.3773 7.6914L14.6361 7.76352C14.6361 7.76352 14.8813 7.5355 14.8856 7.53253C14.8898 7.52958 14.8427 7.81516 14.8427 7.81516L14.9944 7.98727C14.9944 7.98727 14.9272 8.07205 14.9247 8.08645Z" fill="#F9DD16" stroke="black" stroke-width="0.0522197"/>
<path d="M12.3241 11.9411C12.5198 12.0445 13.6095 12.1232 13.7793 12.1311C13.9893 12.0904 14.2894 12.088 14.52 12.1403C14.7427 12.2126 14.9603 12.1872 15.0954 12.0616C15.283 11.9332 15.337 11.7401 15.4101 11.5653C15.4356 11.4742 15.4281 11.3809 15.3836 11.3071C15.3017 11.1492 15.3373 11.1053 15.3144 11.0137C15.5036 10.4576 15.493 9.83253 15.506 9.36796C15.4726 9.10089 15.4808 8.89328 15.5045 8.80756C15.6131 8.59836 15.7916 8.49834 15.8823 8.45336C16.2212 8.32955 16.5601 8.20577 16.899 8.08196C17.1594 7.95713 16.9651 7.79074 16.9108 7.81243C16.7278 7.80382 16.7159 7.60875 15.8913 7.89365C15.7082 7.88823 15.5251 7.88279 15.3419 7.87738C15.3419 7.87738 15.2284 7.80284 15.2181 7.81004C14.9196 7.78457 14.8951 7.97966 14.9234 8.09261C14.945 8.17491 14.9665 8.25723 14.9881 8.33952C14.9881 8.33952 14.9194 8.72566 14.9266 8.73599C14.6876 9.06347 14.3825 10.07 14.375 10.2585C14.38 10.4344 14.3109 10.4093 14.3451 10.5774C14.3587 10.71 14.3352 10.6287 14.4062 10.8978C14.425 10.979 14.3238 10.9825 14.2637 10.9643C13.7418 10.7038 13.3785 10.5941 12.8387 10.3713L12.0366 10.9375L12.3241 11.9411Z" fill="white" stroke="black" stroke-width="0.0678856"/>
<path d="M16.2348 8.29356C16.2249 8.29735 15.8563 7.93229 15.8563 7.93229C15.8563 7.93229 16.0455 7.87291 16.047 7.87504L16.4629 8.20391L16.2348 8.29356Z" fill="#F9DD16"/>
<path d="M16.2492 8.30591C16.2227 8.28421 16.104 8.1887 16.0742 8.15757C16.0394 8.12639 16.0038 8.09611 15.9672 8.06833C15.9299 8.03288 15.9041 8.01241 15.8663 7.97491C15.8299 7.95023 15.7979 7.92311 15.7644 7.893M16.5608 8.20111C16.5536 8.20089 16.5086 8.18996 16.4821 8.17797C16.4576 8.15917 16.3651 8.10114 16.3379 8.07374C16.3059 8.04654 16.273 8.02024 16.2392 7.9963C16.2049 7.96524 16.181 7.94757 16.1464 7.91463C16.1126 7.89355 16.0831 7.86999 16.0523 7.84376" stroke="black" stroke-width="0.0590082"/>
<path d="M15.4203 10.4835C15.1494 10.5525 14.8232 10.447 14.6712 10.3292" stroke="black" stroke-width="0.0522197"/>
<path d="M14.6648 9.27158C14.6662 9.27361 14.6676 9.2756 14.669 9.27759C14.6559 9.25878 14.6623 9.27142 14.7116 9.27466C14.7422 9.26671 14.8498 9.30628 14.8903 9.36435C14.9129 9.39027 14.946 9.43124 14.9655 9.4593C14.9711 9.46729 14.9728 9.48251 14.9784 9.49053" stroke="black" stroke-width="0.0522197"/>
<path d="M15.9067 8.41387C15.9053 8.41188 15.9039 8.40989 15.9025 8.40787C15.9081 8.4159 15.8913 8.39185 15.8857 8.38386C15.864 8.3527 15.8477 8.31756 15.8288 8.28953C15.8079 8.25949 15.7954 8.2235 15.7744 8.19345C15.7576 8.16013 15.7307 8.12457 15.7132 8.09008C15.6899 8.05408 15.6771 8.021 15.6516 7.98439C15.6321 7.95409 15.6259 7.93474 15.6031 7.90204L15.6516 7.98439C15.6321 7.95409 15.6259 7.93474 15.6031 7.90204" stroke="black" stroke-width="0.0522197"/>
<path d="M16.7822 8.10667C16.7753 8.10673 16.7319 8.09821 16.7066 8.08797C16.6836 8.07119 16.5959 8.0201 16.5705 7.99532C16.5405 7.97094 16.5096 7.94744 16.4776 7.92618C16.4455 7.89823 16.423 7.88251 16.3906 7.85283C16.3586 7.83426 16.3308 7.81321 16.3019 7.78969" stroke="black" stroke-width="0.0522197"/>
<path d="M15.3453 8.27284C15.4065 8.2554 15.4035 8.22473 15.4184 8.20077C15.428 8.17053 15.4312 8.10814 15.4066 8.03027C15.3961 8.001 15.3893 7.97752 15.3804 7.94139C15.3689 7.92129 15.3672 7.90872 15.363 7.89096" stroke="black" stroke-width="0.0522197"/>
<path d="M15.1946 11.9128C15.1933 11.9108 15.1918 11.9088 15.1905 11.9068C15.2036 11.9256 15.1969 11.9135 15.1496 11.8995C15.1142 11.8952 15.093 11.8858 15.0579 11.8832" stroke="black" stroke-width="0.0522197"/>
<path d="M15.3512 11.2251C15.3484 11.2211 14.9331 10.9971 14.8702 10.9862C14.833 10.9733 14.7992 10.9675 14.7555 10.9507C14.7306 10.9377 14.7067 10.9327 14.6817 10.9218C14.6476 10.922 14.6192 10.9109 14.5902 10.9142C14.557 10.9058 14.5434 10.9288 14.5093 10.927C14.4809 10.9347 14.4321 10.9462 14.4079 10.9557" stroke="black" stroke-width="0.0522197"/>
<path d="M14.3592 10.3353C14.3703 10.3247 14.4137 10.3054 14.4425 10.2845C14.4771 10.2622 14.6117 10.2328 14.6796 10.2635" stroke="black" stroke-width="0.0522197"/>
<path d="M14.7885 10.9587C14.7871 10.9567 14.7675 10.8922 14.7332 10.7854C14.6974 10.6531 14.6825 10.3362 14.6863 10.3011C14.6883 10.2665 14.6761 10.2157 14.6863 10.1859C14.6903 10.1475 14.7019 10.1134 14.7105 10.0796C14.7219 10.039 14.7315 10.0045 14.7448 9.97527C14.7524 9.87062 15.0022 9.42899 15.0193 9.40844C15.0321 9.38452 15.051 9.35277 15.0645 9.33227C15.0705 9.30822 15.0859 9.28404 15.0994 9.25428C15.1205 9.22088 15.1243 9.19731 15.1361 9.16607C15.1361 9.13654 15.1436 9.09142 15.1399 9.05625C15.1441 9.013 15.1358 8.98102 15.1376 8.95059C15.1299 8.91386 15.1091 8.45751 15.1088 8.43583C15.1119 8.39068 15.1418 8.23847 15.2516 8.25402C15.2925 8.26462 15.3389 8.26752 15.3673 8.2811C15.4062 8.28799 15.4387 8.31269 15.4689 8.33072C15.6106 8.44396 15.6462 8.52716 15.6658 8.55522C15.6728 8.56524 15.6798 8.57525 15.6868 8.58527" stroke="black" stroke-width="0.0522197"/>
<path d="M14.5653 12.1376C14.5639 12.1356 14.5625 12.1335 14.5611 12.1316C14.5724 12.1478 14.5663 12.1397 14.5503 12.1033C14.544 12.0713 14.5297 12.0285 14.5217 11.9982C14.512 11.9669 14.4935 11.932 14.4954 11.9094C14.4808 11.878 14.4854 11.8506 14.4853 11.8181C14.4905 11.777 14.4918 11.7476 14.4891 11.7083C14.4888 11.6598 14.4819 11.6261 14.4803 11.5804C14.464 11.5443 14.4583 11.5132 14.4354 11.4777C14.4147 11.4437 14.3984 11.4119 14.3743 11.3774C14.3547 11.3494 14.3352 11.3213 14.3156 11.2933L14.3743 11.3774C14.3547 11.3494 14.3352 11.3213 14.3156 11.2933" stroke="black" stroke-width="0.0522197"/>
<path d="M12.508 10.6875C12.5108 10.6915 12.5136 10.6955 12.5164 10.6995C12.5009 10.6773 12.5044 10.6841 12.535 10.7133C12.5781 10.736 12.6249 10.7736 12.6627 10.794C12.6996 10.8216 12.7397 10.851 12.7803 10.8728C12.8293 10.8953 12.872 10.9178 12.9218 10.9348C12.9645 10.9565 13.011 10.9745 13.0532 10.995C13.0947 11.0158 13.1315 11.0312 13.1761 11.0432C13.2065 11.058 13.2485 11.0777 13.2889 11.0896C13.3157 11.1086 13.3466 11.1143 13.3729 11.1203C13.4233 11.1324 13.4515 11.1417 13.5037 11.1541C13.5321 11.16 13.5673 11.1695 13.6099 11.1783C13.647 11.1928 13.7023 11.1979 13.7365 11.2061C13.7642 11.2073 13.7998 11.2126 13.8283 11.2224C13.8584 11.2242 13.8964 11.2243 13.9262 11.2345C13.9532 11.234 13.9924 11.239 14.03 11.2425C14.0612 11.2449 14.0968 11.2532 14.1278 11.2546C14.1655 11.2594 14.1999 11.2591 14.2358 11.2686C14.2526 11.263 14.2659 11.2668 14.2784 11.2656" stroke="black" stroke-width="0.0522197"/>
<path d="M14.9765 11.8818C14.9076 11.7959 14.8299 11.6269 14.8278 11.6239C14.8278 11.6238 14.6864 11.4277 14.6864 11.4277C14.6036 11.3305 14.5476 11.3354 14.5076 11.338C14.4203 11.3409 14.3804 11.3285 14.3144 11.3299C14.2448 11.307 14.2827 11.1822 14.2807 11.1792C14.3225 10.8998 14.6121 10.8988 14.6244 10.9036C14.7602 10.9339 14.7778 10.9484 14.7643 11.0337C14.7399 11.1268 14.7234 11.1606 14.7317 11.2173C14.7492 11.3257 14.8967 11.473 14.8988 11.476C14.9009 11.479 14.9926 11.54 14.9926 11.54C15.0363 11.5706 15.0906 11.5715 15.1521 11.6342C15.2075 11.7028 15.2172 11.7318 15.1843 11.8083C15.1428 11.9088 15.0359 11.9477 14.9765 11.8818L14.9765 11.8818Z" fill="#F9DD16" stroke="black" stroke-width="0.0522197"/>
<path d="M11.0287 10.6817C11.1134 10.6215 11.1545 10.5633 11.15 10.5228C11.4407 10.6145 11.7287 10.7121 12.0256 10.7899C12.4996 10.3959 12.6033 10.3144 12.7618 10.1867C12.7715 10.2902 12.8014 10.355 12.8388 10.3713C12.614 10.5772 12.3854 10.7778 12.1696 10.9961C12.2739 11.6035 12.2926 11.734 12.3239 11.9352C12.2294 11.8919 12.1584 11.8854 12.1256 11.9096C12.0597 11.612 12.0002 11.3137 11.9191 11.0177C11.3409 10.8043 11.2185 10.7552 11.0287 10.6817L11.0287 10.6817Z" fill="#F9DD16" stroke="black" stroke-width="0.0678856"/>
</g>
</svg>
