<svg width="24" height="24" viewBox="0 0 24 24" fill="none" xmlns="http://www.w3.org/2000/svg">
<mask id="mask0_3349_51058" style="mask-type:alpha" maskUnits="userSpaceOnUse" x="0" y="3" width="24" height="18">
<path d="M21.7143 3H2.28571C1.02335 3 0 4.02335 0 5.28571V17.8571C0 19.1195 1.02335 20.1429 2.28571 20.1429H21.7143C22.9767 20.1429 24 19.1195 24 17.8571V5.28571C24 4.02335 22.9767 3 21.7143 3Z" fill="white"/>
</mask>
<g mask="url(#mask0_3349_51058)">
<path d="M21.7143 3H2.28571C1.02335 3 0 4.02335 0 5.28571V17.8571C0 19.1195 1.02335 20.1429 2.28571 20.1429H21.7143C22.9767 20.1429 24 19.1195 24 17.8571V5.28571C24 4.02335 22.9767 3 21.7143 3Z" fill="white"/>
<path fill-rule="evenodd" clip-rule="evenodd" d="M12 14.4286C13.5771 14.4286 14.8571 13.1486 14.8571 11.5714C14.8571 9.99428 13.5771 8.71428 12 8.71428C10.4229 8.71428 9.14286 9.99428 9.14286 11.5714C9.14286 13.1486 10.4229 14.4286 12 14.4286ZM12 13.2857C12.9463 13.2857 13.7143 12.5177 13.7143 11.5714C13.7143 10.6251 12.9463 9.85714 12 9.85714C11.0537 9.85714 10.2857 10.6251 10.2857 11.5714C10.2857 12.5177 11.0537 13.2857 12 13.2857Z" fill="#00008A"/>
<path d="M12 12.1429C12.3156 12.1429 12.5714 11.887 12.5714 11.5714C12.5714 11.2558 12.3156 11 12 11C11.6844 11 11.4286 11.2558 11.4286 11.5714C11.4286 11.887 11.6844 12.1429 12 12.1429Z" fill="#00008A"/>
<path fill-rule="evenodd" clip-rule="evenodd" d="M0 14.4286H24V20.1429H0V14.4286Z" fill="#018900"/>
<path fill-rule="evenodd" clip-rule="evenodd" d="M0 3H24V8.71429H0V3Z" fill="#FF991E"/>
<path d="M21.7143 3.57143H2.28571C1.33894 3.57143 0.571428 4.33894 0.571428 5.28572V17.8571C0.571428 18.8039 1.33894 19.5714 2.28571 19.5714H21.7143C22.6611 19.5714 23.4286 18.8039 23.4286 17.8571V5.28572C23.4286 4.33894 22.6611 3.57143 21.7143 3.57143Z" stroke="black" stroke-opacity="0.1"/>
</g>
</svg>
