<svg width="24" height="24" viewBox="0 0 24 24" fill="none" xmlns="http://www.w3.org/2000/svg">
<mask id="mask0_3349_51067" style="mask-type:alpha" maskUnits="userSpaceOnUse" x="0" y="3" width="24" height="18">
<path d="M21.7143 3H2.28571C1.02335 3 0 4.02335 0 5.28571V17.8571C0 19.1195 1.02335 20.1429 2.28571 20.1429H21.7143C22.9767 20.1429 24 19.1195 24 17.8571V5.28571C24 4.02335 22.9767 3 21.7143 3Z" fill="white"/>
</mask>
<g mask="url(#mask0_3349_51067)">
<path d="M21.7143 3H2.28571C1.02335 3 0 4.02335 0 5.28571V17.8571C0 19.1195 1.02335 20.1429 2.28571 20.1429H21.7143C22.9767 20.1429 24 19.1195 24 17.8571V5.28571C24 4.02335 22.9767 3 21.7143 3Z" fill="white"/>
<path fill-rule="evenodd" clip-rule="evenodd" d="M0 14.4286H24V20.1429H0V14.4286Z" fill="black"/>
<path fill-rule="evenodd" clip-rule="evenodd" d="M11.4286 12.1429H12.5714V12.7086C12.5714 13.04 12.8274 13.2857 13.1429 13.2857C13.4491 13.2857 13.7143 13.0274 13.7143 12.7086V10.4229C13.7143 10.1109 13.9794 9.85714 14.2857 9.85714C14.6011 9.85714 14.8571 10.104 14.8571 10.4229V12.1429H16.56C16.8823 12.1429 17.1429 12.408 17.1429 12.7143C17.1429 13.0297 16.8891 13.2857 16.56 13.2857H7.44C7.11772 13.2857 6.85714 13.0206 6.85714 12.7143C6.85714 12.472 7.00572 12.2651 7.22286 12.1817C7.25143 12.1086 7.29486 12.0389 7.35543 11.9794L8.97829 10.3566C9.2 10.1349 9.56686 10.1429 9.784 10.3589C10.008 10.5817 10.0149 10.936 9.78857 11.1623L8.808 12.1429H10.2857V11.5771C10.2857 11.2571 10.5509 11 10.8571 11C11.1726 11 11.4286 11.2446 11.4286 11.5771V12.1429Z" fill="#007B3A"/>
<path fill-rule="evenodd" clip-rule="evenodd" d="M0 3H24V8.71429H0V3Z" fill="#D0091E"/>
<path d="M21.7143 3.57143H2.28571C1.33894 3.57143 0.571428 4.33894 0.571428 5.28572V17.8571C0.571428 18.8039 1.33894 19.5714 2.28571 19.5714H21.7143C22.6611 19.5714 23.4286 18.8039 23.4286 17.8571V5.28572C23.4286 4.33894 22.6611 3.57143 21.7143 3.57143Z" stroke="black" stroke-opacity="0.1"/>
</g>
</svg>
