<svg width="24" height="24" viewBox="0 0 24 24" fill="none" xmlns="http://www.w3.org/2000/svg">
<mask id="mask0_3558_3073" style="mask-type:alpha" maskUnits="userSpaceOnUse" x="0" y="3" width="24" height="18">
<path d="M21.7143 3H2.28571C1.02335 3 0 4.02335 0 5.28571V17.8571C0 19.1195 1.02335 20.1429 2.28571 20.1429H21.7143C22.9767 20.1429 24 19.1195 24 17.8571V5.28571C24 4.02335 22.9767 3 21.7143 3Z" fill="white"/>
</mask>
<g mask="url(#mask0_3558_3073)">
<path d="M21.7143 3H2.28571C1.02335 3 0 4.02335 0 5.28571V17.8571C0 19.1195 1.02335 20.1429 2.28571 20.1429H21.7143C22.9767 20.1429 24 19.1195 24 17.8571V5.28571C24 4.02335 22.9767 3 21.7143 3Z" fill="white"/>
<path d="M0 3.5L24 19.5" stroke="#CF142B" stroke-width="2"/>
<path d="M24 3.5L0 19.5" stroke="#CF142B" stroke-width="2"/>
<path d="M21.7143 3.57141H2.2857C1.33892 3.57141 0.571411 4.33892 0.571411 5.2857V17.8571C0.571411 18.8039 1.33892 19.5714 2.2857 19.5714H21.7143C22.661 19.5714 23.4286 18.8039 23.4286 17.8571V5.2857C23.4286 4.33892 22.661 3.57141 21.7143 3.57141Z" stroke="black" stroke-opacity="0.1"/>
<path fill-rule="evenodd" clip-rule="evenodd" d="M10.5 5.5H13V8H10.5V5.5ZM10.5 8L11.75 9L13 8H10.5ZM10.6667 5H12.8333V5.5H10.6667V5Z" fill="#FFD700"/>
<path fill-rule="evenodd" clip-rule="evenodd" d="M11 6.00012H12.5V7.00012H11V6.00012Z" fill="#CF142B"/>
<path fill-rule="evenodd" clip-rule="evenodd" d="M11 7H12.5V7.75H11V7ZM11 7.75L11.75 8.25L12.5 7.75H11Z" fill="#CF142B"/>
<path fill-rule="evenodd" clip-rule="evenodd" d="M12.25 7.00012C12.25 7.13812 12.143 7.25012 11.9975 7.25012L11.5025 7.25012C11.3625 7.25012 11.25 7.13412 11.25 7.00012C11.25 6.86212 11.357 6.75012 11.5025 6.75012L11.9975 6.75012C12.1375 6.75012 12.25 6.86612 12.25 7.00012Z" fill="#FFD300"/>
</g>
</svg>
