<svg width="24" height="24" viewBox="0 0 24 24" fill="none" xmlns="http://www.w3.org/2000/svg">
<mask id="mask0_3349_51196" style="mask-type:alpha" maskUnits="userSpaceOnUse" x="0" y="3" width="24" height="18">
<path d="M21.7143 3H2.28571C1.02335 3 0 4.02335 0 5.28571V17.8571C0 19.1195 1.02335 20.1429 2.28571 20.1429H21.7143C22.9767 20.1429 24 19.1195 24 17.8571V5.28571C24 4.02335 22.9767 3 21.7143 3Z" fill="white"/>
</mask>
<g mask="url(#mask0_3349_51196)">
<path d="M21.7143 3H2.28571C1.02335 3 0 4.02335 0 5.28571V17.8571C0 19.1195 1.02335 20.1429 2.28571 20.1429H21.7143C22.9767 20.1429 24 19.1195 24 17.8571V5.28571C24 4.02335 22.9767 3 21.7143 3Z" fill="#00AFCC"/>
<path fill-rule="evenodd" clip-rule="evenodd" d="M2.28572 5.85143C2.28572 5.53943 2.55086 5.28571 2.85715 5.28571C3.17258 5.28571 3.42858 5.53257 3.42858 5.85143V8.14857C3.42858 8.46057 3.16344 8.71429 2.85715 8.71429C2.54172 8.71429 2.28572 8.46743 2.28572 8.14857V5.85143ZM3.42858 8.13714C3.42858 7.82514 3.69372 7.57143 4.00001 7.57143C4.31544 7.57143 4.57144 7.81829 4.57144 8.13714V10.4343C4.57144 10.7463 4.30629 11 4.00001 11C3.68458 11 3.42858 10.7531 3.42858 10.4343V8.13714ZM3.42858 12.7086C3.42858 12.3966 3.69372 12.1429 4.00001 12.1429C4.31544 12.1429 4.57144 12.3897 4.57144 12.7086V15.0057C4.57144 15.3177 4.30629 15.5714 4.00001 15.5714C3.68458 15.5714 3.42858 15.3246 3.42858 15.0057V12.7086ZM2.28572 14.9943C2.28572 14.6823 2.55086 14.4286 2.85715 14.4286C3.17258 14.4286 3.42858 14.6754 3.42858 14.9943V17.2914C3.42858 17.6034 3.16344 17.8571 2.85715 17.8571C2.54172 17.8571 2.28572 17.6103 2.28572 17.2914V14.9943ZM2.28572 10.4286C2.28572 10.1131 2.55086 9.85714 2.85715 9.85714C3.17258 9.85714 3.42858 10.1223 3.42858 10.4286C3.42858 10.744 3.16344 11 2.85715 11C2.54172 11 2.28572 10.7349 2.28572 10.4286ZM3.42858 5.85714C3.42858 5.54171 3.69372 5.28571 4.00001 5.28571C4.31544 5.28571 4.57144 5.55086 4.57144 5.85714C4.57144 6.17257 4.30629 6.42857 4.00001 6.42857C3.68458 6.42857 3.42858 6.16343 3.42858 5.85714ZM2.28572 11.5714C2.28572 11.256 2.55086 11 2.85715 11C3.17258 11 3.42858 11.2651 3.42858 11.5714C3.42858 11.8869 3.16344 12.1429 2.85715 12.1429C2.54172 12.1429 2.28572 11.8777 2.28572 11.5714ZM3.42858 17.2857C3.42858 16.9703 3.69372 16.7143 4.00001 16.7143C4.31544 16.7143 4.57144 16.9794 4.57144 17.2857C4.57144 17.6011 4.30629 17.8571 4.00001 17.8571C3.68458 17.8571 3.42858 17.592 3.42858 17.2857ZM2.28572 12.7143C2.28572 12.3989 2.55086 12.1429 2.85715 12.1429C3.17258 12.1429 3.42858 12.408 3.42858 12.7143C3.42858 13.0297 3.16344 13.2857 2.85715 13.2857C2.54172 13.2857 2.28572 13.0206 2.28572 12.7143Z" fill="#DAC21D"/>
<path d="M13.1428 13.2857C14.7208 13.2857 16 12.0065 16 10.4286C16 8.85061 14.7208 7.57143 13.1428 7.57143C11.5649 7.57143 10.2857 8.85061 10.2857 10.4286C10.2857 12.0065 11.5649 13.2857 13.1428 13.2857Z" fill="#FFC600"/>
<path fill-rule="evenodd" clip-rule="evenodd" d="M9.14285 11L10.2857 13.2857L13.1429 14.4286L16 13.2857L17.1429 11V14.4286L13.1429 15.5714L9.14285 14.4286V11Z" fill="#FFC600"/>
<path d="M21.7143 3.57143H2.28571C1.33894 3.57143 0.571426 4.33894 0.571426 5.28571V17.8571C0.571426 18.8039 1.33894 19.5714 2.28571 19.5714H21.7143C22.6611 19.5714 23.4286 18.8039 23.4286 17.8571V5.28571C23.4286 4.33894 22.6611 3.57143 21.7143 3.57143Z" stroke="black" stroke-opacity="0.1"/>
</g>
</svg>
