<svg width="24" height="24" viewBox="0 0 24 24" fill="none" xmlns="http://www.w3.org/2000/svg">
<mask id="mask0_3349_51120" style="mask-type:alpha" maskUnits="userSpaceOnUse" x="0" y="3" width="24" height="18">
<path d="M21.7143 3H2.28571C1.02335 3 0 4.02335 0 5.28571V17.8571C0 19.1195 1.02335 20.1429 2.28571 20.1429H21.7143C22.9767 20.1429 24 19.1195 24 17.8571V5.28571C24 4.02335 22.9767 3 21.7143 3Z" fill="white"/>
</mask>
<g mask="url(#mask0_3349_51120)">
<path d="M21.7143 3H2.28571C1.02335 3 0 4.02335 0 5.28571V17.8571C0 19.1195 1.02335 20.1429 2.28571 20.1429H21.7143C22.9767 20.1429 24 19.1195 24 17.8571V5.28571C24 4.02335 22.9767 3 21.7143 3Z" fill="black"/>
<path fill-rule="evenodd" clip-rule="evenodd" d="M0 14.4286H24V15.5714H0V14.4286Z" fill="white"/>
<path fill-rule="evenodd" clip-rule="evenodd" d="M0 15.5714H24V20.1429H0V15.5714Z" fill="#006700"/>
<path fill-rule="evenodd" clip-rule="evenodd" d="M0 8.71428H24V14.4286H0V8.71428Z" fill="#BD0000"/>
<path fill-rule="evenodd" clip-rule="evenodd" d="M0 7.57143H24V8.71429H0V7.57143Z" fill="white"/>
<path fill-rule="evenodd" clip-rule="evenodd" d="M14.1874 9.75886C14.2697 9.75886 14.7589 8.99314 14.7589 8.04457C14.7589 7.09829 14.2697 6.33029 14.1874 6.33029C14.1074 6.33029 13.616 7.09829 13.616 8.04457C13.616 8.99314 14.1074 9.75886 14.1874 9.75886ZM10.8286 9.25714C10.7714 9.31429 9.88 9.12 9.21257 8.44914C8.544 7.77943 8.34743 6.89029 8.40571 6.83314C8.46286 6.776 9.352 6.97029 10.0217 7.64114C10.6914 8.31086 10.8869 9.2 10.8297 9.25829L10.8286 9.25714ZM12.976 14.4377C13.0331 14.384 13.9246 14.5669 14.5931 15.192C15.2617 15.8206 15.4583 16.6514 15.4011 16.7051C15.344 16.7589 14.4526 16.576 13.7829 15.9509C13.1143 15.3223 12.9177 14.4914 12.976 14.4377ZM10.8286 14.4377C10.7714 14.384 9.88 14.5669 9.21257 15.192C8.544 15.8206 8.34743 16.6514 8.40571 16.7051C8.46286 16.7589 9.352 16.576 10.0217 15.9509C10.6914 15.3223 10.8869 14.4914 10.8297 14.4377H10.8286Z" fill="white"/>
<path fill-rule="evenodd" clip-rule="evenodd" d="M12 16.7143C12.408 16.7143 14.8571 14.4114 14.8571 11.5714C14.8571 8.73143 12.408 6.42857 12 6.42857C11.592 6.42857 9.14286 8.73143 9.14286 11.5714C9.14286 14.4114 11.592 16.7143 12 16.7143Z" fill="#BD0000"/>
<path fill-rule="evenodd" clip-rule="evenodd" d="M9.71429 13.2857C9.79429 13.2857 10.2857 12.5177 10.2857 11.5714C10.2857 10.6251 9.79429 9.85714 9.71429 9.85714C9.63429 9.85714 9.14286 10.6251 9.14286 11.5714C9.14286 12.5177 9.63429 13.2857 9.71429 13.2857ZM14.2857 13.2857C14.3657 13.2857 14.8571 12.5177 14.8571 11.5714C14.8571 10.6251 14.3657 9.85714 14.2857 9.85714C14.2057 9.85714 13.7143 10.6251 13.7143 11.5714C13.7143 12.5177 14.2057 13.2857 14.2857 13.2857Z" fill="black"/>
<path d="M12.5714 11.5714C12.5714 10.6247 12.3156 9.85714 12 9.85714C11.6844 9.85714 11.4286 10.6247 11.4286 11.5714C11.4286 12.5182 11.6844 13.2857 12 13.2857C12.3156 13.2857 12.5714 12.5182 12.5714 11.5714Z" fill="white"/>
<path d="M21.7143 3.57143H2.28571C1.33894 3.57143 0.571426 4.33894 0.571426 5.28571V17.8571C0.571426 18.8039 1.33894 19.5714 2.28571 19.5714H21.7143C22.6611 19.5714 23.4286 18.8039 23.4286 17.8571V5.28571C23.4286 4.33894 22.6611 3.57143 21.7143 3.57143Z" stroke="black" stroke-opacity="0.1"/>
</g>
</svg>
