<svg width="24" height="24" viewBox="0 0 24 24" fill="none" xmlns="http://www.w3.org/2000/svg">
<mask id="mask0_3349_51133" style="mask-type:alpha" maskUnits="userSpaceOnUse" x="0" y="3" width="24" height="18">
<path d="M21.7143 3H2.28571C1.02335 3 0 4.02335 0 5.28571V17.8571C0 19.1195 1.02335 20.1429 2.28571 20.1429H21.7143C22.9767 20.1429 24 19.1195 24 17.8571V5.28571C24 4.02335 22.9767 3 21.7143 3Z" fill="white"/>
</mask>
<g mask="url(#mask0_3349_51133)">
<path d="M21.7143 3H2.28571C1.02335 3 0 4.02335 0 5.28571V17.8571C0 19.1195 1.02335 20.1429 2.28571 20.1429H21.7143C22.9767 20.1429 24 19.1195 24 17.8571V5.28571C24 4.02335 22.9767 3 21.7143 3Z" fill="#EB0624"/>
<path fill-rule="evenodd" clip-rule="evenodd" d="M11.664 13.84C11.7749 13.8514 11.8869 13.8571 12 13.8571C12.1143 13.8571 12.2251 13.8514 12.336 13.84L12 13L11.664 13.84ZM10.1143 13.2171C9.51657 12.744 9.14286 12.0537 9.14286 11.2857C9.14286 10.3794 9.664 9.58286 10.4503 9.12571L11.4286 11.5714L10.1143 13.2171ZM13.5497 9.12571C14.336 9.58286 14.8571 10.3794 14.8571 11.2857C14.8571 12.0549 14.4823 12.7451 13.8857 13.2171L12.5714 11.5714L13.5497 9.12571ZM13.4354 9.06171C13.0126 8.84 12.5234 8.71428 12 8.71428C11.4766 8.71428 10.9863 8.84 10.5646 9.06171L12 10.856L13.4354 9.06171Z" fill="#FFF100"/>
<path fill-rule="evenodd" clip-rule="evenodd" d="M12 16.7143C14.84 16.7143 17.1429 14.4114 17.1429 11.5714C17.1429 8.73143 14.84 6.42857 12 6.42857C9.16 6.42857 6.85714 8.73143 6.85714 11.5714C6.85714 14.4114 9.16 16.7143 12 16.7143ZM12 15.5714C14.2091 15.5714 16 13.7806 16 11.5714C16 9.36229 14.2091 7.57143 12 7.57143C9.79086 7.57143 8 9.36229 8 11.5714C8 13.7806 9.79086 15.5714 12 15.5714Z" fill="#FFF100"/>
<path d="M21.7143 3.57143H2.28572C1.33894 3.57143 0.57143 4.33894 0.57143 5.28571V17.8571C0.57143 18.8039 1.33894 19.5714 2.28572 19.5714H21.7143C22.6611 19.5714 23.4286 18.8039 23.4286 17.8571V5.28571C23.4286 4.33894 22.6611 3.57143 21.7143 3.57143Z" stroke="black" stroke-opacity="0.1"/>
</g>
</svg>
