<svg width="24" height="24" viewBox="0 0 24 24" fill="none" xmlns="http://www.w3.org/2000/svg">
<mask id="mask0_3349_51140" style="mask-type:alpha" maskUnits="userSpaceOnUse" x="0" y="3" width="24" height="18">
<path d="M21.7143 3H2.28571C1.02335 3 0 4.02335 0 5.28571V17.8571C0 19.1195 1.02335 20.1429 2.28571 20.1429H21.7143C22.9767 20.1429 24 19.1195 24 17.8571V5.28571C24 4.02335 22.9767 3 21.7143 3Z" fill="white"/>
</mask>
<g mask="url(#mask0_3349_51140)">
<path d="M21.7143 3H2.28571C1.02335 3 0 4.02335 0 5.28571V17.8571C0 19.1195 1.02335 20.1429 2.28571 20.1429H21.7143C22.9767 20.1429 24 19.1195 24 17.8571V5.28571C24 4.02335 22.9767 3 21.7143 3Z" fill="#E3001A"/>
<path fill-rule="evenodd" clip-rule="evenodd" d="M9.14286 8.71428H9.71429L10.2857 9.85714H9.14286V8.71428ZM10.2857 9.85714H11.4286V11H10.2857V9.85714ZM9.14286 11H10.2857V12.1429H9.14286V11ZM8 12.1429H9.14286V13.2857H8V12.1429ZM8 13.2857H9.14286V14.4286H8V13.2857ZM7.42857 13.2857H8V14.4286H6.85714L7.42857 13.2857ZM10.2857 12.1429H12.5714V14.4286H10.2857V12.1429ZM14.8571 8.71428H14.2857L13.7143 9.85714H14.8571V8.71428ZM13.7143 9.85714H12.5714V11H13.7143V9.85714ZM14.8571 11H13.7143V12.1429H14.8571V11ZM16 12.1429H14.8571V13.2857H16V12.1429ZM16 13.2857H14.8571V14.4286H16V13.2857ZM16.5714 13.2857H16V14.4286H17.1429L16.5714 13.2857ZM13.7143 12.1429H12.5714V14.4286H13.7143V12.1429Z" fill="white"/>
<path fill-rule="evenodd" clip-rule="evenodd" d="M10.2857 11H11.4286V12.1429H10.2857V11ZM9.14286 12.1429H10.2857V14.4286H9.14286V12.1429ZM9.14286 9.85714H10.2857V11H9.14286V9.85714ZM8.57143 11H9.14286V12.1429H8L8.57143 11ZM13.7143 11H12.5714V12.1429H13.7143V11ZM14.8571 12.1429H13.7143V14.4286H14.8571V12.1429ZM14.8571 9.85714H13.7143V11H14.8571V9.85714ZM15.4286 11H14.8571V12.1429H16L15.4286 11ZM12.5714 9.85714H11.4286V12.1429H12.5714V9.85714Z" fill="#F5DDE0"/>
<path fill-rule="evenodd" clip-rule="evenodd" d="M11.4286 8.71428H12.5714V9.85714H11.4286V8.71428Z" fill="#B4B4B4"/>
<path fill-rule="evenodd" clip-rule="evenodd" d="M0 3H24V7.57143H0V3ZM0 15.5714H24V20.1429H0V15.5714Z" fill="#0028A4"/>
<path d="M21.7143 3.57143H2.28571C1.33894 3.57143 0.571428 4.33894 0.571428 5.28571V17.8571C0.571428 18.8039 1.33894 19.5714 2.28571 19.5714H21.7143C22.6611 19.5714 23.4286 18.8039 23.4286 17.8571V5.28571C23.4286 4.33894 22.6611 3.57143 21.7143 3.57143Z" stroke="black" stroke-opacity="0.1"/>
</g>
</svg>
