<svg width="24" height="24" viewBox="0 0 24 24" fill="none" xmlns="http://www.w3.org/2000/svg">
<mask id="mask0_3349_51149" style="mask-type:alpha" maskUnits="userSpaceOnUse" x="0" y="3" width="24" height="18">
<path d="M21.7143 3H2.28571C1.02335 3 0 4.02335 0 5.28571V17.8571C0 19.1195 1.02335 20.1429 2.28571 20.1429H21.7143C22.9767 20.1429 24 19.1195 24 17.8571V5.28571C24 4.02335 22.9767 3 21.7143 3Z" fill="white"/>
</mask>
<g mask="url(#mask0_3349_51149)">
<path d="M21.7143 3H2.28571C1.02335 3 0 4.02335 0 5.28571V17.8571C0 19.1195 1.02335 20.1429 2.28571 20.1429H21.7143C22.9767 20.1429 24 19.1195 24 17.8571V5.28571C24 4.02335 22.9767 3 21.7143 3Z" fill="#D0091E"/>
<path d="M12 15.5714C14.2091 15.5714 16 13.7806 16 11.5714C16 9.36229 14.2091 7.57143 12 7.57143C9.79086 7.57143 8 9.36229 8 11.5714C8 13.7806 9.79086 15.5714 12 15.5714Z" fill="#FDD200"/>
<path fill-rule="evenodd" clip-rule="evenodd" d="M0 12.1429H24V20.1429H0V12.1429Z" fill="#003D89"/>
<path fill-rule="evenodd" clip-rule="evenodd" d="M0 12.1429H24V13.2857H0V12.1429ZM0 14.4286H24V15.5714H0V14.4286ZM0 16.7143H24V17.8571H0V16.7143Z" fill="white"/>
</g>
<mask id="mask1_3349_51149" style="mask-type:alpha" maskUnits="userSpaceOnUse" x="0" y="3" width="24" height="17">
<path d="M21.7143 3.57143H2.28571C1.33894 3.57143 0.571428 4.33894 0.571428 5.28571V17.8571C0.571428 18.8039 1.33894 19.5714 2.28571 19.5714H21.7143C22.6611 19.5714 23.4286 18.8039 23.4286 17.8571V5.28571C23.4286 4.33894 22.6611 3.57143 21.7143 3.57143Z" fill="white"/>
</mask>
<g mask="url(#mask1_3349_51149)">
<path d="M21.7143 3.57143H2.28571C1.33894 3.57143 0.571428 4.33894 0.571428 5.28571V17.8571C0.571428 18.8039 1.33894 19.5714 2.28571 19.5714H21.7143C22.6611 19.5714 23.4286 18.8039 23.4286 17.8571V5.28571C23.4286 4.33894 22.6611 3.57143 21.7143 3.57143Z" stroke="black" stroke-opacity="0.1"/>
<path fill-rule="evenodd" clip-rule="evenodd" d="M9.14286 5.28571L12 6.42857L14.8571 5.28571H9.14286Z" fill="#FDD200"/>
</g>
</svg>
