<svg width="24" height="24" viewBox="0 0 24 24" fill="none" xmlns="http://www.w3.org/2000/svg">
<mask id="mask0_3551_2976" style="mask-type:alpha" maskUnits="userSpaceOnUse" x="0" y="3" width="24" height="18">
<path d="M21.7143 3H2.28571C1.02335 3 0 4.02335 0 5.28571V17.8571C0 19.1195 1.02335 20.1429 2.28571 20.1429H21.7143C22.9767 20.1429 24 19.1195 24 17.8571V5.28571C24 4.02335 22.9767 3 21.7143 3Z" fill="white"/>
</mask>
<g mask="url(#mask0_3551_2976)">
<path d="M21.7143 3H2.28571C1.02335 3 0 4.02335 0 5.28571V17.8571C0 19.1195 1.02335 20.1429 2.28571 20.1429H21.7143C22.9767 20.1429 24 19.1195 24 17.8571V5.28571C24 4.02335 22.9767 3 21.7143 3Z" fill="#D4112A"/>
<path d="M21.7143 3H2.28571C1.02335 3 0 4.02335 0 5.28571V17.8571C0 19.1195 1.02335 20.1429 2.28571 20.1429L12 11L19 5C19 3.73763 22.9767 3 21.7143 3Z" fill="#009739"/>
<path fill-rule="evenodd" clip-rule="evenodd" d="M16 3L-1.90735e-06 20.1429H8L24 3H16Z" fill="#FFCD00"/>
<path fill-rule="evenodd" clip-rule="evenodd" d="M17.1428 3L1.14283 20.1429H6.85712L22.8571 3H16H17.1428Z" fill="black"/>
<path d="M21.7143 3.57141H2.2857C1.33892 3.57141 0.571411 4.33892 0.571411 5.2857V17.8571C0.571411 18.8039 1.33892 19.5714 2.2857 19.5714H21.7143C22.661 19.5714 23.4286 18.8039 23.4286 17.8571V5.2857C23.4286 4.33892 22.661 3.57141 21.7143 3.57141Z" stroke="black" stroke-opacity="0.1"/>
<path fill-rule="evenodd" clip-rule="evenodd" d="M15.6382 8.97834L15.3261 10.0838L14.6382 9.16329L13.4916 9.20903L14.1543 8.27087L13.757 7.19306L14.8536 7.53299L15.7558 6.82223L15.7716 7.97106L16.7258 8.60893" fill="white"/>
<path fill-rule="evenodd" clip-rule="evenodd" d="M9.01353 15.9591L8.70149 17.0645L8.01361 16.144L6.867 16.1897L7.52962 15.2516L7.13233 14.1738L8.22895 14.5137L9.13118 13.8029L9.14692 14.9518L10.1011 15.5896" fill="white"/>
</g>
</svg>
