<svg width="24" height="24" viewBox="0 0 24 24" fill="none" xmlns="http://www.w3.org/2000/svg">
<mask id="mask0_3349_51180" style="mask-type:alpha" maskUnits="userSpaceOnUse" x="0" y="3" width="24" height="18">
<path d="M21.7143 3H2.28571C1.02335 3 0 4.02335 0 5.28571V17.8571C0 19.1195 1.02335 20.1429 2.28571 20.1429H21.7143C22.9767 20.1429 24 19.1195 24 17.8571V5.28571C24 4.02335 22.9767 3 21.7143 3Z" fill="white"/>
</mask>
<g mask="url(#mask0_3349_51180)">
<path d="M21.7143 3H2.28571C1.02335 3 0 4.02335 0 5.28571V17.8571C0 19.1195 1.02335 20.1429 2.28571 20.1429H21.7143C22.9767 20.1429 24 19.1195 24 17.8571V5.28571C24 4.02335 22.9767 3 21.7143 3Z" fill="white"/>
<path fill-rule="evenodd" clip-rule="evenodd" d="M16 11.5714C16 13.7806 14.2091 15.5714 12 15.5714C9.79086 15.5714 8 13.7806 8 11.5714C8 10.2914 10.6857 9.75429 12.9463 9.95657C13.1863 9.89257 13.4446 9.85714 13.7143 9.85714C14.9771 9.85714 16 10.6251 16 11.5714Z" fill="#0048AB"/>
<path fill-rule="evenodd" clip-rule="evenodd" d="M11.4286 11C11.4286 11 12.4514 9.85714 13.7143 9.85714C14.9771 9.85714 16 10.6251 16 11.5714C16 9.36229 14.2091 7.57143 12 7.57143C10.4034 7.57143 9.02514 8.50629 8.384 9.85943C8 11 8 11.3337 8 11.5714C8.57143 12.1429 9.20686 12.1429 9.71429 12.1429C10.2217 12.1429 10.6777 11.9223 10.992 11.5714L11.4286 11Z" fill="#CD0027"/>
<path fill-rule="evenodd" clip-rule="evenodd" d="M17.1429 8.71429H19.4286L17.1429 6.42857H16L17.1429 8.71429ZM6.85714 8.71429H4.57143L6.85714 6.42857H8L6.85714 8.71429ZM17.1429 14.4286H19.4286L17.1429 16.7143H16L17.1429 14.4286ZM6.85714 14.4286H4.57143L6.85714 16.7143H8L6.85714 14.4286Z" fill="#252526"/>
<path d="M21.7143 3.57143H2.28571C1.33894 3.57143 0.571426 4.33894 0.571426 5.28571V17.8571C0.571426 18.8039 1.33894 19.5714 2.28571 19.5714H21.7143C22.6611 19.5714 23.4286 18.8039 23.4286 17.8571V5.28571C23.4286 4.33894 22.6611 3.57143 21.7143 3.57143Z" stroke="black" stroke-opacity="0.1"/>
</g>
</svg>
