<svg width="24" height="24" viewBox="0 0 24 24" fill="none" xmlns="http://www.w3.org/2000/svg">
<mask id="mask0_3349_51226" style="mask-type:alpha" maskUnits="userSpaceOnUse" x="0" y="3" width="24" height="18">
<path d="M21.7143 3H2.28571C1.02335 3 0 4.02335 0 5.28571V17.8571C0 19.1195 1.02335 20.1429 2.28571 20.1429H21.7143C22.9767 20.1429 24 19.1195 24 17.8571V5.28571C24 4.02335 22.9767 3 21.7143 3Z" fill="white"/>
</mask>
<g mask="url(#mask0_3349_51226)">
<path d="M21.7143 3H2.28571C1.02335 3 0 4.02335 0 5.28571V17.8571C0 19.1195 1.02335 20.1429 2.28571 20.1429H21.7143C22.9767 20.1429 24 19.1195 24 17.8571V5.28571C24 4.02335 22.9767 3 21.7143 3Z" fill="#D0091E"/>
<path fill-rule="evenodd" clip-rule="evenodd" d="M0 3H24V11H0V3Z" fill="#002781"/>
<path fill-rule="evenodd" clip-rule="evenodd" d="M4.57143 8.71429H9.14286V9.85714H4.57143V8.71429Z" fill="#947F1E"/>
<path fill-rule="evenodd" clip-rule="evenodd" d="M5.72571 6.59086C5.37371 6.49943 4.97143 6.42857 4.57143 6.42857C3.42857 6.42857 3.42857 7 3.42857 7.57143C3.42857 8.14286 4.57143 8.71428 4.57143 8.71428H9.14286C9.14286 8.71428 10.2857 8.14286 10.2857 7.57143C10.2857 7 10.2857 6.42857 9.14286 6.42857C8.74286 6.42857 8.34057 6.49943 7.98857 6.59086C7.99657 6.53714 8 6.48343 8 6.42857C8 5.79771 7.488 5.28571 6.85714 5.28571C6.22629 5.28571 5.71429 5.79771 5.71429 6.42857C5.71429 6.48343 5.71772 6.53714 5.72571 6.59086Z" fill="#FFD923"/>
<path d="M21.7143 3.57143H2.28571C1.33894 3.57143 0.571428 4.33894 0.571428 5.28572V17.8571C0.571428 18.8039 1.33894 19.5714 2.28571 19.5714H21.7143C22.6611 19.5714 23.4286 18.8039 23.4286 17.8571V5.28572C23.4286 4.33894 22.6611 3.57143 21.7143 3.57143Z" stroke="black" stroke-opacity="0.1"/>
</g>
</svg>
