<svg width="24" height="24" viewBox="0 0 24 24" fill="none" xmlns="http://www.w3.org/2000/svg">
<mask id="mask0_3349_51234" style="mask-type:alpha" maskUnits="userSpaceOnUse" x="0" y="3" width="24" height="18">
<path d="M21.7143 3H2.28571C1.02335 3 0 4.02335 0 5.28571V17.8571C0 19.1195 1.02335 20.1429 2.28571 20.1429H21.7143C22.9767 20.1429 24 19.1195 24 17.8571V5.28571C24 4.02335 22.9767 3 21.7143 3Z" fill="white"/>
</mask>
<g mask="url(#mask0_3349_51234)">
<path d="M21.7143 3H2.28571C1.02335 3 0 4.02335 0 5.28571V17.8571C0 19.1195 1.02335 20.1429 2.28571 20.1429H21.7143C22.9767 20.1429 24 19.1195 24 17.8571V5.28571C24 4.02335 22.9767 3 21.7143 3Z" fill="#FFBF00"/>
<path fill-rule="evenodd" clip-rule="evenodd" d="M2.28572 5.28571H5.71429V17.8571H2.28572V5.28571Z" fill="#00614A"/>
<path fill-rule="evenodd" clip-rule="evenodd" d="M5.71429 5.28571H9.14286V17.8571H5.71429V5.28571Z" fill="#FF6600"/>
<path fill-rule="evenodd" clip-rule="evenodd" d="M10.2857 5.28571H21.7143V17.8571H10.2857V5.28571Z" fill="#98232E"/>
<path fill-rule="evenodd" clip-rule="evenodd" d="M14.3257 15.1326L14.392 15.0823L14.4194 15.1326C14.4571 15.2011 14.5611 15.1989 14.6297 15.1326L14.6834 15.0789L14.7291 15.1303C14.7863 15.1989 14.8937 15.1989 14.9623 15.1303C15.0126 15.0823 15.0194 15.0811 15.0514 15.1189C15.0697 15.1394 15.1257 15.1646 15.1749 15.1726C15.264 15.1886 15.2663 15.1874 15.3177 15.0834C15.3634 14.9966 15.3691 14.9623 15.3589 14.8777C15.352 14.8206 15.344 14.7314 15.3417 14.6777C15.3394 14.5794 15.3394 14.5783 15.4469 14.5291C15.504 14.5017 15.5726 14.4651 15.5989 14.4469C15.6411 14.4171 15.7589 14.2331 15.7589 14.1954C15.7589 14.1863 15.7131 14.1726 15.656 14.1634C15.4331 14.1291 15.3954 13.9691 15.5417 13.672C15.7783 13.1897 15.9211 12.7177 15.9223 12.4171C15.9223 12.2834 15.928 12.2377 15.9417 12.2686C15.9943 12.3863 15.8994 12.8857 15.7554 13.2457L15.6983 13.3909L15.7531 13.3737C15.7829 13.3623 15.9623 13.2629 16.1497 13.1497C16.664 12.8411 16.8411 12.7794 17.1749 12.7977C17.4537 12.8137 17.5726 12.8857 17.7691 13.1611C17.8743 13.3063 17.9749 13.4103 18.1577 13.5634C18.5509 13.8903 18.5669 13.9177 18.5851 14.3017C18.6046 14.6903 18.5966 14.7131 18.3737 14.7771C18.1851 14.832 18.0651 14.9486 18.0343 15.112C18.0183 15.2 18.0537 15.2034 18.1486 15.1211L18.2171 15.0617L18.2491 15.1211C18.2903 15.2011 18.3771 15.2011 18.4491 15.1211L18.5029 15.064L18.5577 15.1211C18.6446 15.2126 18.76 15.192 18.792 15.0754C18.7977 15.0549 18.8149 15.0617 18.8491 15.1006C18.912 15.1737 19.0731 15.2057 19.0914 15.1463C19.0983 15.1257 19.0846 15.072 19.0629 15.0274C18.9691 14.84 18.9394 14.7497 18.9371 14.648C18.9371 14.5063 18.968 14.4377 19.0903 14.3211C19.2389 14.1806 19.2846 14.0011 19.1726 14.0011C19.104 14.0011 19.0331 13.9177 18.9897 13.784C18.8983 13.5154 18.9154 13.2126 19.0514 12.7097C19.1886 12.1954 19.2046 12.104 19.2057 11.7611C19.2057 11.4834 19.2023 11.4354 19.1543 11.2834C19.1257 11.192 19.0663 11.0526 19.024 10.9771L18.9474 10.84L19.0469 10.728C19.352 10.392 19.2903 9.84114 18.9211 9.63086C18.8103 9.56457 18.7817 9.55886 18.5851 9.56229C18.4663 9.56229 18.288 9.58286 18.1851 9.608C18.08 9.63086 17.904 9.65143 17.7829 9.65143C17.5909 9.65143 17.5589 9.64686 17.4857 9.59429C17.408 9.53943 17.3943 9.51429 17.3794 9.38857C17.3771 9.36114 17.3634 9.336 17.3497 9.33143C17.3234 9.32 17.2011 9.45714 17.1851 9.52114C17.176 9.55086 17.168 9.54857 17.1429 9.50971C17.1257 9.48114 17.1017 9.41829 17.0891 9.37029C17.0583 9.24686 17.096 9.15314 17.2034 9.08457L17.2891 9.032L17.2411 8.99086C17.1383 8.90629 16.9634 8.96343 16.9006 9.10514C16.8823 9.14286 16.8629 9.176 16.8571 9.176C16.8514 9.176 16.8171 9.13829 16.7817 9.09257C16.6491 8.92114 16.6949 8.66514 16.8731 8.58629C16.9669 8.54514 17.0503 8.57714 17.0674 8.66057C17.0937 8.78857 17.1771 8.62057 17.1623 8.46857C17.1509 8.368 17.1509 8.36343 17.2046 8.36343C17.2777 8.36343 17.4331 8.49143 17.4823 8.592C17.5394 8.70629 17.5337 8.88914 17.4709 9.024L17.4251 9.13029L17.4869 9.11429C17.5783 9.08914 17.6697 9.01143 17.7154 8.92C17.7634 8.82171 17.7691 8.63086 17.7269 8.52686C17.6846 8.42743 17.6891 8.41257 17.7497 8.44686C17.8549 8.504 17.9097 8.56571 17.952 8.67543C17.9909 8.77257 17.9931 8.79657 17.9726 8.89829C17.9611 8.96114 17.9326 9.04343 17.9109 9.08114C17.8766 9.14171 17.8766 9.152 17.9029 9.152C17.952 9.152 18.0571 9.08914 18.0937 9.03771C18.112 9.01029 18.1394 8.94629 18.1543 8.89143L18.1806 8.79543L18.2114 8.86857C18.2549 8.97143 18.3371 9.06629 18.44 9.12457C18.5509 9.18857 18.5966 9.19314 18.5394 9.13371C18.5006 9.09371 18.4286 8.81371 18.4503 8.78743C18.4617 8.77143 18.6126 8.92457 18.7817 9.128C18.944 9.32229 19.0446 9.384 19.1931 9.384C19.384 9.384 19.4937 9.16457 19.4103 8.95771C19.3589 8.83657 19.248 8.82057 19.184 8.92343C19.1543 8.97143 19.1463 9.00914 19.1543 9.05829C19.1657 9.12 19.1611 9.12686 19.12 9.12686C19.0629 9.12686 18.9554 9.03543 18.7634 8.82057C18.4697 8.49486 18.112 8.21829 17.8549 8.11771C17.6891 8.05143 17.336 8.02629 17.1691 8.06743C16.9863 8.11086 16.7691 8.25029 16.6526 8.39886C16.4446 8.66171 16.4423 9.01029 16.6446 9.32914L16.7017 9.42057L16.6629 9.50057C16.6057 9.61943 16.6103 9.77829 16.6743 9.89486C16.7029 9.94629 16.7314 9.98857 16.7383 9.98857C16.7451 9.98857 16.752 9.95429 16.7543 9.91429C16.76 9.81143 16.7931 9.74286 16.8503 9.71657C16.9006 9.69143 16.9337 9.70286 17.168 9.82629C17.4137 9.95771 17.8171 9.96571 18.2469 9.84914C18.4583 9.79429 18.7063 9.79771 18.816 9.85829C19.016 9.97029 19.0629 10.2606 18.9154 10.4811C18.8514 10.5749 18.7897 10.6137 18.584 10.6891C18.4263 10.7463 18.3897 10.7509 18.032 10.7463C17.7269 10.7417 17.6171 10.7497 17.4926 10.784C17.3577 10.8217 17.2754 10.8251 16.8777 10.8126L16.4183 10.7966L16.4697 10.8537C16.4971 10.8834 16.5383 10.9223 16.5577 10.9371C16.592 10.9623 16.592 10.9657 16.5394 10.9909C16.5086 11.0069 16.4423 11.0183 16.3909 11.0183H16.296L16.2846 11.1257C16.2777 11.1851 16.2777 11.2514 16.2846 11.2777C16.296 11.3154 16.2926 11.32 16.2617 11.3063C16.2434 11.2949 16.1886 11.2777 16.1406 11.264C16.0926 11.2503 16.0286 11.224 15.9977 11.2034C15.9451 11.1691 15.9406 11.1691 15.92 11.2149C15.904 11.256 15.744 11.4137 15.72 11.4137C15.7166 11.4137 15.712 11.3829 15.7086 11.3451C15.7086 11.3086 15.6857 11.2114 15.6583 11.1303C15.6331 11.0503 15.6057 10.9611 15.5989 10.9337C15.5874 10.8926 15.584 10.8903 15.5703 10.9223C15.5623 10.9417 15.5497 10.9966 15.5429 11.0446C15.5371 11.0903 15.5131 11.1703 15.4903 11.216L15.4491 11.3006L15.4229 11.2274C15.3954 11.1497 15.3486 11.0674 15.3314 11.0674C15.3257 11.0674 15.3154 11.0937 15.3086 11.1246C15.2971 11.1874 15.1863 11.3646 15.16 11.3646C15.1486 11.3646 15.1406 11.3143 15.1406 11.2537C15.1406 11.192 15.1326 11.1429 15.1211 11.1429C15.112 11.1429 15.1029 11.1577 15.1029 11.1771C15.1029 11.2229 15.008 11.3634 14.9771 11.3634C14.9623 11.3634 14.9406 11.3794 14.9269 11.4C14.8926 11.4526 14.864 11.4457 14.8777 11.3886C14.8857 11.36 14.8811 11.2971 14.8686 11.2457L14.8377 11.1257C14.8331 11.1074 14.8 11.112 14.728 11.1429C14.6114 11.192 14.5726 11.184 14.632 11.12C14.6549 11.0971 14.6891 11.0194 14.7063 10.9463C14.7246 10.8731 14.752 10.8091 14.768 10.8011C14.7886 10.7943 14.7874 10.8046 14.7623 10.8491C14.7451 10.8811 14.7303 10.9246 14.7303 10.9451C14.7303 10.9657 14.7154 11.0137 14.6994 11.0537C14.6834 11.0949 14.6731 11.1303 14.6766 11.1337C14.6811 11.1394 14.7246 11.1177 14.7749 11.0857L14.8663 11.0286V11.08C14.8663 11.1086 14.8777 11.1829 14.8891 11.2469L14.9143 11.3611L14.976 11.3234C15.0389 11.2846 15.0994 11.1463 15.0994 11.04C15.0994 10.9851 15.1223 10.9943 15.1314 11.0514L15.1634 11.1886L15.1909 11.296L15.2331 11.2274C15.256 11.1897 15.2869 11.1166 15.2994 11.064C15.3223 10.9749 15.3543 10.936 15.3543 11.0011C15.3543 11.0491 15.4526 11.2183 15.4709 11.2046C15.48 11.1977 15.4983 11.1337 15.5109 11.0629C15.5383 10.9143 15.5817 10.8137 15.6103 10.8343C15.6217 10.8434 15.624 10.8571 15.6183 10.8686C15.6137 10.88 15.6354 10.9771 15.6686 11.0834C15.7029 11.1897 15.7371 11.2971 15.7429 11.3211C15.7543 11.3611 15.7657 11.3554 15.8366 11.272C15.8823 11.2206 15.9211 11.1634 15.9257 11.144C15.9326 11.1166 15.9429 11.1177 15.9829 11.1509C16.04 11.1989 16.2343 11.2766 16.2491 11.256C16.2549 11.2491 16.2606 11.1817 16.2606 11.1074L16.264 10.9703L16.3211 10.9851C16.352 10.9943 16.416 10.9931 16.464 10.9851L16.5509 10.968L16.4743 10.8971C16.432 10.8583 16.3886 10.808 16.3783 10.7851C16.3669 10.7623 16.328 10.7394 16.2869 10.736C16.1691 10.7223 15.9623 10.568 15.9623 10.496C15.9623 10.4811 15.9909 10.504 16.0263 10.5474C16.104 10.6411 16.2114 10.7006 16.3051 10.7006H16.376L16.3326 10.6251C16.3074 10.5794 16.2846 10.4971 16.2789 10.4274C16.2709 10.3189 16.2617 10.3017 16.176 10.2217C16.1246 10.1737 16.0594 10.1017 16.0331 10.0617L15.9851 9.98971L15.96 10.0754C15.9463 10.1234 15.9291 10.1611 15.9234 10.1611C15.9166 10.1611 15.8891 10.1337 15.8663 10.1006C15.84 10.0663 15.8137 10.0389 15.8091 10.0389C15.8011 10.0389 15.7794 10.0846 15.7577 10.1417L15.72 10.2411L15.6903 10.184C15.6731 10.1497 15.6354 10.0949 15.6046 10.0583C15.5737 10.0194 15.5566 9.98971 15.568 9.98971C15.5794 9.98971 15.6183 10.0286 15.6537 10.0754L15.7189 10.1623L15.7451 10.0983C15.76 10.0617 15.7657 10.0034 15.7589 9.95657C15.7474 9.888 15.7497 9.88571 15.7703 9.928C15.7817 9.95543 15.8194 10.008 15.8537 10.0423L15.9154 10.1109L15.9577 10.008C16 9.90514 16.0011 9.90514 16.0194 9.96457C16.0457 10.0469 16.2309 10.2503 16.3886 10.3669C16.4114 10.3851 16.4023 10.3211 16.3577 10.1783C16.3463 10.1406 16.3349 10.072 16.3349 10.0263C16.3349 9.95771 16.3211 9.92686 16.2549 9.86057C16.1611 9.76457 16.1314 9.69714 16.1131 9.54286C16.1063 9.48 16.0903 9.41029 16.0766 9.38857C16.0571 9.35429 16.0537 9.37371 16.0594 9.48914C16.0617 9.56914 16.0537 9.66514 16.0411 9.70629L16.0183 9.77943L16 9.71771C15.9886 9.68343 15.9463 9.62629 15.9029 9.58629C15.8571 9.54857 15.8286 9.51086 15.8343 9.50286C15.84 9.496 15.8857 9.53029 15.9337 9.58057C16.008 9.65714 16.0251 9.66514 16.0343 9.632C16.0457 9.592 16.0343 9.41943 16.0114 9.30057C16 9.23886 16 9.23886 16.0571 9.312C16.0983 9.36914 16.12 9.43314 16.1371 9.54743C16.16 9.69257 16.1714 9.71886 16.272 9.83314C16.3326 9.90514 16.3863 9.95886 16.3886 9.95429C16.3931 9.94971 16.4 9.76686 16.4057 9.54857C16.4171 9.13143 16.4057 9.032 16.3291 8.90286L16.2903 8.83657L16.3509 8.74857C16.4309 8.63429 16.4674 8.54286 16.4834 8.41714L16.4971 8.31429L16.4286 8.40229C16.3714 8.47314 16.3451 8.48914 16.28 8.48914C16.2149 8.48914 16.1886 8.47543 16.1463 8.41257C16.0937 8.33829 16 8.26743 15.9109 8.232C15.8766 8.22057 15.8651 8.22514 15.8651 8.25486C15.8651 8.27771 15.848 8.33943 15.8251 8.39429L15.7851 8.49486L15.7006 8.38286C15.648 8.31429 15.5863 8.26171 15.5406 8.24571C15.4229 8.20457 15.4171 8.208 15.4171 8.32571C15.4171 8.50057 15.36 8.53371 15.2571 8.41714C15.1806 8.32571 15.1154 8.30743 14.968 8.32914L14.8537 8.34629L14.8766 8.41486C14.8926 8.472 14.888 8.49486 14.8514 8.56C14.792 8.66514 14.7143 8.71086 14.5954 8.71086C14.5406 8.71086 14.472 8.72571 14.4423 8.74514C14.4137 8.76229 14.3417 8.784 14.2823 8.79086C14.2229 8.79886 14.16 8.81371 14.1417 8.82171C14.1143 8.83543 14.1109 8.824 14.1189 8.73943C14.1337 8.60914 14.0663 8.51429 13.9589 8.51429C13.8217 8.51429 13.7589 8.67771 13.8126 8.89371C13.824 8.93486 13.8354 9.00114 13.8423 9.03886C13.8503 9.07886 13.9109 9.18514 13.9886 9.28686C14.0617 9.38514 14.1303 9.48686 14.1417 9.51314C14.1531 9.53943 14.1909 9.58171 14.2251 9.60686L14.288 9.65257L14.28 9.56457C14.2709 9.46629 14.2869 9.45029 14.3257 9.51886C14.3406 9.54514 14.376 9.58514 14.4057 9.61029C14.4514 9.64686 14.4594 9.648 14.4594 9.61486C14.4594 9.592 14.4686 9.54629 14.48 9.50743L14.5029 9.43886L14.5371 9.53257C14.5577 9.584 14.624 9.70171 14.6834 9.79543C14.8 9.97257 14.8709 10.1726 14.8343 10.2183C14.8194 10.2377 14.7794 10.2354 14.6971 10.2137C14.632 10.1977 14.552 10.1886 14.5189 10.1943C14.4503 10.2057 14.4469 10.1943 14.488 10.1257C14.5314 10.0537 14.5246 10.0423 14.4389 10.0423C14.3394 10.0423 14.0937 9.97829 13.9989 9.928C13.9074 9.88229 13.8846 9.89371 13.8583 10.008L13.8091 10.2194L13.7829 10.3337L13.8823 10.3223C13.9371 10.3143 14.008 10.2994 14.0389 10.2857C14.0709 10.2743 14.0994 10.2674 14.1029 10.2709C14.1063 10.2754 14.0914 10.3211 14.072 10.3714L14.0331 10.4629L14.096 10.4469C14.1303 10.4377 14.1817 10.4149 14.2103 10.3966C14.2606 10.3646 14.264 10.3669 14.304 10.4503C14.352 10.5531 14.3909 10.5497 14.3989 10.4389C14.408 10.3269 14.4366 10.344 14.4903 10.4937C14.5394 10.6377 14.5931 10.688 14.6023 10.6034C14.6057 10.576 14.632 10.5291 14.6629 10.5006C14.7234 10.4434 14.7691 10.4617 14.7943 10.5509C14.8229 10.6423 14.7623 10.7383 14.5886 10.88C14.2343 11.1634 14.0309 11.552 13.9714 12.0457C13.9189 12.4914 14.0834 12.9531 14.4137 13.2846C14.5714 13.4446 14.8229 13.6103 14.8069 13.5474C14.7406 13.2754 14.7429 12.7589 14.8114 12.6709C14.8229 12.6571 14.8183 12.7109 14.8034 12.7897C14.7486 13.0846 14.7726 13.3189 14.9143 13.8686C15.04 14.3669 15.024 14.5794 14.8434 14.7189C14.7863 14.7646 14.7474 14.7714 14.592 14.7691C14.4229 14.7669 14.4046 14.7714 14.3497 14.8286C14.2971 14.8857 14.2297 15.0686 14.2297 15.1531C14.2297 15.1989 14.2674 15.1931 14.344 15.1349L14.3257 15.1326ZM13.0457 14.2183C13.064 14.1874 13.0777 14.1383 13.0777 14.1097C13.0777 14.0663 13.0926 14.0549 13.1657 14.0411L13.2537 14.0251L13.1966 13.9623C13.1257 13.8891 13.1189 13.832 13.1806 13.832C13.2411 13.832 13.3451 13.7474 13.3611 13.6834C13.3691 13.656 13.3646 13.6171 13.352 13.5966C13.3177 13.5451 13.2526 13.5531 13.2411 13.6103C13.2274 13.672 13.2069 13.6731 13.1577 13.6103C13.0846 13.5189 13.0823 13.3269 13.1543 13.2149C13.1863 13.1623 13.1863 13.1577 13.1429 13.1051C13.0971 13.0457 13.0629 12.9303 13.0857 12.9029C13.0926 12.8949 13.1291 12.9029 13.1657 12.9189C13.2206 12.9417 13.2423 12.944 13.264 12.9189C13.3326 12.8503 13.2583 12.7589 13.1497 12.7794C13.1074 12.7874 13.0903 12.7794 13.0834 12.7497C13.0789 12.7269 13.0411 12.696 12.9977 12.6811C12.9223 12.656 12.9211 12.6583 12.9211 12.7269C12.9211 12.8034 12.8869 12.8183 12.8263 12.7691C12.7749 12.7291 12.7257 12.76 12.7257 12.832C12.7257 12.8983 12.7771 12.9314 12.8674 12.9234C12.936 12.9177 12.9394 12.9874 12.8731 13.0857L12.8251 13.1577L12.8629 13.2297C12.92 13.336 12.9143 13.5131 12.8514 13.6011L12.8057 13.6697L12.7737 13.6149C12.7303 13.5383 12.6709 13.544 12.6537 13.6263C12.6423 13.68 12.6537 13.704 12.7029 13.7611C12.7371 13.7989 12.7863 13.8297 12.8126 13.8297C12.8789 13.8297 12.8766 13.8983 12.808 13.9691L12.7543 14.024L12.8389 14.0411C12.8846 14.0503 12.9211 14.0686 12.9211 14.0811C12.9211 14.1269 12.9783 14.2731 12.9977 14.2731C13.0091 14.2731 13.032 14.2503 13.0469 14.2194L13.0457 14.2183ZM13.3349 11.7383C13.5246 11.6274 13.5406 11.3451 13.3623 11.2697C13.288 11.24 13.2411 11.2583 13.2137 11.3234C13.1909 11.3749 13.2057 11.4674 13.2366 11.4674C13.2457 11.4674 13.2537 11.4834 13.2537 11.504C13.2537 11.6023 12.9646 11.6469 12.8469 11.5669C12.8057 11.5383 12.7897 11.4663 12.824 11.4663C12.8469 11.4663 12.8663 11.3909 12.8537 11.3383C12.8354 11.2674 12.7806 11.2423 12.7029 11.2697C12.5257 11.3314 12.5314 11.608 12.7109 11.7269C12.8594 11.8217 13.184 11.8274 13.3371 11.7383H13.3349ZM13.2171 11.5211C13.2286 11.5097 13.224 11.4869 13.2057 11.4674C13.1657 11.4251 13.168 11.3623 13.2114 11.2903C13.2457 11.2366 13.2491 11.1566 13.2606 10.3463C13.28 8.94743 13.3577 7.89714 13.4606 7.64571C13.5017 7.54514 13.4949 7.54286 13.3897 7.64C13.2526 7.76343 13.1497 7.92571 13.0583 8.15429C12.8846 8.58857 12.824 9.17371 12.824 10.4217C12.824 11.1303 12.8286 11.2217 12.8583 11.2903C12.888 11.352 12.8891 11.376 12.8697 11.4434C12.856 11.4869 12.8503 11.5291 12.856 11.5349C12.8949 11.5851 13.176 11.5726 13.2183 11.52L13.2171 11.5211Z" fill="#FFB700"/>
<path fill-rule="evenodd" clip-rule="evenodd" d="M11.4286 6.42857H12.5714V7.57143H11.4286V6.42857ZM19.4286 6.42857H20.5714V7.57143H19.4286V6.42857ZM11.4286 15.5714H12.5714V16.7143H11.4286V15.5714ZM19.4286 15.5714H20.5714V16.7143H19.4286V15.5714Z" fill="#DA8210"/>
<path d="M21.7143 3.57143H2.28571C1.33894 3.57143 0.571428 4.33894 0.571428 5.28572V17.8571C0.571428 18.8039 1.33894 19.5714 2.28571 19.5714H21.7143C22.6611 19.5714 23.4286 18.8039 23.4286 17.8571V5.28572C23.4286 4.33894 22.6611 3.57143 21.7143 3.57143Z" stroke="black" stroke-opacity="0.1"/>
</g>
</svg>
