<svg width="24" height="24" viewBox="0 0 24 24" fill="none" xmlns="http://www.w3.org/2000/svg">
<mask id="mask0_3349_51252" style="mask-type:alpha" maskUnits="userSpaceOnUse" x="0" y="3" width="24" height="18">
<path d="M21.7143 3H2.28571C1.02335 3 0 4.02335 0 5.28571V17.8571C0 19.1195 1.02335 20.1429 2.28571 20.1429H21.7143C22.9767 20.1429 24 19.1195 24 17.8571V5.28571C24 4.02335 22.9767 3 21.7143 3Z" fill="white"/>
</mask>
<g mask="url(#mask0_3349_51252)">
<path d="M21.7143 3H2.28571C1.02335 3 0 4.02335 0 5.28571V17.8571C0 19.1195 1.02335 20.1429 2.28571 20.1429H21.7143C22.9767 20.1429 24 19.1195 24 17.8571V5.28571C24 4.02335 22.9767 3 21.7143 3Z" fill="white"/>
<path fill-rule="evenodd" clip-rule="evenodd" d="M11.5429 9.62857L10.2857 12.1429H13.7143L12.4571 9.62857C12.5291 9.53257 12.5714 9.41486 12.5714 9.28572C12.5714 8.97029 12.3154 8.71429 12 8.71429C11.6846 8.71429 11.4286 8.97029 11.4286 9.28572C11.4286 9.41486 11.4709 9.53257 11.5429 9.62857ZM14.8571 13.2857C14.8571 13.9166 13.5771 14.4286 12 14.4286C10.4229 14.4286 9.14286 13.9166 9.14286 13.2857V12.1429H14.8571V13.2857Z" fill="black"/>
<path fill-rule="evenodd" clip-rule="evenodd" d="M0 15.5714H24V20.1429H0V15.5714Z" fill="#00963F"/>
<path fill-rule="evenodd" clip-rule="evenodd" d="M0 3H24V7.57143H0V3Z" fill="#0017A2"/>
<path d="M21.7143 3.57143H2.28571C1.33894 3.57143 0.571426 4.33894 0.571426 5.28572V17.8571C0.571426 18.8039 1.33894 19.5714 2.28571 19.5714H21.7143C22.6611 19.5714 23.4286 18.8039 23.4286 17.8571V5.28572C23.4286 4.33894 22.6611 3.57143 21.7143 3.57143Z" stroke="black" stroke-opacity="0.1"/>
</g>
</svg>
