<svg width="24" height="24" viewBox="0 0 24 24" fill="none" xmlns="http://www.w3.org/2000/svg">
<mask id="mask0_3565_3909" style="mask-type:alpha" maskUnits="userSpaceOnUse" x="0" y="3" width="24" height="18">
<path d="M21.7143 3H2.28571C1.02335 3 0 4.02335 0 5.28571V17.8571C0 19.1195 1.02335 20.1429 2.28571 20.1429H21.7143C22.9767 20.1429 24 19.1195 24 17.8571V5.28571C24 4.02335 22.9767 3 21.7143 3Z" fill="white"/>
</mask>
<g mask="url(#mask0_3565_3909)">
<path d="M21.7143 3H2.28571C1.02335 3 0 4.02335 0 5.28571V17.8571C0 19.1195 1.02335 20.1429 2.28571 20.1429H21.7143C22.9767 20.1429 24 19.1195 24 17.8571V5.28571C24 4.02335 22.9767 3 21.7143 3Z" fill="#357363"/>
<path d="M21.7143 3.57141H2.2857C1.33892 3.57141 0.571411 4.33892 0.571411 5.2857V17.8571C0.571411 18.8039 1.33892 19.5714 2.2857 19.5714H21.7143C22.661 19.5714 23.4286 18.8039 23.4286 17.8571V5.2857C23.4286 4.33892 22.661 3.57141 21.7143 3.57141Z" stroke="black" stroke-opacity="0.1"/>
<path d="M12.2745 6L11.7288 7.67997L13.1578 6.64179H11.3912L12.8203 7.67997L12.2745 6Z" fill="#FBD116"/>
<path d="M12.2746 14.4904H8.66622C8.62074 14.4443 8.57596 14.3973 8.53224 14.3495H12.2746C12.3034 14.3599 12.3232 14.3863 12.3247 14.4162C12.3263 14.4486 12.306 14.479 12.2746 14.4904ZM12.2746 13.387C12.2955 13.3442 12.3363 13.2451 12.3178 13.1212C12.3094 13.065 12.2912 13.0196 12.2746 12.987C12.0721 13.1786 11.6917 13.4856 11.1305 13.6554C10.8684 13.7347 10.5906 13.7773 10.3027 13.7773H8.07974C8.14528 13.8736 8.21396 13.9676 8.28579 14.059H10.4348C11.1355 14.059 11.7774 13.8062 12.2746 13.387ZM8.41562 12.5175C8.30864 12.5586 8.19391 12.5843 8.07425 12.5914C8.59777 13.1836 9.36279 13.5573 10.2147 13.5573C11.0239 13.5573 11.7547 13.2202 12.2746 12.6789C12.3628 12.0705 12.427 11.3741 12.4346 10.6047C12.4435 9.70891 12.3739 8.90689 12.2746 8.22192C12.0424 8.43008 11.6073 8.87985 11.4022 9.56939C11.3255 9.82752 11.2842 10.1009 11.2842 10.3838C11.2842 10.9712 11.4618 11.5172 11.7662 11.9714C11.3924 11.4886 11.1698 10.8829 11.1698 10.2254C11.1698 9.78869 11.268 9.37479 11.4435 9.00454C11.3224 8.87647 11.2303 8.72059 11.1783 8.54735C10.9432 8.96236 10.8089 9.44175 10.8089 9.95252C10.8089 10.5878 11.0166 11.1748 11.3678 11.6493C10.7562 11.0081 9.89369 10.6083 8.93826 10.6083C8.88694 10.6083 8.83582 10.6096 8.78503 10.6119C8.88118 10.7015 8.96188 10.8074 9.02273 10.9252C9.97313 10.9267 10.8311 11.3238 11.4413 11.9604C10.8586 11.4736 10.1085 11.1805 9.29043 11.1805C8.83324 11.1805 8.39734 11.272 8 11.4377C8.40829 12.5165 9.45122 13.2844 10.6725 13.2844C10.7516 13.2844 10.83 13.2808 10.9074 13.2745C10.7426 13.3041 10.5729 13.3196 10.3996 13.3196C9.62903 13.3196 8.92962 13.014 8.41562 12.5175ZM12.2746 15.6435H10.4045C10.9833 15.8736 11.6142 16 12.2746 16C12.2905 15.9698 12.3178 15.908 12.3186 15.8256C12.3194 15.7389 12.2906 15.674 12.2746 15.6435ZM12.2746 14.7809H8.97763C9.06683 14.8573 9.15859 14.9308 9.25301 15.0009H12.2746C12.2821 14.9932 12.3194 14.9535 12.3194 14.8909C12.3194 14.8283 12.2821 14.7886 12.2746 14.7809ZM12.2746 15.221H9.57402C9.73755 15.3242 9.90725 15.4184 10.0827 15.5027H12.2746C12.2872 15.4826 12.3173 15.429 12.3154 15.355C12.3137 15.289 12.2874 15.2414 12.2746 15.221Z" fill="white"/>
<path d="M8.72679 8.60107L8.21045 9.70885L9.27916 9.11603L8.06628 8.96722L8.96006 9.80073L8.72679 8.60107Z" fill="#FBD116"/>
<path d="M9.61119 7.12598L9.96854 8.29483L10.3666 7.13892L9.36523 7.8401L10.5875 7.8613L9.61119 7.12598Z" fill="#FBD116"/>
<path d="M12.2636 6L12.8093 7.67997L11.3803 6.64179H13.1469L11.7178 7.67997L12.2636 6Z" fill="#FBD116"/>
<path d="M12.2636 14.4904H15.8719C15.9174 14.4443 15.9622 14.3973 16.0059 14.3495H12.2636C12.2347 14.3599 12.2149 14.3863 12.2134 14.4162C12.2118 14.4486 12.2322 14.479 12.2636 14.4904ZM12.2636 13.387C12.2426 13.3442 12.2019 13.2451 12.2204 13.1212C12.2287 13.065 12.2469 13.0196 12.2636 12.987C12.4661 13.1786 12.8465 13.4856 13.4077 13.6554C13.6697 13.7347 13.9476 13.7773 14.2354 13.7773H16.4584C16.3929 13.8736 16.3242 13.9676 16.2524 14.059H14.1034C13.4027 14.059 12.7607 13.8062 12.2636 13.387ZM16.1225 12.5175C16.2295 12.5586 16.3442 12.5843 16.4639 12.5914C15.9404 13.1836 15.1754 13.5573 14.3234 13.5573C13.5142 13.5573 12.7835 13.2202 12.2636 12.6789C12.1753 12.0705 12.1112 11.3741 12.1035 10.6047C12.0946 9.70891 12.1642 8.90689 12.2636 8.22192C12.4958 8.43008 12.9308 8.87985 13.1359 9.56939C13.2127 9.82752 13.2539 10.1009 13.2539 10.3838C13.2539 10.9712 13.0763 11.5172 12.772 11.9714C13.1458 11.4886 13.3684 10.8829 13.3684 10.2254C13.3684 9.78869 13.2701 9.37479 13.0946 9.00454C13.2158 8.87647 13.3079 8.72059 13.3598 8.54735C13.595 8.96236 13.7293 9.44175 13.7293 9.95252C13.7293 10.5878 13.5215 11.1748 13.1703 11.6493C13.7819 11.0081 14.6445 10.6083 15.5999 10.6083C15.6512 10.6083 15.7023 10.6096 15.7531 10.6119C15.657 10.7015 15.5763 10.8074 15.5154 10.9252C14.565 10.9267 13.707 11.3238 13.0968 11.9604C13.6796 11.4736 14.4297 11.1805 15.2477 11.1805C15.7049 11.1805 16.1408 11.272 16.5381 11.4377C16.1299 12.5165 15.0869 13.2844 13.8656 13.2844C13.7866 13.2844 13.7082 13.2808 13.6307 13.2745C13.7955 13.3041 13.9652 13.3196 14.1385 13.3196C14.9091 13.3196 15.6085 13.014 16.1225 12.5175ZM12.2636 15.6435H14.1336C13.5549 15.8736 12.924 16 12.2636 16C12.2477 15.9698 12.2204 15.908 12.2196 15.8256C12.2187 15.7389 12.2476 15.674 12.2636 15.6435ZM12.2636 14.7809H15.5605C15.4713 14.8573 15.3796 14.9308 15.2851 15.0009H12.2636C12.256 14.9932 12.2188 14.9535 12.2188 14.8909C12.2188 14.8283 12.256 14.7886 12.2636 14.7809ZM12.2636 15.221H14.9641C14.8006 15.3242 14.6309 15.4184 14.4555 15.5027H12.2636C12.2509 15.4826 12.2209 15.429 12.2227 15.355C12.2245 15.289 12.2507 15.2414 12.2636 15.221Z" fill="white"/>
<path d="M15.8114 8.60107L16.3277 9.70885L15.259 9.11603L16.4719 8.96722L15.5781 9.80073L15.8114 8.60107Z" fill="#FBD116"/>
<path d="M14.927 7.12598L14.5696 8.29483L14.1716 7.13892L15.1729 7.8401L13.9507 7.8613L14.927 7.12598Z" fill="#FBD116"/>
</g>
</svg>
