<svg width="24" height="24" viewBox="0 0 24 24" fill="none" xmlns="http://www.w3.org/2000/svg">
<mask id="mask0_3565_4166" style="mask-type:alpha" maskUnits="userSpaceOnUse" x="0" y="3" width="24" height="18">
<path d="M21.7143 3H2.28571C1.02335 3 0 4.02335 0 5.28571V17.8571C0 19.1195 1.02335 20.1429 2.28571 20.1429H21.7143C22.9767 20.1429 24 19.1195 24 17.8571V5.28571C24 4.02335 22.9767 3 21.7143 3Z" fill="white"/>
</mask>
<g mask="url(#mask0_3565_4166)">
<path d="M21.7143 3H2.28571C1.02335 3 0 4.02335 0 5.28571V17.8571C0 19.1195 1.02335 20.1429 2.28571 20.1429H21.7143C22.9767 20.1429 24 19.1195 24 17.8571V5.28571C24 4.02335 22.9767 3 21.7143 3Z" fill="#012A87"/>
<path fill-rule="evenodd" clip-rule="evenodd" d="M0 3H24V12.1429H0V3Z" fill="#DC171D"/>
<path fill-rule="evenodd" clip-rule="evenodd" d="M0 3V20.1806L11.4286 11.5714L0 3Z" fill="white"/>
<path d="M21.7143 3.57141H2.2857C1.33892 3.57141 0.571411 4.33892 0.571411 5.2857V17.8571C0.571411 18.8039 1.33892 19.5714 2.2857 19.5714H21.7143C22.661 19.5714 23.4286 18.8039 23.4286 17.8571V5.2857C23.4286 4.33892 22.661 3.57141 21.7143 3.57141Z" stroke="black" stroke-opacity="0.1"/>
<path d="M5.60534 9.96456L5.60789 9.86765C5.60789 9.86765 5.55585 9.78476 5.61625 9.69569C5.61625 9.69569 5.48794 9.62781 5.5178 9.52151C5.5178 9.52151 5.40177 9.49184 5.4103 9.36422C5.4103 9.36422 5.28506 9.35554 5.2721 9.24892C5.2721 9.24892 5.14686 9.26954 5.09174 9.16565C5.09174 9.16565 4.96957 9.18953 4.93511 9.10389C4.93511 9.10389 4.81635 9.14502 4.74588 9.04435C4.74588 9.04435 4.62047 9.09502 4.56792 9C4.51605 9.0947 4.39064 9.04435 4.39064 9.04435C4.32102 9.14466 4.20141 9.10304 4.20141 9.10304C4.16814 9.18902 4.04631 9.16462 4.04631 9.16462C3.99137 9.26853 3.8663 9.24788 3.8663 9.24788C3.85402 9.35417 3.72895 9.36286 3.72895 9.36286C3.73884 9.4908 3.62299 9.51982 3.62299 9.51982C3.65353 9.6261 3.52539 9.69381 3.52539 9.69381C3.58733 9.78339 3.5358 9.86562 3.5358 9.86562L3.5329 9.95499L5.60567 9.96456H5.60536H5.60534Z" fill="#F9D90F" stroke="black" stroke-width="0.011128"/>
<path d="M4.57162 9.38035C4.62716 9.43643 4.57524 9.46707 4.52401 9.43829C4.39737 9.34245 4.24937 9.28931 4.0458 9.34725C3.75331 9.34832 3.4426 9.33071 3.30053 9.48588C3.29041 9.51581 3.2111 9.6286 3.5179 9.46312C3.49877 9.57755 3.64149 9.48401 3.75183 9.43208C3.67581 9.51154 3.86821 9.52458 3.9899 9.44656C3.93009 9.5268 4.03515 9.52465 4.13482 9.52519C4.28059 9.52975 4.20006 9.65652 3.95057 9.66175C3.93238 9.66049 3.86243 9.69329 3.95678 9.71761C4.00048 9.71978 3.96493 9.78072 4.11618 9.70313C4.10679 9.74854 4.1716 9.73974 4.26317 9.71141C4.3151 9.75221 4.35725 9.70991 4.40187 9.68865C4.59298 9.76334 4.84532 9.83813 4.91321 9.57898C5.0727 9.56061 5.20471 9.53721 5.13324 9.47651C5.34102 9.56122 5.35305 9.52854 5.34989 9.48676C5.44953 9.5244 5.56543 9.57538 5.51823 9.49261C5.61403 9.51708 5.71895 9.5256 5.80075 9.57454C5.88364 9.61746 5.85682 9.54247 5.83735 9.5087C5.7949 9.44078 5.74122 9.42074 5.62017 9.41826C5.51753 9.41616 5.03652 9.28206 4.78631 9.42677C4.78631 9.42677 4.79217 9.42677 4.78778 9.42677C4.78338 9.42677 4.68384 9.33313 4.68384 9.33313C4.70674 9.33252 4.72328 9.321 4.73654 9.30387C4.83413 9.30879 4.93172 9.29944 5.02931 9.27315C5.07377 9.25927 5.09912 9.28574 5.09811 9.30534C5.13878 9.2338 5.08247 9.21898 5.04102 9.22194C4.87594 9.23129 4.77684 9.22266 4.69702 9.20877C4.53878 9.12984 4.34833 9.25094 4.52428 9.35069L4.57162 9.38035Z" fill="#BC715F" stroke="black" stroke-width="0.011128"/>
<path d="M4.60883 9.24022C4.57572 9.24515 4.54154 9.24912 4.52832 9.27204C4.52929 9.23432 4.58547 9.23171 4.60883 9.24022Z" fill="black"/>
<path d="M4.5913 9.26876C4.59918 9.26876 4.60557 9.26221 4.60557 9.25413C4.60557 9.24605 4.59918 9.2395 4.5913 9.2395C4.58342 9.2395 4.57703 9.24605 4.57703 9.25413C4.57703 9.26221 4.58342 9.26876 4.5913 9.26876Z" fill="black"/>
<path d="M2.79651 9.71204C2.86186 10.0829 2.9344 10.463 2.97006 10.8513C3.04769 11.4264 2.69789 11.9092 2.84139 12.4773C2.92705 12.7498 3.22682 12.9083 3.50119 12.9397C3.86517 13.0085 4.30517 12.9399 4.57085 13.2121C4.83653 12.9399 5.27654 13.0085 5.64051 12.9397C5.91488 12.9083 6.21466 12.7498 6.30032 12.4773C6.44381 11.9092 6.09401 11.4264 6.17165 10.8513C6.20731 10.463 6.27985 10.0829 6.3452 9.71204C5.70451 10.0599 5.07147 9.60737 4.57085 9.89667C4.07024 9.60737 3.43719 10.0599 2.79651 9.71204Z" fill="#DC171D" stroke="black" stroke-width="0.011128"/>
<path d="M3.0354 10.0117C3.09185 10.3177 3.15449 10.6313 3.1853 10.9517C3.25235 11.4262 2.95023 11.8245 3.07417 12.2932C3.14815 12.5181 3.40707 12.6489 3.64404 12.6748C3.95841 12.7315 4.33845 12.6749 4.56792 12.8996C4.79738 12.6749 5.17742 12.7315 5.49179 12.6748C5.72876 12.6489 5.98768 12.5181 6.06166 12.2932C6.1856 11.8245 5.88348 11.4262 5.95053 10.9517C5.98133 10.6313 6.04398 10.3177 6.10043 10.0117C5.54707 10.2987 5.0003 9.92536 4.56792 10.1641C4.13553 9.92536 3.58876 10.2987 3.0354 10.0117Z" fill="#62AFE1" stroke="black" stroke-width="0.0111456"/>
<path d="M4.26761 10.8696L3.62012 11.3134V11.8476H5.51579V11.3134L4.8683 10.8696H4.26761Z" fill="white" stroke="black" stroke-width="0.0250381" stroke-linecap="round"/>
<path d="M3.46631 11.759V11.8612H3.52866V12.3859H5.60721V11.8612H5.66956V11.759H3.46631Z" fill="white" stroke="black" stroke-width="0.0250381" stroke-linecap="round"/>
<path d="M4.56789 10.2909L4.26758 10.5832V10.8695H4.86827V10.5832L4.56789 10.2909Z" fill="white" stroke="black" stroke-width="0.0250381" stroke-linecap="round"/>
<path d="M3.71375 11.3859H3.90368V11.6867H3.71375V11.3859Z" fill="white" stroke="black" stroke-width="0.0250381" stroke-linecap="round"/>
<path d="M4.25293 11.3859H4.44287V11.6867H4.25293V11.3859Z" fill="white" stroke="black" stroke-width="0.0250381" stroke-linecap="round"/>
<path d="M5.42211 11.3859H5.23218V11.6867H5.42211V11.3859Z" fill="white" stroke="black" stroke-width="0.0250381" stroke-linecap="round"/>
<path d="M4.88305 11.3859H4.69312V11.6867H4.88305V11.3859Z" fill="white" stroke="black" stroke-width="0.0250381" stroke-linecap="round"/>
<path d="M3.71375 11.9088H3.90368V12.2096H3.71375V11.9088Z" fill="white" stroke="black" stroke-width="0.0250381" stroke-linecap="round"/>
<path d="M5.42211 11.9088H5.23218V12.2096H5.42211V11.9088Z" fill="white" stroke="black" stroke-width="0.0250381" stroke-linecap="round"/>
<path d="M4.71682 11.8918H4.41907V12.3859H4.71682V11.8918Z" fill="white" stroke="black" stroke-width="0.0250381" stroke-linecap="round"/>
<path d="M4.24596 11.759H4.11243V12.3859H4.24596V11.759Z" fill="white" stroke="black" stroke-width="0.0250381" stroke-linecap="round"/>
<path d="M4.88989 11.759H5.02348V12.3859H4.88989V11.759Z" fill="white" stroke="black" stroke-width="0.0250381" stroke-linecap="round"/>
<path d="M5.07306 11.7805V11.6257H4.06274V11.7805H5.07306Z" fill="white" stroke="black" stroke-width="0.0250381" stroke-linecap="round"/>
<path d="M4.26758 10.5833H4.86827H4.26758Z" fill="white"/>
<path d="M4.26758 10.5833H4.86827" stroke="black" stroke-width="0.0250381"/>
<path d="M3.62012 11.3134H5.51579H3.62012Z" fill="white"/>
<path d="M3.62012 11.3134H5.51579" stroke="black" stroke-width="0.0250381"/>
<path d="M3.4187 12.3203H5.71717V12.4827H3.4187V12.3203Z" fill="white" stroke="black" stroke-width="0.0250381" stroke-linecap="round"/>
<path d="M4.68259 10.6451H4.45337V10.8075H4.68259V10.6451Z" fill="white" stroke="black" stroke-width="0.0250381" stroke-linecap="round"/>
<path d="M4.13501 11.6257V11.7805" stroke="black" stroke-width="0.02782"/>
<path d="M5.00098 11.6256V11.7804" stroke="black" stroke-width="0.02782"/>
<path d="M4.92883 11.6256V11.7804" stroke="black" stroke-width="0.02782"/>
<path d="M4.85669 11.6256V11.7804" stroke="black" stroke-width="0.02782"/>
<path d="M4.78455 11.6256V11.7804" stroke="black" stroke-width="0.02782"/>
<path d="M4.7124 11.6256V11.7804" stroke="black" stroke-width="0.02782"/>
<path d="M4.64014 11.6256V11.7804" stroke="black" stroke-width="0.02782"/>
<path d="M4.56799 11.6256V11.7804" stroke="black" stroke-width="0.02782"/>
<path d="M4.49585 11.6256V11.7804" stroke="black" stroke-width="0.02782"/>
<path d="M4.42371 11.6256V11.7804" stroke="black" stroke-width="0.02782"/>
<path d="M4.35156 11.6256V11.7804" stroke="black" stroke-width="0.02782"/>
<path d="M4.2793 11.6256V11.7804" stroke="black" stroke-width="0.02782"/>
<path d="M4.20715 11.6256V11.7804" stroke="black" stroke-width="0.02782"/>
<path d="M5.07324 11.6364V11.7806" stroke="black" stroke-width="0.0250381"/>
<path d="M3.59403 10.2611C3.73671 10.3522 3.80418 10.4363 3.80452 10.5144C3.62695 10.505 3.46638 10.4214 3.59403 10.2611Z" fill="#008830" stroke="black" stroke-width="0.012519"/>
<path d="M3.70903 10.344C3.84644 10.4222 3.92386 10.5073 3.94774 10.5986C3.80815 10.6229 3.65924 10.557 3.70903 10.344Z" fill="#008830" stroke="black" stroke-width="0.012519"/>
<path d="M3.53141 10.4783C3.54991 10.6352 3.52726 10.748 3.46788 10.8214C3.36556 10.7234 3.33033 10.5644 3.53141 10.4783Z" fill="#008830" stroke="black" stroke-width="0.012519"/>
<path d="M3.5316 10.4789C3.66068 10.5701 3.72938 10.6624 3.74418 10.7556C3.60289 10.7661 3.46115 10.686 3.5316 10.4789Z" fill="#008830" stroke="black" stroke-width="0.012519"/>
<path d="M3.61722 10.3531L3.67669 10.3903L3.74052 10.384L3.7673 10.4281C3.7673 10.4281 3.76012 10.5187 3.76007 10.527C3.76002 10.5353 3.77979 10.5859 3.77979 10.5859L3.73635 10.6175L3.61999 10.6652L3.51116 10.5768L3.44256 10.5839L3.41248 10.4987L3.44628 10.426L3.53121 10.3709L3.61722 10.3531Z" fill="#008830" stroke="black" stroke-width="0.012519"/>
<path d="M3.50556 10.3982C3.44964 10.5461 3.37756 10.6358 3.29105 10.6735C3.2454 10.5394 3.28739 10.3821 3.50556 10.3982Z" fill="#008830" stroke="black" stroke-width="0.012519"/>
<path d="M3.50529 10.4089C3.35017 10.3784 3.24974 10.3223 3.19812 10.2433C3.32278 10.1759 3.48491 10.1912 3.50529 10.4089Z" fill="#008830" stroke="black" stroke-width="0.012519"/>
<path d="M3.80188 10.4143C3.95935 10.4282 4.07147 10.4023 4.14309 10.3409C4.04218 10.2415 3.88225 10.2108 3.80188 10.4143Z" fill="#008830" stroke="black" stroke-width="0.012519"/>
<path d="M3.80237 10.4145C3.89733 10.5408 3.99158 10.6068 4.08519 10.619C4.09159 10.4774 4.00737 10.3381 3.80237 10.4145Z" fill="#008830" stroke="black" stroke-width="0.012519"/>
<path d="M3.7529 10.4918C3.87125 10.5966 3.92948 10.6958 3.93403 10.7901C3.79244 10.7851 3.66029 10.69 3.7529 10.4918Z" fill="#008830" stroke="black" stroke-width="0.012519"/>
<path d="M3.70409 10.6654C3.78508 10.8011 3.81046 10.9134 3.7862 11.0046C3.65279 10.9569 3.55572 10.8261 3.70409 10.6654Z" fill="#008830" stroke="black" stroke-width="0.012519"/>
<path d="M3.64716 10.6566C3.66509 10.8137 3.64203 10.9264 3.58238 10.9995C3.48043 10.9011 3.44577 10.7421 3.64716 10.6566Z" fill="#008830" stroke="black" stroke-width="0.012519"/>
<path d="M3.54426 10.4802C3.53288 10.4721 3.52431 10.4581 3.52231 10.4442C3.5206 10.4324 3.52157 10.4248 3.5269 10.4081C3.5296 10.3997 3.53175 10.3926 3.53167 10.3923C3.53159 10.3921 3.52947 10.3915 3.52697 10.3909C3.52262 10.39 3.52208 10.3903 3.51425 10.3976C3.48746 10.4223 3.46302 10.4342 3.44629 10.4305C3.4269 10.4263 3.41947 10.3994 3.43026 10.3725C3.43942 10.3495 3.45662 10.3355 3.47858 10.333C3.48671 10.3321 3.49013 10.3324 3.49961 10.335C3.50584 10.3367 3.51071 10.3376 3.51043 10.337C3.51014 10.3364 3.50541 10.333 3.49991 10.3295C3.47282 10.3124 3.45681 10.2925 3.45574 10.2748C3.45496 10.2619 3.4634 10.2495 3.47785 10.2424C3.50213 10.2304 3.53253 10.2389 3.54667 10.2617C3.55346 10.2727 3.55522 10.2814 3.5552 10.3039C3.55518 10.317 3.55572 10.3245 3.55671 10.3249C3.55756 10.3252 3.55979 10.3273 3.56167 10.3294L3.56509 10.3333L3.57851 10.3223C3.59217 10.3111 3.60207 10.3042 3.61317 10.2983C3.62852 10.2902 3.64661 10.2878 3.65567 10.2929C3.67553 10.304 3.67545 10.34 3.65551 10.3648C3.63934 10.3848 3.61476 10.3919 3.59231 10.3829C3.58727 10.3809 3.58014 10.3785 3.57647 10.3775L3.56978 10.3757L3.58012 10.3888C3.59407 10.4066 3.60191 10.4193 3.60731 10.4329C3.61751 10.4585 3.61232 10.4783 3.59318 10.4868C3.57844 10.4934 3.55912 10.4908 3.54426 10.4802Z" fill="#F9D90F" stroke="black" stroke-width="0.012519"/>
<path d="M3.57092 10.3687C3.56749 10.3773 3.56116 10.3843 3.55332 10.3882C3.54549 10.3922 3.53678 10.3926 3.52913 10.3896C3.52148 10.3865 3.5155 10.3802 3.51251 10.372C3.50952 10.3637 3.50977 10.3543 3.5132 10.3457C3.51662 10.3371 3.52295 10.33 3.53079 10.3261C3.53863 10.3222 3.54733 10.3217 3.55498 10.3247C3.56264 10.3278 3.56862 10.3341 3.5716 10.3424C3.57459 10.3506 3.57434 10.3601 3.57092 10.3687Z" fill="#F9D90F" stroke="black" stroke-width="0.012519"/>
<path d="M3.6866 10.3136C3.68671 10.3258 3.68876 10.3334 3.69633 10.35C3.70017 10.3584 3.70327 10.3654 3.70323 10.3657C3.70318 10.3659 3.70125 10.3667 3.69893 10.3674C3.69489 10.3687 3.69434 10.3684 3.68576 10.3617C3.65644 10.3387 3.63127 10.3286 3.61577 10.3336C3.5978 10.3394 3.59465 10.3673 3.60897 10.3939C3.62114 10.4164 3.63968 10.4293 3.6611 10.4301C3.66903 10.4304 3.67226 10.4298 3.68096 10.4264C3.68668 10.4242 3.69121 10.4229 3.69103 10.4235C3.69085 10.4242 3.68681 10.428 3.68205 10.432C3.65863 10.4516 3.64622 10.473 3.64781 10.4911C3.64896 10.5043 3.65887 10.5162 3.67378 10.5223C3.69883 10.5326 3.7267 10.5215 3.73688 10.4972C3.74177 10.4855 3.74217 10.4766 3.73883 10.4537C3.73689 10.4404 3.7363 10.4327 3.73719 10.4322C3.73795 10.4318 3.73978 10.4296 3.74127 10.4272L3.74398 10.423L3.75846 10.4331C3.77321 10.4434 3.7837 10.4496 3.79521 10.4547C3.81113 10.4618 3.82881 10.4628 3.83675 10.4569C3.85415 10.4441 3.84874 10.4074 3.82599 10.3839C3.80753 10.3648 3.78293 10.3595 3.76273 10.3704C3.7582 10.3728 3.75173 10.3759 3.74835 10.3772L3.74221 10.3796L3.75018 10.3654C3.76094 10.3462 3.76658 10.3327 3.76975 10.3185C3.77573 10.2916 3.76783 10.2719 3.74823 10.2647C3.73314 10.2593 3.71501 10.2634 3.70381 10.2739C3.69261 10.2844 3.68647 10.2994 3.6866 10.3136Z" fill="#F9D90F" stroke="black" stroke-width="0.0125125"/>
<path d="M3.68832 10.385C3.69241 10.3765 3.69935 10.3696 3.70763 10.3658C3.71591 10.3621 3.72484 10.3618 3.73246 10.3651C3.74008 10.3683 3.74577 10.3749 3.74827 10.3832C3.75077 10.3916 3.74987 10.4011 3.74579 10.4097C3.7417 10.4183 3.73475 10.4252 3.72647 10.4289C3.71819 10.4327 3.70926 10.433 3.70164 10.4297C3.69402 10.4264 3.68834 10.4199 3.68584 10.4115C3.68334 10.4031 3.68423 10.3936 3.68832 10.385Z" fill="#F9D90F" stroke="black" stroke-width="0.012519"/>
<path d="M3.5121 10.6573C3.50892 10.6433 3.5092 10.634 3.51343 10.6129C3.51557 10.6022 3.51722 10.5933 3.5171 10.593C3.51699 10.5927 3.51455 10.5923 3.51169 10.5921C3.5067 10.5918 3.50613 10.5922 3.49809 10.6023C3.47063 10.6367 3.44442 10.6552 3.42525 10.6536C3.40301 10.6518 3.39182 10.6206 3.40108 10.5861C3.40895 10.5569 3.42678 10.5371 3.45119 10.5304C3.46022 10.5279 3.4641 10.5277 3.47503 10.5292C3.4822 10.5302 3.48776 10.5305 3.48738 10.5298C3.487 10.5291 3.48133 10.5258 3.47477 10.5225C3.44253 10.5064 3.42244 10.4851 3.41935 10.4638C3.4171 10.4484 3.42527 10.432 3.44075 10.4209C3.46676 10.4023 3.50182 10.4075 3.52012 10.4327C3.5289 10.4447 3.5318 10.455 3.53417 10.4822C3.53554 10.498 3.53694 10.5069 3.53809 10.5073C3.53908 10.5076 3.5418 10.5096 3.54414 10.5119L3.5484 10.516L3.5623 10.5004C3.57647 10.4846 3.58686 10.4747 3.5987 10.4657C3.61509 10.4532 3.63517 10.4473 3.64588 10.4519C3.66936 10.4619 3.67309 10.5055 3.65331 10.5388C3.63727 10.5657 3.6104 10.5784 3.58424 10.5714C3.57837 10.5698 3.5701 10.5681 3.56586 10.5675L3.55816 10.5665L3.57117 10.5806C3.58873 10.5997 3.59888 10.6137 3.60639 10.6292C3.62056 10.6585 3.61683 10.6833 3.59622 10.6968C3.58036 10.7072 3.55838 10.7073 3.54265 10.6983C3.52693 10.6892 3.51581 10.6737 3.5121 10.6573Z" fill="#F9D90F" stroke="black" stroke-width="0.012519"/>
<path d="M3.55864 10.5579C3.5557 10.5689 3.54933 10.5785 3.54095 10.5845C3.53256 10.5906 3.52283 10.5927 3.51391 10.5903C3.50499 10.5879 3.4976 10.5812 3.49337 10.5718C3.48914 10.5624 3.48842 10.5509 3.49136 10.5399C3.4943 10.5289 3.50066 10.5194 3.50905 10.5133C3.51744 10.5072 3.52716 10.5052 3.53608 10.5075C3.545 10.5099 3.55239 10.5166 3.55662 10.526C3.56085 10.5355 3.56158 10.547 3.55864 10.5579Z" fill="#F9D90F" stroke="black" stroke-width="0.012519"/>
<path d="M3.71103 10.5094C3.70828 10.5231 3.70878 10.5323 3.71343 10.5527C3.71579 10.5631 3.71763 10.5718 3.71752 10.5721C3.71741 10.5723 3.71504 10.5728 3.71225 10.573C3.70739 10.5735 3.70682 10.5731 3.69872 10.5635C3.67104 10.5305 3.645 10.5132 3.62631 10.5152C3.60464 10.5175 3.59449 10.5482 3.60439 10.5816C3.6128 10.61 3.6307 10.6289 3.65471 10.6349C3.66359 10.6371 3.66739 10.6372 3.67802 10.6354C3.685 10.6342 3.69042 10.6339 3.69007 10.6345C3.68972 10.6352 3.68426 10.6386 3.67794 10.6419C3.64685 10.6585 3.62776 10.6798 3.62527 10.7007C3.62347 10.7158 3.63185 10.7316 3.64724 10.742C3.67311 10.7595 3.70721 10.7536 3.72446 10.7286C3.73273 10.7166 3.73531 10.7065 3.73694 10.6798C3.73789 10.6644 3.73903 10.6556 3.74015 10.6553C3.74111 10.655 3.74371 10.6529 3.74594 10.6506L3.74999 10.6465L3.76396 10.6613C3.77819 10.6764 3.78858 10.6859 3.80037 10.6944C3.81668 10.7062 3.83644 10.7114 3.84679 10.7067C3.86946 10.6963 3.87202 10.6536 3.85188 10.6216C3.83554 10.5957 3.80899 10.584 3.78362 10.5915C3.77792 10.5932 3.76989 10.5951 3.76577 10.5957L3.75827 10.597L3.77063 10.5828C3.78729 10.5638 3.79686 10.5498 3.80381 10.5345C3.81692 10.5055 3.81266 10.4814 3.7922 10.4687C3.77644 10.459 3.75498 10.4594 3.73985 10.4686C3.72471 10.4778 3.71425 10.4932 3.71103 10.5094Z" fill="#F9D90F" stroke="black" stroke-width="0.012519"/>
<path d="M3.7253 10.5737C3.71421 10.574 3.70367 10.5783 3.696 10.5855C3.68834 10.5928 3.68418 10.6025 3.68443 10.6124C3.68468 10.6224 3.68933 10.6319 3.69736 10.6387C3.70538 10.6456 3.71612 10.6493 3.72721 10.649C3.73831 10.6487 3.74885 10.6445 3.75651 10.6372C3.76418 10.63 3.76834 10.6203 3.76809 10.6103C3.76783 10.6003 3.76318 10.5909 3.75516 10.584C3.74713 10.5772 3.73639 10.5735 3.7253 10.5737Z" fill="#F9D90F" stroke="black" stroke-width="0.012519"/>
<path d="M5.82842 10.9021H5.74886V10.8455H5.68109V10.7809H5.6035L5.60344 10.3709L5.51507 10.2163L5.4267 10.3709V10.7809H5.34911V10.8455H5.28134V10.9021H5.20178V10.9855L5.82842 10.9873V10.9021Z" fill="white" stroke="black" stroke-width="0.0222561"/>
<path d="M4.57486 13.4756C4.89325 13.4766 5.28484 13.4116 5.46826 13.3168L5.87111 13.2811L5.87913 13.7726C5.53788 13.9608 4.74993 14.0012 4.57657 13.9998C4.40304 14.0012 3.60536 13.9601 3.26257 13.7713L3.26701 13.2794L3.67071 13.3158C3.85414 13.4101 4.25767 13.4756 4.57572 13.4756H4.57486" fill="#F9D90F"/>
<path d="M3.26257 13.7713L3.67801 13.6763L3.26396 13.6171L3.26257 13.7713Z" fill="#F9B60F"/>
<path d="M2.22538 11.3792L2.58028 11.4922L2.47296 12.0668L2.13699 12.119C2.13699 12.119 2.08035 11.8168 2.22538 11.3789" fill="#F9D90F"/>
<path d="M2.13708 12.119L2.35532 11.8179L2.47305 12.0668L2.13708 12.119Z" fill="#F9B60F"/>
<path d="M2.22538 11.3792L2.58028 11.4922L2.47296 12.0668L2.13699 12.1189C2.13699 12.1189 2.08035 11.8168 2.22538 11.3789V11.3793V11.3792Z" stroke="black" stroke-width="0.0111456"/>
<path d="M3.26245 13.7714L3.68054 13.6764" stroke="black" stroke-width="0.0111456"/>
<path d="M2.35559 11.816L2.47299 12.0668" stroke="black" stroke-width="0.0111456"/>
<path d="M5.87906 13.7727L5.46362 13.6777L5.87767 13.6184L5.87906 13.7727Z" fill="#F9B60F"/>
<path d="M6.91618 11.3806L6.56128 11.4935L6.6686 12.0681L7.00457 12.1203C7.00457 12.1203 7.06122 11.8182 6.91618 11.3802" fill="#F9D90F"/>
<path d="M7.00454 12.1203L6.78631 11.8192L6.66858 12.0681L7.00454 12.1203Z" fill="#F9B60F"/>
<path d="M6.91618 11.3807L6.56128 11.4936L6.6686 12.0682L7.00457 12.1204C7.00457 12.1204 7.06122 11.8183 6.91618 11.3804V11.3807V11.3807Z" stroke="black" stroke-width="0.0111456"/>
<path d="M5.87914 13.7728L5.46106 13.6777" stroke="black" stroke-width="0.0111456"/>
<path d="M6.78598 11.8175L6.66858 12.0682" stroke="black" stroke-width="0.0111456"/>
<path d="M4.57486 13.4757C4.89325 13.4767 5.28484 13.4118 5.46826 13.3169L5.87111 13.2812L5.87913 13.7728C5.53788 13.9609 4.74993 14.0013 4.57657 14C4.40304 14.0013 3.60536 13.9602 3.26257 13.7714L3.26701 13.2795L3.67071 13.3159C3.85414 13.4102 4.25767 13.4757 4.57572 13.4757H4.57486" stroke="black" stroke-width="0.0111456"/>
<path d="M7.12841 11.7944L6.7863 11.8192C6.77863 12.109 6.74348 13.2152 5.42249 13.2752L5.46361 13.6776C7.07159 13.6943 7.19376 12.3209 7.12841 11.7944Z" fill="#F9D90F"/>
<path d="M7.12841 11.7944L6.7863 11.8192C6.77863 12.109 6.74348 13.2152 5.42249 13.2752L5.46361 13.6776C7.07159 13.6943 7.19376 12.3209 7.12841 11.7944Z" stroke="black" stroke-width="0.0111456"/>
<path d="M2.01319 11.7931L2.35529 11.8178C2.36297 12.1077 2.39812 13.2138 3.71911 13.2739L3.67799 13.6763C2.07001 13.693 1.94784 12.3195 2.01319 11.7931Z" fill="#F9D90F"/>
<path d="M2.01319 11.7931L2.35529 11.8178C2.36297 12.1077 2.39812 13.2138 3.71911 13.2739L3.67799 13.6763C2.07001 13.693 1.94784 12.3195 2.01319 11.7931Z" stroke="black" stroke-width="0.0111456"/>
<path d="M4.35049 13.7181C4.34144 13.7239 4.32916 13.7255 4.315 13.7248L4.25118 13.7215L4.25664 13.6419L4.31994 13.6453C4.3324 13.6461 4.3423 13.6485 4.34844 13.6523C4.36124 13.6589 4.36687 13.6712 4.36567 13.6883C4.36482 13.7029 4.3597 13.7125 4.35032 13.7181M4.24316 13.8435L4.24948 13.7464L4.32387 13.7516C4.34793 13.7535 4.36584 13.7471 4.37796 13.7348C4.39058 13.7229 4.39707 13.7072 4.39792 13.6895C4.39946 13.6688 4.39417 13.6519 4.38188 13.6395C4.37011 13.6275 4.35339 13.6212 4.3324 13.6192L4.2261 13.6125L4.21143 13.8411L4.24299 13.8432" fill="#012A87"/>
<path d="M4.48507 13.6523L4.56288 13.6532C4.57414 13.6542 4.58301 13.6556 4.5895 13.6586C4.60144 13.6643 4.60707 13.6755 4.60707 13.6919C4.60707 13.7073 4.60264 13.7175 4.59393 13.7236C4.58557 13.7293 4.57346 13.7318 4.55896 13.7318L4.48422 13.731L4.4849 13.6523M4.48371 13.8548L4.48439 13.7572L4.55742 13.7583C4.57039 13.7583 4.57995 13.7593 4.5866 13.7625C4.59735 13.7675 4.60264 13.7779 4.60315 13.7922L4.60503 13.8306C4.60554 13.8398 4.60571 13.8455 4.60622 13.8492C4.60724 13.8519 4.60776 13.8548 4.60912 13.8569H4.64837L4.64768 13.8519C4.64325 13.8495 4.63966 13.8449 4.63813 13.8379C4.63676 13.8335 4.63608 13.8268 4.63574 13.8185L4.63506 13.7879C4.63454 13.7741 4.63216 13.7646 4.62687 13.7593C4.62226 13.7531 4.61595 13.7479 4.60622 13.7446C4.61714 13.7388 4.62533 13.7322 4.6313 13.724C4.63693 13.7149 4.63984 13.7035 4.63984 13.6895C4.63984 13.6633 4.62909 13.6453 4.60725 13.6356C4.59547 13.6303 4.58046 13.6276 4.56271 13.6273L4.453 13.6262L4.45215 13.8555H4.48371" fill="#012A87"/>
<path d="M4.74365 13.8069C4.72966 13.7898 4.72215 13.7685 4.72045 13.7433C4.71891 13.7115 4.72505 13.6873 4.73956 13.6709C4.75423 13.6532 4.77317 13.6446 4.79791 13.6433C4.82282 13.6419 4.8433 13.6499 4.85848 13.6656C4.87401 13.681 4.88288 13.7023 4.88442 13.7289C4.88527 13.7545 4.88083 13.7772 4.86906 13.7971C4.85746 13.8175 4.83818 13.8289 4.80968 13.8296C4.77999 13.8311 4.75781 13.8241 4.74365 13.8069ZM4.70611 13.6625C4.69144 13.6852 4.68547 13.7115 4.687 13.7433C4.68922 13.7775 4.6998 13.8059 4.71976 13.8272C4.74194 13.8485 4.77129 13.8592 4.80746 13.8572C4.8462 13.8555 4.87537 13.8408 4.89517 13.8139C4.91121 13.7895 4.91888 13.7611 4.91718 13.7262C4.91496 13.695 4.90592 13.6695 4.88902 13.6506C4.8677 13.6252 4.83647 13.6139 4.79416 13.6156C4.75423 13.6182 4.72488 13.6329 4.70594 13.6625" fill="#012A87"/>
<path d="M2.16979 12.2189L2.17508 12.2475C2.16229 12.2501 2.15205 12.2552 2.14454 12.2619C2.13106 12.2745 2.12645 12.2934 2.13106 12.3192C2.13311 12.3301 2.13703 12.3408 2.14198 12.3494C2.15222 12.3668 2.16553 12.3738 2.18242 12.371C2.19488 12.3688 2.20307 12.3641 2.20699 12.3552C2.21074 12.3465 2.21348 12.3332 2.21433 12.3161L2.21586 12.2839C2.21692 12.2639 2.2191 12.2482 2.22354 12.2395C2.23053 12.2238 2.24367 12.2141 2.2633 12.2109C2.28428 12.2071 2.30271 12.2119 2.31858 12.2238C2.33462 12.2349 2.3452 12.2542 2.34912 12.2798C2.35407 12.3031 2.35185 12.3241 2.34263 12.3431C2.33376 12.3615 2.3167 12.3727 2.29059 12.3775L2.28547 12.3485C2.29758 12.3441 2.30663 12.3398 2.3126 12.3339C2.32284 12.3224 2.32591 12.3059 2.32198 12.2832C2.31891 12.2647 2.3126 12.2528 2.30304 12.2469C2.29366 12.2398 2.28427 12.2371 2.27403 12.2388C2.2626 12.2405 2.25509 12.2469 2.25151 12.2571C2.24929 12.2639 2.24759 12.2781 2.24605 12.2997L2.24452 12.3332C2.24368 12.3489 2.24128 12.3618 2.23599 12.3707C2.22763 12.3871 2.21347 12.3971 2.19282 12.4004C2.16672 12.4048 2.14658 12.3988 2.13225 12.3821C2.11758 12.3657 2.10853 12.3461 2.10393 12.3217C2.09881 12.2927 2.10256 12.2702 2.11417 12.2521C2.12594 12.2335 2.14454 12.2228 2.16979 12.2192" fill="#012A87"/>
<path d="M2.1554 12.5214L2.38096 12.4535L2.43352 12.6123L2.40604 12.621L2.36305 12.4905L2.29446 12.5112L2.33421 12.6317L2.30793 12.6401L2.26852 12.5192L2.19208 12.542L2.23576 12.6754L2.2088 12.6831L2.1554 12.5214" fill="#012A87"/>
<path d="M2.25537 12.7968L2.46285 12.6868L2.48503 12.7255L2.34239 12.8763L2.55072 12.8406L2.57222 12.879L2.36525 12.9884L2.35058 12.9629L2.47275 12.8986C2.47719 12.8961 2.48401 12.8923 2.49391 12.887C2.50363 12.8826 2.51455 12.8766 2.52547 12.871L2.31799 12.9063L2.3028 12.8794L2.44442 12.7291L2.4376 12.7325C2.43316 12.735 2.42549 12.7388 2.41508 12.7448C2.40484 12.7511 2.39716 12.755 2.39221 12.757L2.27039 12.8224L2.25537 12.7965" fill="#012A87"/>
<path d="M2.64198 13.1024C2.63157 13.1 2.62134 13.094 2.61127 13.0836L2.56742 13.0384L2.62646 12.9843L2.67065 13.0294C2.67918 13.0377 2.68464 13.0459 2.68754 13.0529C2.69163 13.0664 2.68754 13.0787 2.67509 13.0902C2.66382 13.1006 2.65256 13.1049 2.64198 13.1024ZM2.47528 13.1233L2.54763 13.057L2.59899 13.109C2.61554 13.1259 2.63243 13.1336 2.65017 13.1332C2.66826 13.1322 2.68379 13.1256 2.69744 13.1126C2.71279 13.0989 2.72013 13.0829 2.72013 13.0657C2.71992 13.049 2.71229 13.0333 2.69812 13.0186L2.62441 12.9434L2.45276 13.101L2.47494 13.1233" fill="#012A87"/>
<path d="M2.68225 13.3075L2.80664 13.1125L2.95372 13.2019L2.93836 13.2252L2.81756 13.1528L2.78019 13.2119L2.89127 13.2792L2.87694 13.3016L2.76569 13.2345L2.72337 13.3005L2.84571 13.3741L2.83104 13.3971L2.68225 13.3075Z" fill="#012A87"/>
<path d="M3.05039 13.2698L3.12513 13.2935C3.13571 13.2967 3.14339 13.3008 3.1485 13.3055C3.15806 13.3145 3.16062 13.3275 3.15499 13.3431C3.15039 13.3568 3.14339 13.3657 3.13247 13.3694C3.12274 13.3711 3.11046 13.3711 3.09612 13.3667L3.02566 13.3442L3.0504 13.2698M2.9859 13.4614L3.01695 13.3684L3.08657 13.3911C3.09903 13.3943 3.10807 13.3988 3.1125 13.4034C3.12103 13.411 3.1236 13.4225 3.11933 13.4367L3.10892 13.4737C3.10653 13.4827 3.10533 13.4887 3.10431 13.4914C3.10431 13.4943 3.10431 13.4974 3.10484 13.4994L3.14152 13.5114L3.14374 13.5061C3.13982 13.503 3.1376 13.4974 3.13777 13.4904C3.13861 13.4861 3.13982 13.4793 3.14221 13.4714L3.15108 13.4418C3.15467 13.4288 3.15603 13.4191 3.15279 13.4121C3.15005 13.4047 3.14545 13.3981 3.13777 13.3918C3.14937 13.3897 3.15944 13.3861 3.16797 13.3798C3.17599 13.3728 3.18282 13.3631 3.18691 13.3495C3.19527 13.3247 3.19066 13.3041 3.17224 13.2884C3.16303 13.2802 3.14988 13.2732 3.13265 13.2667L3.02823 13.2345L2.9552 13.452L2.98574 13.4614" fill="#012A87"/>
<path d="M5.76849 13.3166C5.79057 13.3133 5.80966 13.3147 5.82695 13.3209C5.85239 13.3294 5.86928 13.3487 5.8795 13.3779L5.84786 13.3817C5.84132 13.3659 5.83179 13.355 5.81876 13.3488C5.80607 13.3429 5.79006 13.3413 5.77158 13.3437C5.75003 13.3465 5.7326 13.3569 5.72018 13.3739C5.7079 13.3921 5.70387 13.4166 5.70858 13.4481C5.71254 13.4741 5.7217 13.4963 5.73712 13.5112C5.75135 13.5265 5.77258 13.5322 5.80046 13.5288C5.82133 13.5258 5.8382 13.5177 5.85024 13.5036C5.86277 13.4902 5.86673 13.4696 5.86312 13.4429L5.78939 13.4528L5.78609 13.4275L5.88874 13.4137L5.90649 13.5353L5.88613 13.538L5.87401 13.5098C5.86525 13.5223 5.85655 13.5319 5.84894 13.5373C5.83613 13.547 5.81896 13.553 5.79758 13.5557C5.76986 13.5595 5.7447 13.554 5.72211 13.539C5.69737 13.5199 5.68167 13.492 5.67623 13.4535C5.67026 13.4157 5.67682 13.3835 5.69469 13.3584C5.71169 13.3342 5.736 13.3203 5.7685 13.3163" fill="#012A87"/>
<path d="M6.00039 13.3031L6.07424 13.2779C6.08437 13.2743 6.09309 13.2733 6.10058 13.2743C6.11404 13.2755 6.12379 13.2837 6.12913 13.2998C6.13417 13.3136 6.13395 13.3255 6.12783 13.3338C6.12135 13.3424 6.11134 13.3485 6.09692 13.3535L6.02754 13.377L6.00039 13.3031M6.07029 13.494L6.03614 13.4014L6.10483 13.3781C6.1177 13.3742 6.12661 13.3721 6.13325 13.373C6.14534 13.3747 6.15442 13.3822 6.1603 13.3963L6.17519 13.4316C6.17844 13.4403 6.18107 13.4457 6.18325 13.4481C6.18421 13.4512 6.1864 13.4531 6.18807 13.4552L6.22534 13.4422L6.22338 13.4372C6.21792 13.4371 6.21269 13.434 6.20887 13.4279C6.20605 13.4236 6.20343 13.4174 6.19964 13.4102L6.18805 13.3813C6.18282 13.3687 6.17733 13.361 6.17093 13.3562C6.16451 13.3525 6.15637 13.35 6.14666 13.3492C6.15432 13.3406 6.15994 13.332 6.16217 13.3218C6.16458 13.3114 6.16377 13.2998 6.15906 13.2868C6.15012 13.2622 6.13313 13.2486 6.10894 13.2464C6.09616 13.2452 6.08144 13.2476 6.06445 13.2533L5.96073 13.2881L6.04005 13.5052L6.07045 13.4947" fill="#012A87"/>
<path d="M6.34066 13.3853L6.21329 13.1921L6.35861 13.1031L6.37405 13.1264L6.25497 13.1995L6.29416 13.2585L6.40411 13.1906L6.41855 13.2132L6.3086 13.2812L6.35178 13.3463L6.47294 13.2719L6.48839 13.2947L6.34049 13.3853" fill="#012A87"/>
<path d="M6.46133 13.05L6.49962 13.0094C6.51735 12.9913 6.53593 12.9833 6.55602 12.986C6.57612 12.9881 6.5964 12.999 6.61788 13.0185C6.62377 13.0233 6.62895 13.0293 6.63429 13.0361C6.64361 13.0487 6.64904 13.0597 6.65243 13.0707C6.65525 13.0844 6.65434 13.0969 6.64935 13.1087C6.64634 13.1146 6.64109 13.1215 6.63326 13.1297L6.59481 13.17L6.46134 13.0497M6.65793 13.1432C6.68508 13.1143 6.69146 13.0829 6.67658 13.0469C6.66789 13.0275 6.65442 13.0085 6.63561 12.9917C6.61195 12.97 6.58707 12.9586 6.56066 12.9561C6.53136 12.9533 6.50626 12.9635 6.48416 12.9868L6.41893 13.0542L6.59252 13.2112L6.65775 13.1435" fill="#012A87"/>
<path d="M6.79777 12.9677L6.59693 12.8447L6.61396 12.8188L6.81515 12.941L6.79793 12.968" fill="#012A87"/>
<path d="M6.87996 12.8308L6.66235 12.7392L6.72982 12.5861L6.75624 12.5969L6.70121 12.723L6.76676 12.7501L6.8182 12.634L6.84326 12.6449L6.79233 12.7608L6.86565 12.7922L6.92208 12.6646L6.94851 12.6751L6.87979 12.8308" fill="#012A87"/>
<path d="M6.98552 12.5634L6.7558 12.5082L6.76413 12.4727L6.97852 12.4046L6.79213 12.3599L6.79946 12.332L7.02921 12.3859L7.02124 12.4204L6.80648 12.49L6.99289 12.5338L6.98569 12.5634" fill="#012A87"/>
<path d="M6.97269 12.2702L6.97612 12.2413C6.98942 12.2419 7.00072 12.24 7.00934 12.2356C7.02622 12.2269 7.03626 12.2098 7.03928 12.1844C7.04052 12.1725 7.0402 12.1621 7.03765 12.1522C7.03305 12.133 7.0225 12.1222 7.0053 12.1202C6.99253 12.1186 6.98326 12.1215 6.97648 12.1284C6.97036 12.1363 6.96384 12.1477 6.95876 12.164L6.94764 12.194C6.94045 12.2137 6.93389 12.2272 6.92692 12.2348C6.91574 12.2489 6.9003 12.2536 6.88071 12.2519C6.85976 12.2493 6.84286 12.2406 6.83104 12.2243C6.81885 12.2094 6.81412 12.1884 6.81766 12.1625C6.82014 12.1388 6.82835 12.119 6.84263 12.1032C6.85587 12.0888 6.87613 12.0822 6.90184 12.0854L6.89892 12.1143C6.8863 12.1141 6.87619 12.1161 6.86876 12.1211C6.85532 12.1282 6.8477 12.1436 6.84507 12.1662C6.84285 12.185 6.84518 12.1976 6.85217 12.2073C6.85919 12.2155 6.86813 12.2207 6.8787 12.2218C6.88994 12.223 6.89887 12.2196 6.90517 12.211C6.90972 12.2051 6.91524 12.1922 6.92279 12.1714L6.93378 12.1399C6.93916 12.1253 6.94551 12.1141 6.95282 12.1063C6.96586 12.0932 6.98268 12.0879 7.00364 12.0898C7.02918 12.093 7.04724 12.1039 7.05627 12.1235C7.06512 12.1433 7.06831 12.165 7.06564 12.1895C7.06223 12.2173 7.05279 12.239 7.03581 12.2533C7.01881 12.268 6.99791 12.2728 6.9727 12.2702" fill="#012A87"/>
</g>
</svg>
