<svg width="24" height="24" viewBox="0 0 24 24" fill="none" xmlns="http://www.w3.org/2000/svg">
<mask id="mask0_3349_51301" style="mask-type:alpha" maskUnits="userSpaceOnUse" x="0" y="3" width="24" height="18">
<path d="M21.7143 3H2.28571C1.02335 3 0 4.02335 0 5.28571V17.8571C0 19.1195 1.02335 20.1429 2.28571 20.1429H21.7143C22.9767 20.1429 24 19.1195 24 17.8571V5.28571C24 4.02335 22.9767 3 21.7143 3Z" fill="white"/>
</mask>
<g mask="url(#mask0_3349_51301)">
<path d="M21.7143 3H2.28571C1.02335 3 0 4.02335 0 5.28571V17.8571C0 19.1195 1.02335 20.1429 2.28571 20.1429H21.7143C22.9767 20.1429 24 19.1195 24 17.8571V5.28571C24 4.02335 22.9767 3 21.7143 3Z" fill="#FFD300"/>
<path fill-rule="evenodd" clip-rule="evenodd" d="M0 3H8V20.1429H0V3Z" fill="#0042B1"/>
<path fill-rule="evenodd" clip-rule="evenodd" d="M9.14286 8.71428H14.8571V14.4286H9.14286V8.71428ZM9.14286 14.4286L12 16.7143L14.8571 14.4286H9.14286ZM11.4286 7.57143H12.5714V8.71428H11.4286V7.57143Z" fill="#B17F51"/>
<path fill-rule="evenodd" clip-rule="evenodd" d="M10.2857 9.85714H13.7143V12.1429H10.2857V9.85714Z" fill="#D30021"/>
<path fill-rule="evenodd" clip-rule="evenodd" d="M10.2857 12.1429H13.7143V13.8571H10.2857V12.1429ZM10.2857 13.8571L12 15L13.7143 13.8571H10.2857Z" fill="#0140BE"/>
<path fill-rule="evenodd" clip-rule="evenodd" d="M12 11C12.3154 11 12.5714 11.2446 12.5714 11.5771V12.7086C12.5714 13.0286 12.3063 13.2857 12 13.2857C11.6846 13.2857 11.4286 13.0411 11.4286 12.7086V11.5771C11.4286 11.2571 11.6937 11 12 11Z" fill="#FFD300"/>
<path fill-rule="evenodd" clip-rule="evenodd" d="M16 3H24V20.1429H16V3Z" fill="#CE0029"/>
<path d="M21.7143 3.57143H2.28571C1.33894 3.57143 0.571428 4.33894 0.571428 5.28571V17.8571C0.571428 18.8039 1.33894 19.5714 2.28571 19.5714H21.7143C22.6611 19.5714 23.4286 18.8039 23.4286 17.8571V5.28571C23.4286 4.33894 22.6611 3.57143 21.7143 3.57143Z" stroke="black" stroke-opacity="0.1"/>
</g>
</svg>
