<svg width="24" height="24" viewBox="0 0 24 24" fill="none" xmlns="http://www.w3.org/2000/svg">
<mask id="mask0_3349_51393" style="mask-type:alpha" maskUnits="userSpaceOnUse" x="0" y="3" width="24" height="18">
<path d="M21.7143 3H2.28571C1.02335 3 0 4.02335 0 5.28571V17.8571C0 19.1195 1.02335 20.1429 2.28571 20.1429H21.7143C22.9767 20.1429 24 19.1195 24 17.8571V5.28571C24 4.02335 22.9767 3 21.7143 3Z" fill="white"/>
</mask>
<g mask="url(#mask0_3349_51393)">
<path d="M21.7143 3H2.28571C1.02335 3 0 4.02335 0 5.28571V17.8571C0 19.1195 1.02335 20.1429 2.28571 20.1429H21.7143C22.9767 20.1429 24 19.1195 24 17.8571V5.28571C24 4.02335 22.9767 3 21.7143 3Z" fill="#D4062E"/>
<path fill-rule="evenodd" clip-rule="evenodd" d="M4.57143 7.57143H19.4286V15.5714H4.57143V7.57143Z" fill="#007F37"/>
<path fill-rule="evenodd" clip-rule="evenodd" d="M12.7143 14.3371C12.4857 14.3977 12.2457 14.4286 12 14.4286C10.4229 14.4286 9.14286 13.1486 9.14286 11.5714C9.14286 9.99428 10.4229 8.71428 12 8.71428C12.2469 8.71428 12.4857 8.74514 12.7143 8.80571C11.9749 9.11999 11.4286 10.2389 11.4286 11.5714C11.4286 12.904 11.9749 14.0217 12.7143 14.3371Z" fill="white"/>
<path d="M21.7143 3.57143H2.28571C1.33894 3.57143 0.571428 4.33894 0.571428 5.28571V17.8571C0.571428 18.8039 1.33894 19.5714 2.28571 19.5714H21.7143C22.6611 19.5714 23.4286 18.8039 23.4286 17.8571V5.28571C23.4286 4.33894 22.6611 3.57143 21.7143 3.57143Z" stroke="black" stroke-opacity="0.1"/>
</g>
</svg>
