<svg width="24" height="24" viewBox="0 0 24 24" fill="none" xmlns="http://www.w3.org/2000/svg">
<mask id="mask0_3349_51336" style="mask-type:alpha" maskUnits="userSpaceOnUse" x="0" y="3" width="24" height="18">
<path d="M21.7143 3H2.28571C1.02335 3 0 4.02335 0 5.28571V17.8571C0 19.1195 1.02335 20.1429 2.28571 20.1429H21.7143C22.9767 20.1429 24 19.1195 24 17.8571V5.28571C24 4.02335 22.9767 3 21.7143 3Z" fill="white"/>
</mask>
<g mask="url(#mask0_3349_51336)">
<path d="M21.7143 3H2.28571C1.02335 3 0 4.02335 0 5.28571V17.8571C0 19.1195 1.02335 20.1429 2.28571 20.1429H21.7143C22.9767 20.1429 24 19.1195 24 17.8571V5.28571C24 4.02335 22.9767 3 21.7143 3Z" fill="#D40000"/>
<path fill-rule="evenodd" clip-rule="evenodd" d="M0 3L11.4286 11H12.5714L4.57143 3H0ZM0 20.1429L11.4286 12.1429H12.5714L4.57143 20.1429H0Z" fill="#FFE800"/>
<path fill-rule="evenodd" clip-rule="evenodd" d="M12.5714 11H11.4286L19.4286 3H24L12.5714 11ZM12.5714 12.1429H11.4286L19.4286 20.1429H24L12.5714 12.1429ZM9.14286 11L0 9.85714V13.2857L9.14286 12.1429V11ZM14.8571 11L24 9.85714V13.2857L14.8571 12.1429V11ZM11.4286 8.71429L10.2857 3H13.7143L12.5714 8.71429H11.4286ZM11.4286 14.4286L10.2857 20.1429H13.7143L12.5714 14.4286" fill="#FFE800"/>
<path d="M12 14.4286C13.578 14.4286 14.8571 13.1494 14.8571 11.5714C14.8571 9.99347 13.578 8.71429 12 8.71429C10.422 8.71429 9.14285 9.99347 9.14285 11.5714C9.14285 13.1494 10.422 14.4286 12 14.4286Z" fill="#D40000"/>
<path d="M12 13.2857C12.9468 13.2857 13.7143 12.5182 13.7143 11.5714C13.7143 10.6247 12.9468 9.85714 12 9.85714C11.0532 9.85714 10.2857 10.6247 10.2857 11.5714C10.2857 12.5182 11.0532 13.2857 12 13.2857Z" fill="#FFE800"/>
<path d="M21.7143 3.57143H2.28571C1.33894 3.57143 0.571426 4.33894 0.571426 5.28571V17.8571C0.571426 18.8039 1.33894 19.5714 2.28571 19.5714H21.7143C22.6611 19.5714 23.4286 18.8039 23.4286 17.8571V5.28571C23.4286 4.33894 22.6611 3.57143 21.7143 3.57143Z" stroke="black" stroke-opacity="0.1"/>
</g>
</svg>
