<svg width="24" height="24" viewBox="0 0 24 24" fill="none" xmlns="http://www.w3.org/2000/svg">
<path d="M21.7143 3H2.28571C1.02335 3 0 4.02335 0 5.28571V17.8571C0 19.1195 1.02335 20.1429 2.28571 20.1429H21.7143C22.9767 20.1429 24 19.1195 24 17.8571V5.28571C24 4.02335 22.9767 3 21.7143 3Z" fill="#D4AF2C"/>
<mask id="mask0_3349_51312" style="mask-type:alpha" maskUnits="userSpaceOnUse" x="1" y="4" width="22" height="15">
<path d="M21.7143 4.14286H2.28571C1.65453 4.14286 1.14286 4.65453 1.14286 5.28572V17.8571C1.14286 18.4883 1.65453 19 2.28571 19H21.7143C22.3455 19 22.8571 18.4883 22.8571 17.8571V5.28572C22.8571 4.65453 22.3455 4.14286 21.7143 4.14286Z" fill="white"/>
</mask>
<g mask="url(#mask0_3349_51312)">
<path d="M21.7143 4.14286H2.28571C1.65453 4.14286 1.14286 4.65453 1.14286 5.28572V17.8571C1.14286 18.4883 1.65453 19 2.28571 19H21.7143C22.3455 19 22.8571 18.4883 22.8571 17.8571V5.28572C22.8571 4.65453 22.3455 4.14286 21.7143 4.14286Z" fill="#C60000"/>
<path fill-rule="evenodd" clip-rule="evenodd" d="M12 8.46057L10.6663 7.57143L9.77829 8.46057H10.6663L9.77829 9.34971L8 8.46057V12.9063L10.6663 12.0149L9.77829 13.7931H8.88914L9.77829 14.6823L10.6663 13.7931L12 15.5714V8.46057ZM13.3337 7.57143L14.2217 8.46057H13.3337L14.2217 9.34971L16 8.46057V12.9063L13.3337 12.0149L14.2217 13.7931H15.1109L14.2217 14.6823L13.3337 13.7931L12 15.5714V8.46057L13.3337 7.57143Z" fill="#D5B02B"/>
<path fill-rule="evenodd" clip-rule="evenodd" d="M10.2857 10.4343C10.2857 9.48572 11.0469 8.71429 12 8.71429C12.9463 8.71429 13.7143 9.48343 13.7143 10.4343V10.0423C13.7143 10.9909 13.1337 12.2777 12.4343 12.9017L12 13.2857L11.5657 12.9017C10.8606 12.2731 10.2857 10.9931 10.2857 10.0423V10.4343Z" fill="#185D93"/>
<path fill-rule="evenodd" clip-rule="evenodd" d="M10.2857 9.85714H13.7143V11H10.2857V9.85714Z" fill="#C58724"/>
<path d="M21.7143 3.57143H2.28571C1.33894 3.57143 0.571428 4.33894 0.571428 5.28571V17.8571C0.571428 18.8039 1.33894 19.5714 2.28571 19.5714H21.7143C22.6611 19.5714 23.4286 18.8039 23.4286 17.8571V5.28571C23.4286 4.33894 22.6611 3.57143 21.7143 3.57143Z" stroke="black" stroke-opacity="0.1"/>
</g>
</svg>
