<svg width="24" height="24" viewBox="0 0 24 24" fill="none" xmlns="http://www.w3.org/2000/svg">
<mask id="mask0_3349_51360" style="mask-type:alpha" maskUnits="userSpaceOnUse" x="0" y="3" width="24" height="18">
<path d="M21.7143 3H2.28571C1.02335 3 0 4.02335 0 5.28571V17.8571C0 19.1195 1.02335 20.1429 2.28571 20.1429H21.7143C22.9767 20.1429 24 19.1195 24 17.8571V5.28571C24 4.02335 22.9767 3 21.7143 3Z" fill="white"/>
</mask>
<g mask="url(#mask0_3349_51360)">
<path d="M21.7143 3H2.28571C1.02335 3 0 4.02335 0 5.28571V17.8571C0 19.1195 1.02335 20.1429 2.28571 20.1429H21.7143C22.9767 20.1429 24 19.1195 24 17.8571V5.28571C24 4.02335 22.9767 3 21.7143 3Z" fill="#004F99"/>
<path fill-rule="evenodd" clip-rule="evenodd" d="M0 3H8V20.1429H0V3Z" fill="#C62429"/>
<path fill-rule="evenodd" clip-rule="evenodd" d="M2.28572 11H3.42858V15.5714H2.28572V11ZM5.71429 11H6.85715V15.5714H5.71429V11Z" fill="#FAD000"/>
<path d="M4.57143 15.5714C5.20261 15.5714 5.71429 15.0598 5.71429 14.4286C5.71429 13.7974 5.20261 13.2857 4.57143 13.2857C3.94025 13.2857 3.42857 13.7974 3.42857 14.4286C3.42857 15.0598 3.94025 15.5714 4.57143 15.5714Z" fill="#FAD000"/>
<path d="M4.57143 12.1429C5.20261 12.1429 5.71429 11.6312 5.71429 11C5.71429 10.3688 5.20261 9.85715 4.57143 9.85715C3.94025 9.85715 3.42857 10.3688 3.42857 11C3.42857 11.6312 3.94025 12.1429 4.57143 12.1429Z" fill="#FAD000"/>
<path fill-rule="evenodd" clip-rule="evenodd" d="M4.57143 6.42857L5.71429 8.71429H3.42857L4.57143 6.42857Z" fill="#FAD000"/>
<path fill-rule="evenodd" clip-rule="evenodd" d="M16 3H24V20.1429H16V3Z" fill="#C62429"/>
<path d="M21.7143 3.57143H2.28571C1.33894 3.57143 0.571426 4.33894 0.571426 5.28571V17.8571C0.571426 18.8039 1.33894 19.5714 2.28571 19.5714H21.7143C22.6611 19.5714 23.4286 18.8039 23.4286 17.8571V5.28571C23.4286 4.33894 22.6611 3.57143 21.7143 3.57143Z" stroke="black" stroke-opacity="0.1"/>
</g>
</svg>
