<svg width="24" height="24" viewBox="0 0 24 24" fill="none" xmlns="http://www.w3.org/2000/svg">
<mask id="mask0_3563_3383" style="mask-type:alpha" maskUnits="userSpaceOnUse" x="0" y="3" width="24" height="18">
<path d="M21.7143 3H2.28571C1.02335 3 0 4.02335 0 5.28571V17.8571C0 19.1195 1.02335 20.1429 2.28571 20.1429H21.7143C22.9767 20.1429 24 19.1195 24 17.8571V5.28571C24 4.02335 22.9767 3 21.7143 3Z" fill="white"/>
</mask>
<g mask="url(#mask0_3563_3383)">
<path d="M21.7143 3H2.28571C1.02335 3 0 4.02335 0 5.28571V17.8571C0 19.1195 1.02335 20.1429 2.28571 20.1429H21.7143C22.9767 20.1429 24 19.1195 24 17.8571V5.28571C24 4.02335 22.9767 3 21.7143 3Z" fill="#0033A1"/>
<path d="M21.7143 3.57141H2.2857C1.33892 3.57141 0.571411 4.33892 0.571411 5.2857V17.8571C0.571411 18.8039 1.33892 19.5714 2.2857 19.5714H21.7143C22.661 19.5714 23.4286 18.8039 23.4286 17.8571V5.2857C23.4286 4.33892 22.661 3.57141 21.7143 3.57141Z" stroke="black" stroke-opacity="0.1"/>
<path fill-rule="evenodd" clip-rule="evenodd" d="M8.57143 7.57143H10.1429V9.14286H8.57143V7.57143ZM11.7143 6H13.2857V7.57143H11.7143V6ZM14.8571 7.57143H16.4286V9.14286H14.8571V7.57143ZM16.4286 10.7143H18V12.2857H16.4286V10.7143ZM7 10.7143H8.57143V12.2857H7V10.7143ZM14.8571 13.8571H16.4286V15.4286H14.8571V13.8571ZM11.7143 15.4286H13.2857V17H11.7143V15.4286ZM8.57143 13.8571H10.1429V15.4286H8.57143V13.8571Z" fill="#B1B4B3"/>
<path fill-rule="evenodd" clip-rule="evenodd" d="M10.5171 6.30999L11.9517 6.95142L11.3103 8.38598L9.8757 7.74455L10.5171 6.30999ZM14.0277 6.15829L15.4622 6.79972L14.8208 8.23428L13.3862 7.59285L14.0277 6.15829ZM16.2554 8.8757L17.6899 9.51713L17.0485 10.9517L15.6139 10.3103L16.2554 8.8757ZM16.4071 12.3862L17.8416 13.0277L17.2002 14.4622L15.7656 13.8208L16.4071 12.3862ZM7.79972 8.53769L9.23428 9.17911L8.59285 10.6137L7.15829 9.97224L7.79972 8.53769ZM13.6897 14.6139L15.1242 15.2554L14.4828 16.6899L13.0482 16.0485L13.6897 14.6139ZM10.1791 14.7656L11.6137 15.4071L10.9722 16.8416L9.53769 16.2002L10.1791 14.7656ZM7.95142 12.0482L9.38598 12.6897L8.74455 14.1242L7.30999 13.4828L7.95142 12.0482Z" fill="white"/>
<path fill-rule="evenodd" clip-rule="evenodd" d="M12.8162 5.95323L13.8623 7.12583L12.6897 8.17197L11.6436 6.99937L12.8162 5.95323ZM16.081 7.25229L17.1272 8.42489L15.9546 9.47103L14.9084 8.29843L16.081 7.25229ZM17.0007 10.6436L18.0468 11.8162L16.8743 12.8624L15.8281 11.6898L17.0007 10.6436ZM15.7017 13.9085L16.7478 15.0811L15.5752 16.1272L14.5291 14.9546L15.7017 13.9085ZM9.42483 6.87291L10.471 8.0455L9.29837 9.09164L8.25224 7.91904L9.42483 6.87291ZM12.3103 14.8282L13.3565 16.0008L12.1839 17.0469L11.1377 15.8743L12.3103 14.8282ZM9.04545 13.5291L10.0916 14.7017L8.91899 15.7478L7.87285 14.5752L9.04545 13.5291ZM8.12577 10.1378L9.17191 11.3104L7.99931 12.3565L6.95318 11.1839L8.12577 10.1378Z" fill="white"/>
<path fill-rule="evenodd" clip-rule="evenodd" d="M13.9345 6.1327L14.7211 7.49309L13.3607 8.27969L12.5741 6.9193L13.9345 6.1327ZM16.868 8.06687L17.6546 9.42726L16.2943 10.2139L15.5077 8.85347L16.868 8.06687ZM17.0809 11.5742L17.8675 12.9346L16.5071 13.7212L15.7205 12.3608L17.0809 11.5742ZM15.1467 14.5078L15.9333 15.8682L14.5729 16.6548L13.7863 15.2944L15.1467 14.5078ZM10.4271 6.34552L11.2137 7.70591L9.8533 8.49251L9.0667 7.13212L10.4271 6.34552ZM11.6393 14.7206L12.4259 16.081L11.0655 16.8676L10.2789 15.5072L11.6393 14.7206ZM8.70573 12.7865L9.49233 14.1469L8.13195 14.9335L7.34535 13.5731L8.70573 12.7865ZM8.49292 9.27911L9.27952 10.6395L7.91913 11.4261L7.13253 10.0657L8.49292 9.27911Z" fill="#E1261C"/>
<path d="M14 9H10L11.1429 10.981L10.3265 17H13.7551L12.9388 10.981L14 9Z" fill="#B1B4B3" stroke="#B1B4B3"/>
<path d="M13 9H11L11.5714 10.981L11.1633 17H12.8776L12.4694 10.981L13 9Z" fill="white"/>
<path d="M13.3262 10.7238L13.2893 10.7238L13.2784 10.6886L12.5 8.16937L11.7216 10.6886L11.7107 10.7238L11.6738 10.7238L9.14783 10.7237L11.1936 12.2864L11.2213 12.3076L11.211 12.3409L10.4308 14.8653L12.4696 13.3076L12.5 13.2844L12.5303 13.3076L14.5692 14.8653L13.7891 12.3409L13.7788 12.3076L13.8065 12.2864L15.8522 10.7237L13.3262 10.7238Z" fill="white" stroke="black" stroke-width="0.1"/>
</g>
</svg>
