<svg width="24" height="24" viewBox="0 0 24 24" fill="none" xmlns="http://www.w3.org/2000/svg">
<mask id="mask0_3349_51371" style="mask-type:alpha" maskUnits="userSpaceOnUse" x="0" y="3" width="24" height="18">
<path d="M21.7143 3H2.28571C1.02335 3 0 4.02335 0 5.28571V17.8571C0 19.1195 1.02335 20.1429 2.28571 20.1429H21.7143C22.9767 20.1429 24 19.1195 24 17.8571V5.28571C24 4.02335 22.9767 3 21.7143 3Z" fill="white"/>
</mask>
<g mask="url(#mask0_3349_51371)">
<path d="M21.7143 3H2.28571C1.02335 3 0 4.02335 0 5.28571V17.8571C0 19.1195 1.02335 20.1429 2.28571 20.1429H21.7143C22.9767 20.1429 24 19.1195 24 17.8571V5.28571C24 4.02335 22.9767 3 21.7143 3Z" fill="#006331"/>
<path fill-rule="evenodd" clip-rule="evenodd" d="M11.9977 11.2857L10.3177 12.1691L10.6377 10.2983L9.28 8.97257L11.1577 8.70171L11.9977 6.99886L12.8366 8.70171L14.7143 8.97257L13.3543 10.2983L13.6766 12.168" fill="#FFC500"/>
<path fill-rule="evenodd" clip-rule="evenodd" d="M17.1029 9.78628C17.1291 9.99657 17.1429 10.2114 17.1429 10.4286C17.1429 13.2686 14.84 15.5714 12 15.5714C9.16 15.5714 6.85714 13.2686 6.85714 10.4286C6.85714 10.2114 6.87085 9.99657 6.89714 9.78514C7.21371 11.76 9.37714 13.2857 12 13.2857C14.6229 13.2857 16.7863 11.7589 17.1029 9.78514V9.78628Z" fill="#FFC500"/>
<path d="M21.7143 3.57143H2.28571C1.33894 3.57143 0.571426 4.33894 0.571426 5.28571V17.8571C0.571426 18.8039 1.33894 19.5714 2.28571 19.5714H21.7143C22.6611 19.5714 23.4286 18.8039 23.4286 17.8571V5.28571C23.4286 4.33894 22.6611 3.57143 21.7143 3.57143Z" stroke="black" stroke-opacity="0.1"/>
</g>
</svg>
