<svg width="24" height="24" viewBox="0 0 24 24" fill="none" xmlns="http://www.w3.org/2000/svg">
<mask id="mask0_3562_3336" style="mask-type:alpha" maskUnits="userSpaceOnUse" x="0" y="3" width="24" height="18">
<path d="M21.7143 3H2.28571C1.02335 3 0 4.02335 0 5.28571V17.8571C0 19.1195 1.02335 20.1429 2.28571 20.1429H21.7143C22.9767 20.1429 24 19.1195 24 17.8571V5.28571C24 4.02335 22.9767 3 21.7143 3Z" fill="white"/>
</mask>
<g mask="url(#mask0_3562_3336)">
<path d="M21.7143 3H2.28571C1.02335 3 0 4.02335 0 5.28571V17.8571C0 19.1195 1.02335 20.1429 2.28571 20.1429H21.7143C22.9767 20.1429 24 19.1195 24 17.8571V5.28571C24 4.02335 22.9767 3 21.7143 3Z" fill="#002868"/>
<path d="M10.2857 4.14282H2.28568C1.6545 4.14282 1.14282 4.6545 1.14282 5.28568V11C1.14282 11.6311 1.6545 12.1428 2.28568 12.1428H10.2857C10.9169 12.1428 11.4285 11.6311 11.4285 11V5.28568C11.4285 4.6545 10.9169 4.14282 10.2857 4.14282Z" fill="white"/>
<path fill-rule="evenodd" clip-rule="evenodd" d="M5.71434 8.71434H2.28577V7.57148H5.71434V5.28577H6.8572V7.57148H10.2858V8.71434H6.8572V11.0001H5.71434V8.71434ZM8.57148 9.85719V11.0001H10.2858V9.85719H8.57148ZM8.57148 5.28577V6.42862H10.2858V5.28577H8.57148ZM2.28577 9.85719V11.0001H4.00005V9.85719H2.28577ZM2.28577 5.28577V6.42862H4.00005V5.28577H2.28577Z" fill="#FF0000"/>
<path d="M21.7143 3.57141H2.2857C1.33892 3.57141 0.571411 4.33892 0.571411 5.2857V17.8571C0.571411 18.8039 1.33892 19.5714 2.2857 19.5714H21.7143C22.661 19.5714 23.4286 18.8039 23.4286 17.8571V5.2857C23.4286 4.33892 22.661 3.57141 21.7143 3.57141Z" stroke="black" stroke-opacity="0.1"/>
<path d="M17.5189 15.937L17.5 15.9454L17.4811 15.937C17.4557 15.9256 17.4183 15.9087 17.3707 15.8866C17.2754 15.8423 17.1392 15.7773 16.9757 15.6944C16.6487 15.5284 16.2129 15.2909 15.7775 15.0045C15.3417 14.7179 14.9081 14.3835 14.584 14.0242C14.2591 13.664 14.05 13.2852 14.05 12.9089V8.05H20.95V12.9089C20.95 13.2852 20.7409 13.664 20.416 14.0242C20.0919 14.3835 19.6583 14.7179 19.2225 15.0045C18.7871 15.2909 18.3513 15.5284 18.0243 15.6944C17.8608 15.7773 17.7246 15.8423 17.6293 15.8866C17.5817 15.9087 17.5443 15.9256 17.5189 15.937Z" fill="#00A2BD" stroke="white" stroke-width="0.1"/>
<mask id="mask1_3562_3336" style="mask-type:alpha" maskUnits="userSpaceOnUse" x="14" y="8" width="7" height="8">
<path d="M17.5047 15.8372L17.4863 15.8454L17.4679 15.8372C17.4428 15.826 17.4059 15.8093 17.3588 15.7874C17.2648 15.7437 17.1303 15.6795 16.9689 15.5976C16.6459 15.4338 16.2156 15.1993 15.7856 14.9165C15.3553 14.6334 14.9272 14.3033 14.6072 13.9485C14.2864 13.5928 14.08 13.2189 14.08 12.8475V8.05H20.8925V12.8475C20.8925 13.2189 20.6862 13.5928 20.3654 13.9485C20.0454 14.3033 19.6173 14.6334 19.1869 14.9165C18.7569 15.1993 18.3267 15.4338 18.0037 15.5976C17.8423 15.6795 17.7078 15.7437 17.6137 15.7874C17.5667 15.8093 17.5298 15.826 17.5047 15.8372Z" fill="#00A2BD" stroke="white" stroke-width="0.1"/>
</mask>
<g mask="url(#mask1_3562_3336)">
<rect x="14" y="13" width="8" height="4" fill="#A53D08"/>
</g>
<path d="M18 10.5L17 11.5L17.0893 11.7678" stroke="#FFC6B5" stroke-width="0.357143"/>
<path d="M17.7143 14V10.5179L18 10L18.0714 9.17857L18.6964 9L18.5179 9.625L18.7857 10.0714L18.5179 10.9643L19.2322 13.8214L17.7143 14Z" fill="#008021"/>
<path d="M18.5179 9.80357L17.9822 9.17857L18.6965 9L18.9643 9.44643L18.5179 9.80357Z" fill="#9C5100" stroke="#9C5100" stroke-width="0.178571"/>
<path d="M18.6964 9.89282L18.5178 9.44639L18.3393 9.26782L17.8928 9.62497L18.25 10.1607L18.6964 9.89282Z" fill="#FFC6B5"/>
<path d="M18.7857 10.25L18.9643 11.3214L18.5178 11.8571V12.125" stroke="#FFC6B5" stroke-width="0.357143"/>
<path d="M16.8473 9.36597L16.8412 9L17.1499 9.00284L17.1529 9.36597H17.997L18 9.64966L17.1529 9.6525L17.1461 12.9982L16.8451 13L16.8412 9.64967L16 9.65251L16.0002 9.36314L16.8473 9.36597Z" fill="black"/>
<path fill-rule="evenodd" clip-rule="evenodd" d="M16.4501 12.3949L17.5723 13.5591C17.9603 13.1326 17.6911 11.5384 17.1807 11.2447C17.1196 11.4335 17.0155 11.6598 16.905 11.7328C16.6617 11.8986 16.0655 12.0925 16.2648 12.2166C16.3102 12.1537 16.4291 12.0942 16.485 12.2341C16.5514 12.4543 16.2368 12.4683 16.2368 12.4683C16.2368 12.4683 16.0375 12.4438 16.0026 12.2411C15.9676 12.0383 16.2994 11.8532 16.3277 11.839C16.3557 11.8285 16.7892 11.7132 16.8626 11.3286C16.9535 10.951 17.0479 11.007 17.0654 11C17.6317 11.0559 18.0023 12.0698 18.0233 12.7829C18.0442 13.4961 17.7331 13.9681 17.6771 13.9995C17.6212 14.031 16.3277 12.4648 16.3277 12.4648L16.4501 12.3949L16.4501 12.3949Z" fill="#FF9A08"/>
</g>
</svg>
