<svg width="24" height="24" viewBox="0 0 24 24" fill="none" xmlns="http://www.w3.org/2000/svg">
<mask id="mask0_3349_51417" style="mask-type:alpha" maskUnits="userSpaceOnUse" x="0" y="3" width="24" height="18">
<path d="M21.7143 3H2.28571C1.02335 3 0 4.02335 0 5.28571V17.8571C0 19.1195 1.02335 20.1429 2.28571 20.1429H21.7143C22.9767 20.1429 24 19.1195 24 17.8571V5.28571C24 4.02335 22.9767 3 21.7143 3Z" fill="white"/>
</mask>
<g mask="url(#mask0_3349_51417)">
<path d="M21.7143 3H2.28571C1.02335 3 0 4.02335 0 5.28571V17.8571C0 19.1195 1.02335 20.1429 2.28571 20.1429H21.7143C22.9767 20.1429 24 19.1195 24 17.8571V5.28571C24 4.02335 22.9767 3 21.7143 3Z" fill="white"/>
<path fill-rule="evenodd" clip-rule="evenodd" d="M8 3H24V4.14286H8V3ZM8 5.28571H24V6.42857H8V5.28571ZM8 7.57143H24V8.71429H8V7.57143ZM8 9.85714H24V11H8V9.85714ZM0 12.1429H24V13.2857H0V12.1429ZM0 14.4286H24V15.5714H0V14.4286ZM0 16.7143H24V17.8571H0V16.7143Z" fill="#CE0000"/>
<path fill-rule="evenodd" clip-rule="evenodd" d="M0 3H12.5714V13.2857H0V3Z" fill="#000068"/>
<path fill-rule="evenodd" clip-rule="evenodd" d="M8 7.57143H9.14286V8.71428H8V7.57143Z" fill="#FFCD00"/>
<path fill-rule="evenodd" clip-rule="evenodd" d="M8.57143 9.85715C8.05029 10.5509 7.22057 11 6.28572 11C4.70857 11 3.42857 9.72001 3.42857 8.14286C3.42857 6.56572 4.70857 5.28572 6.28572 5.28572C7.22057 5.28572 8.05029 5.73486 8.57143 6.42858H6.85714C5.91086 6.42858 5.14286 7.19658 5.14286 8.14286C5.14286 9.08915 5.91086 9.85715 6.85714 9.85715H8.57143Z" fill="#FFCD00"/>
<path d="M21.7143 3.57143H2.28571C1.33894 3.57143 0.571426 4.33894 0.571426 5.28571V17.8571C0.571426 18.8039 1.33894 19.5714 2.28571 19.5714H21.7143C22.6611 19.5714 23.4286 18.8039 23.4286 17.8571V5.28571C23.4286 4.33894 22.6611 3.57143 21.7143 3.57143Z" stroke="black" stroke-opacity="0.1"/>
</g>
</svg>
