<svg width="24" height="24" viewBox="0 0 24 24" fill="none" xmlns="http://www.w3.org/2000/svg">
<mask id="mask0_3349_51438" style="mask-type:alpha" maskUnits="userSpaceOnUse" x="0" y="3" width="24" height="18">
<path d="M21.7143 3H2.28571C1.02335 3 0 4.02335 0 5.28571V17.8571C0 19.1195 1.02335 20.1429 2.28571 20.1429H21.7143C22.9767 20.1429 24 19.1195 24 17.8571V5.28571C24 4.02335 22.9767 3 21.7143 3Z" fill="white"/>
</mask>
<g mask="url(#mask0_3349_51438)">
<path d="M21.7143 3H2.28571C1.02335 3 0 4.02335 0 5.28571V17.8571C0 19.1195 1.02335 20.1429 2.28571 20.1429H21.7143C22.9767 20.1429 24 19.1195 24 17.8571V5.28571C24 4.02335 22.9767 3 21.7143 3Z" fill="#003282"/>
<path fill-rule="evenodd" clip-rule="evenodd" d="M0 20.1429H24V5.28572L0 17.8571V20.1429Z" fill="#00963F"/>
<path fill-rule="evenodd" clip-rule="evenodd" d="M5.14057 8.97715L3.46057 9.86058L3.78057 7.98972L2.42285 6.66401L4.30057 6.39315L5.14057 4.69029L5.97942 6.39315L7.85714 6.66401L6.49714 7.98972L6.81942 9.85943" fill="#FFE000"/>
<path fill-rule="evenodd" clip-rule="evenodd" d="M0 19L24 6.42858V1.85715L0 14.4286V19Z" fill="white"/>
<path fill-rule="evenodd" clip-rule="evenodd" d="M0 21.2857L24 8.71428V4.14285L0 16.7143V21.2857Z" fill="white"/>
<path fill-rule="evenodd" clip-rule="evenodd" d="M0 20.1429L24 7.57143V3L0 15.5714V20.1429Z" fill="#D4062E"/>
<path d="M21.7143 3.57143H2.28571C1.33894 3.57143 0.571426 4.33894 0.571426 5.28571V17.8571C0.571426 18.8039 1.33894 19.5714 2.28571 19.5714H21.7143C22.6611 19.5714 23.4286 18.8039 23.4286 17.8571V5.28571C23.4286 4.33894 22.6611 3.57143 21.7143 3.57143Z" stroke="black" stroke-opacity="0.1"/>
</g>
</svg>
