<svg width="24" height="24" viewBox="0 0 24 24" fill="none" xmlns="http://www.w3.org/2000/svg">
<mask id="mask0_3551_2986" style="mask-type:alpha" maskUnits="userSpaceOnUse" x="0" y="3" width="24" height="18">
<path d="M21.7143 3H2.28571C1.02335 3 0 4.02335 0 5.28571V17.8571C0 19.1195 1.02335 20.1429 2.28571 20.1429H21.7143C22.9767 20.1429 24 19.1195 24 17.8571V5.28571C24 4.02335 22.9767 3 21.7143 3Z" fill="white"/>
</mask>
<g mask="url(#mask0_3551_2986)">
<path d="M21.7143 3H2.28571C1.02335 3 0 4.02335 0 5.28571V17.8571C0 19.1195 1.02335 20.1429 2.28571 20.1429H21.7143C22.9767 20.1429 24 19.1195 24 17.8571V5.28571C24 4.02335 22.9767 3 21.7143 3Z" fill="#FEDD00"/>
<path d="M10.2857 4.14282H2.28568C1.6545 4.14282 1.14282 4.6545 1.14282 5.28568V11C1.14282 11.6311 1.6545 12.1428 2.28568 12.1428H10.2857C10.9169 12.1428 11.4285 11.6311 11.4285 11V5.28568C11.4285 4.6545 10.9169 4.14282 10.2857 4.14282Z" fill="white"/>
<path fill-rule="evenodd" clip-rule="evenodd" d="M5.71434 8.71434H2.28577V7.57148H5.71434V5.28577H6.8572V7.57148H10.2858V8.71434H6.8572V11.0001H5.71434V8.71434ZM8.57148 9.85719V11.0001H10.2858V9.85719H8.57148ZM8.57148 5.28577V6.42862H10.2858V5.28577H8.57148ZM2.28577 9.85719V11.0001H4.00005V9.85719H2.28577ZM2.28577 5.28577V6.42862H4.00005V5.28577H2.28577Z" fill="#FF0000"/>
<path fill-rule="evenodd" clip-rule="evenodd" d="M6.25 7C5.55964 7 5 7.55964 5 8.25C5 8.94036 5.55964 9.5 6.25 9.5C6.94036 9.5 7.5 8.94036 7.5 8.25C7.5 7.55964 6.94036 7 6.25 7Z" fill="#012169"/>
<path fill-rule="evenodd" clip-rule="evenodd" d="M6 8V8.5H6.5V8H6Z" fill="#FEDD00"/>
<path d="M21.7143 3.57141H2.2857C1.33892 3.57141 0.571411 4.33892 0.571411 5.2857V17.8571C0.571411 18.8039 1.33892 19.5714 2.2857 19.5714H21.7143C22.661 19.5714 23.4286 18.8039 23.4286 17.8571V5.2857C23.4286 4.33892 22.661 3.57141 21.7143 3.57141Z" stroke="black" stroke-opacity="0.1"/>
</g>
</svg>
