<svg width="24" height="24" viewBox="0 0 24 24" fill="none" xmlns="http://www.w3.org/2000/svg">
<mask id="mask0_3349_51483" style="mask-type:alpha" maskUnits="userSpaceOnUse" x="0" y="3" width="24" height="19">
<path d="M21.7143 3.92857H2.28571C1.02335 3.92857 0 4.95192 0 6.21429V18.7857C0 20.0481 1.02335 21.0714 2.28571 21.0714H21.7143C22.9767 21.0714 24 20.0481 24 18.7857V6.21429C24 4.95192 22.9767 3.92857 21.7143 3.92857Z" fill="white"/>
</mask>
<g mask="url(#mask0_3349_51483)">
<path fill-rule="evenodd" clip-rule="evenodd" d="M0 3.92857L14.8571 13.0714H6.85714L14.8571 21.0714H0V3.92857Z" fill="#003495"/>
<path fill-rule="evenodd" clip-rule="evenodd" d="M1.14286 6.21428L10.2857 11.9286H3.42857L11.4286 19.9286H2.28343C1.65486 19.9286 1.14286 19.4074 1.14286 18.7834V6.21428Z" fill="#DF0A37"/>
<path fill-rule="evenodd" clip-rule="evenodd" d="M5.61714 9.64285C5.68 9.732 5.71428 9.828 5.71428 9.92857C5.71428 10.4017 4.94628 10.7857 4 10.7857C3.05371 10.7857 2.28571 10.4017 2.28571 9.92857C2.28571 9.828 2.32 9.732 2.38286 9.64285C2.61828 9.80971 3.25371 9.92857 4 9.92857C4.74628 9.92857 5.38286 9.80971 5.61714 9.64285Z" fill="white"/>
<path d="M4 18.7857C4.94677 18.7857 5.71428 18.0182 5.71428 17.0714C5.71428 16.1247 4.94677 15.3571 4 15.3571C3.05323 15.3571 2.28571 16.1247 2.28571 17.0714C2.28571 18.0182 3.05323 18.7857 4 18.7857Z" fill="white"/>
<path d="M2.01371 5.41771C1.21714 4.91143 0.571426 5.27143 0.571426 6.212V18.788C0.571426 19.7331 1.33486 20.5 2.28914 20.5H13.7143L5.71428 12.5H13.1429L2.01371 5.41771Z" stroke="black" stroke-opacity="0.1" stroke-width="1.14286"/>
</g>
</svg>
