<svg width="24" height="24" viewBox="0 0 24 24" fill="none" xmlns="http://www.w3.org/2000/svg">
<mask id="mask0_3349_51499" style="mask-type:alpha" maskUnits="userSpaceOnUse" x="0" y="3" width="24" height="18">
<path d="M21.7143 3H2.28571C1.02335 3 0 4.02335 0 5.28571V17.8571C0 19.1195 1.02335 20.1429 2.28571 20.1429H21.7143C22.9767 20.1429 24 19.1195 24 17.8571V5.28571C24 4.02335 22.9767 3 21.7143 3Z" fill="white"/>
</mask>
<g mask="url(#mask0_3349_51499)">
<path d="M21.7143 3H2.28571C1.02335 3 0 4.02335 0 5.28571V17.8571C0 19.1195 1.02335 20.1429 2.28571 20.1429H21.7143C22.9767 20.1429 24 19.1195 24 17.8571V5.28571C24 4.02335 22.9767 3 21.7143 3Z" fill="#00008E"/>
<path fill-rule="evenodd" clip-rule="evenodd" d="M17.1429 7.57143V8.71428H18.2857V7.57143H17.1429ZM19.4286 9.85714V11H20.5714V9.85714H19.4286ZM14.8571 11V12.1429H16V11H14.8571ZM17.1429 15.5714V16.7143H18.2857V15.5714H17.1429Z" fill="#FF7F7F"/>
<path d="M10.2857 4.14285H2.28571C1.65453 4.14285 1.14285 4.65453 1.14285 5.28571V11C1.14285 11.6312 1.65453 12.1429 2.28571 12.1429H10.2857C10.9169 12.1429 11.4286 11.6312 11.4286 11V5.28571C11.4286 4.65453 10.9169 4.14285 10.2857 4.14285Z" fill="white"/>
<path fill-rule="evenodd" clip-rule="evenodd" d="M5.71429 8.71429H2.28572V7.57143H5.71429V5.28572H6.85715V7.57143H10.2857V8.71429H6.85715V11H5.71429V8.71429ZM8.57144 9.85715V11H10.2857V9.85715H8.57144ZM8.57144 5.28572V6.42858H10.2857V5.28572H8.57144ZM2.28572 9.85715V11H4.00001V9.85715H2.28572ZM2.28572 5.28572V6.42858H4.00001V5.28572H2.28572Z" fill="#FF0000"/>
<path d="M21.7143 3.57143H2.28571C1.33894 3.57143 0.571426 4.33894 0.571426 5.28571V17.8571C0.571426 18.8039 1.33894 19.5714 2.28571 19.5714H21.7143C22.6611 19.5714 23.4286 18.8039 23.4286 17.8571V5.28571C23.4286 4.33894 22.6611 3.57143 21.7143 3.57143Z" stroke="black" stroke-opacity="0.1"/>
</g>
</svg>
