<svg width="24" height="24" viewBox="0 0 24 24" fill="none" xmlns="http://www.w3.org/2000/svg">
<mask id="mask0_3349_51507" style="mask-type:alpha" maskUnits="userSpaceOnUse" x="0" y="3" width="24" height="18">
<path d="M21.7143 3H2.28571C1.02335 3 0 4.02335 0 5.28571V17.8571C0 19.1195 1.02335 20.1429 2.28571 20.1429H21.7143C22.9767 20.1429 24 19.1195 24 17.8571V5.28571C24 4.02335 22.9767 3 21.7143 3Z" fill="white"/>
</mask>
<g mask="url(#mask0_3349_51507)">
<path d="M21.7143 3H2.28571C1.02335 3 0 4.02335 0 5.28571V17.8571C0 19.1195 1.02335 20.1429 2.28571 20.1429H21.7143C22.9767 20.1429 24 19.1195 24 17.8571V5.28571C24 4.02335 22.9767 3 21.7143 3Z" fill="#DE0F09"/>
<path fill-rule="evenodd" clip-rule="evenodd" d="M6.85715 14.4286H24V20.1429H6.85715V14.4286Z" fill="#008100"/>
<path fill-rule="evenodd" clip-rule="evenodd" d="M6.85714 3H24V8.71429H6.85714V3ZM5.22972 7.46057C5.16686 7.55543 5.09486 7.64343 5.01257 7.72686C4.34172 8.39657 3.256 8.39657 2.58743 7.72686C1.91772 7.05829 1.91772 5.97257 2.58743 5.304C2.66972 5.21943 2.75886 5.14743 2.85372 5.08457C2.59657 5.56457 2.808 6.33257 3.39543 6.91886C3.98286 7.504 4.74972 7.71657 5.23086 7.45943L5.22972 7.46057Z" fill="white"/>
<path fill-rule="evenodd" clip-rule="evenodd" d="M2.77029 7.46056C2.83315 7.55542 2.90515 7.64342 2.98744 7.72685C3.65829 8.39656 4.74401 8.39656 5.41258 7.72685C6.08229 7.05828 6.08229 5.97256 5.41258 5.30399C5.33029 5.21942 5.24115 5.14742 5.14629 5.08456C5.40343 5.56456 5.19201 6.33256 4.60458 6.91885C4.01715 7.50399 3.25029 7.71656 2.76915 7.45942L2.77029 7.46056Z" fill="white"/>
<path d="M21.7143 3.57143H2.28571C1.33894 3.57143 0.571426 4.33894 0.571426 5.28571V17.8571C0.571426 18.8039 1.33894 19.5714 2.28571 19.5714H21.7143C22.6611 19.5714 23.4286 18.8039 23.4286 17.8571V5.28571C23.4286 4.33894 22.6611 3.57143 21.7143 3.57143Z" stroke="black" stroke-opacity="0.1"/>
</g>
</svg>
