<svg width="24" height="24" viewBox="0 0 24 24" fill="none" xmlns="http://www.w3.org/2000/svg">
<mask id="mask0_3349_51553" style="mask-type:alpha" maskUnits="userSpaceOnUse" x="0" y="3" width="24" height="18">
<path d="M21.7143 3H2.28571C1.02335 3 0 4.02335 0 5.28571V17.8571C0 19.1195 1.02335 20.1429 2.28571 20.1429H21.7143C22.9767 20.1429 24 19.1195 24 17.8571V5.28571C24 4.02335 22.9767 3 21.7143 3Z" fill="white"/>
</mask>
<g mask="url(#mask0_3349_51553)">
<path d="M21.7143 3H2.28571C1.02335 3 0 4.02335 0 5.28571V17.8571C0 19.1195 1.02335 20.1429 2.28571 20.1429H21.7143C22.9767 20.1429 24 19.1195 24 17.8571V5.28571C24 4.02335 22.9767 3 21.7143 3Z" fill="#00421A"/>
<path fill-rule="evenodd" clip-rule="evenodd" d="M18.256 9.82743C18.1806 10.5086 17.9657 11 17.7143 11C17.4629 11 17.248 10.5086 17.1726 9.82743C16.4914 9.752 16 9.53714 16 9.28571C16 9.03429 16.4914 8.81943 17.1726 8.744C17.248 8.06286 17.4629 7.57143 17.7143 7.57143C17.9657 7.57143 18.1806 8.06286 18.256 8.744C18.9371 8.81943 19.4286 9.03429 19.4286 9.28571C19.4286 9.53714 18.9371 9.752 18.256 9.82743ZM0 3H6.85714V20.1429H0V3Z" fill="white"/>
<path fill-rule="evenodd" clip-rule="evenodd" d="M20.5371 10.9634C20.56 11.1634 20.5714 11.3657 20.5714 11.5714C20.5714 14.4114 18.2686 16.7143 15.4286 16.7143C12.5886 16.7143 10.2857 14.4114 10.2857 11.5714C10.2857 8.73143 12.5886 6.42857 15.4286 6.42857C15.6343 6.42857 15.8366 6.44 16.0366 6.46286C14.08 6.72572 12.5714 8.40229 12.5714 10.4286C12.5714 12.6377 14.3623 14.4286 16.5714 14.4286C18.5989 14.4286 20.2743 12.92 20.5371 10.9634Z" fill="white"/>
<path d="M21.7143 3.57143H2.28571C1.33894 3.57143 0.571428 4.33894 0.571428 5.28571V17.8571C0.571428 18.8039 1.33894 19.5714 2.28571 19.5714H21.7143C22.6611 19.5714 23.4286 18.8039 23.4286 17.8571V5.28571C23.4286 4.33894 22.6611 3.57143 21.7143 3.57143Z" stroke="black" stroke-opacity="0.1"/>
</g>
</svg>
