<svg width="24" height="24" viewBox="0 0 24 24" fill="none" xmlns="http://www.w3.org/2000/svg">
<mask id="mask0_3349_51515" style="mask-type:alpha" maskUnits="userSpaceOnUse" x="0" y="3" width="24" height="18">
<path d="M21.7143 3H2.28571C1.02335 3 0 4.02335 0 5.28571V17.8571C0 19.1195 1.02335 20.1429 2.28571 20.1429H21.7143C22.9767 20.1429 24 19.1195 24 17.8571V5.28571C24 4.02335 22.9767 3 21.7143 3Z" fill="white"/>
</mask>
<g mask="url(#mask0_3349_51515)">
<path d="M21.7143 3H2.28571C1.02335 3 0 4.02335 0 5.28571V17.8571C0 19.1195 1.02335 20.1429 2.28571 20.1429H21.7143C22.9767 20.1429 24 19.1195 24 17.8571V5.28571C24 4.02335 22.9767 3 21.7143 3Z" fill="white"/>
<path fill-rule="evenodd" clip-rule="evenodd" d="M6.82743 8.68457C6.752 9.36572 6.53714 9.85714 6.28571 9.85714C6.03428 9.85714 5.81943 9.36572 5.744 8.68457C5.06286 8.60914 4.57143 8.39429 4.57143 8.14286C4.57143 7.89143 5.06286 7.67657 5.744 7.60115C5.81943 6.92 6.03428 6.42857 6.28571 6.42857C6.53714 6.42857 6.752 6.92 6.82743 7.60115C7.50857 7.67657 8 7.89143 8 8.14286C8 8.39429 7.50857 8.60914 6.82743 8.68457Z" fill="#005095"/>
<path fill-rule="evenodd" clip-rule="evenodd" d="M18.256 16.6846C18.1806 17.3657 17.9657 17.8571 17.7143 17.8571C17.4629 17.8571 17.248 17.3657 17.1726 16.6846C16.4914 16.6091 16 16.3943 16 16.1429C16 15.8914 16.4914 15.6766 17.1726 15.6011C17.248 14.92 17.4617 14.4286 17.7143 14.4286C17.9657 14.4286 18.1806 14.92 18.256 15.6011C18.9371 15.6766 19.4286 15.8903 19.4286 16.1429C19.4286 16.3943 18.9371 16.6091 18.256 16.6846Z" fill="#D4062E"/>
<path fill-rule="evenodd" clip-rule="evenodd" d="M0 12.1429H11.4286V20.1429H0V12.1429Z" fill="#005095"/>
<path fill-rule="evenodd" clip-rule="evenodd" d="M11.4286 3H24V12.1429H11.4286V3Z" fill="#D4062E"/>
<path d="M21.7143 3.57143H2.28571C1.33894 3.57143 0.571426 4.33894 0.571426 5.28571V17.8571C0.571426 18.8039 1.33894 19.5714 2.28571 19.5714H21.7143C22.6611 19.5714 23.4286 18.8039 23.4286 17.8571V5.28571C23.4286 4.33894 22.6611 3.57143 21.7143 3.57143Z" stroke="black" stroke-opacity="0.1"/>
</g>
</svg>
