<svg width="24" height="24" viewBox="0 0 24 24" fill="none" xmlns="http://www.w3.org/2000/svg">
<mask id="mask0_3349_51542" style="mask-type:alpha" maskUnits="userSpaceOnUse" x="0" y="3" width="24" height="18">
<path d="M21.7143 3H2.28571C1.02335 3 0 4.02335 0 5.28571V17.8571C0 19.1195 1.02335 20.1429 2.28571 20.1429H21.7143C22.9767 20.1429 24 19.1195 24 17.8571V5.28571C24 4.02335 22.9767 3 21.7143 3Z" fill="white"/>
</mask>
<g mask="url(#mask0_3349_51542)">
<path d="M21.7143 3H2.28571C1.02335 3 0 4.02335 0 5.28571V17.8571C0 19.1195 1.02335 20.1429 2.28571 20.1429H21.7143C22.9767 20.1429 24 19.1195 24 17.8571V5.28571C24 4.02335 22.9767 3 21.7143 3Z" fill="#D0091E"/>
<path fill-rule="evenodd" clip-rule="evenodd" d="M0 3H24V12.1429H0V3Z" fill="#0033AB"/>
<path fill-rule="evenodd" clip-rule="evenodd" d="M0 3V20.1806L11.4286 11.5714L0 3Z" fill="white"/>
<path fill-rule="evenodd" clip-rule="evenodd" d="M5.12571 12.1257C6.12 12.0629 6.85714 11.84 6.85714 11.5714C6.85714 11.304 6.12 11.08 5.12571 11.0171C5.06286 10.0229 4.84 9.28572 4.57143 9.28572C4.304 9.28572 4.08 10.0229 4.01714 11.0171C3.02286 11.08 2.28571 11.3029 2.28571 11.5714C2.28571 11.8389 3.02286 12.0629 4.01714 12.1257C4.07886 13.12 4.30286 13.8571 4.57143 13.8571C4.83886 13.8571 5.06286 13.12 5.12571 12.1257Z" fill="#FDD200"/>
<path d="M8.57143 12.1429C8.88702 12.1429 9.14286 11.887 9.14286 11.5714C9.14286 11.2558 8.88702 11 8.57143 11C8.25584 11 8 11.2558 8 11.5714C8 11.887 8.25584 12.1429 8.57143 12.1429Z" fill="#FDD200"/>
<path d="M2.85714 8.71428C3.17273 8.71428 3.42857 8.45845 3.42857 8.14285C3.42857 7.82726 3.17273 7.57143 2.85714 7.57143C2.54155 7.57143 2.28571 7.82726 2.28571 8.14285C2.28571 8.45845 2.54155 8.71428 2.85714 8.71428Z" fill="#FDD200"/>
<path d="M2.85714 15.5714C3.17273 15.5714 3.42857 15.3156 3.42857 15C3.42857 14.6844 3.17273 14.4286 2.85714 14.4286C2.54155 14.4286 2.28571 14.6844 2.28571 15C2.28571 15.3156 2.54155 15.5714 2.85714 15.5714Z" fill="#FDD200"/>
<path d="M21.7143 3.57143H2.28572C1.33894 3.57143 0.57143 4.33894 0.57143 5.28571V17.8571C0.57143 18.8039 1.33894 19.5714 2.28572 19.5714H21.7143C22.6611 19.5714 23.4286 18.8039 23.4286 17.8571V5.28571C23.4286 4.33894 22.6611 3.57143 21.7143 3.57143Z" stroke="black" stroke-opacity="0.1"/>
</g>
</svg>
