<svg width="24" height="24" viewBox="0 0 24 24" fill="none" xmlns="http://www.w3.org/2000/svg">
<mask id="mask0_3349_51530" style="mask-type:alpha" maskUnits="userSpaceOnUse" x="0" y="3" width="24" height="18">
<path d="M21.7143 3H2.28571C1.02335 3 0 4.02335 0 5.28571V17.8571C0 19.1195 1.02335 20.1429 2.28571 20.1429H21.7143C22.9767 20.1429 24 19.1195 24 17.8571V5.28571C24 4.02335 22.9767 3 21.7143 3Z" fill="white"/>
</mask>
<g mask="url(#mask0_3349_51530)">
<path d="M21.7143 3H2.28571C1.02335 3 0 4.02335 0 5.28571V17.8571C0 19.1195 1.02335 20.1429 2.28571 20.1429H21.7143C22.9767 20.1429 24 19.1195 24 17.8571V5.28571C24 4.02335 22.9767 3 21.7143 3Z" fill="#D0091E"/>
<path fill-rule="evenodd" clip-rule="evenodd" d="M13.7143 6.42858L16 8.71429C16 8.71429 13.7143 7.57143 12.5714 8.71429L11.4286 9.85715H14.8571L20.5714 13.2857L18.2857 9.85715H20.5714C20.5714 9.85715 20.5714 8.71429 19.4286 7.57143C18.2857 6.42858 17.1429 6.42858 17.1429 6.42858V5.28572L16 6.42858H13.7143Z" fill="#FDD200"/>
<path fill-rule="evenodd" clip-rule="evenodd" d="M0 3L24 20.1429H0V3Z" fill="black"/>
<path d="M6.28572 12.1429C6.60131 12.1429 6.85714 11.887 6.85714 11.5714C6.85714 11.2558 6.60131 11 6.28572 11C5.97012 11 5.71429 11.2558 5.71429 11.5714C5.71429 11.887 5.97012 12.1429 6.28572 12.1429Z" fill="white"/>
<path d="M4 14.4286C4.31559 14.4286 4.57143 14.1727 4.57143 13.8571C4.57143 13.5416 4.31559 13.2857 4 13.2857C3.68441 13.2857 3.42857 13.5416 3.42857 13.8571C3.42857 14.1727 3.68441 14.4286 4 14.4286Z" fill="white"/>
<path d="M8.57143 14.4286C8.88702 14.4286 9.14286 14.1727 9.14286 13.8571C9.14286 13.5416 8.88702 13.2857 8.57143 13.2857C8.25584 13.2857 8 13.5416 8 13.8571C8 14.1727 8.25584 14.4286 8.57143 14.4286Z" fill="white"/>
<path d="M6.28572 17.8571C6.60131 17.8571 6.85714 17.6013 6.85714 17.2857C6.85714 16.9701 6.60131 16.7143 6.28572 16.7143C5.97012 16.7143 5.71429 16.9701 5.71429 17.2857C5.71429 17.6013 5.97012 17.8571 6.28572 17.8571Z" fill="white"/>
<path d="M7.42857 16.7143C7.74416 16.7143 8 16.4584 8 16.1429C8 15.8273 7.74416 15.5714 7.42857 15.5714C7.11298 15.5714 6.85714 15.8273 6.85714 16.1429C6.85714 16.4584 7.11298 16.7143 7.42857 16.7143Z" fill="#C7C7C7"/>
<path d="M21.7143 3.57143H2.28571C1.33894 3.57143 0.571426 4.33894 0.571426 5.28571V17.8571C0.571426 18.8039 1.33894 19.5714 2.28571 19.5714H21.7143C22.6611 19.5714 23.4286 18.8039 23.4286 17.8571V5.28571C23.4286 4.33894 22.6611 3.57143 21.7143 3.57143Z" stroke="black" stroke-opacity="0.1"/>
</g>
</svg>
