<svg width="24" height="24" viewBox="0 0 24 24" fill="none" xmlns="http://www.w3.org/2000/svg">
<mask id="mask0_3349_51170" style="mask-type:alpha" maskUnits="userSpaceOnUse" x="0" y="3" width="24" height="18">
<path d="M21.7143 3H2.28571C1.02335 3 0 4.02335 0 5.28571V17.8571C0 19.1195 1.02335 20.1429 2.28571 20.1429H21.7143C22.9767 20.1429 24 19.1195 24 17.8571V5.28571C24 4.02335 22.9767 3 21.7143 3Z" fill="white"/>
</mask>
<g mask="url(#mask0_3349_51170)">
<path d="M21.7143 3H2.28571C1.02335 3 0 4.02335 0 5.28571V17.8571C0 19.1195 1.02335 20.1429 2.28571 20.1429H21.7143C22.9767 20.1429 24 19.1195 24 17.8571V5.28571C24 4.02335 22.9767 3 21.7143 3Z" fill="#004DA4"/>
<path fill-rule="evenodd" clip-rule="evenodd" d="M0 6.42857H24V7.57143H0V6.42857Z" fill="white"/>
<path fill-rule="evenodd" clip-rule="evenodd" d="M0 7.57143H24V15.5714H0V7.57143Z" fill="#F0161B"/>
<path d="M6.28572 14.4286C7.86367 14.4286 9.14286 13.1494 9.14286 11.5714C9.14286 9.99347 7.86367 8.71428 6.28572 8.71428C4.70776 8.71428 3.42857 9.99347 3.42857 11.5714C3.42857 13.1494 4.70776 14.4286 6.28572 14.4286Z" fill="white"/>
<path fill-rule="evenodd" clip-rule="evenodd" d="M6.28343 12.6869L4.912 13.4069L5.17486 11.8811L4.06628 10.8023L5.59771 10.5794L6.28343 9.192L6.96914 10.5806L8.50057 10.8046L7.392 11.8846L7.65486 13.4114" fill="#F0161B"/>
<path fill-rule="evenodd" clip-rule="evenodd" d="M0 15.5714H24V16.7143H0V15.5714Z" fill="white"/>
<path d="M21.7143 3.57143H2.28571C1.33894 3.57143 0.571426 4.33894 0.571426 5.28571V17.8571C0.571426 18.8039 1.33894 19.5714 2.28571 19.5714H21.7143C22.6611 19.5714 23.4286 18.8039 23.4286 17.8571V5.28571C23.4286 4.33894 22.6611 3.57143 21.7143 3.57143Z" stroke="black" stroke-opacity="0.1"/>
</g>
</svg>
