<svg width="24" height="24" viewBox="0 0 24 24" fill="none" xmlns="http://www.w3.org/2000/svg">
<mask id="mask0_3349_51574" style="mask-type:alpha" maskUnits="userSpaceOnUse" x="0" y="3" width="24" height="18">
<path d="M21.7143 3H2.28571C1.02335 3 0 4.02335 0 5.28571V17.8571C0 19.1195 1.02335 20.1429 2.28571 20.1429H21.7143C22.9767 20.1429 24 19.1195 24 17.8571V5.28571C24 4.02335 22.9767 3 21.7143 3Z" fill="white"/>
</mask>
<g mask="url(#mask0_3349_51574)">
<path d="M21.7143 3H2.28571C1.02335 3 0 4.02335 0 5.28571V17.8571C0 19.1195 1.02335 20.1429 2.28571 20.1429H21.7143C22.9767 20.1429 24 19.1195 24 17.8571V5.28571C24 4.02335 22.9767 3 21.7143 3Z" fill="#FF0000"/>
<path fill-rule="evenodd" clip-rule="evenodd" d="M0 3H8V20.1429H0V3Z" fill="#006700"/>
<path d="M8 14.4286C9.89355 14.4286 11.4286 12.8935 11.4286 11C11.4286 9.10645 9.89355 7.57143 8 7.57143C6.10645 7.57143 4.57143 9.10645 4.57143 11C4.57143 12.8935 6.10645 14.4286 8 14.4286Z" fill="#FFFF00"/>
<path fill-rule="evenodd" clip-rule="evenodd" d="M10.2857 12.1429V8.71428H5.71429V12.1429C5.71429 12.7737 6.73714 13.2857 8 13.2857C9.26286 13.2857 10.2857 12.7737 10.2857 12.1429Z" fill="#FF0000"/>
<path fill-rule="evenodd" clip-rule="evenodd" d="M6.85714 9.85715H9.14285V12.1429H6.85714V9.85715Z" fill="white"/>
<path fill-rule="evenodd" clip-rule="evenodd" d="M6.85714 9.85715H8V11H6.85714V9.85715ZM8 11H9.14285V12.1429H8V11Z" fill="#002E9C"/>
<path d="M21.7143 3.57143H2.28571C1.33894 3.57143 0.571426 4.33894 0.571426 5.28571V17.8571C0.571426 18.8039 1.33894 19.5714 2.28571 19.5714H21.7143C22.6611 19.5714 23.4286 18.8039 23.4286 17.8571V5.28571C23.4286 4.33894 22.6611 3.57143 21.7143 3.57143Z" stroke="black" stroke-opacity="0.1"/>
</g>
</svg>
