<svg width="24" height="24" viewBox="0 0 24 24" fill="none" xmlns="http://www.w3.org/2000/svg">
<mask id="mask0_3565_3872" style="mask-type:alpha" maskUnits="userSpaceOnUse" x="0" y="3" width="24" height="18">
<path d="M21.7143 3H2.28571C1.02335 3 0 4.02335 0 5.28571V17.8571C0 19.1195 1.02335 20.1429 2.28571 20.1429H21.7143C22.9767 20.1429 24 19.1195 24 17.8571V5.28571C24 4.02335 22.9767 3 21.7143 3Z" fill="white"/>
</mask>
<g mask="url(#mask0_3565_3872)">
<path d="M21.7143 3H2.28571C1.02335 3 0 4.02335 0 5.28571V17.8571C0 19.1195 1.02335 20.1429 2.28571 20.1429H21.7143C22.9767 20.1429 24 19.1195 24 17.8571V5.28571C24 4.02335 22.9767 3 21.7143 3Z" fill="white"/>
<path fill-rule="evenodd" clip-rule="evenodd" d="M0 15.4285H24V21.1428H0V15.4285Z" fill="#CE1126"/>
<path fill-rule="evenodd" clip-rule="evenodd" d="M0 2H24V7.71429H0V2Z" fill="#CE1126"/>
<path d="M21.7143 3.57153H2.2857C1.33892 3.57153 0.571411 4.33904 0.571411 5.28582V17.8572C0.571411 18.804 1.33892 19.5715 2.2857 19.5715H21.7143C22.661 19.5715 23.4286 18.804 23.4286 17.8572V5.28582C23.4286 4.33904 22.661 3.57153 21.7143 3.57153Z" stroke="black" stroke-opacity="0.1"/>
<path d="M10.7911 10.7241V10.5283L11.2863 10.7383L10.7911 10.7241Z" fill="#FF9C10"/>
<path d="M10.7911 10.4304V10.1041C10.7911 10.1041 10.7333 10.1123 10.7415 10.047C10.7443 9.91109 11.1039 10.2951 11.2883 10.4202L11.2842 10.6812L10.7911 10.4304Z" fill="#FF9C10"/>
<path d="M10.1885 11.5397V10.8954L9 10.8386L9.1486 11.5317L10.1885 11.5397Z" fill="#FF9C10"/>
<path d="M10.2049 10.7483L10.1967 10.2916L9.11554 9.86743L9.099 10.6423L10.2049 10.7483Z" fill="#FF9C10"/>
<path d="M10.172 10.137L10.2934 10.0117C10.2934 10.0117 10.2152 9.95851 10.2191 9.90953C10.2205 9.85998 10.2977 9.85247 10.2992 9.7987C10.3006 9.74915 10.2118 9.7432 10.2108 9.69363C10.205 9.63991 10.2793 9.58231 10.2793 9.58231L9.51175 8.92163L9.3219 9.72917L10.172 10.137Z" fill="#FF9C10"/>
<path d="M13.8033 11.5395L13.795 10.9115L14.9999 10.8218L14.9009 11.5396L13.8033 11.5395Z" fill="#FF9C10"/>
<path d="M14.9278 10.6324C14.914 10.5304 14.8994 10.4287 14.8758 10.3287C14.8442 10.1949 14.8038 10.0632 14.7548 9.93483C14.7512 9.92536 14.7457 9.91666 14.742 9.90723L13.8035 10.3L13.812 10.7651L14.9278 10.6324Z" fill="#FF9C10"/>
<path d="M14.2863 9.12256C14.0991 9.26412 13.9118 9.40568 13.7246 9.54725C13.7256 9.58788 13.7661 9.61913 13.7772 9.65802C13.8032 9.7126 13.7516 9.76084 13.7197 9.7994C13.6939 9.83498 13.7496 9.85311 13.7681 9.87413C13.8089 9.91598 13.7734 9.98156 13.7299 10.0059C13.7823 10.0372 13.8087 10.0958 13.8202 10.1535C14.1005 10.0077 14.3808 9.86187 14.6611 9.71606C14.5605 9.5042 14.4351 9.30385 14.2863 9.12256Z" fill="#FF9C10"/>
<path d="M13.1928 10.7321L13.201 10.5444L12.7224 10.7525L13.1928 10.7321Z" fill="#FF9C10"/>
<path d="M12.7201 10.4386C12.7201 10.4386 13.1657 10.0409 13.2606 9.96753C13.2606 10.0491 13.2091 10.1123 13.2091 10.1123V10.4222L12.7221 10.6506L12.7201 10.4386Z" fill="#FF9C10"/>
<path d="M9.83386 8.86447L10.3339 9.41283C10.3477 9.36164 10.4611 9.35386 10.5766 9.36202C10.6922 9.37016 10.7843 9.35437 10.7843 9.43594C10.7843 9.51749 10.7257 9.50591 10.7257 9.56302C10.7257 9.62013 10.8135 9.61534 10.8135 9.68867C10.8135 9.76208 10.7498 9.7471 10.7495 9.80394C10.7493 9.85093 10.816 9.85343 10.816 9.85343L11.2843 10.3021L11.2863 9.82285L10.3208 8.32617L9.83386 8.86447Z" fill="#FF9C10"/>
<path d="M10.6064 8.29779L11.2605 9.61963C11.2605 9.61963 11.2678 8.39947 11.378 8.33411L11.1943 8L10.6064 8.29779Z" fill="#FF9C10"/>
<path d="M12.7173 8.15747C12.6359 8.43883 12.5545 8.72017 12.4731 9.00155C12.5493 9.01061 12.6262 9.01306 12.7027 9.00882C12.7715 9.01472 12.7179 9.07922 12.7215 9.11738C12.7212 9.29041 12.7209 9.46345 12.7205 9.63645C12.9506 9.23017 13.1806 8.82386 13.4106 8.41759C13.252 8.33477 13.0836 8.27325 12.9141 8.21695C12.8494 8.19414 12.7838 8.17438 12.7173 8.15747Z" fill="#FF9C10"/>
<path d="M13.5762 8.51025L12.7226 9.82255L12.7216 10.3279C12.9116 10.1471 13.1027 9.96722 13.2921 9.78579C13.3281 9.73487 13.178 9.70993 13.253 9.64789C13.321 9.62645 13.3325 9.51665 13.2609 9.49555C13.202 9.40896 13.3143 9.36307 13.3851 9.37255C13.4836 9.37705 13.5851 9.3511 13.6815 9.37847C13.7345 9.4292 13.7834 9.30185 13.8355 9.27318C13.9384 9.16963 14.0415 9.0662 14.1432 8.9615C13.9755 8.78668 13.784 8.63484 13.5762 8.51025Z" fill="#FF9C10"/>
<path d="M11.3744 13.6055C11.1645 13.6173 10.9553 13.7589 10.8573 13.8348C11.0333 13.9118 11.2212 13.9719 11.4211 14.0132C11.7396 14.0666 12.0581 14.0662 12.3766 14.0662C12.4286 14.0597 12.4801 14.0523 12.5306 14.0439L13.2016 13.8178C13.2016 13.8178 12.8788 13.6047 12.623 13.614C12.3671 13.6232 12.1944 13.8735 11.988 13.855C11.7817 13.8365 11.6991 13.6055 11.402 13.6055C11.3927 13.6055 11.3837 13.6049 11.3744 13.6055Z" fill="#083D9C" stroke="#083D9C" stroke-width="0.0697646"/>
<path d="M13.9687 13.4485C13.9687 13.4485 13.6386 13.0978 13.2506 13.0896C12.8627 13.0814 12.9701 13.2528 12.673 13.2772C12.3759 13.3017 12.3015 13.0978 12.0292 13.1059C11.7569 13.114 11.6 13.2772 11.3937 13.2854C11.1874 13.2935 10.9233 13.0814 10.7665 13.0896C10.6097 13.0978 10.0485 13.3343 10.0485 13.3343L10.1556 13.4322L13.9687 13.4485Z" fill="#083D9C" stroke="#083D9C" stroke-width="0.0655251"/>
<path d="M9.66886 12.9833L14.3731 12.9997C14.4473 12.8936 14.142 12.6408 13.8614 12.6163C13.6303 12.6244 13.4653 12.8528 13.2754 12.861C13.0856 12.8691 12.8711 12.6244 12.6565 12.6326C12.4419 12.6408 12.2191 12.861 12.0045 12.861C11.7899 12.861 11.6331 12.6244 11.3608 12.6244C11.0884 12.6244 10.9646 12.8854 10.7583 12.8691C10.5519 12.8528 10.3704 12.6082 10.1723 12.6082C9.97425 12.6082 9.64413 12.9018 9.57812 12.8854C9.5121 12.8691 9.66886 12.9833 9.66886 12.9833Z" fill="#083D9C" stroke="#083D9C" stroke-width="0.0655251"/>
<path d="M11.4875 12.5333L12.5377 12.5327C12.5377 12.5327 12.3026 12.1743 12.0128 12.199C11.69 12.2073 11.4875 12.5333 11.4875 12.5333Z" fill="#083D9C" stroke="#083D9C" stroke-width="0.0655251"/>
<path d="M14.8361 12.5085H13.3992C13.3992 12.5085 13.5852 12.3999 13.6359 12.2996C13.7288 12.3498 13.7035 12.3999 13.8894 12.4082C14.0754 12.4166 14.2529 12.1994 14.4304 12.2078C14.6079 12.2161 14.8361 12.5085 14.8361 12.5085Z" fill="#083D9C" stroke="#083D9C" stroke-width="0.0655251"/>
<path d="M9.17346 12.5085H10.6104C10.6104 12.5085 10.4244 12.3999 10.3737 12.2996C10.2808 12.3498 10.3061 12.3999 10.1201 12.4082C9.93424 12.4166 9.75671 12.1994 9.57915 12.2078C9.40167 12.2161 9.17346 12.5085 9.17346 12.5085Z" fill="#083D9C" stroke="#083D9C" stroke-width="0.0655251"/>
<path d="M10.3046 12.0703C10.3046 12.0703 10.2385 11.9316 10.2303 11.7603C9.96615 11.6707 9.7516 11.9561 9.56178 11.9642C9.37201 11.9724 9.17395 11.7603 9.17395 11.7603L9.2812 12.0621L10.3046 12.0703Z" fill="#083D9C" stroke="#083D9C" stroke-width="0.0655251"/>
<path d="M14.7444 12.0621L13.7209 12.0703C13.7209 12.0703 13.787 11.9316 13.7952 11.7603C14.0594 11.6707 14.2739 11.9561 14.4638 11.9642C14.6536 11.9724 14.8516 11.7603 14.8516 11.7603L14.7444 12.0621Z" fill="#083D9C" stroke="#083D9C" stroke-width="0.0655251"/>
<path d="M11.7485 12.0699L12.2684 12.0702C12.2684 12.0702 12.2767 11.8987 12.0043 11.8987C11.732 11.8987 11.7485 12.0699 11.7485 12.0699Z" fill="#083D9C" stroke="#083D9C" stroke-width="0.0655251"/>
<path d="M11.476 10.398L12.5572 10.6835V9.15817C12.062 9.18265 11.6494 8.22833 12.5242 8.1631C11.6659 8.04073 11.5668 8.26097 11.4678 8.4975L11.476 10.398H11.476Z" fill="#CE1126" stroke="#630810" stroke-width="0.0655217" stroke-linejoin="round"/>
<path d="M11.7161 11.7767C11.481 12.1616 10.8523 12.0475 10.7053 11.7787C10.6612 11.7664 10.6873 10.1207 10.6873 10.1207C10.6873 10.1207 10.6171 10.0891 10.6138 10.0385C10.6106 9.98741 10.7093 9.98278 10.7093 9.91737C10.7093 9.85201 10.6085 9.87763 10.6065 9.81184C10.6069 9.74894 10.7141 9.75761 10.7093 9.69948C10.7037 9.63396 10.5893 9.64366 10.5844 9.58326C10.5807 9.53528 10.6662 9.49344 10.69 9.47186L10.6101 9.4707L10.4301 9.47434C10.3021 9.47448 10.4323 9.5019 10.4304 9.57485C10.4292 9.62251 10.3655 9.65422 10.3598 9.69565C10.3578 9.73819 10.451 9.76807 10.4522 9.81912C10.4532 9.86467 10.3606 9.86777 10.3639 9.91009C10.3697 9.98173 10.446 9.99748 10.4448 10.0409C10.4436 10.0842 10.3422 10.1007 10.3419 10.1353C10.3455 10.2021 10.3566 11.8275 10.3566 11.8275C10.5183 12.6554 11.4516 12.8661 11.7161 11.7767Z" fill="#CE1126" stroke="#630810" stroke-width="0.0655217" stroke-linejoin="round"/>
<path d="M12.3315 11.7767C12.5667 12.1616 13.1953 12.0475 13.3423 11.7787C13.3864 11.7664 13.3604 10.1207 13.3604 10.1207C13.3604 10.1207 13.4306 10.0891 13.4338 10.0385C13.437 9.98741 13.3445 9.98277 13.3445 9.91736C13.3445 9.85201 13.4392 9.87762 13.4412 9.81184C13.4407 9.74893 13.3418 9.75354 13.3466 9.69538C13.3522 9.62989 13.4299 9.63754 13.4343 9.57714C13.438 9.52512 13.3855 9.49344 13.3618 9.47186L13.4375 9.4707L13.6176 9.47434C13.7455 9.47448 13.6154 9.5019 13.6173 9.57485C13.6184 9.62251 13.6821 9.65422 13.6878 9.69565C13.6898 9.73819 13.5967 9.76807 13.5955 9.81912C13.5945 9.86467 13.6871 9.86777 13.6837 9.91009C13.6779 9.98173 13.6017 9.99748 13.6029 10.0409C13.604 10.0842 13.7055 10.1007 13.7057 10.1353C13.7022 10.2021 13.6911 11.8275 13.6911 11.8275C13.5294 12.6554 12.5961 12.8661 12.3315 11.7767Z" fill="#CE1126" stroke="#630810" stroke-width="0.0655217" stroke-linejoin="round"/>
<path d="M11.4348 11.8493C11.5256 11.8003 11.6082 11.7514 11.6659 11.6372L11.311 11.6453C11.311 11.6453 11.146 11.7433 11.0635 11.8493L11.4348 11.8493Z" fill="#630810" stroke="#630810" stroke-width="0.094679" stroke-linecap="round"/>
<path d="M12.5819 11.8493C12.4911 11.8003 12.4086 11.7514 12.3508 11.6372L12.7057 11.6453C12.7057 11.6453 12.8707 11.7433 12.9533 11.8493L12.5819 11.8493Z" fill="#630810" stroke="#630810" stroke-width="0.094679" stroke-linecap="round"/>
<path d="M10.791 11.5071L13.2339 11.5152L10.791 11.5071Z" fill="#630810"/>
<path d="M10.791 11.5071L13.2339 11.5152" stroke="#630810" stroke-width="0.094679" stroke-linecap="round"/>
<path d="M10.9065 10.9282L11.1954 11.3116L10.9065 10.9282Z" fill="#630810"/>
<path d="M10.9065 10.9282L11.1954 11.3116" stroke="#630810" stroke-width="0.094679" stroke-linecap="round"/>
<path d="M10.9065 11.3115L11.2201 10.9363L10.9065 11.3115Z" fill="#630810"/>
<path d="M10.9065 11.3115L11.2201 10.9363" stroke="#630810" stroke-width="0.094679" stroke-linecap="round"/>
<path d="M11.0716 10.9033L11.0634 11.1398L11.0716 10.9033Z" fill="#630810"/>
<path d="M11.0716 10.9033L11.0634 11.1398" stroke="#630810" stroke-width="0.094679" stroke-linecap="round"/>
</g>
</svg>
