<svg width="24" height="24" viewBox="0 0 24 24" fill="none" xmlns="http://www.w3.org/2000/svg">
<mask id="mask0_3349_51631" style="mask-type:alpha" maskUnits="userSpaceOnUse" x="0" y="3" width="24" height="18">
<path d="M21.7143 3H2.28571C1.02335 3 0 4.02335 0 5.28571V17.8571C0 19.1195 1.02335 20.1429 2.28571 20.1429H21.7143C22.9767 20.1429 24 19.1195 24 17.8571V5.28571C24 4.02335 22.9767 3 21.7143 3Z" fill="white"/>
</mask>
<g mask="url(#mask0_3349_51631)">
<path d="M21.7143 3H2.28571C1.02335 3 0 4.02335 0 5.28571V17.8571C0 19.1195 1.02335 20.1429 2.28571 20.1429H21.7143C22.9767 20.1429 24 19.1195 24 17.8571V5.28571C24 4.02335 22.9767 3 21.7143 3Z" fill="#FBD400"/>
<path fill-rule="evenodd" clip-rule="evenodd" d="M0 15.5714H24V20.1429H0V15.5714Z" fill="#1D613C"/>
<path fill-rule="evenodd" clip-rule="evenodd" d="M0 3H24V11H0V3Z" fill="#00A0E1"/>
<path fill-rule="evenodd" clip-rule="evenodd" d="M19.3989 7.54171C20.08 7.46628 20.5714 7.25142 20.5714 6.99999C20.5714 6.74856 20.08 6.53371 19.3989 6.45828C19.3234 5.77713 19.1086 5.28571 18.8571 5.28571C18.6057 5.28571 18.3909 5.77713 18.3154 6.45828C17.6343 6.53371 17.1429 6.74856 17.1429 6.99999C17.1429 7.25142 17.6343 7.46628 18.3154 7.54171C18.3909 8.22285 18.6057 8.71428 18.8571 8.71428C19.1086 8.71428 19.3234 8.22285 19.3989 7.54171Z" fill="#FBD400"/>
<path d="M21.7143 3.57144H2.28571C1.33894 3.57144 0.571428 4.33895 0.571428 5.28573V17.8572C0.571428 18.8039 1.33894 19.5714 2.28571 19.5714H21.7143C22.6611 19.5714 23.4286 18.8039 23.4286 17.8572V5.28573C23.4286 4.33895 22.6611 3.57144 21.7143 3.57144Z" stroke="black" stroke-opacity="0.1"/>
</g>
</svg>
