<svg width="24" height="24" viewBox="0 0 24 24" fill="none" xmlns="http://www.w3.org/2000/svg">
<mask id="mask0_3349_51639" style="mask-type:alpha" maskUnits="userSpaceOnUse" x="0" y="3" width="24" height="18">
<path d="M21.7143 3H2.28571C1.02335 3 0 4.02335 0 5.28571V17.8571C0 19.1195 1.02335 20.1429 2.28571 20.1429H21.7143C22.9767 20.1429 24 19.1195 24 17.8571V5.28571C24 4.02335 22.9767 3 21.7143 3Z" fill="white"/>
</mask>
<g mask="url(#mask0_3349_51639)">
<path d="M21.7143 3H2.28571C1.02335 3 0 4.02335 0 5.28571V17.8571C0 19.1195 1.02335 20.1429 2.28571 20.1429H21.7143C22.9767 20.1429 24 19.1195 24 17.8571V5.28571C24 4.02335 22.9767 3 21.7143 3Z" fill="#00773C"/>
<path fill-rule="evenodd" clip-rule="evenodd" d="M18.2857 14.4286V13.2857H5.71429L8 14.4286H14.8571C14.8571 15.0594 15.6251 15.5714 16.5714 15.5714C17.5177 15.5714 18.2857 15.0594 18.2857 14.4286ZM9.97714 7.46399C9.96343 7.46399 9.94286 7.47085 9.91657 7.48685C9.85486 7.52799 9.73371 7.65485 9.72914 7.80113C9.72571 7.88456 9.70971 7.88456 9.76343 7.93828C9.80229 7.99313 9.84343 7.98856 9.92114 7.94628C9.96686 7.91199 9.98171 7.89256 9.99771 7.83656C10.016 7.74513 9.89829 7.88227 9.88343 7.77713C9.85714 7.68113 9.93257 7.63999 10.0034 7.54856C10.0057 7.50285 10.0057 7.46856 9.97714 7.46628V7.46399ZM11.1234 7.4697C11.1006 7.47428 11.0743 7.50399 11.0366 7.57028C11.0103 7.64113 10.8949 7.74856 10.9794 7.97028C11.0457 8.11085 11.0743 8.33828 11.0434 8.59313C10.9954 8.66513 10.9863 8.69027 10.9234 8.76227C10.8366 8.85713 10.7406 8.83313 10.6697 8.79656C10.6011 8.75085 10.5486 8.72799 10.5177 8.58399C10.5234 8.35542 10.5371 7.97599 10.4949 7.89599C10.4331 7.77256 10.3303 7.81599 10.2869 7.8537C10.0777 8.04799 9.97371 8.37142 9.90971 8.63085C9.85257 8.81828 9.78971 8.76342 9.74629 8.68799C9.64 8.58742 9.632 7.80799 9.504 7.93713C9.29829 8.52456 9.62171 9.16799 9.84686 9.10513C10.0069 9.1737 10.1097 8.86513 10.176 8.52799C10.2217 8.43313 10.256 8.4217 10.2789 8.47085C10.2731 8.91885 10.3131 9.01942 10.4274 9.15428C10.6834 9.35313 10.896 9.17942 10.9131 9.16342L11.1131 8.96456C11.1589 8.91885 11.216 8.91428 11.2789 8.95542C11.3406 9.01256 11.3326 9.10742 11.4617 9.17256C11.5737 9.21828 11.808 9.18399 11.8617 9.08913C11.936 8.96342 11.9531 8.91999 11.9874 8.87199C12.04 8.80342 12.1303 8.83428 12.1303 8.85599C12.1223 8.89599 12.0697 8.93599 12.1051 9.00456C12.168 9.05028 12.1829 9.02056 12.2194 9.01028C12.3497 8.94856 12.448 8.66513 12.448 8.66513C12.4537 8.55999 12.3943 8.56799 12.3566 8.5897C12.3051 8.62056 12.3029 8.63085 12.2537 8.6617C12.1886 8.67085 12.0651 8.71313 12.0046 8.61828C11.9417 8.50399 11.9417 8.34628 11.8937 8.2297C11.8937 8.22285 11.8103 8.05027 11.8869 8.03999C11.9246 8.04685 12.0091 8.06856 12.0217 7.99885C12.0629 7.93028 11.9337 7.73599 11.8457 7.63999C11.7703 7.55656 11.6651 7.54628 11.5634 7.63085C11.4914 7.69713 11.5029 7.77028 11.488 7.83999C11.4709 7.91999 11.4743 8.01942 11.5566 8.1257C11.6274 8.26513 11.7566 8.4457 11.7131 8.69942C11.7131 8.69942 11.6389 8.82056 11.5074 8.80456C11.4503 8.79313 11.3611 8.77027 11.3131 8.41599C11.2789 8.1497 11.3223 7.77599 11.2103 7.60113C11.184 7.53599 11.1623 7.47199 11.1257 7.47542L11.1234 7.4697ZM10.76 7.49942C10.7257 7.50285 10.688 7.54285 10.6571 7.61942C10.6309 7.67885 10.5977 7.98513 10.6034 7.98513C10.5806 8.07656 10.6983 8.11542 10.752 7.99885C10.832 7.7817 10.832 7.69028 10.8366 7.60113C10.8251 7.53256 10.7943 7.49828 10.76 7.50056V7.49942ZM12.1006 7.52228C12.0663 7.52685 12.0377 7.54742 12.0274 7.59999C12.0126 7.72113 12.0206 7.78856 12.0411 7.89027C12.056 7.95885 12.1554 8.07085 12.2034 8.13713C12.4354 8.44913 12.6606 8.76227 12.8754 9.0857C12.9097 9.32799 12.9326 9.56342 12.9497 9.79885C12.9863 10.3131 12.9954 10.9531 12.9646 11.496C13.0606 11.4994 13.216 11.3394 13.2697 11.1074C13.304 10.7828 13.2583 10.1246 13.2537 9.93256L13.2423 9.66056C13.4937 10.072 13.736 10.5063 13.9737 10.9817C14.0617 10.9406 14.0423 10.4503 13.992 10.3817C13.8 9.97028 13.5349 9.56342 13.4514 9.40685C13.4206 9.3497 13.3166 9.19313 13.1943 9.01142C13.1714 8.75085 13.1463 8.53142 13.1303 8.46513C13.0903 8.19085 13.2423 8.49599 13.2217 8.33713C13.1714 8.06285 13.0206 7.8777 12.8423 7.62627C12.7851 7.54627 12.7851 7.52799 12.6971 7.64685C12.6457 7.76685 12.6457 7.86742 12.6629 7.96113C12.6377 7.92685 12.6091 7.88799 12.568 7.8377L12.2766 7.59085C12.2366 7.56228 12.1589 7.51885 12.1006 7.52228ZM16.0731 7.56456C16.056 7.56228 16.0389 7.57028 16.016 7.60113C15.976 7.63542 15.9337 7.70056 15.936 7.78399C15.944 7.92685 15.9703 8.07428 15.9794 8.21828L15.9909 8.27542C15.9749 8.25713 15.9611 8.24113 15.9531 8.23428C15.6709 7.93713 16.0823 8.18399 15.8983 7.95656C15.744 7.78513 15.6983 7.73256 15.5669 7.6297C15.4983 7.58856 15.4594 7.50628 15.4377 7.6457C15.4286 7.76799 15.4194 7.91085 15.4263 8.0137C15.4263 8.07085 15.4869 8.17942 15.5383 8.24227C15.7257 8.47427 15.9177 8.71999 16.1097 8.97599C16.1509 9.49828 16.1611 9.97713 16.2011 10.5006C16.1966 10.7246 16.128 11.0217 16.064 11.0491C16.064 11.0491 15.9634 11.1063 15.8971 11.0434C15.848 11.024 15.6549 10.72 15.6549 10.72C15.5554 10.6286 15.4891 10.6548 15.4194 10.72C15.2251 10.9074 15.136 11.2594 15.0046 11.5017C14.9703 11.5554 14.8754 11.6023 14.7691 11.4971C14.4983 11.1268 14.6549 10.6 14.6229 10.736C14.3829 11.008 14.488 11.4583 14.5429 11.5554C14.6229 11.7154 14.6869 11.8183 14.84 11.8948C14.9829 11.9977 15.0914 11.9348 15.1531 11.8606C15.2949 11.7143 15.2971 11.3383 15.3634 11.264C15.4091 11.1268 15.5269 11.1497 15.584 11.2114C15.6411 11.2914 15.7051 11.3428 15.7863 11.3863C15.9189 11.5028 16.0766 11.5234 16.232 11.4171C16.3383 11.3577 16.408 11.28 16.4697 11.1268C16.5383 10.9486 16.504 10.0114 16.4891 9.49028L16.7863 9.91999C16.8274 10.3771 16.8469 10.8286 16.832 11.2606C16.8229 11.3463 17.1326 11.0046 17.1291 10.8423C17.1291 10.7017 17.1314 10.5726 17.1291 10.4537C17.2811 10.6937 17.4263 10.9371 17.5634 11.1851C17.6491 11.1394 17.6206 10.656 17.5669 10.5908C17.4229 10.3486 17.2377 10.088 17.0949 9.88456C17.0663 9.6297 17.0286 9.32913 17.0103 9.23656C16.984 9.09256 16.9566 8.87656 16.9154 8.70628C16.904 8.64113 16.8697 8.42856 16.8811 8.40913C16.8971 8.35999 16.9611 8.40913 16.992 8.35428C17.0377 8.30285 16.8297 7.75999 16.7234 7.60685C16.6857 7.53828 16.616 7.56113 16.5314 7.67542C16.4514 7.74856 16.4811 7.9177 16.5109 8.07885C16.5886 8.49027 16.6594 8.90628 16.7143 9.32456C16.6114 9.17028 16.4857 8.98513 16.3623 8.80799L16.3463 8.72799C16.3463 8.71885 16.3303 8.39085 16.3154 8.31313C16.312 8.28113 16.304 8.27199 16.3383 8.27656C16.3726 8.30628 16.3771 8.30742 16.3989 8.3177C16.4354 8.32227 16.4674 8.26285 16.4446 8.20685L16.1131 7.59656C16.1017 7.5817 16.0857 7.56799 16.0674 7.5657L16.0731 7.56456ZM5.82171 7.57599C5.75886 7.5737 5.69257 7.61028 5.71886 7.68456C5.70286 7.72456 5.83771 7.85942 5.86171 7.9337C5.88114 7.98742 5.83886 8.15656 5.88457 8.1737C5.92457 8.19085 5.98057 8.05485 6.00114 7.93028C6.01257 7.8617 6.00457 7.62628 5.84457 7.57828C5.83657 7.57599 5.82857 7.57599 5.81943 7.57485L5.82171 7.57599ZM17.5017 7.57599C17.4869 7.57828 17.4697 7.59885 17.4446 7.65599C17.3817 7.75885 17.36 7.9417 17.3851 8.1017C17.5337 9.11885 17.648 10.104 17.6709 11.0046C17.6571 11.0914 17.6526 11.1371 17.6137 11.2446C17.5246 11.3588 17.4263 11.5006 17.3337 11.5691C17.2423 11.6377 17.0457 11.704 16.9817 11.7543C16.776 11.8708 16.776 12.0057 16.9406 12.0114C17.224 11.9771 17.56 11.9543 17.7909 11.6057C17.8526 11.5086 17.9257 11.2434 17.928 11.08C17.9509 10.1314 17.9166 9.19999 17.7737 8.51313C17.7646 8.44456 17.7349 8.29256 17.7463 8.27313C17.7634 8.22513 17.856 8.27656 17.8891 8.22285C17.9383 8.17256 17.6491 7.80342 17.5486 7.6457C17.528 7.60685 17.5143 7.5737 17.4983 7.57713L17.5017 7.57599ZM14.5269 7.59199C14.5154 7.59428 14.4994 7.61256 14.4674 7.65485C14.3874 7.91313 14.36 8.12342 14.3909 8.2857C14.5966 9.34856 14.8023 10.3143 14.7703 11.3257C14.8663 11.3257 14.9783 11.1051 15.0263 10.8857C15.0526 10.5828 15.008 10.3988 15.0011 10.2228C14.9931 10.0446 14.8 8.60456 14.7611 8.47085C14.7131 8.21713 14.9486 8.43656 14.9234 8.29028C14.8411 8.10285 14.6377 7.83313 14.576 7.6697C14.5531 7.62628 14.5486 7.58627 14.5303 7.5897L14.5269 7.59199ZM7.288 7.61256C7.26514 7.61713 7.23886 7.6377 7.23086 7.6697C7.22514 7.69256 7.24 7.73028 7.21943 7.7417C7.208 7.75313 7.16457 7.74513 7.16686 7.68456C7.16686 7.66399 7.152 7.64342 7.144 7.63085C7.13486 7.62628 7.12914 7.62513 7.11314 7.62513C7.09371 7.62513 7.09371 7.63085 7.08343 7.64799C7.07886 7.66399 7.072 7.67999 7.072 7.69828C7.06971 7.72113 7.06057 7.72685 7.04571 7.73028C7.02743 7.73028 7.03086 7.73256 7.01714 7.72228C7.00571 7.71428 6.99657 7.71085 6.99657 7.69485C6.99657 7.6777 6.992 7.64913 6.98743 7.63999C6.97943 7.62856 6.96686 7.62399 6.95314 7.62056C6.87771 7.62056 6.87314 7.7097 6.87657 7.7417C6.87086 7.74856 6.86857 7.9017 6.97143 7.94513C7.10857 8.01142 7.36914 7.98285 7.36 7.75999C7.36 7.74056 7.35429 7.67427 7.352 7.65713C7.33829 7.62285 7.312 7.61142 7.28686 7.61485L7.288 7.61256ZM9.14629 7.61485C9.09829 7.61713 9.05486 7.63085 9.02057 7.64913C8.92914 7.73713 8.90629 7.8777 8.97943 7.9657C9.048 7.99999 9.12 8.06856 9.07314 8.10856C8.87429 8.31999 8.35657 8.67542 8.33029 8.74056V8.74742H8.33486V8.7497C8.36114 8.76685 8.68571 8.76685 8.72114 8.7497H8.72343C8.83543 8.70742 9.36343 8.10399 9.36343 8.10399C9.336 8.08113 9.31086 8.06285 9.28343 8.03885C9.25371 8.0137 9.25714 7.98856 9.28343 7.96342C9.41371 7.88799 9.37257 7.71999 9.304 7.64342C9.24686 7.61828 9.19429 7.60913 9.14629 7.61256V7.61485ZM14.0034 7.61485C13.9897 7.61828 13.9726 7.6377 13.9463 7.69485C13.8834 7.7977 13.8411 7.97485 13.8469 8.14056C13.9817 9.0777 14.0229 9.89713 14.112 10.8343C14.1189 10.9257 14.1051 11.056 14.0457 11.1086C13.8217 11.3417 13.5006 11.6274 13.1509 11.76C13.1131 11.8023 13.2446 11.9817 13.4137 11.9817C13.6971 11.9474 13.9463 11.7897 14.1794 11.3703C14.24 11.2731 14.3486 11.064 14.3509 10.9017C14.3737 9.95085 14.3051 9.21028 14.1611 8.52456C14.1531 8.45599 14.1589 8.37599 14.1703 8.3577C14.1886 8.33485 14.2503 8.3577 14.2846 8.30399C14.3326 8.2537 14.1543 7.84342 14.0537 7.68685C14.0331 7.64685 14.0217 7.61485 14.0034 7.61599V7.61485ZM6.47886 7.6457C6.44 7.65028 6.40343 7.67999 6.38514 7.7257C6.37943 7.87428 6.37829 8.02285 6.39657 8.16228C6.46514 8.4057 6.48457 8.61942 6.51771 8.86742C6.52914 9.20113 6.32571 9.01142 6.33486 8.84685C6.38057 8.63199 6.36914 8.29485 6.328 8.20913C6.29371 8.12342 6.25714 8.10285 6.17714 8.1177C6.11429 8.11313 5.95086 8.28913 5.90514 8.58628C5.90514 8.58628 5.86629 8.73713 5.85029 8.87199C5.82743 9.02399 5.72686 9.13256 5.656 8.85142C5.59543 8.6457 5.55886 8.14285 5.45714 8.25942C5.42743 8.65256 5.39314 9.34513 5.72686 9.41599C6.13143 9.45485 5.90743 8.73256 6.05371 8.60113C6.08229 8.53828 6.13371 8.53713 6.13714 8.61828V9.23199C6.13257 9.43085 6.26286 9.49028 6.36571 9.53142C6.472 9.52342 6.54171 9.52685 6.58286 9.6297L6.63429 10.6926C6.63429 10.6926 6.87886 10.7611 6.89029 10.0948C6.90171 9.70285 6.81029 9.37485 6.864 9.29828C6.86629 9.22285 6.96229 9.21828 7.02857 9.25599C7.13486 9.33028 7.18171 9.4217 7.34629 9.38513C7.59771 9.31656 7.74629 9.19542 7.74971 9.00342C7.73829 8.82056 7.71543 8.6377 7.63543 8.45485C7.64686 8.42285 7.58971 8.33713 7.60114 8.30399C7.64457 8.37256 7.71314 8.36799 7.72686 8.30399C7.68571 8.16342 7.61943 8.0297 7.512 7.97256C7.424 7.89256 7.29486 7.9097 7.24686 8.07199C7.224 8.25942 7.31543 8.48113 7.45257 8.66285C7.48 8.7337 7.52114 8.85142 7.50286 8.9577C7.43086 8.99885 7.35886 8.98056 7.29714 8.9177C7.29714 8.9177 7.09943 8.76913 7.09943 8.73485C7.15314 8.3977 7.11086 8.3577 7.08229 8.26627C7.06171 8.13599 7 8.09485 6.95086 8.0057C6.90057 7.95199 6.83314 7.95199 6.80229 8.0057C6.71314 8.1577 6.75429 8.4857 6.81829 8.63085C6.864 8.7657 6.93486 8.85028 6.90171 8.85028C6.87429 8.92456 6.81714 8.90742 6.776 8.81942C6.71886 8.63656 6.70514 8.36685 6.70514 8.24456C6.688 8.0937 6.66857 7.77028 6.568 7.68799C6.54171 7.65142 6.51086 7.63885 6.48 7.64227L6.47886 7.6457ZM7.89829 7.6457C7.87886 7.65028 7.856 7.6617 7.82971 7.66856C7.744 7.69485 7.664 7.76913 7.68914 7.91313C7.792 8.53027 7.85714 9.00227 7.95886 9.61942C7.97371 9.69256 7.91314 9.78742 7.83543 9.77942C7.70286 9.68799 7.66971 9.50513 7.44343 9.51428C7.27886 9.51428 7.09143 9.69485 7.06857 9.86628C7.04114 10.0034 7.032 10.152 7.06857 10.2708C7.18286 10.408 7.32229 10.3943 7.44343 10.3623C7.54286 10.3223 7.62629 10.2251 7.66057 10.248C7.68343 10.2857 7.65829 10.6068 7.192 10.8537C6.904 10.984 6.67543 11.0137 6.552 10.7806C6.47657 10.6343 6.55886 10.0766 6.37143 10.2046C5.816 11.6354 7.67086 11.8343 7.87771 10.264C7.89143 10.2183 7.93143 10.1748 7.96114 10.1863C7.97257 10.192 7.984 10.2091 7.98857 10.2411C7.94514 11.6628 6.55314 11.7611 6.31771 11.3131C6.25829 11.208 6.24114 10.9726 6.23543 10.8331C6.224 10.7474 6.20343 10.6983 6.17829 10.6788C6.12114 10.6366 6.04571 10.7474 6.02971 10.9383C6.00686 11.0926 6.01257 11.1348 6.01257 11.2834C6.088 12.4068 7.87886 11.9234 8.17029 10.9977C8.31429 10.5177 8.16686 10.1554 8.216 10.1108L8.21943 10.1086H8.22286L8.22857 10.1063C8.40686 10.2983 8.656 10.1291 8.71086 10.064C8.73371 10.0297 8.79314 10.0068 8.83429 10.0526C8.97143 10.1508 9.216 10.104 9.26629 9.92685C9.296 9.75542 9.32114 9.57942 9.32686 9.39542C9.23543 9.42399 9.16229 9.44456 9.13257 9.47542C9.12571 9.48342 9.12114 9.49256 9.11886 9.5017L9.096 9.6537C9.096 9.65942 9.09371 9.66285 9.09143 9.66513C9.088 9.67313 9.08 9.67885 9.07543 9.68228C9.04343 9.69942 8.98743 9.69028 8.984 9.64342C8.94171 9.44913 8.76457 9.42399 8.65714 9.72685C8.58514 9.78399 8.45143 9.79542 8.44 9.70856C8.45714 9.50513 8.37486 9.4777 8.21143 9.5737L8.05371 8.38513C8.12229 8.3817 8.184 8.43085 8.248 8.35313C8.17943 8.14285 8.03657 7.71542 7.95543 7.67428H7.95314L7.94171 7.66285C7.94171 7.66056 7.93829 7.65942 7.936 7.65828L7.93143 7.65142C7.92686 7.65142 7.92229 7.64913 7.92 7.64799C7.912 7.6457 7.90514 7.6457 7.89714 7.6457H7.89829ZM13.432 7.65027C13.3611 7.64799 13.2834 7.69256 13.3131 7.7817C13.2949 7.83085 13.4651 7.99542 13.4926 8.08456C13.5417 8.2217 13.4549 8.35542 13.5063 8.37485C13.5543 8.39542 13.6206 8.23199 13.6434 8.07999C13.6731 7.95656 13.5863 7.70513 13.4606 7.6537L13.432 7.65142V7.65027ZM9.12 7.79999C9.152 7.7977 9.19086 7.82742 9.21143 7.86856C9.23086 7.91428 9.22057 7.95656 9.18857 7.96456C9.15429 7.97256 9.11086 7.94399 9.09029 7.89827C9.06971 7.85256 9.07886 7.81028 9.11314 7.80228H9.12V7.79999ZM17.1166 8.00799C17.0514 8.0057 16.9794 8.0537 17.0091 8.15085C16.9931 8.20342 17.1463 8.3817 17.1726 8.47999C17.1954 8.54856 17.1383 8.77256 17.184 8.79313C17.2274 8.81599 17.2869 8.6377 17.3097 8.47313C17.3234 8.3817 17.2571 8.06742 17.144 8.01142C17.136 8.00913 17.1269 8.00685 17.1177 8.00685L17.1166 8.00799ZM12.6937 8.1177C12.7017 8.14399 12.7074 8.17027 12.7109 8.1977C12.7246 8.25485 12.736 8.31199 12.7474 8.37142C12.6971 8.30056 12.656 8.24342 12.6366 8.22285C12.5223 8.0857 12.6389 8.1337 12.6937 8.1177ZM13.7143 8.61828C13.6891 8.62285 13.6651 8.64456 13.6571 8.67885C13.6503 8.69942 13.6663 8.73599 13.6457 8.74742C13.6343 8.75885 13.5886 8.75199 13.592 8.69028C13.592 8.6697 13.5771 8.64799 13.5691 8.63656C13.56 8.63085 13.5543 8.62856 13.5383 8.62856C13.5189 8.62856 13.5189 8.63428 13.5086 8.65142C13.504 8.66742 13.4971 8.68342 13.4971 8.70285C13.4971 8.7257 13.488 8.73256 13.472 8.73713C13.4537 8.73713 13.4571 8.73713 13.4423 8.72913C13.4331 8.7177 13.4229 8.71542 13.4229 8.69942C13.4229 8.68228 13.4194 8.65599 13.4137 8.64456C13.4057 8.63313 13.3943 8.6297 13.3794 8.62513C13.3051 8.62513 13.2994 8.71199 13.304 8.74399C13.2994 8.75085 13.296 8.90628 13.3989 8.9497C13.5383 9.01485 13.7989 8.98399 13.7874 8.76227C13.7874 8.74285 13.7817 8.67656 13.7806 8.65942C13.7657 8.62513 13.7394 8.6137 13.7154 8.61713L13.7143 8.61828ZM9.06286 8.66399C9.04686 8.66399 9.024 8.66856 8.99771 8.68456C8.87543 8.75085 8.82857 8.94742 8.90629 9.0617C8.97486 9.16456 9.08914 9.12685 9.104 9.12685C9.224 9.14285 9.29486 8.90285 9.29486 8.90285C9.29486 8.90285 9.29829 8.83428 9.15771 8.96228C9.096 8.9737 9.08914 8.95085 9.07314 8.91656C9.05943 8.85599 9.06171 8.79085 9.09029 8.73028C9.104 8.69256 9.09029 8.66856 9.06286 8.66628V8.66399ZM15.6377 8.69485C15.5691 8.69142 15.4971 8.73599 15.4777 8.82856C15.4777 8.88342 15.5029 8.91313 15.4983 8.96342C15.4926 8.99199 15.464 9.00913 15.3931 8.97713C15.4046 8.9657 15.3474 8.88799 15.3474 8.88799C15.2937 8.8537 15.2217 8.88799 15.1737 8.91999C15.1474 8.96799 15.128 9.04913 15.1577 9.13142C15.2354 9.27656 15.504 9.52342 15.632 9.5257C15.6343 9.39542 15.6469 9.2217 15.6549 9.11428C15.6571 9.07313 15.6663 9.02856 15.7063 9.01827C15.7451 9.00685 15.8126 9.05713 15.8126 9.01485C15.8057 8.93256 15.7897 8.80913 15.744 8.75199C15.7189 8.7177 15.6789 8.69713 15.6389 8.69485H15.6377ZM10.1943 9.14856L10.1909 9.15199C10.1909 9.15199 10.1886 9.15199 10.1874 9.15428C10.1737 9.1657 10.1577 9.18856 10.1223 9.21142C10.0617 9.27999 10.0514 9.32913 10.0537 9.46628C10.0583 9.48113 10.168 9.7897 10.2629 10.0057C10.3269 10.2308 10.3851 10.4891 10.3429 10.7326C10.1943 11.0548 9.89714 11.344 9.608 11.5017C9.45943 11.5474 9.33371 11.5314 9.29943 11.4994C9.21486 11.4423 9.21371 11.3394 9.21943 11.3234V11.32C9.46171 11.1508 9.73943 11.0137 9.95657 10.5577C10.0206 10.3828 10.0411 10.2777 9.97714 10.0091C9.952 9.90628 9.92 9.82628 9.85143 9.75313H9.85371C9.89486 9.7337 10.0023 9.81256 10.0194 9.76456C9.99314 9.63428 9.90514 9.4617 9.808 9.37256C9.72114 9.29256 9.62514 9.28456 9.54743 9.35656C9.45829 9.40685 9.44 9.58513 9.48229 9.74056C9.53029 9.85713 9.65943 9.8777 9.75086 10.1143C9.75314 10.1303 9.78171 10.2914 9.736 10.3577C9.69714 10.4743 9.216 10.8537 9.18171 10.8766L9.17829 10.8788L9.176 10.8811H9.17371H9.17143V10.8777C9.16914 10.8686 9.17143 10.8434 9.17143 10.8057C9.168 10.7348 9.19771 10.5737 9.19429 10.5451V10.5428C9.03429 10.6457 8.98057 10.96 8.952 11.0537C8.54857 11.3314 8.09143 11.5383 7.82743 11.8194C7.69029 12.0366 8.77371 11.5748 8.89943 11.5188L8.90286 11.5223C8.928 11.5486 8.92914 11.64 9.00114 11.7234C9.11543 11.8754 9.35314 11.9691 9.58629 11.9108C9.97714 11.7703 10.2034 11.504 10.432 11.208C10.464 11.1623 10.5154 11.1234 10.5634 11.16C10.72 11.512 11.1749 11.7634 11.7611 11.7886C11.8983 11.624 11.8331 11.5428 11.7783 11.5086C11.7611 11.4971 11.4869 11.3897 11.4434 11.2834C11.4171 11.1851 11.4823 11.0971 11.6126 11.032C11.9897 10.9863 12.36 10.9348 12.7189 10.8194C12.7223 10.6983 12.7931 10.5188 12.8411 10.44C12.8754 10.3863 12.8949 10.3806 12.9029 10.3737V10.3714H12.9051V10.368V10.3566L12.8434 10.32L11.64 10.3154C11.6251 10.3097 11.6149 10.304 11.608 10.2983L11.6057 10.2948C11.6057 10.2948 11.6034 10.2948 11.6034 10.2926C11.6034 10.2903 11.6011 10.2903 11.6011 10.2903V10.2914V10.2891V10.2868V10.2846L11.6034 10.2811C11.6091 10.2743 11.624 10.2663 11.6411 10.2583C11.9291 10.2206 12.4389 10.1371 12.4731 9.64685C12.4674 9.39085 12.3634 9.22399 12.0503 9.17828C11.8194 9.19542 11.6549 9.41828 11.6811 9.66285C11.6697 9.72799 11.704 9.85713 11.6354 9.87199C11.1943 9.91313 10.712 10.1897 10.696 10.3886H10.6937H10.6914H10.6891C10.6891 10.3908 10.6869 10.3908 10.6857 10.3908H10.6811H10.6789H10.6743C10.6457 10.3817 10.6091 10.3337 10.6149 10.2686C10.5977 9.9257 10.4857 9.53713 10.312 9.23999C10.2491 9.17713 10.2206 9.15199 10.2046 9.14856H10.2011H10.1977H10.1954H10.1943ZM11.3463 9.32913C11.3234 9.3337 11.2971 9.35428 11.2891 9.38856C11.2834 9.41142 11.3006 9.44799 11.28 9.45942C11.2686 9.47085 11.2229 9.46399 11.2251 9.40228C11.2251 9.38285 11.2103 9.36113 11.2023 9.34856C11.1931 9.34285 11.1874 9.3417 11.1726 9.3417C11.1531 9.3417 11.152 9.34628 11.1417 9.36228C11.136 9.37828 11.1303 9.39656 11.1303 9.4137C11.128 9.43656 11.1189 9.44342 11.104 9.4457C11.0857 9.4457 11.0903 9.44913 11.0754 9.43999C11.0663 9.43085 11.0549 9.42628 11.0549 9.41028C11.0549 9.39313 11.0514 9.36456 11.0469 9.35313C11.0389 9.34513 11.0263 9.3417 11.0126 9.33713C10.936 9.33713 10.9326 9.42285 10.936 9.45599C10.9303 9.4617 10.9269 9.61599 11.0297 9.65942C11.1669 9.7257 11.4983 9.68685 11.4183 9.47313C11.4183 9.4537 11.4126 9.38742 11.4114 9.37028C11.3966 9.33599 11.3703 9.32456 11.3451 9.32799L11.3463 9.32913ZM15.992 9.51999H15.9806C15.9806 9.51999 15.3383 9.97713 15.3234 9.99313C15.2594 10.0503 15.2914 10.248 15.3234 10.2251C15.3691 10.2423 16.0149 9.80456 16.0023 9.75313C16.0309 9.75542 16.0446 9.52799 15.9909 9.51885L15.992 9.51999ZM11.9531 9.58856C11.9783 9.58513 12.0126 9.59427 12.0446 9.61142C12.0937 9.64113 12.1246 9.68228 12.1189 9.71428V9.71885C12.1166 9.71885 12.1166 9.71885 12.1166 9.72113V9.72342C12.1166 9.72342 12.1143 9.72342 12.1143 9.7257C12.1143 9.72799 12.1109 9.73027 12.1086 9.73256C12.0857 9.75542 12.0331 9.75085 11.9829 9.72113C11.9349 9.69485 11.9063 9.65256 11.9086 9.62285V9.61942L11.9143 9.60799C11.9143 9.60799 11.9143 9.6057 11.9166 9.60456L11.9223 9.5977C11.9303 9.59199 11.9406 9.58628 11.9531 9.58628V9.58856ZM6.33257 9.70285C6.00114 9.7097 5.51314 10.1394 5.50057 10.3771L6.552 9.87427C6.49486 9.78742 6.54857 9.7097 6.33257 9.70285ZM7.41029 9.85142C7.44229 9.8537 7.47657 9.8697 7.49486 9.91542C7.51086 9.9577 7.49486 10.0011 7.47543 10.0228V10.0263C7.45943 10.0446 7.41143 10.0377 7.376 10.0377C7.33371 10.0354 7.31314 10.0286 7.288 9.99428C7.27429 9.95428 7.31086 9.91656 7.328 9.88913L7.336 9.8777C7.34743 9.86628 7.37029 9.85713 7.39314 9.85485L7.408 9.85256L7.41029 9.85142ZM15.8674 9.98513C15.8069 9.99199 15.7509 10.048 15.776 10.1371C15.76 10.1897 15.856 10.3737 15.8823 10.4708C15.9051 10.5394 15.8526 10.7371 15.8994 10.7566C15.9429 10.7794 16.056 10.6423 16.0526 10.4663C16.064 10.3748 16.0206 10.0434 15.9074 9.98856C15.8937 9.98513 15.88 9.98399 15.8663 9.98513H15.8674ZM8.68571 10.3097C8.63314 10.3131 8.58629 10.3406 8.608 10.4148C8.60457 10.4674 8.75657 10.5326 8.76457 10.6548C8.78514 10.7074 8.73029 10.872 8.776 10.8857C8.81714 10.9028 8.87429 10.7714 8.896 10.6526C8.90743 10.5863 8.84343 10.3554 8.736 10.3131C8.71886 10.3086 8.70171 10.3074 8.68457 10.3086L8.68571 10.3097ZM10.8343 10.6023H10.848C10.9829 10.6388 11.1794 10.6434 11.3509 10.6594C11.4914 10.6708 11.56 10.7783 11.4309 10.8251C11.3006 10.8686 11.176 10.9051 11.176 11.0903C11.192 11.1817 11.1874 11.2297 11.1737 11.2503C11.1737 11.2537 11.1703 11.256 11.1691 11.2571C11.1691 11.2571 11.1691 11.2594 11.1669 11.2594V11.2617H11.1634L11.1554 11.2651H11.1497C11.1189 11.2708 11.0743 11.2423 11.0411 11.224C10.9611 11.1668 10.7383 11.0297 10.7063 10.7326C10.7017 10.664 10.752 10.6068 10.832 10.6011L10.8343 10.6023ZM5.584 10.8308C5.576 10.8308 5.56114 10.856 5.53829 10.8846C5.33943 11.1988 5.32114 11.6686 5.43086 11.8103C5.488 11.8754 5.584 11.9051 5.65486 11.8846C5.78057 11.8308 5.83429 11.5783 5.80343 11.4868C5.76343 11.4217 5.73029 11.4114 5.68914 11.4663C5.60114 11.6434 5.56343 11.5211 5.55771 11.4206C5.544 11.2343 5.56229 11.0606 5.58286 10.9234C5.59429 10.8548 5.59429 10.8286 5.58286 10.8286L5.584 10.8308ZM12.3234 11.2446C12.3086 11.2446 12.2937 11.2468 12.2777 11.256C12.2743 11.256 12.136 11.3474 12.0914 11.4137C12.064 11.4343 12.0686 11.4514 12.0754 11.488C12.096 11.5371 12.1326 11.5223 12.176 11.4994C12.2331 11.4903 12.2594 11.528 12.256 11.5954C12.2297 11.6811 12.2674 11.712 12.2674 11.7177C12.2674 11.7223 12.3211 11.7691 12.3851 11.7326C12.5189 11.6811 12.6023 11.6297 12.7909 11.5897C12.84 11.5897 12.8366 11.4571 12.7589 11.4526C12.656 11.4571 12.5646 11.464 12.4617 11.544C12.3989 11.5577 12.3886 11.5188 12.3737 11.4846C12.3577 11.4 12.4103 11.3406 12.3989 11.2766C12.4011 11.28 12.3669 11.2491 12.3223 11.2468L12.3234 11.2446ZM16.6389 11.4046L16.5474 11.4137C16.5063 11.4217 16.4926 11.44 16.4846 11.4903C16.488 11.5646 16.5337 11.5611 16.5817 11.5908C16.6091 11.6251 16.6274 11.6571 16.5794 11.7166C16.5337 11.7566 16.5029 11.7794 16.4571 11.8194C16.4377 11.856 16.4229 11.9108 16.4891 11.9291C16.6091 11.9634 16.8869 11.7828 16.8869 11.7806C16.9326 11.7463 16.9166 11.6811 16.9131 11.6811C16.8857 11.6514 16.8263 11.6697 16.7874 11.664C16.768 11.664 16.7074 11.6548 16.7349 11.6C16.76 11.5657 16.7691 11.5463 16.7863 11.504C16.8034 11.4628 16.7863 11.4354 16.72 11.4126C16.6857 11.4057 16.6629 11.4034 16.6366 11.4046H16.6389ZM14.9783 15.816C15.2869 15.8308 15.5749 15.8194 15.8811 15.8343C15.9314 15.8754 15.9074 15.9714 15.8754 15.9874L15.8697 15.9897H15.8663H15.8617L15.6034 15.9828V15.968C15.5783 15.8971 15.4069 15.9017 15.3657 15.9566V15.96C15.3634 15.96 15.3623 15.9634 15.3623 15.9646L15.36 15.9703V15.984C15.2229 16.0011 15.1029 15.9794 14.968 15.9748C14.928 15.9257 14.9337 15.8377 14.9794 15.8148L14.9783 15.816Z" fill="white"/>
<path d="M21.7143 3.57144H2.28571C1.33894 3.57144 0.571428 4.33895 0.571428 5.28573V17.8572C0.571428 18.8039 1.33894 19.5714 2.28571 19.5714H21.7143C22.6611 19.5714 23.4286 18.8039 23.4286 17.8572V5.28573C23.4286 4.33895 22.6611 3.57144 21.7143 3.57144Z" stroke="black" stroke-opacity="0.1"/>
</g>
</svg>
