<svg width="24" height="24" viewBox="0 0 24 24" fill="none" xmlns="http://www.w3.org/2000/svg">
<mask id="mask0_3349_51676" style="mask-type:alpha" maskUnits="userSpaceOnUse" x="0" y="3" width="24" height="18">
<path d="M21.7143 3H2.28571C1.02335 3 0 4.02335 0 5.28571V17.8571C0 19.1195 1.02335 20.1429 2.28571 20.1429H21.7143C22.9767 20.1429 24 19.1195 24 17.8571V5.28571C24 4.02335 22.9767 3 21.7143 3Z" fill="white"/>
</mask>
<g mask="url(#mask0_3349_51676)">
<path d="M21.7143 3H2.28571C1.02335 3 0 4.02335 0 5.28571V17.8571C0 19.1195 1.02335 20.1429 2.28571 20.1429H21.7143C22.9767 20.1429 24 19.1195 24 17.8571V5.28571C24 4.02335 22.9767 3 21.7143 3Z" fill="white"/>
<path fill-rule="evenodd" clip-rule="evenodd" d="M0 3H24V13.2857H0V3Z" fill="#EF2F41"/>
<path fill-rule="evenodd" clip-rule="evenodd" d="M6.85715 11.9863C6.52572 12.0891 6.17144 12.1428 5.80229 12.1428C3.85944 12.1428 2.28572 10.608 2.28572 8.71428C2.28572 6.82056 3.86058 5.28571 5.80229 5.28571C6.17029 5.28571 6.52458 5.34056 6.85715 5.44228C5.43086 5.87999 4.39543 7.17942 4.39543 8.71428C4.39543 10.2491 5.43086 11.5486 6.85715 11.9863ZM9.14286 6.42856H10.2857V7.57142H9.14286V6.42856ZM11.4286 7.57142H12.5714V8.71428H11.4286V7.57142ZM10.2857 9.85713H11.4286V11H10.2857V9.85713ZM6.85715 7.57142H8.00001V8.71428H6.85715V7.57142ZM8.00001 9.85713H9.14286V11H8.00001V9.85713Z" fill="white"/>
<path d="M21.7143 3.57144H2.28571C1.33894 3.57144 0.571426 4.33895 0.571426 5.28573V17.8572C0.571426 18.8039 1.33894 19.5714 2.28571 19.5714H21.7143C22.6611 19.5714 23.4286 18.8039 23.4286 17.8572V5.28573C23.4286 4.33895 22.6611 3.57144 21.7143 3.57144Z" stroke="black" stroke-opacity="0.1"/>
</g>
</svg>
