<svg width="24" height="24" viewBox="0 0 24 24" fill="none" xmlns="http://www.w3.org/2000/svg">
<mask id="mask0_3349_51645" style="mask-type:alpha" maskUnits="userSpaceOnUse" x="0" y="3" width="24" height="18">
<path d="M21.7143 3H2.28571C1.02335 3 0 4.02335 0 5.28571V17.8571C0 19.1195 1.02335 20.1429 2.28571 20.1429H21.7143C22.9767 20.1429 24 19.1195 24 17.8571V5.28571C24 4.02335 22.9767 3 21.7143 3Z" fill="white"/>
</mask>
<g mask="url(#mask0_3349_51645)">
<path d="M21.7143 3H2.28571C1.02335 3 0 4.02335 0 5.28571V17.8571C0 19.1195 1.02335 20.1429 2.28571 20.1429H21.7143C22.9767 20.1429 24 19.1195 24 17.8571V5.28571C24 4.02335 22.9767 3 21.7143 3Z" fill="#025BC2"/>
<path fill-rule="evenodd" clip-rule="evenodd" d="M0 20.1429H24V3L0 20.1429Z" fill="#FCD715"/>
<path fill-rule="evenodd" clip-rule="evenodd" d="M2.28571 20.1428H24V5.28571L2.28571 20.1428Z" fill="#24663A"/>
<path fill-rule="evenodd" clip-rule="evenodd" d="M5.85371 9.46628L5.14743 9.85713L5.28228 9.02971L4.71086 8.44456L5.49943 8.32342L5.85371 7.57142L6.208 8.32342L6.99657 8.44456L6.42514 9.02971L6.56 9.85713L5.85371 9.46628ZM3.568 7.18056L2.86171 7.57142L2.99657 6.74399L2.42514 6.15885L3.21371 6.03771L3.568 5.28571L3.92228 6.03771L4.71086 6.15885L4.13943 6.74399L4.27428 7.57142L3.568 7.18056ZM8.13943 7.18056L7.43314 7.57142L7.568 6.74399L6.99657 6.15885L7.78514 6.03771L8.13943 5.28571L8.49371 6.03771L9.28228 6.15885L8.71086 6.74399L8.84571 7.57142L8.13943 7.18056ZM8.13943 11.752L7.43314 12.1428L7.568 11.3154L6.99657 10.7303L7.78514 10.6091L8.13943 9.85713L8.49371 10.6091L9.28228 10.7303L8.71086 11.3154L8.84571 12.1428L8.13943 11.752ZM3.568 11.752L2.86171 12.1428L2.99657 11.3154L2.42514 10.7303L3.21371 10.6091L3.568 9.85713L3.92228 10.6091L4.71086 10.7303L4.13943 11.3154L4.27428 12.1428L3.568 11.752Z" fill="white"/>
<path d="M21.7143 3.57144H2.28571C1.33894 3.57144 0.571426 4.33895 0.571426 5.28573V17.8572C0.571426 18.8039 1.33894 19.5714 2.28571 19.5714H21.7143C22.6611 19.5714 23.4286 18.8039 23.4286 17.8572V5.28573C23.4286 4.33895 22.6611 3.57144 21.7143 3.57144Z" stroke="black" stroke-opacity="0.1"/>
</g>
</svg>
