<svg width="24" height="24" viewBox="0 0 24 24" fill="none" xmlns="http://www.w3.org/2000/svg">
<mask id="mask0_3349_51760" style="mask-type:alpha" maskUnits="userSpaceOnUse" x="0" y="3" width="24" height="18">
<path d="M21.7143 3H2.28571C1.02335 3 0 4.02335 0 5.28571V17.8571C0 19.1195 1.02335 20.1429 2.28571 20.1429H21.7143C22.9767 20.1429 24 19.1195 24 17.8571V5.28571C24 4.02335 22.9767 3 21.7143 3Z" fill="white"/>
</mask>
<g mask="url(#mask0_3349_51760)">
<path d="M21.7143 3H2.28571C1.02335 3 0 4.02335 0 5.28571V17.8571C0 19.1195 1.02335 20.1429 2.28571 20.1429H21.7143C22.9767 20.1429 24 19.1195 24 17.8571V5.28571C24 4.02335 22.9767 3 21.7143 3Z" fill="white"/>
<path fill-rule="evenodd" clip-rule="evenodd" d="M0 14.4286H24V20.1429H0V14.4286ZM0 3H24V8.71429H0V3Z" fill="#0643B2"/>
<path d="M12 13.2857C12.9468 13.2857 13.7143 12.5182 13.7143 11.5714C13.7143 10.6247 12.9468 9.85715 12 9.85715C11.0532 9.85715 10.2857 10.6247 10.2857 11.5714C10.2857 12.5182 11.0532 13.2857 12 13.2857Z" fill="#0017A2"/>
<path d="M12 12.1429C12.3156 12.1429 12.5714 11.887 12.5714 11.5714C12.5714 11.2558 12.3156 11 12 11C11.6844 11 11.4286 11.2558 11.4286 11.5714C11.4286 11.887 11.6844 12.1429 12 12.1429Z" fill="#FFCD00"/>
<path fill-rule="evenodd" clip-rule="evenodd" d="M9.14285 11L10.2857 12.1429L12 13.2857L13.7143 12.1429L14.8571 11L13.7143 13.2857H10.2857L9.14285 11Z" fill="#22551E"/>
<path d="M21.7143 3.57144H2.28571C1.33894 3.57144 0.571426 4.33895 0.571426 5.28573V17.8572C0.571426 18.8039 1.33894 19.5714 2.28571 19.5714H21.7143C22.6611 19.5714 23.4286 18.8039 23.4286 17.8572V5.28573C23.4286 4.33895 22.6611 3.57144 21.7143 3.57144Z" stroke="black" stroke-opacity="0.1"/>
</g>
</svg>
