<svg width="24" height="24" viewBox="0 0 24 24" fill="none" xmlns="http://www.w3.org/2000/svg">
<mask id="mask0_3349_51711" style="mask-type:alpha" maskUnits="userSpaceOnUse" x="0" y="3" width="24" height="18">
<path d="M21.7143 3H2.28571C1.02335 3 0 4.02335 0 5.28571V17.8571C0 19.1195 1.02335 20.1429 2.28571 20.1429H21.7143C22.9767 20.1429 24 19.1195 24 17.8571V5.28571C24 4.02335 22.9767 3 21.7143 3Z" fill="white"/>
</mask>
<g mask="url(#mask0_3349_51711)">
<path d="M21.7143 3H2.28571C1.02335 3 0 4.02335 0 5.28571V17.8571C0 19.1195 1.02335 20.1429 2.28571 20.1429H21.7143C22.9767 20.1429 24 19.1195 24 17.8571V5.28571C24 4.02335 22.9767 3 21.7143 3Z" fill="white"/>
<path fill-rule="evenodd" clip-rule="evenodd" d="M0 11H24V20.1429H0V11Z" fill="#69BEE7"/>
<path fill-rule="evenodd" clip-rule="evenodd" d="M9.14286 7.57144H14.8571V8.7143L12 9.85716L9.14286 8.7143V7.57144Z" fill="#E6BD34"/>
<path fill-rule="evenodd" clip-rule="evenodd" d="M14.8571 12.7143C14.8571 11.1371 13.5771 9.85715 12 9.85715C10.4229 9.85715 9.14286 11.1371 9.14286 12.7143C9.14286 14.2914 10.4229 15.5714 12 15.5714C13.5771 15.5714 14.8571 14.2914 14.8571 12.7143ZM12 14.4286C12.9463 14.4286 13.7143 13.4057 13.7143 12.1429C13.7143 10.88 12.9463 9.85715 12 9.85715C11.0537 9.85715 10.2857 10.88 10.2857 12.1429C10.2857 13.4057 11.0537 14.4286 12 14.4286Z" fill="#406421"/>
<path d="M12 13.2857C12.3156 13.2857 12.5714 12.774 12.5714 12.1429C12.5714 11.5117 12.3156 11 12 11C11.6844 11 11.4286 11.5117 11.4286 12.1429C11.4286 12.774 11.6844 13.2857 12 13.2857Z" fill="#D5B852"/>
<path d="M21.7143 3.57144H2.28571C1.33894 3.57144 0.571428 4.33895 0.571428 5.28573V17.8572C0.571428 18.8039 1.33894 19.5714 2.28571 19.5714H21.7143C22.6611 19.5714 23.4286 18.8039 23.4286 17.8572V5.28573C23.4286 4.33895 22.6611 3.57144 21.7143 3.57144Z" stroke="black" stroke-opacity="0.1"/>
</g>
</svg>
