<svg width="24" height="24" viewBox="0 0 24 24" fill="none" xmlns="http://www.w3.org/2000/svg">
<mask id="mask0_3349_51612" style="mask-type:alpha" maskUnits="userSpaceOnUse" x="0" y="3" width="24" height="18">
<path d="M21.7143 3H2.28571C1.02335 3 0 4.02335 0 5.28571V17.8571C0 19.1195 1.02335 20.1429 2.28571 20.1429H21.7143C22.9767 20.1429 24 19.1195 24 17.8571V5.28571C24 4.02335 22.9767 3 21.7143 3Z" fill="white"/>
</mask>
<g mask="url(#mask0_3349_51612)">
<path d="M21.7143 3H2.28571C1.02335 3 0 4.02335 0 5.28571V17.8571C0 19.1195 1.02335 20.1429 2.28571 20.1429H21.7143C22.9767 20.1429 24 19.1195 24 17.8571V5.28571C24 4.02335 22.9767 3 21.7143 3Z" fill="#0A4981"/>
<path fill-rule="evenodd" clip-rule="evenodd" d="M0 14.4286H24V20.1428H0V14.4286Z" fill="white"/>
<path fill-rule="evenodd" clip-rule="evenodd" d="M0 3H24V8.71429H0V3ZM9.14286 14.4286V8.71429H4.57143V14.4286C4.57143 15.6914 5.59429 16.7143 6.85714 16.7143C8.12 16.7143 9.14286 15.6914 9.14286 14.4286Z" fill="#CD3E44"/>
<path fill-rule="evenodd" clip-rule="evenodd" d="M5.71428 8.71427L4.57143 7.57142C4.57143 7.57142 5.71428 6.42856 6.85714 6.42856C8 6.42856 9.14286 7.57142 9.14286 7.57142L8 8.71427H5.71428Z" fill="#ECBE34"/>
<path fill-rule="evenodd" clip-rule="evenodd" d="M5.71428 9.85715L4.57143 11L6.85714 12.1429L5.71428 14.4286L6.85714 16.7143L8 14.4286L6.85714 12.1429L9.14286 11L8 9.85715L6.85714 11L5.71428 9.85715Z" fill="white"/>
<path fill-rule="evenodd" clip-rule="evenodd" d="M5.71428 9.85715H4.57143V11L5.71428 9.85715ZM8 9.85715H9.14286V11L8 9.85715Z" fill="#ECBE34"/>
<path fill-rule="evenodd" clip-rule="evenodd" d="M6.85714 6.42856L5.71429 7.57142L6.85714 8.71427L8 7.57142L6.85714 6.42856Z" fill="#A75835"/>
<path fill-rule="evenodd" clip-rule="evenodd" d="M6.85714 12.1429L4.57143 13.2857H9.14286L6.85714 12.1429Z" fill="#88605F"/>
<path d="M21.7143 3.57144H2.28571C1.33894 3.57144 0.571426 4.33895 0.571426 5.28573V17.8572C0.571426 18.8039 1.33894 19.5714 2.28571 19.5714H21.7143C22.6611 19.5714 23.4286 18.8039 23.4286 17.8572V5.28573C23.4286 4.33895 22.6611 3.57144 21.7143 3.57144Z" stroke="black" stroke-opacity="0.1"/>
</g>
</svg>
