<svg width="24" height="24" viewBox="0 0 24 24" fill="none" xmlns="http://www.w3.org/2000/svg">
<mask id="mask0_3349_51742" style="mask-type:alpha" maskUnits="userSpaceOnUse" x="0" y="3" width="24" height="18">
<path d="M21.7143 3H2.28571C1.02335 3 0 4.02335 0 5.28571V17.8571C0 19.1195 1.02335 20.1429 2.28571 20.1429H21.7143C22.9767 20.1429 24 19.1195 24 17.8571V5.28571C24 4.02335 22.9767 3 21.7143 3Z" fill="white"/>
</mask>
<g mask="url(#mask0_3349_51742)">
<path d="M21.7143 3H2.28571C1.02335 3 0 4.02335 0 5.28571V17.8571C0 19.1195 1.02335 20.1429 2.28571 20.1429H21.7143C22.9767 20.1429 24 19.1195 24 17.8571V5.28571C24 4.02335 22.9767 3 21.7143 3Z" fill="white"/>
<path fill-rule="evenodd" clip-rule="evenodd" d="M0 3H24V7.57143H0V3Z" fill="black"/>
<path fill-rule="evenodd" clip-rule="evenodd" d="M0 15.5714H24V20.1429H0V15.5714Z" fill="#059437"/>
<path fill-rule="evenodd" clip-rule="evenodd" d="M0 8.71429H24V14.4286H0V8.71429Z" fill="#DF121B"/>
<path fill-rule="evenodd" clip-rule="evenodd" d="M0 3L13.7143 11.5714L0 20.1429V3Z" fill="#0E50B8"/>
<path fill-rule="evenodd" clip-rule="evenodd" d="M5.40915 12.9794L3.88915 14.1143L3.91201 12.2171L2.36343 11.12L4.17486 10.5577L4.73829 8.74628L5.83543 10.2948L7.73258 10.272L6.59658 11.792L7.20572 13.5886L5.40915 12.9794Z" fill="#FCE206"/>
<path d="M21.7143 3.57144H2.28571C1.33894 3.57144 0.571426 4.33895 0.571426 5.28573V17.8572C0.571426 18.8039 1.33894 19.5714 2.28571 19.5714H21.7143C22.6611 19.5714 23.4286 18.8039 23.4286 17.8572V5.28573C23.4286 4.33895 22.6611 3.57144 21.7143 3.57144Z" stroke="black" stroke-opacity="0.1"/>
</g>
</svg>
