<svg width="24" height="24" viewBox="0 0 24 24" fill="none" xmlns="http://www.w3.org/2000/svg">
<mask id="mask0_3349_51752" style="mask-type:alpha" maskUnits="userSpaceOnUse" x="0" y="3" width="24" height="18">
<path d="M21.7143 3H2.28571C1.02335 3 0 4.02335 0 5.28571V17.8571C0 19.1195 1.02335 20.1429 2.28571 20.1429H21.7143C22.9767 20.1429 24 19.1195 24 17.8571V5.28571C24 4.02335 22.9767 3 21.7143 3Z" fill="white"/>
</mask>
<g mask="url(#mask0_3349_51752)">
<path d="M21.7143 3H2.28571C1.02335 3 0 4.02335 0 5.28571V17.8571C0 19.1195 1.02335 20.1429 2.28571 20.1429H21.7143C22.9767 20.1429 24 19.1195 24 17.8571V5.28571C24 4.02335 22.9767 3 21.7143 3Z" fill="#FFD400"/>
<path fill-rule="evenodd" clip-rule="evenodd" d="M0 15.5714V20.1429H24V15.5714H0ZM0 3V7.57143H24V3H0Z" fill="#10B630"/>
<path fill-rule="evenodd" clip-rule="evenodd" d="M0 3V20.1806L8 11.5714L0 3Z" fill="#D70F3B"/>
<path fill-rule="evenodd" clip-rule="evenodd" d="M12 12.6228L10.6914 13.312L10.9429 11.8548L9.88342 10.8228L11.3463 10.6114L12 9.28571L12.6537 10.6114L14.1166 10.8228L13.0583 11.8548L13.3097 13.312L12 12.6228ZM18.8571 12.6228L17.5486 13.312L17.8 11.8548L16.7406 10.8228L18.2034 10.6114L18.8571 9.28571L19.5109 10.6114L20.9737 10.8228L19.9154 11.8548L20.1669 13.312" fill="black"/>
<path d="M21.7143 3.57144H2.28571C1.33894 3.57144 0.571426 4.33895 0.571426 5.28573V17.8572C0.571426 18.8039 1.33894 19.5714 2.28571 19.5714H21.7143C22.6611 19.5714 23.4286 18.8039 23.4286 17.8572V5.28573C23.4286 4.33895 22.6611 3.57144 21.7143 3.57144Z" stroke="black" stroke-opacity="0.1"/>
</g>
</svg>
