<svg width="24" height="24" viewBox="0 0 24 24" fill="none" xmlns="http://www.w3.org/2000/svg">
<mask id="mask0_3349_51694" style="mask-type:alpha" maskUnits="userSpaceOnUse" x="0" y="3" width="24" height="18">
<path d="M21.7143 3H2.28571C1.02335 3 0 4.02335 0 5.28571V17.8571C0 19.1195 1.02335 20.1429 2.28571 20.1429H21.7143C22.9767 20.1429 24 19.1195 24 17.8571V5.28571C24 4.02335 22.9767 3 21.7143 3Z" fill="white"/>
</mask>
<g mask="url(#mask0_3349_51694)">
<path d="M21.7143 3H2.28571C1.02335 3 0 4.02335 0 5.28571V17.8571C0 19.1195 1.02335 20.1429 2.28571 20.1429H21.7143C22.9767 20.1429 24 19.1195 24 17.8571V5.28571C24 4.02335 22.9767 3 21.7143 3Z" fill="#0A58AC"/>
<path fill-rule="evenodd" clip-rule="evenodd" d="M0 14.4286H24V20.1428H0V14.4286Z" fill="#F01F29"/>
<path fill-rule="evenodd" clip-rule="evenodd" d="M0 3H24V8.71429H0V3ZM11.3486 14.4286H11.4286V8.71429H3.42857V14.4286H3.50857C3.456 14.6137 3.42857 14.8057 3.42857 15C3.42857 16.5771 7.42857 17.8571 7.42857 17.8571C7.42857 17.8571 11.4286 16.5771 11.4286 15C11.4286 14.8057 11.4011 14.6137 11.3486 14.4286Z" fill="white"/>
<path fill-rule="evenodd" clip-rule="evenodd" d="M10.2857 14.4286V7.57144H4.57143V14.4286C4.57143 15.6914 7.42857 16.7143 7.42857 16.7143C7.42857 16.7143 10.2857 15.6914 10.2857 14.4286Z" fill="#F01F29"/>
<path fill-rule="evenodd" clip-rule="evenodd" d="M6.85715 12.1429V11H5.71429V9.85715H6.85715V8.71429H8V9.85715H9.14286V11H8V12.1429H9.71429V13.2857H8V14.4286H6.85715V13.2857H5.14286V12.1429H6.85715Z" fill="white"/>
<path fill-rule="evenodd" clip-rule="evenodd" d="M7.42857 16.7143C7.42857 16.7143 10.2857 15.6914 10.2857 14.4286C10.2857 13.1657 9.14286 13.2857 7.42857 14.4286C5.71428 13.2857 4.57143 13.1657 4.57143 14.4286C4.57143 15.6914 7.42857 16.7143 7.42857 16.7143Z" fill="#0A58AC"/>
<path d="M21.7143 3.57144H2.28571C1.33894 3.57144 0.571426 4.33895 0.571426 5.28573V17.8572C0.571426 18.8039 1.33894 19.5714 2.28571 19.5714H21.7143C22.6611 19.5714 23.4286 18.8039 23.4286 17.8572V5.28573C23.4286 4.33895 22.6611 3.57144 21.7143 3.57144Z" stroke="black" stroke-opacity="0.1"/>
</g>
</svg>
