<svg width="24" height="24" viewBox="0 0 24 24" fill="none" xmlns="http://www.w3.org/2000/svg">
<mask id="mask0_3349_51787" style="mask-type:alpha" maskUnits="userSpaceOnUse" x="0" y="3" width="24" height="18">
<path d="M21.7143 3H2.28571C1.02335 3 0 4.02335 0 5.28571V17.8571C0 19.1195 1.02335 20.1429 2.28571 20.1429H21.7143C22.9767 20.1429 24 19.1195 24 17.8571V5.28571C24 4.02335 22.9767 3 21.7143 3Z" fill="white"/>
</mask>
<g mask="url(#mask0_3349_51787)">
<path d="M21.7143 3H2.28571C1.02335 3 0 4.02335 0 5.28571V17.8571C0 19.1195 1.02335 20.1429 2.28571 20.1429H21.7143C22.9767 20.1429 24 19.1195 24 17.8571V5.28571C24 4.02335 22.9767 3 21.7143 3Z" fill="#FFDE00"/>
<path fill-rule="evenodd" clip-rule="evenodd" d="M0 16.7143H24V20.1429H0V16.7143ZM0 3H24V6.42857H0V3Z" fill="#4769C1"/>
<path fill-rule="evenodd" clip-rule="evenodd" d="M0 7.57144H24V15.5714H0V7.57144Z" fill="#BC0A33"/>
<path fill-rule="evenodd" clip-rule="evenodd" d="M4.57143 12.1429H19.4286V13.2857H4.57143V12.1429ZM6.85714 9.85715H18.2857V11H6.85714V9.85715Z" fill="#E1C400"/>
<path fill-rule="evenodd" clip-rule="evenodd" d="M18.2857 9.85715H20.5714V11H18.2857V9.85715Z" fill="#9D9191"/>
<path fill-rule="evenodd" clip-rule="evenodd" d="M12 14.4286C14.84 14.4286 17.1429 11.5714 17.1429 11.5714C17.1429 11.5714 14.84 8.71429 12 8.71429C9.16 8.71429 6.85714 11.5714 6.85714 11.5714C6.85714 11.5714 9.16 14.4286 12 14.4286Z" fill="white"/>
<path fill-rule="evenodd" clip-rule="evenodd" d="M12 14.4286C12.5714 14.4286 13.7143 11.5714 13.7143 11.5714C13.7143 11.5714 12.5714 8.71429 12 8.71429C9.16 8.71429 6.85714 11.5714 6.85714 11.5714C6.85714 11.5714 9.16 14.4286 12 14.4286Z" fill="black"/>
<path fill-rule="evenodd" clip-rule="evenodd" d="M9.14286 11H10.2857V12.1429H9.14286V11ZM11.4286 11H12.5714V12.1429H11.4286V11Z" fill="#878787"/>
<path fill-rule="evenodd" clip-rule="evenodd" d="M14.8571 11H16V12.1429H14.8571V11Z" fill="#5B5B5B" stroke="#979797"/>
<path d="M21.7143 3.57144H2.28572C1.33894 3.57144 0.57143 4.33895 0.57143 5.28573V17.8572C0.57143 18.8039 1.33894 19.5714 2.28572 19.5714H21.7143C22.6611 19.5714 23.4286 18.8039 23.4286 17.8572V5.28573C23.4286 4.33895 22.6611 3.57144 21.7143 3.57144Z" stroke="black" stroke-opacity="0.1"/>
</g>
</svg>
