<svg width="24" height="24" viewBox="0 0 24 24" fill="none" xmlns="http://www.w3.org/2000/svg">
<mask id="mask0_3349_51769" style="mask-type:alpha" maskUnits="userSpaceOnUse" x="0" y="3" width="24" height="18">
<path d="M21.7143 3H2.28571C1.02335 3 0 4.02335 0 5.28571V17.8571C0 19.1195 1.02335 20.1429 2.28571 20.1429H21.7143C22.9767 20.1429 24 19.1195 24 17.8571V5.28571C24 4.02335 22.9767 3 21.7143 3Z" fill="white"/>
</mask>
<g mask="url(#mask0_3349_51769)">
<path d="M21.7143 3H2.28571C1.02335 3 0 4.02335 0 5.28571V17.8571C0 19.1195 1.02335 20.1429 2.28571 20.1429H21.7143C22.9767 20.1429 24 19.1195 24 17.8571V5.28571C24 4.02335 22.9767 3 21.7143 3Z" fill="#012A87"/>
<path d="M24 3H0V11H24V3Z" fill="#DC171D"/>
<path fill-rule="evenodd" clip-rule="evenodd" d="M0 3L11.4286 11.5714L0 20.1429V3Z" fill="white"/>
<path fill-rule="evenodd" clip-rule="evenodd" d="M1.14285 8.71429H3.42857L4.57142 9.85715L5.71428 8.71429H8L5.71428 9.85715H3.42857L1.14285 8.71429Z" fill="#BC725D"/>
<path d="M4.57143 14.4286C5.20261 14.4286 5.71429 13.4052 5.71429 12.1429C5.71429 10.8805 5.20261 9.85715 4.57143 9.85715C3.94025 9.85715 3.42857 10.8805 3.42857 12.1429C3.42857 13.4052 3.94025 14.4286 4.57143 14.4286Z" fill="#62AFE1"/>
<path fill-rule="evenodd" clip-rule="evenodd" d="M3.42858 11V13.2857H4.57144H5.71429V11L6.85715 13.2857L5.71429 14.4286H3.42858L2.28572 13.2857L3.42858 11Z" fill="#FFDF00"/>
<path d="M21.7143 3.57144H2.28571C1.33894 3.57144 0.571426 4.33895 0.571426 5.28573V17.8572C0.571426 18.8039 1.33894 19.5714 2.28571 19.5714H21.7143C22.6611 19.5714 23.4286 18.8039 23.4286 17.8572V5.28573C23.4286 4.33895 22.6611 3.57144 21.7143 3.57144Z" stroke="black" stroke-opacity="0.1"/>
</g>
</svg>
