<svg width="24" height="24" viewBox="0 0 24 24" fill="none" xmlns="http://www.w3.org/2000/svg">
<mask id="mask0_3558_3132" style="mask-type:alpha" maskUnits="userSpaceOnUse" x="0" y="3" width="24" height="18">
<path d="M21.7143 3H2.28571C1.02335 3 0 4.02335 0 5.28571V17.8571C0 19.1195 1.02335 20.1429 2.28571 20.1429H21.7143C22.9767 20.1429 24 19.1195 24 17.8571V5.28571C24 4.02335 22.9767 3 21.7143 3Z" fill="white"/>
</mask>
<g mask="url(#mask0_3558_3132)">
<path d="M21.7143 3H2.28571C1.02335 3 0 4.02335 0 5.28571V17.8571C0 19.1195 1.02335 20.1429 2.28571 20.1429H21.7143C22.9767 20.1429 24 19.1195 24 17.8571V5.28571C24 4.02335 22.9767 3 21.7143 3Z" fill="#002868"/>
<path d="M10.2857 4.14282H2.28568C1.6545 4.14282 1.14282 4.6545 1.14282 5.28568V11C1.14282 11.6311 1.6545 12.1428 2.28568 12.1428H10.2857C10.9169 12.1428 11.4285 11.6311 11.4285 11V5.28568C11.4285 4.6545 10.9169 4.14282 10.2857 4.14282Z" fill="white"/>
<path fill-rule="evenodd" clip-rule="evenodd" d="M5.71434 8.71422H2.28577V7.57136H5.71434V5.28564H6.8572V7.57136H10.2858V8.71422H6.8572V10.9999H5.71434V8.71422ZM8.57148 9.85707V10.9999H10.2858V9.85707H8.57148ZM8.57148 5.28564V6.4285H10.2858V5.28564H8.57148ZM2.28577 9.85707V10.9999H4.00005V9.85707H2.28577ZM2.28577 5.28564V6.4285H4.00005V5.28564H2.28577Z" fill="#FF0000"/>
<path d="M21.7143 3.57153H2.2857C1.33892 3.57153 0.571411 4.33904 0.571411 5.28582V17.8572C0.571411 18.804 1.33892 19.5715 2.2857 19.5715H21.7143C22.661 19.5715 23.4286 18.804 23.4286 17.8572V5.28582C23.4286 4.33904 22.661 3.57153 21.7143 3.57153Z" stroke="black" stroke-opacity="0.1"/>
<path d="M20 9.14282V12.3634C20 13.4908 17.5 14.8571 17.5 14.8571C17.5 14.8571 15 13.4908 15 12.3634V9.14282H20Z" fill="#FCD116"/>
<rect x="18.0645" y="9.85718" width="1.10599" height="1.79724" fill="#945821"/>
<rect x="15.7143" y="9.85718" width="1.10599" height="1.79724" rx="0.552995" fill="#F3A5A3"/>
<path d="M16.7451 12.4247C16.8775 12.2041 17.116 12.0691 17.3733 12.0691C17.6306 12.0691 17.869 12.2041 18.0014 12.4247L18.4181 13.1192C18.6884 13.5697 18.3639 14.1428 17.8385 14.1428H16.9081C16.3827 14.1428 16.0582 13.5697 16.3285 13.1192L16.7451 12.4247Z" fill="#479C52"/>
<path d="M16.8999 11.9267C16.9336 11.6911 17.1353 11.5161 17.3733 11.5161C17.6113 11.5161 17.8131 11.6911 17.8467 11.9267L17.9263 12.4839H16.8203L16.8999 11.9267Z" fill="#BD2D2F"/>
</g>
</svg>
