<svg width="24" height="24" viewBox="0 0 24 24" fill="none" xmlns="http://www.w3.org/2000/svg">
<mask id="mask0_3349_51822" style="mask-type:alpha" maskUnits="userSpaceOnUse" x="0" y="3" width="24" height="18">
<path d="M21.7143 3H2.28571C1.02335 3 0 4.02335 0 5.28571V17.8571C0 19.1195 1.02335 20.1429 2.28571 20.1429H21.7143C22.9767 20.1429 24 19.1195 24 17.8571V5.28571C24 4.02335 22.9767 3 21.7143 3Z" fill="white"/>
</mask>
<g mask="url(#mask0_3349_51822)">
<path d="M21.7143 3H2.28571C1.02335 3 0 4.02335 0 5.28571V17.8571C0 19.1195 1.02335 20.1429 2.28571 20.1429H21.7143C22.9767 20.1429 24 19.1195 24 17.8571V5.28571C24 4.02335 22.9767 3 21.7143 3Z" fill="white"/>
<path fill-rule="evenodd" clip-rule="evenodd" d="M0 14.4286H24V20.1428H0V14.4286Z" fill="#007100"/>
<path fill-rule="evenodd" clip-rule="evenodd" d="M13.68 11.2286C13.7029 11.3394 13.7143 11.4537 13.7143 11.5714C13.7143 12.5177 12.9463 13.2857 12 13.2857C11.0537 13.2857 10.2857 12.5177 10.2857 11.5714C10.2857 11.4537 10.2971 11.3394 10.32 11.2286C10.48 11.7497 11.1703 12.1429 12 12.1429C12.8297 12.1429 13.52 11.7497 13.68 11.2286ZM12 11C12.3154 11 12.5714 10.744 12.5714 10.4286C12.5714 10.1131 12.3154 9.85715 12 9.85715C11.6846 9.85715 11.4286 10.1131 11.4286 10.4286C11.4286 10.744 11.6846 11 12 11Z" fill="#F9CA00"/>
<path fill-rule="evenodd" clip-rule="evenodd" d="M0 3H24V8.71429H0V3Z" fill="#D20200"/>
<path d="M21.7143 3.57144H2.28571C1.33894 3.57144 0.571426 4.33895 0.571426 5.28573V17.8572C0.571426 18.8039 1.33894 19.5714 2.28571 19.5714H21.7143C22.6611 19.5714 23.4286 18.8039 23.4286 17.8572V5.28573C23.4286 4.33895 22.6611 3.57144 21.7143 3.57144Z" stroke="black" stroke-opacity="0.1"/>
</g>
</svg>
