<svg width="24" height="24" viewBox="0 0 24 24" fill="none" xmlns="http://www.w3.org/2000/svg">
<mask id="mask0_3349_51838" style="mask-type:alpha" maskUnits="userSpaceOnUse" x="0" y="3" width="24" height="18">
<path d="M21.7143 3H2.28571C1.02335 3 0 4.02335 0 5.28571V17.8571C0 19.1195 1.02335 20.1429 2.28571 20.1429H21.7143C22.9767 20.1429 24 19.1195 24 17.8571V5.28571C24 4.02335 22.9767 3 21.7143 3Z" fill="white"/>
</mask>
<g mask="url(#mask0_3349_51838)">
<path d="M21.7143 3H2.28571C1.02335 3 0 4.02335 0 5.28571V17.8571C0 19.1195 1.02335 20.1429 2.28571 20.1429H21.7143C22.9767 20.1429 24 19.1195 24 17.8571V5.28571C24 4.02335 22.9767 3 21.7143 3Z" fill="#2DB771"/>
<path fill-rule="evenodd" clip-rule="evenodd" d="M2.28572 3H3.42858V20.1429H2.28572V3ZM4.57144 3H5.71429V20.1429H4.57144V3ZM6.85715 3H8.00001V20.1429H6.85715V3Z" fill="#D4B339"/>
<path fill-rule="evenodd" clip-rule="evenodd" d="M5.71429 3L8.00001 4.71429L5.71429 6.42857V3ZM5.71429 6.42857L8.00001 8.14286L5.71429 9.85714V6.42857ZM5.71429 9.85714L8.00001 11.5714L5.71429 13.2857V9.85714ZM5.71429 13.2857L8.00001 15L5.71429 16.7143V13.2857ZM5.71429 16.7143L8.00001 18.4286L5.71429 20.1429V16.7143ZM4.57144 3L2.28572 4.71429L4.57144 6.42857V3ZM4.57144 6.42857L2.28572 8.14286L4.57144 9.85714V6.42857ZM4.57144 9.85714L2.28572 11.5714L4.57144 13.2857V9.85714ZM4.57144 13.2857L2.28572 15L4.57144 16.7143V13.2857ZM4.57144 16.7143L2.28572 18.4286L4.57144 20.1429V16.7143ZM4.57144 3H5.71429V5.28571H4.57144V3ZM4.57144 17.8571H5.71429V20.1429H4.57144V17.8571ZM4.57144 8.71429H5.71429V11H4.57144V8.71429ZM4.57144 6.42857H5.71429V7.57143H4.57144V6.42857ZM4.57144 15.5714H5.71429V16.7143H4.57144V15.5714ZM4.57144 12.1429H5.71429V14.4286H4.57144V12.1429Z" fill="#AE6A3E"/>
<path fill-rule="evenodd" clip-rule="evenodd" d="M12.8411 6.44456C12.9406 6.43313 13.0411 6.42856 13.1429 6.42856C14.72 6.42856 16 7.70856 16 9.2857C16 10.8628 14.72 12.1428 13.1429 12.1428C11.5657 12.1428 10.2857 10.8628 10.2857 9.2857C10.2857 9.18284 10.2914 9.08342 10.3017 8.98399C10.4343 10.12 11.3989 11 12.5714 11C13.8343 11 14.8571 9.97713 14.8571 8.71427C14.8571 7.54284 13.9771 6.57713 12.8411 6.44456ZM11.4286 7.57142H12.5714V8.71427H11.4286V7.57142Z" fill="white"/>
<path fill-rule="evenodd" clip-rule="evenodd" d="M9.14285 7.57142H10.2857V8.71428H9.14285V7.57142ZM11.4286 5.28571H12.5714V6.42856H11.4286V5.28571Z" fill="#9EE2C0"/>
<path d="M21.7143 3.57144H2.28571C1.33894 3.57144 0.571426 4.33895 0.571426 5.28573V17.8572C0.571426 18.8039 1.33894 19.5714 2.28571 19.5714H21.7143C22.6611 19.5714 23.4286 18.8039 23.4286 17.8572V5.28573C23.4286 4.33895 22.6611 3.57144 21.7143 3.57144Z" stroke="black" stroke-opacity="0.1"/>
</g>
</svg>
