<svg width="24" height="24" viewBox="0 0 24 24" fill="none" xmlns="http://www.w3.org/2000/svg">
<mask id="mask0_3349_51847" style="mask-type:alpha" maskUnits="userSpaceOnUse" x="0" y="3" width="24" height="18">
<path d="M21.7143 3H2.28571C1.02335 3 0 4.02335 0 5.28571V17.8571C0 19.1195 1.02335 20.1429 2.28571 20.1429H21.7143C22.9767 20.1429 24 19.1195 24 17.8571V5.28571C24 4.02335 22.9767 3 21.7143 3Z" fill="white"/>
</mask>
<g mask="url(#mask0_3349_51847)">
<path d="M21.7143 3H2.28571C1.02335 3 0 4.02335 0 5.28571V17.8571C0 19.1195 1.02335 20.1429 2.28571 20.1429H21.7143C22.9767 20.1429 24 19.1195 24 17.8571V5.28571C24 4.02335 22.9767 3 21.7143 3Z" fill="#EA0312"/>
<path d="M12 15.5714C14.2091 15.5714 16 13.7806 16 11.5714C16 9.3623 14.2091 7.57144 12 7.57144C9.79086 7.57144 8 9.3623 8 11.5714C8 13.7806 9.79086 15.5714 12 15.5714Z" fill="white"/>
<path fill-rule="evenodd" clip-rule="evenodd" d="M13.7143 11H14.8572V12.1429H13.7143V11Z" fill="#EA0312"/>
<path fill-rule="evenodd" clip-rule="evenodd" d="M14.2857 13.2857C13.7646 13.9794 12.9349 14.4286 12 14.4286C10.4229 14.4286 9.14285 13.1486 9.14285 11.5714C9.14285 9.99429 10.4229 8.71429 12 8.71429C12.9349 8.71429 13.7646 9.16344 14.2857 9.85715H12.5714C11.6251 9.85715 10.8571 10.6252 10.8571 11.5714C10.8571 12.5177 11.6251 13.2857 12.5714 13.2857H14.2857Z" fill="#EA0312"/>
<path d="M21.7143 3.57144H2.28571C1.33894 3.57144 0.571426 4.33895 0.571426 5.28573V17.8572C0.571426 18.8039 1.33894 19.5714 2.28571 19.5714H21.7143C22.6611 19.5714 23.4286 18.8039 23.4286 17.8572V5.28573C23.4286 4.33895 22.6611 3.57144 21.7143 3.57144Z" stroke="black" stroke-opacity="0.1"/>
</g>
</svg>
