<svg width="24" height="24" viewBox="0 0 24 24" fill="none" xmlns="http://www.w3.org/2000/svg">
<mask id="mask0_3349_51862" style="mask-type:alpha" maskUnits="userSpaceOnUse" x="0" y="3" width="24" height="18">
<path d="M21.7143 3H2.28571C1.02335 3 0 4.02335 0 5.28571V17.8571C0 19.1195 1.02335 20.1429 2.28571 20.1429H21.7143C22.9767 20.1429 24 19.1195 24 17.8571V5.28571C24 4.02335 22.9767 3 21.7143 3Z" fill="white"/>
</mask>
<g mask="url(#mask0_3349_51862)">
<path d="M21.7143 3H2.28571C1.02335 3 0 4.02335 0 5.28571V17.8571C0 19.1195 1.02335 20.1429 2.28571 20.1429H21.7143C22.9767 20.1429 24 19.1195 24 17.8571V5.28571C24 4.02335 22.9767 3 21.7143 3Z" fill="#E70B17"/>
<path fill-rule="evenodd" clip-rule="evenodd" d="M16.0023 12.888L14.6743 13.5851L14.928 12.1074L13.8537 11.0594L15.3394 10.8423L16.0023 9.49829L16.6651 10.8434L18.1509 11.0606L17.0766 12.1063L17.3303 13.584" fill="white"/>
<path fill-rule="evenodd" clip-rule="evenodd" d="M10.8571 15.5714C13.0663 15.5714 14.8571 13.7806 14.8571 11.5714C14.8571 9.3623 13.0663 7.57144 10.8571 7.57144C8.648 7.57144 6.85714 9.3623 6.85714 11.5714C6.85714 13.7806 8.648 15.5714 10.8571 15.5714ZM12 14.4286C13.5771 14.4286 14.8571 13.1486 14.8571 11.5714C14.8571 9.9943 13.5771 8.7143 12 8.7143C10.4229 8.7143 9.14285 9.9943 9.14285 11.5714C9.14285 13.1486 10.4229 14.4286 12 14.4286Z" fill="white"/>
<path d="M21.7143 3.57144H2.28571C1.33894 3.57144 0.571426 4.33895 0.571426 5.28573V17.8572C0.571426 18.8039 1.33894 19.5714 2.28571 19.5714H21.7143C22.6611 19.5714 23.4286 18.8039 23.4286 17.8572V5.28573C23.4286 4.33895 22.6611 3.57144 21.7143 3.57144Z" stroke="black" stroke-opacity="0.1"/>
</g>
</svg>
