<svg width="24" height="24" viewBox="0 0 24 24" fill="none" xmlns="http://www.w3.org/2000/svg">
<mask id="mask0_3349_51876" style="mask-type:alpha" maskUnits="userSpaceOnUse" x="0" y="3" width="24" height="18">
<path d="M21.7143 3H2.28571C1.02335 3 0 4.02335 0 5.28571V17.8571C0 19.1195 1.02335 20.1429 2.28571 20.1429H21.7143C22.9767 20.1429 24 19.1195 24 17.8571V5.28571C24 4.02335 22.9767 3 21.7143 3Z" fill="white"/>
</mask>
<g mask="url(#mask0_3349_51876)">
<path d="M21.7143 3H2.28571C1.02335 3 0 4.02335 0 5.28571V17.8571C0 19.1195 1.02335 20.1429 2.28571 20.1429H21.7143C22.9767 20.1429 24 19.1195 24 17.8571V5.28571C24 4.02335 22.9767 3 21.7143 3Z" fill="#66A1BA"/>
<path fill-rule="evenodd" clip-rule="evenodd" d="M16 8.71429V9.85715H17.1429V8.71429H16ZM19.4286 8.71429V9.85715H20.5714V8.71429H19.4286ZM13.7143 12.1429V13.2857H14.8571V12.1429H13.7143ZM18.2857 13.2857V14.4286H19.4286V13.2857H18.2857ZM13.7143 15.5714V16.7143H14.8571V15.5714H13.7143ZM9.14286 14.4286V15.5714H10.2857V14.4286H9.14286Z" fill="#FFD400"/>
<path d="M10.2857 4.14285H2.28571C1.65453 4.14285 1.14286 4.65453 1.14286 5.28571V11C1.14286 11.6312 1.65453 12.1429 2.28571 12.1429H10.2857C10.9169 12.1429 11.4286 11.6312 11.4286 11V5.28571C11.4286 4.65453 10.9169 4.14285 10.2857 4.14285Z" fill="white"/>
<path fill-rule="evenodd" clip-rule="evenodd" d="M5.71429 8.71428H2.28571V7.57142H5.71429V5.28571H6.85714V7.57142H10.2857V8.71428H6.85714V11H5.71429V8.71428ZM8.57143 9.85713V11H10.2857V9.85713H8.57143ZM8.57143 5.28571V6.42856H10.2857V5.28571H8.57143ZM2.28571 9.85713V11H4V9.85713H2.28571ZM2.28571 5.28571V6.42856H4V5.28571H2.28571Z" fill="#FF0000"/>
<path d="M21.7143 3.57144H2.28571C1.33894 3.57144 0.571428 4.33895 0.571428 5.28573V17.8572C0.571428 18.8039 1.33894 19.5714 2.28571 19.5714H21.7143C22.6611 19.5714 23.4286 18.8039 23.4286 17.8572V5.28573C23.4286 4.33895 22.6611 3.57144 21.7143 3.57144Z" stroke="black" stroke-opacity="0.1"/>
</g>
</svg>
