<svg width="24" height="24" viewBox="0 0 24 24" fill="none" xmlns="http://www.w3.org/2000/svg">
<mask id="mask0_3544_2809" style="mask-type:alpha" maskUnits="userSpaceOnUse" x="0" y="3" width="24" height="18">
<path d="M21.7143 3H2.28571C1.02335 3 0 4.02335 0 5.28571V17.8571C0 19.1195 1.02335 20.1429 2.28571 20.1429H21.7143C22.9767 20.1429 24 19.1195 24 17.8571V5.28571C24 4.02335 22.9767 3 21.7143 3Z" fill="white"/>
</mask>
<g mask="url(#mask0_3544_2809)">
<path d="M21.7143 3H2.28571C1.02335 3 0 4.02335 0 5.28571V17.8571C0 19.1195 1.02335 20.1429 2.28571 20.1429H21.7143C22.9767 20.1429 24 19.1195 24 17.8571V5.28571C24 4.02335 22.9767 3 21.7143 3Z" fill="#FE0000"/>
<path fill-rule="evenodd" clip-rule="evenodd" d="M0 3H12.5714V12.1429H0V3Z" fill="#000095"/>
</g>
<mask id="mask1_3544_2809" style="mask-type:alpha" maskUnits="userSpaceOnUse" x="0" y="3" width="24" height="17">
<path d="M21.7143 3.57153H2.2857C1.33892 3.57153 0.571411 4.33904 0.571411 5.28582V17.8572C0.571411 18.804 1.33892 19.5715 2.2857 19.5715H21.7143C22.661 19.5715 23.4286 18.804 23.4286 17.8572V5.28582C23.4286 4.33904 22.661 3.57153 21.7143 3.57153Z" fill="#FE0000"/>
</mask>
<g mask="url(#mask1_3544_2809)">
<path d="M21.7143 3.57153H2.2857C1.33892 3.57153 0.571411 4.33904 0.571411 5.28582V17.8572C0.571411 18.804 1.33892 19.5715 2.2857 19.5715H21.7143C22.661 19.5715 23.4286 18.804 23.4286 17.8572V5.28582C23.4286 4.33904 22.661 3.57153 21.7143 3.57153Z" stroke="black" stroke-opacity="0.1"/>
<path d="M6.5 5L5.25 9.66507L8.66507 6.25L4 7.5L8.66507 8.75L5.25 5.33493L6.5 10L7.75 5.33493L4.33493 8.75L9 7.5L4.33493 6.25L7.75 9.66507L6.5 5Z" fill="white"/>
<path d="M6.49996 8.83317C7.23634 8.83317 7.83329 8.23622 7.83329 7.49984C7.83329 6.76346 7.23634 6.1665 6.49996 6.1665C5.76358 6.1665 5.16663 6.76346 5.16663 7.49984C5.16663 8.23622 5.76358 8.83317 6.49996 8.83317Z" fill="white" stroke="#000095" stroke-width="0.166667"/>
</g>
</svg>
