<svg width="24" height="24" viewBox="0 0 24 24" fill="none" xmlns="http://www.w3.org/2000/svg">
<mask id="mask0_3349_51884" style="mask-type:alpha" maskUnits="userSpaceOnUse" x="0" y="3" width="24" height="18">
<path d="M21.7143 3H2.28571C1.02335 3 0 4.02335 0 5.28571V17.8571C0 19.1195 1.02335 20.1429 2.28571 20.1429H21.7143C22.9767 20.1429 24 19.1195 24 17.8571V5.28571C24 4.02335 22.9767 3 21.7143 3Z" fill="white"/>
</mask>
<g mask="url(#mask0_3349_51884)">
<path d="M21.7143 3H2.28571C1.02335 3 0 4.02335 0 5.28571V17.8571C0 19.1195 1.02335 20.1429 2.28571 20.1429H21.7143C22.9767 20.1429 24 19.1195 24 17.8571V5.28571C24 4.02335 22.9767 3 21.7143 3Z" fill="#20BD42"/>
<path fill-rule="evenodd" clip-rule="evenodd" d="M0 20.1428H24V5.28571L0 17.8571V20.1428Z" fill="#03ACE1"/>
<path fill-rule="evenodd" clip-rule="evenodd" d="M0 19L24 6.42858V1.85715L0 14.4286V19Z" fill="#FCD715"/>
<path fill-rule="evenodd" clip-rule="evenodd" d="M0 21.2857L24 8.71428V4.14285L0 16.7143V21.2857Z" fill="#FCD715"/>
<path fill-rule="evenodd" clip-rule="evenodd" d="M0 20.1429L24 7.57143V3L0 15.5714V20.1429Z" fill="black"/>
<path d="M21.7143 3.57144H2.28571C1.33894 3.57144 0.571428 4.33895 0.571428 5.28573V17.8572C0.571428 18.8039 1.33894 19.5714 2.28571 19.5714H21.7143C22.6611 19.5714 23.4286 18.8039 23.4286 17.8572V5.28573C23.4286 4.33895 22.6611 3.57144 21.7143 3.57144Z" stroke="black" stroke-opacity="0.1"/>
</g>
</svg>
