<svg width="24" height="24" viewBox="0 0 24 24" fill="none" xmlns="http://www.w3.org/2000/svg">
<mask id="mask0_3349_51899" style="mask-type:alpha" maskUnits="userSpaceOnUse" x="0" y="3" width="24" height="18">
<path d="M21.7143 3H2.28571C1.02335 3 0 4.02335 0 5.28571V17.8571C0 19.1195 1.02335 20.1429 2.28571 20.1429H21.7143C22.9767 20.1429 24 19.1195 24 17.8571V5.28571C24 4.02335 22.9767 3 21.7143 3Z" fill="white"/>
</mask>
<g mask="url(#mask0_3349_51899)">
<path d="M21.7143 3H2.28571C1.02335 3 0 4.02335 0 5.28571V17.8571C0 19.1195 1.02335 20.1429 2.28571 20.1429H21.7143C22.9767 20.1429 24 19.1195 24 17.8571V5.28571C24 4.02335 22.9767 3 21.7143 3Z" fill="#FCE102"/>
<path fill-rule="evenodd" clip-rule="evenodd" d="M0 3H24V5.28571H0V3Z" fill="black"/>
<path fill-rule="evenodd" clip-rule="evenodd" d="M0 7.57144H24V11H0V7.57144Z" fill="#DE0200"/>
<path fill-rule="evenodd" clip-rule="evenodd" d="M0 11H24V14.4286H0V11Z" fill="black"/>
<path d="M22.8571 16.7143H1.14286C0.511675 16.7143 0 17.226 0 17.8572V19C0 19.6312 0.511675 20.1429 1.14286 20.1429H22.8571C23.4883 20.1429 24 19.6312 24 19V17.8572C24 17.226 23.4883 16.7143 22.8571 16.7143Z" fill="#DE0200"/>
<path d="M11.4286 14.4286C13.3221 14.4286 14.8571 12.8936 14.8571 11C14.8571 9.10647 13.3221 7.57144 11.4286 7.57144C9.53502 7.57144 8 9.10647 8 11C8 12.8936 9.53502 14.4286 11.4286 14.4286Z" fill="white"/>
<path fill-rule="evenodd" clip-rule="evenodd" d="M11.4286 7.57144L10.2857 11L11.4286 13.2857L12.5714 11V14.4286L13.7143 11L12.5714 9.85716L11.4286 11V7.57144Z" fill="black"/>
<path d="M21.7143 3.57144H2.28571C1.33894 3.57144 0.571426 4.33895 0.571426 5.28573V17.8572C0.571426 18.8039 1.33894 19.5714 2.28571 19.5714H21.7143C22.6611 19.5714 23.4286 18.8039 23.4286 17.8572V5.28573C23.4286 4.33895 22.6611 3.57144 21.7143 3.57144Z" stroke="black" stroke-opacity="0.1"/>
</g>
</svg>
