<svg width="24" height="24" viewBox="0 0 24 24" fill="none" xmlns="http://www.w3.org/2000/svg">
<mask id="mask0_3349_51918" style="mask-type:alpha" maskUnits="userSpaceOnUse" x="0" y="3" width="24" height="18">
<path d="M21.7143 3H2.28571C1.02335 3 0 4.02335 0 5.28571V17.8571C0 19.1195 1.02335 20.1429 2.28571 20.1429H21.7143C22.9767 20.1429 24 19.1195 24 17.8571V5.28571C24 4.02335 22.9767 3 21.7143 3Z" fill="white"/>
</mask>
<g mask="url(#mask0_3349_51918)">
<path d="M21.7143 3H2.28571C1.02335 3 0 4.02335 0 5.28571V17.8571C0 19.1195 1.02335 20.1429 2.28571 20.1429H21.7143C22.9767 20.1429 24 19.1195 24 17.8571V5.28571C24 4.02335 22.9767 3 21.7143 3Z" fill="white"/>
<path fill-rule="evenodd" clip-rule="evenodd" d="M11.4286 6.42856H24V8.71427H11.4286V6.42856ZM11.4286 11H24V13.2857H11.4286V11ZM0 15.5714H24V17.8571H0V15.5714Z" fill="#005CB2"/>
<path fill-rule="evenodd" clip-rule="evenodd" d="M7.86286 10.8628C7.60001 12.2857 6.99429 13.2857 6.28572 13.2857C5.57715 13.2857 4.97144 12.2868 4.70858 10.8628C3.28572 10.6 2.28572 9.99428 2.28572 9.28571C2.28572 8.57713 3.28458 7.97142 4.70858 7.70856C4.97144 6.28571 5.57715 5.28571 6.28572 5.28571C6.99429 5.28571 7.60001 6.28456 7.86286 7.70856C9.28572 7.97142 10.2857 8.57713 10.2857 9.28571C10.2857 9.99428 9.28686 10.6 7.86286 10.8628Z" fill="#FFEA7B"/>
<path fill-rule="evenodd" clip-rule="evenodd" d="M7.07086 10.0708C6.99772 11.9028 6.67429 13.2857 6.28572 13.2857C5.89715 13.2857 5.57372 11.9028 5.50058 10.0708C3.66858 9.9977 2.28572 9.67428 2.28572 9.28571C2.28572 8.89713 3.66858 8.57371 5.50058 8.50056C5.57372 6.66856 5.89715 5.28571 6.28572 5.28571C6.67429 5.28571 6.99772 6.66856 7.07086 8.50056C8.90286 8.57371 10.2857 8.89713 10.2857 9.28571C10.2857 9.67428 8.90286 9.9977 7.07086 10.0708Z" fill="#FCD715"/>
<path d="M6.28571 11C7.23249 11 8 10.2325 8 9.28573C8 8.33895 7.23249 7.57144 6.28571 7.57144C5.33894 7.57144 4.57143 8.33895 4.57143 9.28573C4.57143 10.2325 5.33894 11 6.28571 11Z" fill="#FCD715"/>
<path d="M21.7143 3.57144H2.28571C1.33894 3.57144 0.571426 4.33895 0.571426 5.28573V17.8572C0.571426 18.8039 1.33894 19.5714 2.28571 19.5714H21.7143C22.6611 19.5714 23.4286 18.8039 23.4286 17.8572V5.28573C23.4286 4.33895 22.6611 3.57144 21.7143 3.57144Z" stroke="black" stroke-opacity="0.1"/>
</g>
</svg>
