<svg width="24" height="24" viewBox="0 0 24 24" fill="none" xmlns="http://www.w3.org/2000/svg">
<mask id="mask0_3349_51910" style="mask-type:alpha" maskUnits="userSpaceOnUse" x="0" y="3" width="24" height="18">
<path d="M21.7143 3H2.28571C1.02335 3 0 4.02335 0 5.28571V17.8571C0 19.1195 1.02335 20.1429 2.28571 20.1429H21.7143C22.9767 20.1429 24 19.1195 24 17.8571V5.28571C24 4.02335 22.9767 3 21.7143 3Z" fill="white"/>
</mask>
<g mask="url(#mask0_3349_51910)">
<path d="M21.7143 3H2.28571C1.02335 3 0 4.02335 0 5.28571V17.8571C0 19.1195 1.02335 20.1429 2.28571 20.1429H21.7143C22.9767 20.1429 24 19.1195 24 17.8571V5.28571C24 4.02335 22.9767 3 21.7143 3Z" fill="white"/>
<path fill-rule="evenodd" clip-rule="evenodd" d="M0 3H10.2857V11H0V3Z" fill="#444379"/>
<path fill-rule="evenodd" clip-rule="evenodd" d="M1.14285 4.14285V5.28571H2.28571V4.14285H1.14285ZM3.42857 4.14285V5.28571H4.57142V4.14285H3.42857ZM5.71428 4.14285V5.28571H6.85714V4.14285H5.71428ZM8 4.14285V5.28571H9.14285V4.14285H8ZM6.85714 5.28571V6.42857H8V5.28571H6.85714ZM4.57142 5.28571V6.42857H5.71428V5.28571H4.57142ZM2.28571 5.28571V6.42857H3.42857V5.28571H2.28571ZM1.14285 6.42857V7.57142H2.28571V6.42857H1.14285ZM3.42857 6.42857V7.57142H4.57142V6.42857H3.42857ZM5.71428 6.42857V7.57142H6.85714V6.42857H5.71428ZM8 6.42857V7.57142H9.14285V6.42857H8ZM1.14285 8.71428V9.85714H2.28571V8.71428H1.14285ZM3.42857 8.71428V9.85714H4.57142V8.71428H3.42857ZM5.71428 8.71428V9.85714H6.85714V8.71428H5.71428ZM8 8.71428V9.85714H9.14285V8.71428H8ZM6.85714 7.57142V8.71428H8V7.57142H6.85714ZM4.57142 7.57142V8.71428H5.71428V7.57142H4.57142ZM2.28571 7.57142V8.71428H3.42857V7.57142H2.28571Z" fill="#A7B6E7"/>
<path fill-rule="evenodd" clip-rule="evenodd" d="M10.2857 3V4.14286H24V3H10.2857ZM10.2857 5.28571V6.42857H24V5.28571H10.2857ZM10.2857 7.57143V8.71429H24V7.57143H10.2857ZM10.2857 9.85714V11H24V9.85714H10.2857ZM0 12.1429V13.2857H24V12.1429H0ZM0 14.4286V15.5714H24V14.4286H0ZM0 16.7143V17.8571H24V16.7143H0ZM0 19V20.1429H24V19H0Z" fill="#ED4C49"/>
<path d="M21.7143 3.57144H2.28571C1.33894 3.57144 0.571426 4.33895 0.571426 5.28573V17.8572C0.571426 18.8039 1.33894 19.5714 2.28571 19.5714H21.7143C22.6611 19.5714 23.4286 18.8039 23.4286 17.8572V5.28573C23.4286 4.33895 22.6611 3.57144 21.7143 3.57144Z" stroke="black" stroke-opacity="0.1"/>
</g>
</svg>
