<svg width="24" height="24" viewBox="0 0 24 24" fill="none" xmlns="http://www.w3.org/2000/svg">
<mask id="mask0_3349_51927" style="mask-type:alpha" maskUnits="userSpaceOnUse" x="0" y="3" width="24" height="18">
<path d="M21.7143 3H2.28571C1.02335 3 0 4.02335 0 5.28571V17.8571C0 19.1195 1.02335 20.1429 2.28571 20.1429H21.7143C22.9767 20.1429 24 19.1195 24 17.8571V5.28571C24 4.02335 22.9767 3 21.7143 3Z" fill="white"/>
</mask>
<g mask="url(#mask0_3349_51927)">
<path d="M21.7143 3H2.28571C1.02335 3 0 4.02335 0 5.28571V17.8571C0 19.1195 1.02335 20.1429 2.28571 20.1429H21.7143C22.9767 20.1429 24 19.1195 24 17.8571V5.28571C24 4.02335 22.9767 3 21.7143 3Z" fill="#D4112A"/>
<path fill-rule="evenodd" clip-rule="evenodd" d="M0 15.5714H24V20.1429H0V15.5714Z" fill="#20BD42"/>
<path fill-rule="evenodd" clip-rule="evenodd" d="M0 3H24V7.57143H0V3Z" fill="#02A3BD"/>
<path fill-rule="evenodd" clip-rule="evenodd" d="M0 8.71428H24V14.4286H0V8.71428ZM5.71429 7.47428C5.536 7.53714 5.34286 7.57142 5.14286 7.57142C4.19657 7.57142 3.42857 6.80342 3.42857 5.85714C3.42857 4.91085 4.19657 4.14285 5.14286 4.14285C5.34286 4.14285 5.536 4.17714 5.71429 4.24C5.048 4.47542 4.57143 5.11085 4.57143 5.85714C4.57143 6.60342 5.048 7.24 5.71429 7.47428Z" fill="white"/>
<path fill-rule="evenodd" clip-rule="evenodd" d="M6.85715 5.28571H8V6.42857H6.85715V5.28571ZM8 4.14285H9.14286V5.28571H8V4.14285ZM9.14286 5.28571H10.2857V6.42857H9.14286V5.28571ZM10.2857 4.14285H11.4286V5.28571H10.2857V4.14285ZM11.4286 5.28571H12.5714V6.42857H11.4286V5.28571ZM10.2857 6.42857H11.4286V7.57142H10.2857V6.42857ZM8 6.42857H9.14286V7.57142H8V6.42857Z" fill="#78CDDB"/>
<path d="M21.7143 3.57144H2.28571C1.33894 3.57144 0.571426 4.33895 0.571426 5.28573V17.8572C0.571426 18.8039 1.33894 19.5714 2.28571 19.5714H21.7143C22.6611 19.5714 23.4286 18.8039 23.4286 17.8572V5.28573C23.4286 4.33895 22.6611 3.57144 21.7143 3.57144Z" stroke="black" stroke-opacity="0.1"/>
</g>
</svg>
