<svg width="24" height="24" viewBox="0 0 24 24" fill="none" xmlns="http://www.w3.org/2000/svg">
<mask id="mask0_3349_52030" style="mask-type:alpha" maskUnits="userSpaceOnUse" x="0" y="3" width="24" height="18">
<path d="M21.7143 3H2.28571C1.02335 3 0 4.02335 0 5.28571V17.8571C0 19.1195 1.02335 20.1429 2.28571 20.1429H21.7143C22.9767 20.1429 24 19.1195 24 17.8571V5.28571C24 4.02335 22.9767 3 21.7143 3Z" fill="white"/>
</mask>
<g mask="url(#mask0_3349_52030)">
<path fill-rule="evenodd" clip-rule="evenodd" d="M3 6.2C3 5.07989 3 4.51984 3.21799 4.09202C3.40973 3.71569 3.71569 3.40973 4.09202 3.21799C4.51984 3 5.07989 3 6.2 3H12.1429V20.1429H6.2C5.0799 20.1429 4.51984 20.1429 4.09202 19.9249C3.71569 19.7331 3.40973 19.4272 3.21799 19.0508C3 18.623 3 18.063 3 16.9429V6.2Z" fill="#FFE200"/>
<path fill-rule="evenodd" clip-rule="evenodd" d="M12.1429 3H19C20.2624 3 21.2857 4.02335 21.2857 5.28571V17.8571C21.2857 19.1195 20.2624 20.1429 19 20.1429H12.1429V3Z" fill="white"/>
<path d="M14.4286 9.85715L17.8571 13.2857" stroke="#CCCCCC" stroke-width="1.14286"/>
<path d="M16.1429 11.5714V14.4286" stroke="#ED9069" stroke-width="1.14286"/>
<path fill-rule="evenodd" clip-rule="evenodd" d="M14.4286 9.85716H17.8571L16.1429 7.57144L14.4286 9.85716Z" fill="#CF9E00"/>
<path d="M17.8571 9.85715L14.4286 13.2857" stroke="#CF9E00" stroke-width="1.14286"/>
<path d="M19 3.57144H5.28571C4.33894 3.57144 3.57143 4.33895 3.57143 5.28573V17.8572C3.57143 18.8039 4.33894 19.5714 5.28571 19.5714H19C19.9468 19.5714 20.7143 18.8039 20.7143 17.8572V5.28573C20.7143 4.33895 19.9468 3.57144 19 3.57144Z" stroke="black" stroke-opacity="0.1" stroke-width="1.14286"/>
</g>
</svg>
