<svg width="24" height="24" viewBox="0 0 24 24" fill="none" xmlns="http://www.w3.org/2000/svg">
<mask id="mask0_3565_3435" style="mask-type:alpha" maskUnits="userSpaceOnUse" x="0" y="3" width="24" height="18">
<path d="M21.7143 3H2.28571C1.02335 3 0 4.02335 0 5.28571V17.8571C0 19.1195 1.02335 20.1429 2.28571 20.1429H21.7143C22.9767 20.1429 24 19.1195 24 17.8571V5.28571C24 4.02335 22.9767 3 21.7143 3Z" fill="white"/>
</mask>
<g mask="url(#mask0_3565_3435)">
<path d="M21.7143 3H2.28571C1.02335 3 0 4.02335 0 5.28571V17.8571C0 19.1195 1.02335 20.1429 2.28571 20.1429H21.7143C22.9767 20.1429 24 19.1195 24 17.8571V5.28571C24 4.02335 22.9767 3 21.7143 3Z" fill="#002868"/>
<path d="M10.2857 4.14282H2.28568C1.6545 4.14282 1.14282 4.6545 1.14282 5.28568V11C1.14282 11.6311 1.6545 12.1428 2.28568 12.1428H10.2857C10.9169 12.1428 11.4285 11.6311 11.4285 11V5.28568C11.4285 4.6545 10.9169 4.14282 10.2857 4.14282Z" fill="white"/>
<path fill-rule="evenodd" clip-rule="evenodd" d="M5.71434 8.71422H2.28577V7.57136H5.71434V5.28564H6.8572V7.57136H10.2858V8.71422H6.8572V10.9999H5.71434V8.71422ZM8.57148 9.85707V10.9999H10.2858V9.85707H8.57148ZM8.57148 5.28564V6.4285H10.2858V5.28564H8.57148ZM2.28577 9.85707V10.9999H4.00005V9.85707H2.28577ZM2.28577 5.28564V6.4285H4.00005V5.28564H2.28577Z" fill="#FF0000"/>
<path d="M21.7143 3.57153H2.2857C1.33892 3.57153 0.571411 4.33904 0.571411 5.28582V17.8572C0.571411 18.804 1.33892 19.5715 2.2857 19.5715H21.7143C22.661 19.5715 23.4286 18.804 23.4286 17.8572V5.28582C23.4286 4.33904 22.661 3.57153 21.7143 3.57153Z" stroke="black" stroke-opacity="0.1"/>
<path d="M17.5189 15.937L17.5 15.9454L17.4811 15.937C17.4557 15.9256 17.4183 15.9087 17.3707 15.8866C17.2754 15.8423 17.1392 15.7773 16.9757 15.6944C16.6487 15.5284 16.2129 15.2909 15.7775 15.0045C15.3417 14.7179 14.9081 14.3835 14.584 14.0242C14.2591 13.664 14.05 13.2852 14.05 12.9089V8.05H20.95V12.9089C20.95 13.2852 20.7409 13.664 20.416 14.0242C20.0919 14.3835 19.6583 14.7179 19.2225 15.0045C18.7871 15.2909 18.3513 15.5284 18.0243 15.6944C17.8608 15.7773 17.7246 15.8423 17.6293 15.8866C17.5817 15.9087 17.5443 15.9256 17.5189 15.937Z" fill="#006129" stroke="white" stroke-width="0.1"/>
<path d="M20.5 13.5L21 13.9089C21 15.4872 19.3236 17 17.5 17C15.6764 17 14 15.4872 14 13.9089L14.5 13.5C14.5 13.5 15.6998 16 17.5 16C19.3002 16 20.5 13.5 20.5 13.5Z" fill="#FCD116"/>
<path d="M17 10.5L16 11.5L16.0893 11.7678" stroke="#FFC6B5" stroke-width="0.357143"/>
<path d="M16.7143 14V10.5179L17 10L17.0714 9.17857L17.6964 9L17.5179 9.625L17.7857 10.0714L17.5179 10.9643L18.2322 13.8214L16.7143 14Z" fill="white"/>
<path d="M17.5179 9.80357L16.9822 9.17857L17.6965 9L17.9643 9.44643L17.5179 9.80357Z" fill="#9C5100" stroke="#9C5100" stroke-width="0.178571"/>
<path d="M17.6964 9.89282L17.5178 9.44639L17.3393 9.26782L16.8928 9.62497L17.25 10.1607L17.6964 9.89282Z" fill="#FFC6B5"/>
<path d="M17.7857 10.25L17.9643 11.3214L17.5178 11.8571V12.125" stroke="#FFC6B5" stroke-width="0.357143"/>
</g>
</svg>
