<svg width="24" height="24" viewBox="0 0 24 24" fill="none" xmlns="http://www.w3.org/2000/svg">
<mask id="mask0_3349_51951" style="mask-type:alpha" maskUnits="userSpaceOnUse" x="0" y="3" width="24" height="18">
<path d="M21.7143 3H2.28571C1.02335 3 0 4.02335 0 5.28571V17.8571C0 19.1195 1.02335 20.1429 2.28571 20.1429H21.7143C22.9767 20.1429 24 19.1195 24 17.8571V5.28571C24 4.02335 22.9767 3 21.7143 3Z" fill="white"/>
</mask>
<g mask="url(#mask0_3349_51951)">
<path d="M21.7143 3H2.28571C1.02335 3 0 4.02335 0 5.28571V17.8571C0 19.1195 1.02335 20.1429 2.28571 20.1429H21.7143C22.9767 20.1429 24 19.1195 24 17.8571V5.28571C24 4.02335 22.9767 3 21.7143 3Z" fill="white"/>
<path fill-rule="evenodd" clip-rule="evenodd" d="M17.4286 13.2857L18.2857 14.1428L15.7143 16.7143L14.8571 15.8571L17.4286 13.2857Z" fill="#0081C6"/>
<path fill-rule="evenodd" clip-rule="evenodd" d="M7.71429 13.2857L6.85714 14.1428L9.42857 16.7143L10.2857 15.8571L7.71429 13.2857Z" fill="#369443"/>
<path fill-rule="evenodd" clip-rule="evenodd" d="M8 13.2857H9.14286V14.4286L6.85714 15.5714L8 13.2857Z" fill="#F4C53D"/>
<path fill-rule="evenodd" clip-rule="evenodd" d="M3.42857 11H4.57143V14.4286H3.42857V11ZM19.4286 11H20.5714V14.4286H19.4286V11Z" fill="#0081C6"/>
<path fill-rule="evenodd" clip-rule="evenodd" d="M12.5714 7.57142V6.42856H10.2857V7.57142L11.4286 8.71427V11H12.5714V7.57142ZM4.57143 7.57142L9.14286 8.71427V12.1428L4.57143 8.71427V7.57142ZM19.4286 7.57142L14.8571 8.71427V12.1428L19.4286 8.71427V7.57142ZM9.14286 15.5714L12 16.7143L14.8571 15.5714L13.7143 14.4286H10.2857L9.14286 15.5714Z" fill="#F4C53D"/>
<path fill-rule="evenodd" clip-rule="evenodd" d="M9.14286 9.85715H14.8571V14.4286L12 15.5714L9.14286 14.4286V9.85715Z" fill="#A60032"/>
<path fill-rule="evenodd" clip-rule="evenodd" d="M9.14286 8.71429H14.8571V11H9.14286V8.71429Z" fill="#162667"/>
<path fill-rule="evenodd" clip-rule="evenodd" d="M10.2857 11H11.4286V14.4286H10.2857V11ZM12.5714 11H13.7143V14.4286H12.5714V11Z" fill="white"/>
<path fill-rule="evenodd" clip-rule="evenodd" d="M16 13.2857H14.8571V14.4286L17.1429 15.5714L16 13.2857Z" fill="#F4C53D"/>
<path d="M21.7143 3.57144H2.28571C1.33894 3.57144 0.571428 4.33895 0.571428 5.28573V17.8572C0.571428 18.8039 1.33894 19.5714 2.28571 19.5714H21.7143C22.6611 19.5714 23.4286 18.8039 23.4286 17.8572V5.28573C23.4286 4.33895 22.6611 3.57144 21.7143 3.57144Z" stroke="black" stroke-opacity="0.1"/>
</g>
</svg>
