<svg width="24" height="24" viewBox="0 0 24 24" fill="none" xmlns="http://www.w3.org/2000/svg">
<mask id="mask0_3349_51971" style="mask-type:alpha" maskUnits="userSpaceOnUse" x="0" y="3" width="24" height="18">
<path d="M21.7143 3H2.28571C1.02335 3 0 4.02335 0 5.28571V17.8571C0 19.1195 1.02335 20.1429 2.28571 20.1429H21.7143C22.9767 20.1429 24 19.1195 24 17.8571V5.28571C24 4.02335 22.9767 3 21.7143 3Z" fill="white"/>
</mask>
<g mask="url(#mask0_3349_51971)">
<path d="M21.7143 3H2.28571C1.02335 3 0 4.02335 0 5.28571V17.8571C0 19.1195 1.02335 20.1429 2.28571 20.1429H21.7143C22.9767 20.1429 24 19.1195 24 17.8571V5.28571C24 4.02335 22.9767 3 21.7143 3Z" fill="white"/>
<path fill-rule="evenodd" clip-rule="evenodd" d="M0 13.2857H24V20.1428H0V13.2857Z" fill="#00963F"/>
<path fill-rule="evenodd" clip-rule="evenodd" d="M0 3H24V9.85714H0V3Z" fill="#D4062E"/>
<path fill-rule="evenodd" clip-rule="evenodd" d="M10.5234 13.2857L2.28571 20.1806H0V3H2.28571L10.5143 9.85714H24V13.2857H10.5234Z" fill="black"/>
<path fill-rule="evenodd" clip-rule="evenodd" d="M10.1714 12.1429L0.571429 20.1429L0 20.1806V3H0.571429L10.1714 11H24V12.1429H10.1714Z" fill="#FECF00"/>
<path fill-rule="evenodd" clip-rule="evenodd" d="M0 4.14285L9.14286 11.5714L0 19V4.14285Z" fill="black"/>
<path fill-rule="evenodd" clip-rule="evenodd" d="M1.88915 13.6823C1.432 13.16 1.14286 12.408 1.14286 11.5714C1.14286 9.99429 2.16572 8.71429 3.42857 8.71429C4.69143 8.71429 5.71429 9.99429 5.71429 11.5714C5.71429 13.1486 4.69143 14.4286 3.42857 14.4286V13.2857C4.05943 13.2857 4.57143 12.5177 4.57143 11.5714C4.57143 10.6252 4.05943 9.85715 3.42857 9.85715C2.79772 9.85715 2.28572 10.6252 2.28572 11.5714C2.28572 12.0972 2.44343 12.5657 2.69029 12.8812L1.89029 13.6812L1.88915 13.6823Z" fill="#FECF00"/>
<path d="M21.7143 3.57144H2.28571C1.33894 3.57144 0.571426 4.33895 0.571426 5.28573V17.8572C0.571426 18.8039 1.33894 19.5714 2.28571 19.5714H21.7143C22.6611 19.5714 23.4286 18.8039 23.4286 17.8572V5.28573C23.4286 4.33895 22.6611 3.57144 21.7143 3.57144Z" stroke="black" stroke-opacity="0.1"/>
</g>
</svg>
