<svg width="24" height="24" viewBox="0 0 24 24" fill="none" xmlns="http://www.w3.org/2000/svg">
<mask id="mask0_3349_51998" style="mask-type:alpha" maskUnits="userSpaceOnUse" x="0" y="3" width="24" height="18">
<path d="M21.7143 3H2.28571C1.02335 3 0 4.02335 0 5.28571V17.8571C0 19.1195 1.02335 20.1429 2.28571 20.1429H21.7143C22.9767 20.1429 24 19.1195 24 17.8571V5.28571C24 4.02335 22.9767 3 21.7143 3Z" fill="white"/>
</mask>
<g mask="url(#mask0_3349_51998)">
<path d="M21.7143 3H2.28571C1.02335 3 0 4.02335 0 5.28571V17.8571C0 19.1195 1.02335 20.1429 2.28571 20.1429H21.7143C22.9767 20.1429 24 19.1195 24 17.8571V5.28571C24 4.02335 22.9767 3 21.7143 3Z" fill="white"/>
<path fill-rule="evenodd" clip-rule="evenodd" d="M0 14.4286H24V20.1428H0V14.4286Z" fill="#02269F"/>
<path fill-rule="evenodd" clip-rule="evenodd" d="M0 3H24V8.71429H0V3Z" fill="#E24038"/>
<path fill-rule="evenodd" clip-rule="evenodd" d="M9.15771 14.4286L2.28571 20.1806H0V3H2.28571L9.14286 8.71429H24V14.4286H9.15771Z" fill="white"/>
<path fill-rule="evenodd" clip-rule="evenodd" d="M8.8 13.2857L0.571429 20.1429L0 20.1806V3H0.571429L8.8 9.85714H24V13.2857H8.8Z" fill="#008557"/>
<path fill-rule="evenodd" clip-rule="evenodd" d="M0 6.42856L6.85714 11.5714L0 16.7143V6.42856Z" fill="#FFBE0F"/>
<path fill-rule="evenodd" clip-rule="evenodd" d="M0 7.57144L5.42857 11.5714L0 15.5714V7.57144Z" fill="black"/>
<path d="M21.7143 3.57144H2.28571C1.33894 3.57144 0.571426 4.33895 0.571426 5.28573V17.8572C0.571426 18.8039 1.33894 19.5714 2.28571 19.5714H21.7143C22.6611 19.5714 23.4286 18.8039 23.4286 17.8572V5.28573C23.4286 4.33895 22.6611 3.57144 21.7143 3.57144Z" stroke="black" stroke-opacity="0.1"/>
</g>
</svg>
