<svg width="24" height="24" viewBox="0 0 24 24" fill="none" xmlns="http://www.w3.org/2000/svg">
<mask id="mask0_3349_52018" style="mask-type:alpha" maskUnits="userSpaceOnUse" x="0" y="3" width="24" height="18">
<path d="M21.7143 3H2.28571C1.02335 3 0 4.02335 0 5.28571V17.8571C0 19.1195 1.02335 20.1429 2.28571 20.1429H21.7143C22.9767 20.1429 24 19.1195 24 17.8571V5.28571C24 4.02335 22.9767 3 21.7143 3Z" fill="white"/>
</mask>
<g mask="url(#mask0_3349_52018)">
<path d="M21.7143 3H2.28571C1.02335 3 0 4.02335 0 5.28571V17.8571C0 19.1195 1.02335 20.1429 2.28571 20.1429H21.7143C22.9767 20.1429 24 19.1195 24 17.8571V5.28571C24 4.02335 22.9767 3 21.7143 3Z" fill="#2B9300"/>
<path fill-rule="evenodd" clip-rule="evenodd" d="M0 5.28571H24V17.8571H0V5.28571Z" fill="#FFD300"/>
<path fill-rule="evenodd" clip-rule="evenodd" d="M0 7.57144H24V15.5714H0V7.57144Z" fill="#E11C00"/>
<path fill-rule="evenodd" clip-rule="evenodd" d="M0 9.85715H24V13.2857H0V9.85715Z" fill="black"/>
<path fill-rule="evenodd" clip-rule="evenodd" d="M1.14286 3L13.7143 11.5714L1.14286 20.1429H0V3" fill="black"/>
<path fill-rule="evenodd" clip-rule="evenodd" d="M0 3L12.5714 11.5714L0 20.1429V3Z" fill="white"/>
<path fill-rule="evenodd" clip-rule="evenodd" d="M5.14285 13L3.46285 13.8834L3.78285 12.0126L2.42514 10.6869L4.30285 10.416L5.14285 8.71429L5.98286 10.4172L7.86057 10.688L6.50057 12.0137L6.82057 13.8834" fill="#E11C00"/>
<path fill-rule="evenodd" clip-rule="evenodd" d="M3.42857 13.2857H6.85715V12.1429L5.71429 11C5.71429 11 5.71429 9.85715 4.57143 9.85715H3.42857L4.57143 11L3.42857 13.2857Z" fill="#FFC700"/>
<path d="M21.7143 3.57144H2.28571C1.33894 3.57144 0.571426 4.33895 0.571426 5.28573V17.8572C0.571426 18.8039 1.33894 19.5714 2.28571 19.5714H21.7143C22.6611 19.5714 23.4286 18.8039 23.4286 17.8572V5.28573C23.4286 4.33895 22.6611 3.57144 21.7143 3.57144Z" stroke="black" stroke-opacity="0.1"/>
</g>
</svg>
